<?xml version="1.0" encoding="UTF-8" standalone="no"?>
<!DOCTYPE svg PUBLIC "-//W3C//DTD SVG 1.1//EN"
 "http://www.w3.org/Graphics/SVG/1.1/DTD/svg11.dtd">
<!-- Generated by graphviz version 2.43.20190912.0211 (20190912.0211)
 -->
<!-- Title: dependency&#45;cruiser output Pages: 1 -->
<svg width="484pt" height="708pt"
 viewBox="0.00 0.00 484.00 708.00" xmlns="http://www.w3.org/2000/svg" xmlns:xlink="http://www.w3.org/1999/xlink">
<g id="graph0" class="graph" transform="scale(1 1) rotate(0) translate(4 704)">
<title>dependency&#45;cruiser output</title>
<polygon fill="white" stroke="transparent" points="-4,4 -4,-704 480,-704 480,4 -4,4"/>
<g id="clust1" class="cluster">
<title>cluster_src</title>
<path fill="#ffffff" stroke="black" stroke-width="2" d="M20,-26C20,-26 456,-26 456,-26 462,-26 468,-32 468,-38 468,-38 468,-680 468,-680 468,-686 462,-692 456,-692 456,-692 20,-692 20,-692 14,-692 8,-686 8,-680 8,-680 8,-38 8,-38 8,-32 14,-26 20,-26"/>
<text text-anchor="middle" x="238" y="-680.8" font-family="Helvetica,sans-Serif" font-weight="bold" font-size="9.00">src</text>
</g>
<g id="clust2" class="cluster">
<title>cluster_src/transformers</title>
<path fill="#ffffff" stroke="black" stroke-width="2" d="M90,-74C90,-74 445.5,-74 445.5,-74 451.5,-74 457.5,-80 457.5,-86 457.5,-86 457.5,-654 457.5,-654 457.5,-660 451.5,-666 445.5,-666 445.5,-666 90,-666 90,-666 84,-666 78,-660 78,-654 78,-654 78,-86 78,-86 78,-80 84,-74 90,-74"/>
<text text-anchor="middle" x="267.75" y="-654.8" font-family="Helvetica,sans-Serif" font-weight="bold" font-size="9.00">transformers</text>
</g>
<!-- assert -->
<g id="node1" class="node">
<title>assert</title>
<path fill="#ffffcc" stroke="grey" d="M165,-18C165,-18 123,-18 123,-18 120,-18 117,-15 117,-12 117,-12 117,-6 117,-6 117,-3 120,0 123,0 123,0 165,0 165,0 168,0 171,-3 171,-6 171,-6 171,-12 171,-12 171,-15 168,-18 165,-18"/>
<text text-anchor="middle" x="144" y="-6.8" font-family="Helvetica,sans-Serif" font-size="9.00" fill="grey">assert</text>
</g>
<!-- src/block&#45;map.ts -->
<g id="node2" class="node">
<title>src/block&#45;map.ts</title>
<g id="a_node2"><a xlink:href="https://github.com/dragonman225/nast-util-from-notionapi/tree/master/src/block-map.ts" xlink:title="block&#45;map.ts">
<path fill="#ddfeff" stroke="black" d="M454,-66C454,-66 391,-66 391,-66 388,-66 385,-63 385,-60 385,-60 385,-54 385,-54 385,-51 388,-48 391,-48 391,-48 454,-48 454,-48 457,-48 460,-51 460,-54 460,-54 460,-60 460,-60 460,-63 457,-66 454,-66"/>
<text text-anchor="middle" x="422.5" y="-54.8" font-family="Helvetica,sans-Serif" font-size="9.00">block&#45;map.ts</text>
</a>
</g>
</g>
<!-- src/index.ts -->
<g id="node3" class="node">
<title>src/index.ts</title>
<g id="a_node3"><a xlink:href="https://github.com/dragonman225/nast-util-from-notionapi/tree/master/src/index.ts" xlink:title="index.ts">
<path fill="#ddfeff" stroke="black" d="M64,-59C64,-59 22,-59 22,-59 19,-59 16,-56 16,-53 16,-53 16,-47 16,-47 16,-44 19,-41 22,-41 22,-41 64,-41 64,-41 67,-41 70,-44 70,-47 70,-47 70,-53 70,-53 70,-56 67,-59 64,-59"/>
<text text-anchor="middle" x="43" y="-47.8" font-family="Helvetica,sans-Serif" font-size="9.00">index.ts</text>
</a>
</g>
</g>
<!-- src/index.ts&#45;&gt;assert -->
<g id="edge2" class="edge">
<title>src/index.ts&#45;&gt;assert</title>
<path fill="none" stroke="grey" d="M53.02,-40.91C59.45,-34.94 68.6,-27.45 78,-23 86.89,-18.8 97.06,-15.84 106.68,-13.77"/>
<polygon fill="grey" stroke="grey" points="107.63,-17.15 116.8,-11.85 106.33,-10.27 107.63,-17.15"/>
</g>
<!-- src/transformBlock.ts -->
<g id="node4" class="node">
<title>src/transformBlock.ts</title>
<g id="a_node4"><a xlink:href="https://github.com/dragonman225/nast-util-from-notionapi/tree/master/src/transformBlock.ts" xlink:title="transformBlock.ts">
<path fill="#ddfeff" stroke="black" d="M186,-66C186,-66 102,-66 102,-66 99,-66 96,-63 96,-60 96,-60 96,-54 96,-54 96,-51 99,-48 102,-48 102,-48 186,-48 186,-48 189,-48 192,-51 192,-54 192,-54 192,-60 192,-60 192,-63 189,-66 186,-66"/>
<text text-anchor="middle" x="144" y="-54.8" font-family="Helvetica,sans-Serif" font-size="9.00">transformBlock.ts</text>
</a>
</g>
</g>
<!-- src/index.ts&#45;&gt;src/transformBlock.ts -->
<g id="edge1" class="edge">
<title>src/index.ts&#45;&gt;src/transformBlock.ts</title>
<path fill="none" stroke="#000000" stroke-width="2" stroke-opacity="0.200000" d="M70.01,-51.84C74.83,-52.18 80.03,-52.55 85.37,-52.92"/>
<polygon fill="#000000" fill-opacity="0.200000" stroke="#000000" stroke-width="2" stroke-opacity="0.200000" points="85.49,-56.44 95.72,-53.66 85.99,-49.46 85.49,-56.44"/>
</g>
<!-- src/transformBlock.ts&#45;&gt;src/block&#45;map.ts -->
<g id="edge3" class="edge">
<title>src/transformBlock.ts&#45;&gt;src/block&#45;map.ts</title>
<path fill="none" stroke="#000000" stroke-width="2" stroke-opacity="0.200000" d="M192.07,-57.76C199.73,-57.86 207.59,-57.95 215,-58 284.78,-58.5 302.23,-58.7 372,-58 372.9,-57.99 373.81,-57.98 374.73,-57.97"/>
<polygon fill="#000000" fill-opacity="0.200000" stroke="#000000" stroke-width="2" stroke-opacity="0.200000" points="374.79,-61.47 384.74,-57.83 374.69,-54.47 374.79,-61.47"/>
</g>
<!-- src/transformers/transformAudio.ts -->
<g id="node5" class="node">
<title>src/transformers/transformAudio.ts</title>
<g id="a_node5"><a xlink:href="https://github.com/dragonman225/nast-util-from-notionapi/tree/master/src/transformers/transformAudio.ts" xlink:title="transformAudio.ts">
<path fill="#ddfeff" stroke="black" d="M336.5,-610C336.5,-610 250.5,-610 250.5,-610 247.5,-610 244.5,-607 244.5,-604 244.5,-604 244.5,-598 244.5,-598 244.5,-595 247.5,-592 250.5,-592 250.5,-592 336.5,-592 336.5,-592 339.5,-592 342.5,-595 342.5,-598 342.5,-598 342.5,-604 342.5,-604 342.5,-607 339.5,-610 336.5,-610"/>
<text text-anchor="middle" x="293.5" y="-598.8" font-family="Helvetica,sans-Serif" font-size="9.00">transformAudio.ts</text>
</a>
</g>
</g>
<!-- src/transformBlock.ts&#45;&gt;src/transformers/transformAudio.ts -->
<g id="edge4" class="edge">
<title>src/transformBlock.ts&#45;&gt;src/transformers/transformAudio.ts</title>
<path fill="none" stroke="#000000" stroke-width="2" stroke-opacity="0.200000" d="M192.01,-62.86C195.82,-64.92 199.25,-67.59 202,-71 237.89,-115.6 178.02,-542.31 215,-586 220.17,-592.1 227.01,-596.21 234.49,-598.9"/>
<polygon fill="#000000" fill-opacity="0.200000" stroke="#000000" stroke-width="2" stroke-opacity="0.200000" points="233.65,-602.3 244.23,-601.6 235.53,-595.56 233.65,-602.3"/>
</g>
<!-- src/transformers/transformBookmark.ts -->
<g id="node6" class="node">
<title>src/transformers/transformBookmark.ts</title>
<g id="a_node6"><a xlink:href="https://github.com/dragonman225/nast-util-from-notionapi/tree/master/src/transformers/transformBookmark.ts" xlink:title="transformBookmark.ts">
<path fill="#ddfeff" stroke="black" d="M346,-580C346,-580 241,-580 241,-580 238,-580 235,-577 235,-574 235,-574 235,-568 235,-568 235,-565 238,-562 241,-562 241,-562 346,-562 346,-562 349,-562 352,-565 352,-568 352,-568 352,-574 352,-574 352,-577 349,-580 346,-580"/>
<text text-anchor="middle" x="293.5" y="-568.8" font-family="Helvetica,sans-Serif" font-size="9.00">transformBookmark.ts</text>
</a>
</g>
</g>
<!-- src/transformBlock.ts&#45;&gt;src/transformers/transformBookmark.ts -->
<g id="edge5" class="edge">
<title>src/transformBlock.ts&#45;&gt;src/transformers/transformBookmark.ts</title>
<path fill="none" stroke="#000000" stroke-width="2" stroke-opacity="0.200000" d="M192.01,-62.86C195.82,-64.93 199.25,-67.59 202,-71 235.83,-112.97 180.14,-514.88 215,-556 218.02,-559.57 221.62,-562.45 225.57,-564.76"/>
<polygon fill="#000000" fill-opacity="0.200000" stroke="#000000" stroke-width="2" stroke-opacity="0.200000" points="224.19,-567.98 234.74,-568.98 227.12,-561.62 224.19,-567.98"/>
</g>
<!-- src/transformers/transformBulletedListItem.ts -->
<g id="node7" class="node">
<title>src/transformers/transformBulletedListItem.ts</title>
<g id="a_node7"><a xlink:href="https://github.com/dragonman225/nast-util-from-notionapi/tree/master/src/transformers/transformBulletedListItem.ts" xlink:title="transformBulletedListItem.ts">
<path fill="#ddfeff" stroke="black" d="M360.5,-550C360.5,-550 226.5,-550 226.5,-550 223.5,-550 220.5,-547 220.5,-544 220.5,-544 220.5,-538 220.5,-538 220.5,-535 223.5,-532 226.5,-532 226.5,-532 360.5,-532 360.5,-532 363.5,-532 366.5,-535 366.5,-538 366.5,-538 366.5,-544 366.5,-544 366.5,-547 363.5,-550 360.5,-550"/>
<text text-anchor="middle" x="293.5" y="-538.8" font-family="Helvetica,sans-Serif" font-size="9.00">transformBulletedListItem.ts</text>
</a>
</g>
</g>
<!-- src/transformBlock.ts&#45;&gt;src/transformers/transformBulletedListItem.ts -->
<g id="edge6" class="edge">
<title>src/transformBlock.ts&#45;&gt;src/transformers/transformBulletedListItem.ts</title>
<path fill="none" stroke="#000000" stroke-width="2" stroke-opacity="0.200000" d="M192.26,-63.01C195.97,-65.06 199.31,-67.67 202,-71 232.22,-108.43 187.09,-451.43 216.11,-523.03"/>
<polygon fill="#000000" fill-opacity="0.200000" stroke="#000000" stroke-width="2" stroke-opacity="0.200000" points="213.16,-524.92 221.19,-531.83 219.23,-521.42 213.16,-524.92"/>
</g>
<!-- src/transformers/transformCallout.ts -->
<g id="node8" class="node">
<title>src/transformers/transformCallout.ts</title>
<g id="a_node8"><a xlink:href="https://github.com/dragonman225/nast-util-from-notionapi/tree/master/src/transformers/transformCallout.ts" xlink:title="transformCallout.ts">
<path fill="#ddfeff" stroke="black" d="M339,-520C339,-520 248,-520 248,-520 245,-520 242,-517 242,-514 242,-514 242,-508 242,-508 242,-505 245,-502 248,-502 248,-502 339,-502 339,-502 342,-502 345,-505 345,-508 345,-508 345,-514 345,-514 345,-517 342,-520 339,-520"/>
<text text-anchor="middle" x="293.5" y="-508.8" font-family="Helvetica,sans-Serif" font-size="9.00">transformCallout.ts</text>
</a>
</g>
</g>
<!-- src/transformBlock.ts&#45;&gt;src/transformers/transformCallout.ts -->
<g id="edge7" class="edge">
<title>src/transformBlock.ts&#45;&gt;src/transformers/transformCallout.ts</title>
<path fill="none" stroke="#000000" stroke-width="2" stroke-opacity="0.200000" d="M192.26,-63.02C195.97,-65.06 199.31,-67.67 202,-71 231.72,-107.73 184.38,-460.02 215,-496 219.6,-501.4 225.5,-505.23 231.99,-507.9"/>
<polygon fill="#000000" fill-opacity="0.200000" stroke="#000000" stroke-width="2" stroke-opacity="0.200000" points="231.26,-511.34 241.85,-511.04 233.38,-504.67 231.26,-511.34"/>
</g>
<!-- src/transformers/transformCode.ts -->
<g id="node9" class="node">
<title>src/transformers/transformCode.ts</title>
<g id="a_node9"><a xlink:href="https://github.com/dragonman225/nast-util-from-notionapi/tree/master/src/transformers/transformCode.ts" xlink:title="transformCode.ts">
<path fill="#ddfeff" stroke="black" d="M335,-490C335,-490 252,-490 252,-490 249,-490 246,-487 246,-484 246,-484 246,-478 246,-478 246,-475 249,-472 252,-472 252,-472 335,-472 335,-472 338,-472 341,-475 341,-478 341,-478 341,-484 341,-484 341,-487 338,-490 335,-490"/>
<text text-anchor="middle" x="293.5" y="-478.8" font-family="Helvetica,sans-Serif" font-size="9.00">transformCode.ts</text>
</a>
</g>
</g>
<!-- src/transformBlock.ts&#45;&gt;src/transformers/transformCode.ts -->
<g id="edge8" class="edge">
<title>src/transformBlock.ts&#45;&gt;src/transformers/transformCode.ts</title>
<path fill="none" stroke="#000000" stroke-width="2" stroke-opacity="0.200000" d="M192.25,-63.02C195.96,-65.07 199.3,-67.68 202,-71 229.66,-105.11 186.5,-432.59 215,-466 220.56,-472.52 228.03,-476.75 236.14,-479.42"/>
<polygon fill="#000000" fill-opacity="0.200000" stroke="#000000" stroke-width="2" stroke-opacity="0.200000" points="235.33,-482.82 245.89,-481.88 237.05,-476.04 235.33,-482.82"/>
</g>
<!-- src/transformers/transformCollection.ts -->
<g id="node10" class="node">
<title>src/transformers/transformCollection.ts</title>
<g id="a_node10"><a xlink:href="https://github.com/dragonman225/nast-util-from-notionapi/tree/master/src/transformers/transformCollection.ts" xlink:title="transformCollection.ts">
<path fill="#ddfeff" stroke="black" d="M196,-370C196,-370 92,-370 92,-370 89,-370 86,-367 86,-364 86,-364 86,-358 86,-358 86,-355 89,-352 92,-352 92,-352 196,-352 196,-352 199,-352 202,-355 202,-358 202,-358 202,-364 202,-364 202,-367 199,-370 196,-370"/>
<text text-anchor="middle" x="144" y="-358.8" font-family="Helvetica,sans-Serif" font-size="9.00">transformCollection.ts</text>
</a>
</g>
</g>
<!-- src/transformBlock.ts&#45;&gt;src/transformers/transformCollection.ts -->
<g id="edge9" class="edge">
<title>src/transformBlock.ts&#45;&gt;src/transformers/transformCollection.ts</title>
<path fill="none" stroke="#000000" stroke-width="2" stroke-opacity="0.200000" d="M144,-66.2C144,-158.05 144,-249.9 144,-341.75"/>
<polygon fill="#000000" fill-opacity="0.200000" stroke="#000000" stroke-width="2" stroke-opacity="0.200000" points="140.5,-341.79 144,-351.79 147.5,-341.79 140.5,-341.79"/>
</g>
<!-- src/transformers/transformColumn.ts -->
<g id="node11" class="node">
<title>src/transformers/transformColumn.ts</title>
<g id="a_node11"><a xlink:href="https://github.com/dragonman225/nast-util-from-notionapi/tree/master/src/transformers/transformColumn.ts" xlink:title="transformColumn.ts">
<path fill="#ddfeff" stroke="black" d="M341,-430C341,-430 246,-430 246,-430 243,-430 240,-427 240,-424 240,-424 240,-418 240,-418 240,-415 243,-412 246,-412 246,-412 341,-412 341,-412 344,-412 347,-415 347,-418 347,-418 347,-424 347,-424 347,-427 344,-430 341,-430"/>
<text text-anchor="middle" x="293.5" y="-418.8" font-family="Helvetica,sans-Serif" font-size="9.00">transformColumn.ts</text>
</a>
</g>
</g>
<!-- src/transformBlock.ts&#45;&gt;src/transformers/transformColumn.ts -->
<g id="edge10" class="edge">
<title>src/transformBlock.ts&#45;&gt;src/transformers/transformColumn.ts</title>
<path fill="none" stroke="#000000" stroke-width="2" stroke-opacity="0.200000" d="M192.23,-63.04C195.94,-65.08 199.29,-67.68 202,-71 225.55,-99.86 190.74,-377.73 215,-406 219.22,-410.91 224.52,-414.53 230.36,-417.15"/>
<polygon fill="#000000" fill-opacity="0.200000" stroke="#000000" stroke-width="2" stroke-opacity="0.200000" points="229.31,-420.49 239.9,-420.5 231.63,-413.88 229.31,-420.49"/>
</g>
<!-- src/transformers/transformColumnList.ts -->
<g id="node12" class="node">
<title>src/transformers/transformColumnList.ts</title>
<g id="a_node12"><a xlink:href="https://github.com/dragonman225/nast-util-from-notionapi/tree/master/src/transformers/transformColumnList.ts" xlink:title="transformColumnList.ts">
<path fill="#ddfeff" stroke="black" d="M348.5,-400C348.5,-400 238.5,-400 238.5,-400 235.5,-400 232.5,-397 232.5,-394 232.5,-394 232.5,-388 232.5,-388 232.5,-385 235.5,-382 238.5,-382 238.5,-382 348.5,-382 348.5,-382 351.5,-382 354.5,-385 354.5,-388 354.5,-388 354.5,-394 354.5,-394 354.5,-397 351.5,-400 348.5,-400"/>
<text text-anchor="middle" x="293.5" y="-388.8" font-family="Helvetica,sans-Serif" font-size="9.00">transformColumnList.ts</text>
</a>
</g>
</g>
<!-- src/transformBlock.ts&#45;&gt;src/transformers/transformColumnList.ts -->
<g id="edge11" class="edge">
<title>src/transformBlock.ts&#45;&gt;src/transformers/transformColumnList.ts</title>
<path fill="none" stroke="#000000" stroke-width="2" stroke-opacity="0.200000" d="M192.22,-63.05C195.93,-65.09 199.29,-67.69 202,-71 223.49,-97.24 192.86,-350.3 215,-376 217.4,-378.78 220.14,-381.15 223.14,-383.15"/>
<polygon fill="#000000" fill-opacity="0.200000" stroke="#000000" stroke-width="2" stroke-opacity="0.200000" points="221.67,-386.34 232.15,-387.89 224.93,-380.14 221.67,-386.34"/>
</g>
<!-- src/transformers/transformDivider.ts -->
<g id="node13" class="node">
<title>src/transformers/transformDivider.ts</title>
<g id="a_node13"><a xlink:href="https://github.com/dragonman225/nast-util-from-notionapi/tree/master/src/transformers/transformDivider.ts" xlink:title="transformDivider.ts">
<path fill="#ddfeff" stroke="black" d="M338.5,-370C338.5,-370 248.5,-370 248.5,-370 245.5,-370 242.5,-367 242.5,-364 242.5,-364 242.5,-358 242.5,-358 242.5,-355 245.5,-352 248.5,-352 248.5,-352 338.5,-352 338.5,-352 341.5,-352 344.5,-355 344.5,-358 344.5,-358 344.5,-364 344.5,-364 344.5,-367 341.5,-370 338.5,-370"/>
<text text-anchor="middle" x="293.5" y="-358.8" font-family="Helvetica,sans-Serif" font-size="9.00">transformDivider.ts</text>
</a>
</g>
</g>
<!-- src/transformBlock.ts&#45;&gt;src/transformers/transformDivider.ts -->
<g id="edge12" class="edge">
<title>src/transformBlock.ts&#45;&gt;src/transformers/transformDivider.ts</title>
<path fill="none" stroke="#000000" stroke-width="2" stroke-opacity="0.200000" d="M192.2,-63.07C195.92,-65.1 199.28,-67.7 202,-71 221.44,-94.62 194.98,-322.87 215,-346 219.7,-351.43 225.72,-355.27 232.33,-357.93"/>
<polygon fill="#000000" fill-opacity="0.200000" stroke="#000000" stroke-width="2" stroke-opacity="0.200000" points="231.76,-361.42 242.35,-361.05 233.84,-354.74 231.76,-361.42"/>
</g>
<!-- src/transformers/transformEmbed.ts -->
<g id="node14" class="node">
<title>src/transformers/transformEmbed.ts</title>
<g id="a_node14"><a xlink:href="https://github.com/dragonman225/nast-util-from-notionapi/tree/master/src/transformers/transformEmbed.ts" xlink:title="transformEmbed.ts">
<path fill="#ddfeff" stroke="black" d="M339.5,-340C339.5,-340 247.5,-340 247.5,-340 244.5,-340 241.5,-337 241.5,-334 241.5,-334 241.5,-328 241.5,-328 241.5,-325 244.5,-322 247.5,-322 247.5,-322 339.5,-322 339.5,-322 342.5,-322 345.5,-325 345.5,-328 345.5,-328 345.5,-334 345.5,-334 345.5,-337 342.5,-340 339.5,-340"/>
<text text-anchor="middle" x="293.5" y="-328.8" font-family="Helvetica,sans-Serif" font-size="9.00">transformEmbed.ts</text>
</a>
</g>
</g>
<!-- src/transformBlock.ts&#45;&gt;src/transformers/transformEmbed.ts -->
<g id="edge13" class="edge">
<title>src/transformBlock.ts&#45;&gt;src/transformers/transformEmbed.ts</title>
<path fill="none" stroke="#000000" stroke-width="2" stroke-opacity="0.200000" d="M192.18,-63.08C195.9,-65.11 199.27,-67.7 202,-71 236.77,-113 179.2,-274.88 215,-316 219.53,-321.21 225.29,-324.95 231.6,-327.59"/>
<polygon fill="#000000" fill-opacity="0.200000" stroke="#000000" stroke-width="2" stroke-opacity="0.200000" points="230.59,-330.95 241.18,-330.73 232.77,-324.29 230.59,-330.95"/>
</g>
<!-- src/transformers/transformEquation.ts -->
<g id="node15" class="node">
<title>src/transformers/transformEquation.ts</title>
<g id="a_node15"><a xlink:href="https://github.com/dragonman225/nast-util-from-notionapi/tree/master/src/transformers/transformEquation.ts" xlink:title="transformEquation.ts">
<path fill="#ddfeff" stroke="black" d="M344,-310C344,-310 243,-310 243,-310 240,-310 237,-307 237,-304 237,-304 237,-298 237,-298 237,-295 240,-292 243,-292 243,-292 344,-292 344,-292 347,-292 350,-295 350,-298 350,-298 350,-304 350,-304 350,-307 347,-310 344,-310"/>
<text text-anchor="middle" x="293.5" y="-298.8" font-family="Helvetica,sans-Serif" font-size="9.00">transformEquation.ts</text>
</a>
</g>
</g>
<!-- src/transformBlock.ts&#45;&gt;src/transformers/transformEquation.ts -->
<g id="edge14" class="edge">
<title>src/transformBlock.ts&#45;&gt;src/transformers/transformEquation.ts</title>
<path fill="none" stroke="#000000" stroke-width="2" stroke-opacity="0.200000" d="M192.15,-63.1C195.88,-65.13 199.26,-67.71 202,-71 232.66,-107.76 183.44,-250.01 215,-286 218.52,-290.02 222.77,-293.16 227.44,-295.6"/>
<polygon fill="#000000" fill-opacity="0.200000" stroke="#000000" stroke-width="2" stroke-opacity="0.200000" points="226.29,-298.91 236.87,-299.47 228.95,-292.43 226.29,-298.91"/>
</g>
<!-- src/transformers/transformHeading.ts -->
<g id="node16" class="node">
<title>src/transformers/transformHeading.ts</title>
<g id="a_node16"><a xlink:href="https://github.com/dragonman225/nast-util-from-notionapi/tree/master/src/transformers/transformHeading.ts" xlink:title="transformHeading.ts">
<path fill="#ddfeff" stroke="black" d="M342.5,-100C342.5,-100 244.5,-100 244.5,-100 241.5,-100 238.5,-97 238.5,-94 238.5,-94 238.5,-88 238.5,-88 238.5,-85 241.5,-82 244.5,-82 244.5,-82 342.5,-82 342.5,-82 345.5,-82 348.5,-85 348.5,-88 348.5,-88 348.5,-94 348.5,-94 348.5,-97 345.5,-100 342.5,-100"/>
<text text-anchor="middle" x="293.5" y="-88.8" font-family="Helvetica,sans-Serif" font-size="9.00">transformHeading.ts</text>
</a>
</g>
</g>
<!-- src/transformBlock.ts&#45;&gt;src/transformers/transformHeading.ts -->
<g id="edge15" class="edge">
<title>src/transformBlock.ts&#45;&gt;src/transformers/transformHeading.ts</title>
<path fill="none" stroke="#000000" stroke-width="2" stroke-opacity="0.200000" d="M187.09,-66.05C192.17,-67.52 197.25,-69.17 202,-71 208.12,-73.36 208.79,-75.87 215,-78 219.25,-79.46 223.7,-80.75 228.21,-81.91"/>
<polygon fill="#000000" fill-opacity="0.200000" stroke="#000000" stroke-width="2" stroke-opacity="0.200000" points="227.62,-85.37 238.15,-84.22 229.2,-78.55 227.62,-85.37"/>
</g>
<!-- src/transformers/transformImage.ts -->
<g id="node17" class="node">
<title>src/transformers/transformImage.ts</title>
<g id="a_node17"><a xlink:href="https://github.com/dragonman225/nast-util-from-notionapi/tree/master/src/transformers/transformImage.ts" xlink:title="transformImage.ts">
<path fill="#ddfeff" stroke="black" d="M338,-280C338,-280 249,-280 249,-280 246,-280 243,-277 243,-274 243,-274 243,-268 243,-268 243,-265 246,-262 249,-262 249,-262 338,-262 338,-262 341,-262 344,-265 344,-268 344,-268 344,-274 344,-274 344,-277 341,-280 338,-280"/>
<text text-anchor="middle" x="293.5" y="-268.8" font-family="Helvetica,sans-Serif" font-size="9.00">transformImage.ts</text>
</a>
</g>
</g>
<!-- src/transformBlock.ts&#45;&gt;src/transformers/transformImage.ts -->
<g id="edge16" class="edge">
<title>src/transformBlock.ts&#45;&gt;src/transformers/transformImage.ts</title>
<path fill="none" stroke="#000000" stroke-width="2" stroke-opacity="0.200000" d="M192.12,-63.13C195.86,-65.15 199.24,-67.73 202,-71 228.55,-102.52 187.67,-225.15 215,-256 219.94,-261.57 226.26,-265.45 233.17,-268.11"/>
<polygon fill="#000000" fill-opacity="0.200000" stroke="#000000" stroke-width="2" stroke-opacity="0.200000" points="232.3,-271.5 242.88,-271.03 234.31,-264.8 232.3,-271.5"/>
</g>
<!-- src/transformers/transformNumberedListItem.ts -->
<g id="node18" class="node">
<title>src/transformers/transformNumberedListItem.ts</title>
<g id="a_node18"><a xlink:href="https://github.com/dragonman225/nast-util-from-notionapi/tree/master/src/transformers/transformNumberedListItem.ts" xlink:title="transformNumberedListItem.ts">
<path fill="#ddfeff" stroke="black" d="M366,-250C366,-250 221,-250 221,-250 218,-250 215,-247 215,-244 215,-244 215,-238 215,-238 215,-235 218,-232 221,-232 221,-232 366,-232 366,-232 369,-232 372,-235 372,-238 372,-238 372,-244 372,-244 372,-247 369,-250 366,-250"/>
<text text-anchor="middle" x="293.5" y="-238.8" font-family="Helvetica,sans-Serif" font-size="9.00">transformNumberedListItem.ts</text>
</a>
</g>
</g>
<!-- src/transformBlock.ts&#45;&gt;src/transformers/transformNumberedListItem.ts -->
<g id="edge17" class="edge">
<title>src/transformBlock.ts&#45;&gt;src/transformers/transformNumberedListItem.ts</title>
<path fill="none" stroke="#000000" stroke-width="2" stroke-opacity="0.200000" d="M192.07,-63.17C195.82,-65.18 199.22,-67.75 202,-71 222.69,-95.23 196.66,-184.66 215.78,-223.28"/>
<polygon fill="#000000" fill-opacity="0.200000" stroke="#000000" stroke-width="2" stroke-opacity="0.200000" points="213.15,-225.64 221.67,-231.94 218.93,-221.7 213.15,-225.64"/>
</g>
<!-- src/transformers/transformPage.ts -->
<g id="node19" class="node">
<title>src/transformers/transformPage.ts</title>
<g id="a_node19"><a xlink:href="https://github.com/dragonman225/nast-util-from-notionapi/tree/master/src/transformers/transformPage.ts" xlink:title="transformPage.ts">
<path fill="#ddfeff" stroke="black" d="M334.5,-640C334.5,-640 252.5,-640 252.5,-640 249.5,-640 246.5,-637 246.5,-634 246.5,-634 246.5,-628 246.5,-628 246.5,-625 249.5,-622 252.5,-622 252.5,-622 334.5,-622 334.5,-622 337.5,-622 340.5,-625 340.5,-628 340.5,-628 340.5,-634 340.5,-634 340.5,-637 337.5,-640 334.5,-640"/>
<text text-anchor="middle" x="293.5" y="-628.8" font-family="Helvetica,sans-Serif" font-size="9.00">transformPage.ts</text>
</a>
</g>
</g>
<!-- src/transformBlock.ts&#45;&gt;src/transformers/transformPage.ts -->
<g id="edge18" class="edge">
<title>src/transformBlock.ts&#45;&gt;src/transformers/transformPage.ts</title>
<path fill="none" stroke="#000000" stroke-width="2" stroke-opacity="0.200000" d="M192.02,-62.85C195.82,-64.92 199.26,-67.58 202,-71 220.97,-94.61 195.45,-592.87 215,-616 220.6,-622.62 228.16,-626.88 236.37,-629.55"/>
<polygon fill="#000000" fill-opacity="0.200000" stroke="#000000" stroke-width="2" stroke-opacity="0.200000" points="235.69,-632.99 246.24,-632 237.37,-626.2 235.69,-632.99"/>
</g>
<!-- src/transformers/transformQuote.ts -->
<g id="node20" class="node">
<title>src/transformers/transformQuote.ts</title>
<g id="a_node20"><a xlink:href="https://github.com/dragonman225/nast-util-from-notionapi/tree/master/src/transformers/transformQuote.ts" xlink:title="transformQuote.ts">
<path fill="#ddfeff" stroke="black" d="M337,-220C337,-220 250,-220 250,-220 247,-220 244,-217 244,-214 244,-214 244,-208 244,-208 244,-205 247,-202 250,-202 250,-202 337,-202 337,-202 340,-202 343,-205 343,-208 343,-208 343,-214 343,-214 343,-217 340,-220 337,-220"/>
<text text-anchor="middle" x="293.5" y="-208.8" font-family="Helvetica,sans-Serif" font-size="9.00">transformQuote.ts</text>
</a>
</g>
</g>
<!-- src/transformBlock.ts&#45;&gt;src/transformers/transformQuote.ts -->
<g id="edge19" class="edge">
<title>src/transformBlock.ts&#45;&gt;src/transformers/transformQuote.ts</title>
<path fill="none" stroke="#000000" stroke-width="2" stroke-opacity="0.200000" d="M192.01,-63.23C195.76,-65.23 199.19,-67.77 202,-71 238.7,-113.11 177.27,-154.81 215,-196 220.16,-201.63 226.73,-205.52 233.88,-208.16"/>
<polygon fill="#000000" fill-opacity="0.200000" stroke="#000000" stroke-width="2" stroke-opacity="0.200000" points="233.3,-211.63 243.88,-211.03 235.23,-204.91 233.3,-211.63"/>
</g>
<!-- src/transformers/transformStub.ts -->
<g id="node21" class="node">
<title>src/transformers/transformStub.ts</title>
<g id="a_node21"><a xlink:href="https://github.com/dragonman225/nast-util-from-notionapi/tree/master/src/transformers/transformStub.ts" xlink:title="transformStub.ts">
<path fill="#ddfeff" stroke="black" d="M334.5,-190C334.5,-190 252.5,-190 252.5,-190 249.5,-190 246.5,-187 246.5,-184 246.5,-184 246.5,-178 246.5,-178 246.5,-175 249.5,-172 252.5,-172 252.5,-172 334.5,-172 334.5,-172 337.5,-172 340.5,-175 340.5,-178 340.5,-178 340.5,-184 340.5,-184 340.5,-187 337.5,-190 334.5,-190"/>
<text text-anchor="middle" x="293.5" y="-178.8" font-family="Helvetica,sans-Serif" font-size="9.00">transformStub.ts</text>
</a>
</g>
</g>
<!-- src/transformBlock.ts&#45;&gt;src/transformers/transformStub.ts -->
<g id="edge20" class="edge">
<title>src/transformBlock.ts&#45;&gt;src/transformers/transformStub.ts</title>
<path fill="none" stroke="#000000" stroke-width="2" stroke-opacity="0.200000" d="M192.17,-63.47C195.84,-65.43 199.2,-67.9 202,-71 230.51,-102.67 185.71,-135.05 215,-166 220.89,-172.22 228.53,-176.3 236.71,-178.91"/>
<polygon fill="#000000" fill-opacity="0.200000" stroke="#000000" stroke-width="2" stroke-opacity="0.200000" points="235.93,-182.33 246.48,-181.34 237.62,-175.53 235.93,-182.33"/>
</g>
<!-- src/transformers/transformText.ts -->
<g id="node22" class="node">
<title>src/transformers/transformText.ts</title>
<g id="a_node22"><a xlink:href="https://github.com/dragonman225/nast-util-from-notionapi/tree/master/src/transformers/transformText.ts" xlink:title="transformText.ts">
<path fill="#ddfeff" stroke="black" d="M332.5,-160C332.5,-160 254.5,-160 254.5,-160 251.5,-160 248.5,-157 248.5,-154 248.5,-154 248.5,-148 248.5,-148 248.5,-145 251.5,-142 254.5,-142 254.5,-142 332.5,-142 332.5,-142 335.5,-142 338.5,-145 338.5,-148 338.5,-148 338.5,-154 338.5,-154 338.5,-157 335.5,-160 332.5,-160"/>
<text text-anchor="middle" x="293.5" y="-148.8" font-family="Helvetica,sans-Serif" font-size="9.00">transformText.ts</text>
</a>
</g>
</g>
<!-- src/transformBlock.ts&#45;&gt;src/transformers/transformText.ts -->
<g id="edge21" class="edge">
<title>src/transformBlock.ts&#45;&gt;src/transformers/transformText.ts</title>
<path fill="none" stroke="#000000" stroke-width="2" stroke-opacity="0.200000" d="M192.24,-63.79C195.85,-65.69 199.18,-68.06 202,-71 222.37,-92.28 194.1,-115.23 215,-136 221.43,-142.39 229.7,-146.48 238.45,-149.03"/>
<polygon fill="#000000" fill-opacity="0.200000" stroke="#000000" stroke-width="2" stroke-opacity="0.200000" points="237.91,-152.49 248.44,-151.29 239.46,-145.67 237.91,-152.49"/>
</g>
<!-- src/transformers/transformToDo.ts -->
<g id="node23" class="node">
<title>src/transformers/transformToDo.ts</title>
<g id="a_node23"><a xlink:href="https://github.com/dragonman225/nast-util-from-notionapi/tree/master/src/transformers/transformToDo.ts" xlink:title="transformToDo.ts">
<path fill="#ddfeff" stroke="black" d="M334,-130C334,-130 253,-130 253,-130 250,-130 247,-127 247,-124 247,-124 247,-118 247,-118 247,-115 250,-112 253,-112 253,-112 334,-112 334,-112 337,-112 340,-115 340,-118 340,-118 340,-124 340,-124 340,-127 337,-130 334,-130"/>
<text text-anchor="middle" x="293.5" y="-118.8" font-family="Helvetica,sans-Serif" font-size="9.00">transformToDo.ts</text>
</a>
</g>
</g>
<!-- src/transformBlock.ts&#45;&gt;src/transformers/transformToDo.ts -->
<g id="edge22" class="edge">
<title>src/transformBlock.ts&#45;&gt;src/transformers/transformToDo.ts</title>
<path fill="none" stroke="#000000" stroke-width="2" stroke-opacity="0.200000" d="M192.04,-64.42C195.65,-66.19 199.03,-68.36 202,-71 214.39,-82.04 202.34,-95.27 215,-106 221.32,-111.36 228.97,-115.02 236.98,-117.49"/>
<polygon fill="#000000" fill-opacity="0.200000" stroke="#000000" stroke-width="2" stroke-opacity="0.200000" points="236.3,-120.93 246.85,-119.95 237.99,-114.14 236.3,-120.93"/>
</g>
<!-- src/transformers/transformToggleList.ts -->
<g id="node24" class="node">
<title>src/transformers/transformToggleList.ts</title>
<g id="a_node24"><a xlink:href="https://github.com/dragonman225/nast-util-from-notionapi/tree/master/src/transformers/transformToggleList.ts" xlink:title="transformToggleList.ts">
<path fill="#ddfeff" stroke="black" d="M345.5,-460C345.5,-460 241.5,-460 241.5,-460 238.5,-460 235.5,-457 235.5,-454 235.5,-454 235.5,-448 235.5,-448 235.5,-445 238.5,-442 241.5,-442 241.5,-442 345.5,-442 345.5,-442 348.5,-442 351.5,-445 351.5,-448 351.5,-448 351.5,-454 351.5,-454 351.5,-457 348.5,-460 345.5,-460"/>
<text text-anchor="middle" x="293.5" y="-448.8" font-family="Helvetica,sans-Serif" font-size="9.00">transformToggleList.ts</text>
</a>
</g>
</g>
<!-- src/transformBlock.ts&#45;&gt;src/transformers/transformToggleList.ts -->
<g id="edge23" class="edge">
<title>src/transformBlock.ts&#45;&gt;src/transformers/transformToggleList.ts</title>
<path fill="none" stroke="#000000" stroke-width="2" stroke-opacity="0.200000" d="M192.24,-63.03C195.95,-65.07 199.3,-67.68 202,-71 227.6,-102.48 188.62,-405.16 215,-436 218.09,-439.61 221.77,-442.52 225.81,-444.85"/>
<polygon fill="#000000" fill-opacity="0.200000" stroke="#000000" stroke-width="2" stroke-opacity="0.200000" points="224.62,-448.15 235.18,-449.07 227.5,-441.77 224.62,-448.15"/>
</g>
<!-- src/utils.ts -->
<g id="node26" class="node">
<title>src/utils.ts</title>
<g id="a_node26"><a xlink:href="https://github.com/dragonman225/nast-util-from-notionapi/tree/master/src/utils.ts" xlink:title="utils.ts">
<path fill="#ddfeff" stroke="black" d="M314.5,-52C314.5,-52 272.5,-52 272.5,-52 269.5,-52 266.5,-49 266.5,-46 266.5,-46 266.5,-40 266.5,-40 266.5,-37 269.5,-34 272.5,-34 272.5,-34 314.5,-34 314.5,-34 317.5,-34 320.5,-37 320.5,-40 320.5,-40 320.5,-46 320.5,-46 320.5,-49 317.5,-52 314.5,-52"/>
<text text-anchor="middle" x="293.5" y="-40.8" font-family="Helvetica,sans-Serif" font-size="9.00">utils.ts</text>
</a>
</g>
</g>
<!-- src/transformBlock.ts&#45;&gt;src/utils.ts -->
<g id="edge24" class="edge">
<title>src/transformBlock.ts&#45;&gt;src/utils.ts</title>
<path fill="none" stroke="#000000" stroke-width="2" stroke-opacity="0.200000" d="M192.08,-52.53C212.85,-50.56 236.88,-48.28 256.23,-46.44"/>
<polygon fill="#000000" fill-opacity="0.200000" stroke="#000000" stroke-width="2" stroke-opacity="0.200000" points="256.82,-49.9 266.45,-45.47 256.16,-42.93 256.82,-49.9"/>
</g>
<!-- src/transformers/utils.ts -->
<g id="node25" class="node">
<title>src/transformers/utils.ts</title>
<g id="a_node25"><a xlink:href="https://github.com/dragonman225/nast-util-from-notionapi/tree/master/src/transformers/utils.ts" xlink:title="utils.ts">
<path fill="#ddfeff" stroke="black" d="M443.5,-370C443.5,-370 401.5,-370 401.5,-370 398.5,-370 395.5,-367 395.5,-364 395.5,-364 395.5,-358 395.5,-358 395.5,-355 398.5,-352 401.5,-352 401.5,-352 443.5,-352 443.5,-352 446.5,-352 449.5,-355 449.5,-358 449.5,-358 449.5,-364 449.5,-364 449.5,-367 446.5,-370 443.5,-370"/>
<text text-anchor="middle" x="422.5" y="-358.8" font-family="Helvetica,sans-Serif" font-size="9.00">utils.ts</text>
</a>
</g>
</g>
<!-- src/transformers/transformAudio.ts&#45;&gt;src/transformers/utils.ts -->
<g id="edge25" class="edge">
<title>src/transformers/transformAudio.ts&#45;&gt;src/transformers/utils.ts</title>
<path fill="none" stroke="#000000" stroke-width="2" stroke-opacity="0.200000" d="M342.89,-600.33C353.64,-597.99 364.15,-593.65 372,-586 401.43,-557.31 415.51,-429.67 419.92,-380.45"/>
<polygon fill="#000000" fill-opacity="0.200000" stroke="#000000" stroke-width="2" stroke-opacity="0.200000" points="423.43,-380.47 420.79,-370.21 416.45,-379.88 423.43,-380.47"/>
</g>
<!-- src/transformers/transformBookmark.ts&#45;&gt;src/transformers/utils.ts -->
<g id="edge26" class="edge">
<title>src/transformers/transformBookmark.ts&#45;&gt;src/transformers/utils.ts</title>
<path fill="none" stroke="#000000" stroke-width="2" stroke-opacity="0.200000" d="M352.28,-567.49C359.57,-564.95 366.42,-561.27 372,-556 397.58,-531.85 413.56,-424.94 419.2,-380.49"/>
<polygon fill="#000000" fill-opacity="0.200000" stroke="#000000" stroke-width="2" stroke-opacity="0.200000" points="422.7,-380.75 420.44,-370.4 415.75,-379.9 422.7,-380.75"/>
</g>
<!-- src/transformers/transformBulletedListItem.ts&#45;&gt;src/transformers/utils.ts -->
<g id="edge27" class="edge">
<title>src/transformers/transformBulletedListItem.ts&#45;&gt;src/transformers/utils.ts</title>
<path fill="none" stroke="#000000" stroke-width="2" stroke-opacity="0.200000" d="M364.07,-531.81C366.9,-530.13 369.56,-528.21 372,-526 414.25,-487.79 421.03,-415.1 421.73,-380.39"/>
<polygon fill="#000000" fill-opacity="0.200000" stroke="#000000" stroke-width="2" stroke-opacity="0.200000" points="425.24,-380.19 421.78,-370.18 418.24,-380.16 425.24,-380.19"/>
</g>
<!-- src/transformers/transformCallout.ts&#45;&gt;src/transformers/utils.ts -->
<g id="edge28" class="edge">
<title>src/transformers/transformCallout.ts&#45;&gt;src/transformers/utils.ts</title>
<path fill="none" stroke="#000000" stroke-width="2" stroke-opacity="0.200000" d="M345.01,-508.91C354.81,-506.49 364.38,-502.49 372,-496 406.74,-466.43 417.1,-410.28 420.19,-380.57"/>
<polygon fill="#000000" fill-opacity="0.200000" stroke="#000000" stroke-width="2" stroke-opacity="0.200000" points="423.71,-380.53 421.08,-370.26 416.74,-379.93 423.71,-380.53"/>
</g>
<!-- src/transformers/transformCode.ts&#45;&gt;src/transformers/utils.ts -->
<g id="edge29" class="edge">
<title>src/transformers/transformCode.ts&#45;&gt;src/transformers/utils.ts</title>
<path fill="none" stroke="#000000" stroke-width="2" stroke-opacity="0.200000" d="M341.35,-479.11C352.26,-476.82 363.24,-472.81 372,-466 399.61,-444.54 412.53,-403.93 417.99,-379.99"/>
<polygon fill="#000000" fill-opacity="0.200000" stroke="#000000" stroke-width="2" stroke-opacity="0.200000" points="421.46,-380.52 420.06,-370.01 414.6,-379.1 421.46,-380.52"/>
</g>
<!-- src/transformers/transformCollection.ts&#45;&gt;src/transformers/transformPage.ts -->
<g id="edge30" class="edge">
<title>src/transformers/transformCollection.ts&#45;&gt;src/transformers/transformPage.ts</title>
<path fill="none" stroke="#000000" stroke-width="2" stroke-opacity="0.200000" d="M146.2,-370.04C151.86,-411.28 177.19,-580.99 215,-616 221.08,-621.63 228.6,-625.43 236.56,-627.97"/>
<polygon fill="#000000" fill-opacity="0.200000" stroke="#000000" stroke-width="2" stroke-opacity="0.200000" points="235.85,-631.4 246.4,-630.46 237.56,-624.61 235.85,-631.4"/>
</g>
<!-- src/transformers/transformColumn.ts&#45;&gt;src/transformers/utils.ts -->
<g id="edge31" class="edge">
<title>src/transformers/transformColumn.ts&#45;&gt;src/transformers/utils.ts</title>
<path fill="none" stroke="#000000" stroke-width="2" stroke-opacity="0.200000" d="M347.07,-414.87C355.67,-412.74 364.28,-409.87 372,-406 385.63,-399.17 398.29,-387.52 407.4,-377.78"/>
<polygon fill="#000000" fill-opacity="0.200000" stroke="#000000" stroke-width="2" stroke-opacity="0.200000" points="410.12,-379.99 414.16,-370.2 404.89,-375.33 410.12,-379.99"/>
</g>
<!-- src/transformers/transformColumnList.ts&#45;&gt;src/transformers/utils.ts -->
<g id="edge32" class="edge">
<title>src/transformers/transformColumnList.ts&#45;&gt;src/transformers/utils.ts</title>
<path fill="none" stroke="#000000" stroke-width="2" stroke-opacity="0.200000" d="M345.11,-381.99C354.1,-380.16 363.35,-378.14 372,-376 376.43,-374.9 381.06,-373.65 385.63,-372.34"/>
<polygon fill="#000000" fill-opacity="0.200000" stroke="#000000" stroke-width="2" stroke-opacity="0.200000" points="386.84,-375.64 395.44,-369.45 384.85,-368.92 386.84,-375.64"/>
</g>
<!-- src/transformers/transformDivider.ts&#45;&gt;src/transformers/utils.ts -->
<g id="edge33" class="edge">
<title>src/transformers/transformDivider.ts&#45;&gt;src/transformers/utils.ts</title>
<path fill="none" stroke="#000000" stroke-width="2" stroke-opacity="0.200000" d="M344.69,-361C358.24,-361 372.62,-361 385.24,-361"/>
<polygon fill="#000000" fill-opacity="0.200000" stroke="#000000" stroke-width="2" stroke-opacity="0.200000" points="385.36,-364.5 395.36,-361 385.36,-357.5 385.36,-364.5"/>
</g>
<!-- src/transformers/transformEmbed.ts&#45;&gt;src/transformers/utils.ts -->
<g id="edge34" class="edge">
<title>src/transformers/transformEmbed.ts&#45;&gt;src/transformers/utils.ts</title>
<path fill="none" stroke="#000000" stroke-width="2" stroke-opacity="0.200000" d="M345.11,-340.01C354.1,-341.84 363.35,-343.86 372,-346 376.43,-347.1 381.06,-348.35 385.63,-349.66"/>
<polygon fill="#000000" fill-opacity="0.200000" stroke="#000000" stroke-width="2" stroke-opacity="0.200000" points="384.85,-353.08 395.44,-352.55 386.84,-346.36 384.85,-353.08"/>
</g>
<!-- src/transformers/transformEquation.ts&#45;&gt;src/transformers/utils.ts -->
<g id="edge35" class="edge">
<title>src/transformers/transformEquation.ts&#45;&gt;src/transformers/utils.ts</title>
<path fill="none" stroke="#000000" stroke-width="2" stroke-opacity="0.200000" d="M350.05,-304.73C358.02,-307.18 365.65,-310.78 372,-316 383.86,-325.75 373.91,-337.39 385,-348 385.46,-348.44 385.93,-348.86 386.41,-349.27"/>
<polygon fill="#000000" fill-opacity="0.200000" stroke="#000000" stroke-width="2" stroke-opacity="0.200000" points="384.86,-352.42 395.2,-354.72 388.55,-346.47 384.86,-352.42"/>
</g>
<!-- src/transformers/transformHeading.ts&#45;&gt;src/block&#45;map.ts -->
<g id="edge36" class="edge">
<title>src/transformers/transformHeading.ts&#45;&gt;src/block&#45;map.ts</title>
<path fill="none" stroke="#000000" stroke-width="2" stroke-opacity="0.200000" d="M348.85,-84.22C356.72,-82.56 364.64,-80.52 372,-78 378.21,-75.87 379.04,-73.74 385,-71 385.69,-70.68 386.4,-70.36 387.11,-70.05"/>
<polygon fill="#000000" fill-opacity="0.200000" stroke="#000000" stroke-width="2" stroke-opacity="0.200000" points="388.72,-73.17 396.58,-66.07 386.01,-66.71 388.72,-73.17"/>
</g>
<!-- src/transformers/transformHeading.ts&#45;&gt;src/transformers/utils.ts -->
<g id="edge37" class="edge">
<title>src/transformers/transformHeading.ts&#45;&gt;src/transformers/utils.ts</title>
<path fill="none" stroke="#000000" stroke-width="2" stroke-opacity="0.200000" d="M348.6,-92.02C357.54,-94.62 365.88,-98.97 372,-106 407.38,-146.61 352.79,-304.84 385,-348 385.58,-348.78 386.21,-349.51 386.89,-350.2"/>
<polygon fill="#000000" fill-opacity="0.200000" stroke="#000000" stroke-width="2" stroke-opacity="0.200000" points="385.18,-353.27 395.42,-356.03 389.13,-347.49 385.18,-353.27"/>
</g>
<!-- src/transformers/transformImage.ts&#45;&gt;src/transformers/utils.ts -->
<g id="edge38" class="edge">
<title>src/transformers/transformImage.ts&#45;&gt;src/transformers/utils.ts</title>
<path fill="none" stroke="#000000" stroke-width="2" stroke-opacity="0.200000" d="M344.15,-271.89C354.47,-274.29 364.48,-278.6 372,-286 392.06,-305.75 366.48,-326.79 385,-348 385.62,-348.71 386.28,-349.38 386.98,-350.01"/>
<polygon fill="#000000" fill-opacity="0.200000" stroke="#000000" stroke-width="2" stroke-opacity="0.200000" points="385.18,-353.02 395.48,-355.5 388.98,-347.14 385.18,-353.02"/>
</g>
<!-- src/transformers/transformNumberedListItem.ts&#45;&gt;src/transformers/utils.ts -->
<g id="edge39" class="edge">
<title>src/transformers/transformNumberedListItem.ts&#45;&gt;src/transformers/utils.ts</title>
<path fill="none" stroke="#000000" stroke-width="2" stroke-opacity="0.200000" d="M365.18,-250.21C367.63,-251.89 369.92,-253.81 372,-256 400.45,-285.93 358.89,-316.01 385,-348 385.6,-348.73 386.23,-349.42 386.91,-350.07"/>
<polygon fill="#000000" fill-opacity="0.200000" stroke="#000000" stroke-width="2" stroke-opacity="0.200000" points="385.03,-353.02 395.3,-355.66 388.92,-347.2 385.03,-353.02"/>
</g>
<!-- src/transformers/transformPage.ts&#45;&gt;src/transformers/utils.ts -->
<g id="edge40" class="edge">
<title>src/transformers/transformPage.ts&#45;&gt;src/transformers/utils.ts</title>
<path fill="none" stroke="#000000" stroke-width="2" stroke-opacity="0.200000" d="M340.61,-630.96C352.18,-628.76 363.66,-624.33 372,-616 405.36,-582.66 417.25,-433.59 420.48,-380.14"/>
<polygon fill="#000000" fill-opacity="0.200000" stroke="#000000" stroke-width="2" stroke-opacity="0.200000" points="423.99,-380.19 421.06,-370.01 417,-379.79 423.99,-380.19"/>
</g>
<!-- src/transformers/transformQuote.ts&#45;&gt;src/transformers/utils.ts -->
<g id="edge41" class="edge">
<title>src/transformers/transformQuote.ts&#45;&gt;src/transformers/utils.ts</title>
<path fill="none" stroke="#000000" stroke-width="2" stroke-opacity="0.200000" d="M343.11,-210.98C353.98,-213.32 364.49,-217.82 372,-226 408.88,-266.16 351.25,-305.17 385,-348 385.58,-348.74 386.21,-349.44 386.88,-350.1"/>
<polygon fill="#000000" fill-opacity="0.200000" stroke="#000000" stroke-width="2" stroke-opacity="0.200000" points="384.96,-353.02 395.2,-355.74 388.89,-347.23 384.96,-353.02"/>
</g>
<!-- src/transformers/transformStub.ts&#45;&gt;src/transformers/utils.ts -->
<g id="edge42" class="edge">
<title>src/transformers/transformStub.ts&#45;&gt;src/transformers/utils.ts</title>
<path fill="none" stroke="#000000" stroke-width="2" stroke-opacity="0.200000" d="M340.81,-180.39C352.52,-182.56 364.03,-187.13 372,-196 394.67,-221.21 364.3,-321.16 385,-348 385.58,-348.75 386.2,-349.45 386.86,-350.11"/>
<polygon fill="#000000" fill-opacity="0.200000" stroke="#000000" stroke-width="2" stroke-opacity="0.200000" points="384.91,-353.02 395.14,-355.78 388.87,-347.25 384.91,-353.02"/>
</g>
<!-- src/transformers/transformText.ts&#45;&gt;src/transformers/utils.ts -->
<g id="edge43" class="edge">
<title>src/transformers/transformText.ts&#45;&gt;src/transformers/utils.ts</title>
<path fill="none" stroke="#000000" stroke-width="2" stroke-opacity="0.200000" d="M338.87,-149.97C351.27,-151.98 363.63,-156.57 372,-166 398.9,-196.34 360.46,-315.72 385,-348 385.59,-348.77 386.23,-349.5 386.91,-350.18"/>
<polygon fill="#000000" fill-opacity="0.200000" stroke="#000000" stroke-width="2" stroke-opacity="0.200000" points="385.23,-353.27 395.47,-355.99 389.15,-347.48 385.23,-353.27"/>
</g>
<!-- src/transformers/transformToDo.ts&#45;&gt;src/transformers/utils.ts -->
<g id="edge44" class="edge">
<title>src/transformers/transformToDo.ts&#45;&gt;src/transformers/utils.ts</title>
<path fill="none" stroke="#000000" stroke-width="2" stroke-opacity="0.200000" d="M340.14,-120.12C352.13,-122.23 363.95,-126.83 372,-136 403.14,-171.47 356.63,-310.28 385,-348 385.58,-348.78 386.22,-349.51 386.89,-350.19"/>
<polygon fill="#000000" fill-opacity="0.200000" stroke="#000000" stroke-width="2" stroke-opacity="0.200000" points="385.2,-353.27 395.44,-356.01 389.14,-347.49 385.2,-353.27"/>
</g>
<!-- src/transformers/transformToggleList.ts&#45;&gt;src/transformers/utils.ts -->
<g id="edge45" class="edge">
<title>src/transformers/transformToggleList.ts&#45;&gt;src/transformers/utils.ts</title>
<path fill="none" stroke="#000000" stroke-width="2" stroke-opacity="0.200000" d="M351.62,-445.4C358.84,-443.16 365.85,-440.11 372,-436 392.41,-422.36 406.43,-397.15 414.2,-379.75"/>
<polygon fill="#000000" fill-opacity="0.200000" stroke="#000000" stroke-width="2" stroke-opacity="0.200000" points="417.61,-380.68 418.24,-370.1 411.15,-377.98 417.61,-380.68"/>
</g>
</g>
</svg>
