<?xml version="1.0" encoding="UTF-8" standalone="no"?>
<!DOCTYPE svg PUBLIC "-//W3C//DTD SVG 1.1//EN"
 "http://www.w3.org/Graphics/SVG/1.1/DTD/svg11.dtd">
<!-- Generated by graphviz version 2.43.20190912.0211 (20190912.0211)
 -->
<!-- Title: dependency&#45;cruiser output Pages: 1 -->
<svg width="484pt" height="722pt"
 viewBox="0.00 0.00 484.00 722.00" xmlns="http://www.w3.org/2000/svg" xmlns:xlink="http://www.w3.org/1999/xlink">
<g id="graph0" class="graph" transform="scale(1 1) rotate(0) translate(4 718)">
<title>dependency&#45;cruiser output</title>
<polygon fill="white" stroke="transparent" points="-4,4 -4,-718 480,-718 480,4 -4,4"/>
<g id="clust1" class="cluster">
<title>cluster_src</title>
<path fill="#ffffff" stroke="black" stroke-width="2" d="M20,-26C20,-26 456,-26 456,-26 462,-26 468,-32 468,-38 468,-38 468,-694 468,-694 468,-700 462,-706 456,-706 456,-706 20,-706 20,-706 14,-706 8,-700 8,-694 8,-694 8,-38 8,-38 8,-32 14,-26 20,-26"/>
<text text-anchor="middle" x="238" y="-694.8" font-family="Helvetica,sans-Serif" font-weight="bold" font-size="9.00">src</text>
</g>
<g id="clust2" class="cluster">
<title>cluster_src/transformers</title>
<path fill="#ffffff" stroke="black" stroke-width="2" d="M90,-74C90,-74 445.5,-74 445.5,-74 451.5,-74 457.5,-80 457.5,-86 457.5,-86 457.5,-668 457.5,-668 457.5,-674 451.5,-680 445.5,-680 445.5,-680 90,-680 90,-680 84,-680 78,-674 78,-668 78,-668 78,-86 78,-86 78,-80 84,-74 90,-74"/>
<text text-anchor="middle" x="267.75" y="-668.8" font-family="Helvetica,sans-Serif" font-weight="bold" font-size="9.00">transformers</text>
</g>
<!-- assert -->
<g id="node1" class="node">
<title>assert</title>
<path fill="#ffffcc" stroke="grey" d="M165,-18C165,-18 123,-18 123,-18 120,-18 117,-15 117,-12 117,-12 117,-6 117,-6 117,-3 120,0 123,0 123,0 165,0 165,0 168,0 171,-3 171,-6 171,-6 171,-12 171,-12 171,-15 168,-18 165,-18"/>
<text text-anchor="middle" x="144" y="-6.8" font-family="Helvetica,sans-Serif" font-size="9.00" fill="grey">assert</text>
</g>
<!-- src/block&#45;map.ts -->
<g id="node2" class="node">
<title>src/block&#45;map.ts</title>
<g id="a_node2"><a xlink:href="https://github.com/dragonman225/nast-util-from-notionapi/tree/master/src/block-map.ts" xlink:title="block&#45;map.ts">
<path fill="#ddfeff" stroke="black" d="M454,-66C454,-66 391,-66 391,-66 388,-66 385,-63 385,-60 385,-60 385,-54 385,-54 385,-51 388,-48 391,-48 391,-48 454,-48 454,-48 457,-48 460,-51 460,-54 460,-54 460,-60 460,-60 460,-63 457,-66 454,-66"/>
<text text-anchor="middle" x="422.5" y="-54.8" font-family="Helvetica,sans-Serif" font-size="9.00">block&#45;map.ts</text>
</a>
</g>
</g>
<!-- src/index.ts -->
<g id="node3" class="node">
<title>src/index.ts</title>
<g id="a_node3"><a xlink:href="https://github.com/dragonman225/nast-util-from-notionapi/tree/master/src/index.ts" xlink:title="index.ts">
<path fill="#ddfeff" stroke="black" d="M64,-52C64,-52 22,-52 22,-52 19,-52 16,-49 16,-46 16,-46 16,-40 16,-40 16,-37 19,-34 22,-34 22,-34 64,-34 64,-34 67,-34 70,-37 70,-40 70,-40 70,-46 70,-46 70,-49 67,-52 64,-52"/>
<text text-anchor="middle" x="43" y="-40.8" font-family="Helvetica,sans-Serif" font-size="9.00">index.ts</text>
</a>
</g>
</g>
<!-- src/index.ts&#45;&gt;assert -->
<g id="edge3" class="edge">
<title>src/index.ts&#45;&gt;assert</title>
<path fill="none" stroke="grey" d="M57.06,-33.98C63.19,-30.11 70.73,-25.84 78,-23 87.08,-19.46 97.25,-16.73 106.79,-14.66"/>
<polygon fill="grey" stroke="grey" points="107.69,-18.05 116.82,-12.67 106.33,-11.18 107.69,-18.05"/>
</g>
<!-- src/transformBlock.ts -->
<g id="node4" class="node">
<title>src/transformBlock.ts</title>
<g id="a_node4"><a xlink:href="https://github.com/dragonman225/nast-util-from-notionapi/tree/master/src/transformBlock.ts" xlink:title="transformBlock.ts">
<path fill="#ddfeff" stroke="black" d="M186,-66C186,-66 102,-66 102,-66 99,-66 96,-63 96,-60 96,-60 96,-54 96,-54 96,-51 99,-48 102,-48 102,-48 186,-48 186,-48 189,-48 192,-51 192,-54 192,-54 192,-60 192,-60 192,-63 189,-66 186,-66"/>
<text text-anchor="middle" x="144" y="-54.8" font-family="Helvetica,sans-Serif" font-size="9.00">transformBlock.ts</text>
</a>
</g>
</g>
<!-- src/index.ts&#45;&gt;src/transformBlock.ts -->
<g id="edge1" class="edge">
<title>src/index.ts&#45;&gt;src/transformBlock.ts</title>
<path fill="none" stroke="#000000" stroke-width="2" stroke-opacity="0.200000" d="M70.01,-46.68C74.95,-47.38 80.3,-48.13 85.78,-48.91"/>
<polygon fill="#000000" fill-opacity="0.200000" stroke="#000000" stroke-width="2" stroke-opacity="0.200000" points="85.32,-52.38 95.72,-50.31 86.3,-45.45 85.32,-52.38"/>
</g>
<!-- src/utils.ts -->
<g id="node26" class="node">
<title>src/utils.ts</title>
<g id="a_node26"><a xlink:href="https://github.com/dragonman225/nast-util-from-notionapi/tree/master/src/utils.ts" xlink:title="utils.ts">
<path fill="#ddfeff" stroke="black" d="M314.5,-52C314.5,-52 272.5,-52 272.5,-52 269.5,-52 266.5,-49 266.5,-46 266.5,-46 266.5,-40 266.5,-40 266.5,-37 269.5,-34 272.5,-34 272.5,-34 314.5,-34 314.5,-34 317.5,-34 320.5,-37 320.5,-40 320.5,-40 320.5,-46 320.5,-46 320.5,-49 317.5,-52 314.5,-52"/>
<text text-anchor="middle" x="293.5" y="-40.8" font-family="Helvetica,sans-Serif" font-size="9.00">utils.ts</text>
</a>
</g>
</g>
<!-- src/index.ts&#45;&gt;src/utils.ts -->
<g id="edge2" class="edge">
<title>src/index.ts&#45;&gt;src/utils.ts</title>
<path fill="none" stroke="#000000" stroke-width="2" stroke-opacity="0.200000" d="M70.36,-42.15C72.94,-42.09 75.52,-42.04 78,-42 140.65,-41.08 213.59,-41.8 256.25,-42.4"/>
<polygon fill="#000000" fill-opacity="0.200000" stroke="#000000" stroke-width="2" stroke-opacity="0.200000" points="256.36,-45.91 266.41,-42.55 256.47,-38.91 256.36,-45.91"/>
</g>
<!-- src/transformBlock.ts&#45;&gt;src/block&#45;map.ts -->
<g id="edge4" class="edge">
<title>src/transformBlock.ts&#45;&gt;src/block&#45;map.ts</title>
<path fill="none" stroke="#000000" stroke-width="2" stroke-opacity="0.200000" d="M192.07,-57.76C199.73,-57.86 207.59,-57.95 215,-58 284.78,-58.5 302.23,-58.7 372,-58 372.9,-57.99 373.81,-57.98 374.73,-57.97"/>
<polygon fill="#000000" fill-opacity="0.200000" stroke="#000000" stroke-width="2" stroke-opacity="0.200000" points="374.79,-61.47 384.74,-57.83 374.69,-54.47 374.79,-61.47"/>
</g>
<!-- src/transformers/transformAudio.ts -->
<g id="node5" class="node">
<title>src/transformers/transformAudio.ts</title>
<g id="a_node5"><a xlink:href="https://github.com/dragonman225/nast-util-from-notionapi/tree/master/src/transformers/transformAudio.ts" xlink:title="transformAudio.ts">
<path fill="#ddfeff" stroke="black" d="M336.5,-130C336.5,-130 250.5,-130 250.5,-130 247.5,-130 244.5,-127 244.5,-124 244.5,-124 244.5,-118 244.5,-118 244.5,-115 247.5,-112 250.5,-112 250.5,-112 336.5,-112 336.5,-112 339.5,-112 342.5,-115 342.5,-118 342.5,-118 342.5,-124 342.5,-124 342.5,-127 339.5,-130 336.5,-130"/>
<text text-anchor="middle" x="293.5" y="-118.8" font-family="Helvetica,sans-Serif" font-size="9.00">transformAudio.ts</text>
</a>
</g>
</g>
<!-- src/transformBlock.ts&#45;&gt;src/transformers/transformAudio.ts -->
<g id="edge5" class="edge">
<title>src/transformBlock.ts&#45;&gt;src/transformers/transformAudio.ts</title>
<path fill="none" stroke="#000000" stroke-width="2" stroke-opacity="0.200000" d="M192.04,-64.42C195.65,-66.19 199.03,-68.36 202,-71 214.39,-82.04 202.34,-95.27 215,-106 220.68,-110.81 227.43,-114.26 234.56,-116.7"/>
<polygon fill="#000000" fill-opacity="0.200000" stroke="#000000" stroke-width="2" stroke-opacity="0.200000" points="233.86,-120.14 244.43,-119.44 235.73,-113.4 233.86,-120.14"/>
</g>
<!-- src/transformers/transformBookmark.ts -->
<g id="node6" class="node">
<title>src/transformers/transformBookmark.ts</title>
<g id="a_node6"><a xlink:href="https://github.com/dragonman225/nast-util-from-notionapi/tree/master/src/transformers/transformBookmark.ts" xlink:title="transformBookmark.ts">
<path fill="#ddfeff" stroke="black" d="M346,-610C346,-610 241,-610 241,-610 238,-610 235,-607 235,-604 235,-604 235,-598 235,-598 235,-595 238,-592 241,-592 241,-592 346,-592 346,-592 349,-592 352,-595 352,-598 352,-598 352,-604 352,-604 352,-607 349,-610 346,-610"/>
<text text-anchor="middle" x="293.5" y="-598.8" font-family="Helvetica,sans-Serif" font-size="9.00">transformBookmark.ts</text>
</a>
</g>
</g>
<!-- src/transformBlock.ts&#45;&gt;src/transformers/transformBookmark.ts -->
<g id="edge6" class="edge">
<title>src/transformBlock.ts&#45;&gt;src/transformers/transformBookmark.ts</title>
<path fill="none" stroke="#000000" stroke-width="2" stroke-opacity="0.200000" d="M192.01,-62.86C195.82,-64.92 199.25,-67.59 202,-71 237.89,-115.6 178.02,-542.31 215,-586 218.02,-589.57 221.61,-592.45 225.57,-594.77"/>
<polygon fill="#000000" fill-opacity="0.200000" stroke="#000000" stroke-width="2" stroke-opacity="0.200000" points="224.19,-597.99 234.73,-598.99 227.11,-591.63 224.19,-597.99"/>
</g>
<!-- src/transformers/transformBulletedListItem.ts -->
<g id="node7" class="node">
<title>src/transformers/transformBulletedListItem.ts</title>
<g id="a_node7"><a xlink:href="https://github.com/dragonman225/nast-util-from-notionapi/tree/master/src/transformers/transformBulletedListItem.ts" xlink:title="transformBulletedListItem.ts">
<path fill="#ddfeff" stroke="black" d="M360.5,-580C360.5,-580 226.5,-580 226.5,-580 223.5,-580 220.5,-577 220.5,-574 220.5,-574 220.5,-568 220.5,-568 220.5,-565 223.5,-562 226.5,-562 226.5,-562 360.5,-562 360.5,-562 363.5,-562 366.5,-565 366.5,-568 366.5,-568 366.5,-574 366.5,-574 366.5,-577 363.5,-580 360.5,-580"/>
<text text-anchor="middle" x="293.5" y="-568.8" font-family="Helvetica,sans-Serif" font-size="9.00">transformBulletedListItem.ts</text>
</a>
</g>
</g>
<!-- src/transformBlock.ts&#45;&gt;src/transformers/transformBulletedListItem.ts -->
<g id="edge7" class="edge">
<title>src/transformBlock.ts&#45;&gt;src/transformers/transformBulletedListItem.ts</title>
<path fill="none" stroke="#000000" stroke-width="2" stroke-opacity="0.200000" d="M192.01,-62.86C195.82,-64.93 199.25,-67.59 202,-71 234.24,-111.01 185.16,-477.99 216.03,-552.97"/>
<polygon fill="#000000" fill-opacity="0.200000" stroke="#000000" stroke-width="2" stroke-opacity="0.200000" points="213.13,-554.95 221.18,-561.84 219.19,-551.43 213.13,-554.95"/>
</g>
<!-- src/transformers/transformCallout.ts -->
<g id="node8" class="node">
<title>src/transformers/transformCallout.ts</title>
<g id="a_node8"><a xlink:href="https://github.com/dragonman225/nast-util-from-notionapi/tree/master/src/transformers/transformCallout.ts" xlink:title="transformCallout.ts">
<path fill="#ddfeff" stroke="black" d="M339,-550C339,-550 248,-550 248,-550 245,-550 242,-547 242,-544 242,-544 242,-538 242,-538 242,-535 245,-532 248,-532 248,-532 339,-532 339,-532 342,-532 345,-535 345,-538 345,-538 345,-544 345,-544 345,-547 342,-550 339,-550"/>
<text text-anchor="middle" x="293.5" y="-538.8" font-family="Helvetica,sans-Serif" font-size="9.00">transformCallout.ts</text>
</a>
</g>
</g>
<!-- src/transformBlock.ts&#45;&gt;src/transformers/transformCallout.ts -->
<g id="edge8" class="edge">
<title>src/transformBlock.ts&#45;&gt;src/transformers/transformCallout.ts</title>
<path fill="none" stroke="#000000" stroke-width="2" stroke-opacity="0.200000" d="M192.26,-63.01C195.97,-65.06 199.31,-67.67 202,-71 233.77,-110.35 182.26,-487.45 215,-526 219.59,-531.4 225.49,-535.24 231.98,-537.91"/>
<polygon fill="#000000" fill-opacity="0.200000" stroke="#000000" stroke-width="2" stroke-opacity="0.200000" points="231.24,-541.35 241.84,-541.05 233.37,-534.68 231.24,-541.35"/>
</g>
<!-- src/transformers/transformCode.ts -->
<g id="node9" class="node">
<title>src/transformers/transformCode.ts</title>
<g id="a_node9"><a xlink:href="https://github.com/dragonman225/nast-util-from-notionapi/tree/master/src/transformers/transformCode.ts" xlink:title="transformCode.ts">
<path fill="#ddfeff" stroke="black" d="M335,-520C335,-520 252,-520 252,-520 249,-520 246,-517 246,-514 246,-514 246,-508 246,-508 246,-505 249,-502 252,-502 252,-502 335,-502 335,-502 338,-502 341,-505 341,-508 341,-508 341,-514 341,-514 341,-517 338,-520 335,-520"/>
<text text-anchor="middle" x="293.5" y="-508.8" font-family="Helvetica,sans-Serif" font-size="9.00">transformCode.ts</text>
</a>
</g>
</g>
<!-- src/transformBlock.ts&#45;&gt;src/transformers/transformCode.ts -->
<g id="edge9" class="edge">
<title>src/transformBlock.ts&#45;&gt;src/transformers/transformCode.ts</title>
<path fill="none" stroke="#000000" stroke-width="2" stroke-opacity="0.200000" d="M192.26,-63.02C195.97,-65.06 199.31,-67.67 202,-71 231.72,-107.73 184.38,-460.02 215,-496 220.55,-502.53 228.02,-506.76 236.13,-509.43"/>
<polygon fill="#000000" fill-opacity="0.200000" stroke="#000000" stroke-width="2" stroke-opacity="0.200000" points="235.32,-512.83 245.87,-511.89 237.03,-506.05 235.32,-512.83"/>
</g>
<!-- src/transformers/transformCollection.ts -->
<g id="node10" class="node">
<title>src/transformers/transformCollection.ts</title>
<g id="a_node10"><a xlink:href="https://github.com/dragonman225/nast-util-from-notionapi/tree/master/src/transformers/transformCollection.ts" xlink:title="transformCollection.ts">
<path fill="#ddfeff" stroke="black" d="M196,-370C196,-370 92,-370 92,-370 89,-370 86,-367 86,-364 86,-364 86,-358 86,-358 86,-355 89,-352 92,-352 92,-352 196,-352 196,-352 199,-352 202,-355 202,-358 202,-358 202,-364 202,-364 202,-367 199,-370 196,-370"/>
<text text-anchor="middle" x="144" y="-358.8" font-family="Helvetica,sans-Serif" font-size="9.00">transformCollection.ts</text>
</a>
</g>
</g>
<!-- src/transformBlock.ts&#45;&gt;src/transformers/transformCollection.ts -->
<g id="edge10" class="edge">
<title>src/transformBlock.ts&#45;&gt;src/transformers/transformCollection.ts</title>
<path fill="none" stroke="#000000" stroke-width="2" stroke-opacity="0.200000" d="M144,-66.2C144,-158.05 144,-249.9 144,-341.75"/>
<polygon fill="#000000" fill-opacity="0.200000" stroke="#000000" stroke-width="2" stroke-opacity="0.200000" points="140.5,-341.79 144,-351.79 147.5,-341.79 140.5,-341.79"/>
</g>
<!-- src/transformers/transformColumn.ts -->
<g id="node11" class="node">
<title>src/transformers/transformColumn.ts</title>
<g id="a_node11"><a xlink:href="https://github.com/dragonman225/nast-util-from-notionapi/tree/master/src/transformers/transformColumn.ts" xlink:title="transformColumn.ts">
<path fill="#ddfeff" stroke="black" d="M341,-430C341,-430 246,-430 246,-430 243,-430 240,-427 240,-424 240,-424 240,-418 240,-418 240,-415 243,-412 246,-412 246,-412 341,-412 341,-412 344,-412 347,-415 347,-418 347,-418 347,-424 347,-424 347,-427 344,-430 341,-430"/>
<text text-anchor="middle" x="293.5" y="-418.8" font-family="Helvetica,sans-Serif" font-size="9.00">transformColumn.ts</text>
</a>
</g>
</g>
<!-- src/transformBlock.ts&#45;&gt;src/transformers/transformColumn.ts -->
<g id="edge11" class="edge">
<title>src/transformBlock.ts&#45;&gt;src/transformers/transformColumn.ts</title>
<path fill="none" stroke="#000000" stroke-width="2" stroke-opacity="0.200000" d="M192.23,-63.04C195.94,-65.08 199.29,-67.68 202,-71 225.55,-99.86 190.74,-377.73 215,-406 219.22,-410.91 224.52,-414.53 230.36,-417.15"/>
<polygon fill="#000000" fill-opacity="0.200000" stroke="#000000" stroke-width="2" stroke-opacity="0.200000" points="229.31,-420.49 239.9,-420.5 231.63,-413.88 229.31,-420.49"/>
</g>
<!-- src/transformers/transformColumnList.ts -->
<g id="node12" class="node">
<title>src/transformers/transformColumnList.ts</title>
<g id="a_node12"><a xlink:href="https://github.com/dragonman225/nast-util-from-notionapi/tree/master/src/transformers/transformColumnList.ts" xlink:title="transformColumnList.ts">
<path fill="#ddfeff" stroke="black" d="M348.5,-400C348.5,-400 238.5,-400 238.5,-400 235.5,-400 232.5,-397 232.5,-394 232.5,-394 232.5,-388 232.5,-388 232.5,-385 235.5,-382 238.5,-382 238.5,-382 348.5,-382 348.5,-382 351.5,-382 354.5,-385 354.5,-388 354.5,-388 354.5,-394 354.5,-394 354.5,-397 351.5,-400 348.5,-400"/>
<text text-anchor="middle" x="293.5" y="-388.8" font-family="Helvetica,sans-Serif" font-size="9.00">transformColumnList.ts</text>
</a>
</g>
</g>
<!-- src/transformBlock.ts&#45;&gt;src/transformers/transformColumnList.ts -->
<g id="edge12" class="edge">
<title>src/transformBlock.ts&#45;&gt;src/transformers/transformColumnList.ts</title>
<path fill="none" stroke="#000000" stroke-width="2" stroke-opacity="0.200000" d="M192.22,-63.05C195.93,-65.09 199.29,-67.69 202,-71 223.49,-97.24 192.86,-350.3 215,-376 217.4,-378.78 220.14,-381.15 223.14,-383.15"/>
<polygon fill="#000000" fill-opacity="0.200000" stroke="#000000" stroke-width="2" stroke-opacity="0.200000" points="221.67,-386.34 232.15,-387.89 224.93,-380.14 221.67,-386.34"/>
</g>
<!-- src/transformers/transformDivider.ts -->
<g id="node13" class="node">
<title>src/transformers/transformDivider.ts</title>
<g id="a_node13"><a xlink:href="https://github.com/dragonman225/nast-util-from-notionapi/tree/master/src/transformers/transformDivider.ts" xlink:title="transformDivider.ts">
<path fill="#ddfeff" stroke="black" d="M338.5,-370C338.5,-370 248.5,-370 248.5,-370 245.5,-370 242.5,-367 242.5,-364 242.5,-364 242.5,-358 242.5,-358 242.5,-355 245.5,-352 248.5,-352 248.5,-352 338.5,-352 338.5,-352 341.5,-352 344.5,-355 344.5,-358 344.5,-358 344.5,-364 344.5,-364 344.5,-367 341.5,-370 338.5,-370"/>
<text text-anchor="middle" x="293.5" y="-358.8" font-family="Helvetica,sans-Serif" font-size="9.00">transformDivider.ts</text>
</a>
</g>
</g>
<!-- src/transformBlock.ts&#45;&gt;src/transformers/transformDivider.ts -->
<g id="edge13" class="edge">
<title>src/transformBlock.ts&#45;&gt;src/transformers/transformDivider.ts</title>
<path fill="none" stroke="#000000" stroke-width="2" stroke-opacity="0.200000" d="M192.2,-63.07C195.92,-65.1 199.28,-67.7 202,-71 221.44,-94.62 194.98,-322.87 215,-346 219.7,-351.43 225.72,-355.27 232.33,-357.93"/>
<polygon fill="#000000" fill-opacity="0.200000" stroke="#000000" stroke-width="2" stroke-opacity="0.200000" points="231.76,-361.42 242.35,-361.05 233.84,-354.74 231.76,-361.42"/>
</g>
<!-- src/transformers/transformEmbed.ts -->
<g id="node14" class="node">
<title>src/transformers/transformEmbed.ts</title>
<g id="a_node14"><a xlink:href="https://github.com/dragonman225/nast-util-from-notionapi/tree/master/src/transformers/transformEmbed.ts" xlink:title="transformEmbed.ts">
<path fill="#ddfeff" stroke="black" d="M339.5,-340C339.5,-340 247.5,-340 247.5,-340 244.5,-340 241.5,-337 241.5,-334 241.5,-334 241.5,-328 241.5,-328 241.5,-325 244.5,-322 247.5,-322 247.5,-322 339.5,-322 339.5,-322 342.5,-322 345.5,-325 345.5,-328 345.5,-328 345.5,-334 345.5,-334 345.5,-337 342.5,-340 339.5,-340"/>
<text text-anchor="middle" x="293.5" y="-328.8" font-family="Helvetica,sans-Serif" font-size="9.00">transformEmbed.ts</text>
</a>
</g>
</g>
<!-- src/transformBlock.ts&#45;&gt;src/transformers/transformEmbed.ts -->
<g id="edge14" class="edge">
<title>src/transformBlock.ts&#45;&gt;src/transformers/transformEmbed.ts</title>
<path fill="none" stroke="#000000" stroke-width="2" stroke-opacity="0.200000" d="M192.18,-63.08C195.9,-65.11 199.27,-67.7 202,-71 236.77,-113 179.2,-274.88 215,-316 219.53,-321.21 225.29,-324.95 231.6,-327.59"/>
<polygon fill="#000000" fill-opacity="0.200000" stroke="#000000" stroke-width="2" stroke-opacity="0.200000" points="230.59,-330.95 241.18,-330.73 232.77,-324.29 230.59,-330.95"/>
</g>
<!-- src/transformers/transformEquation.ts -->
<g id="node15" class="node">
<title>src/transformers/transformEquation.ts</title>
<g id="a_node15"><a xlink:href="https://github.com/dragonman225/nast-util-from-notionapi/tree/master/src/transformers/transformEquation.ts" xlink:title="transformEquation.ts">
<path fill="#ddfeff" stroke="black" d="M344,-310C344,-310 243,-310 243,-310 240,-310 237,-307 237,-304 237,-304 237,-298 237,-298 237,-295 240,-292 243,-292 243,-292 344,-292 344,-292 347,-292 350,-295 350,-298 350,-298 350,-304 350,-304 350,-307 347,-310 344,-310"/>
<text text-anchor="middle" x="293.5" y="-298.8" font-family="Helvetica,sans-Serif" font-size="9.00">transformEquation.ts</text>
</a>
</g>
</g>
<!-- src/transformBlock.ts&#45;&gt;src/transformers/transformEquation.ts -->
<g id="edge15" class="edge">
<title>src/transformBlock.ts&#45;&gt;src/transformers/transformEquation.ts</title>
<path fill="none" stroke="#000000" stroke-width="2" stroke-opacity="0.200000" d="M192.15,-63.1C195.88,-65.13 199.26,-67.71 202,-71 232.66,-107.76 183.44,-250.01 215,-286 218.52,-290.02 222.77,-293.16 227.44,-295.6"/>
<polygon fill="#000000" fill-opacity="0.200000" stroke="#000000" stroke-width="2" stroke-opacity="0.200000" points="226.29,-298.91 236.87,-299.47 228.95,-292.43 226.29,-298.91"/>
</g>
<!-- src/transformers/transformHeading.ts -->
<g id="node16" class="node">
<title>src/transformers/transformHeading.ts</title>
<g id="a_node16"><a xlink:href="https://github.com/dragonman225/nast-util-from-notionapi/tree/master/src/transformers/transformHeading.ts" xlink:title="transformHeading.ts">
<path fill="#ddfeff" stroke="black" d="M342.5,-100C342.5,-100 244.5,-100 244.5,-100 241.5,-100 238.5,-97 238.5,-94 238.5,-94 238.5,-88 238.5,-88 238.5,-85 241.5,-82 244.5,-82 244.5,-82 342.5,-82 342.5,-82 345.5,-82 348.5,-85 348.5,-88 348.5,-88 348.5,-94 348.5,-94 348.5,-97 345.5,-100 342.5,-100"/>
<text text-anchor="middle" x="293.5" y="-88.8" font-family="Helvetica,sans-Serif" font-size="9.00">transformHeading.ts</text>
</a>
</g>
</g>
<!-- src/transformBlock.ts&#45;&gt;src/transformers/transformHeading.ts -->
<g id="edge16" class="edge">
<title>src/transformBlock.ts&#45;&gt;src/transformers/transformHeading.ts</title>
<path fill="none" stroke="#000000" stroke-width="2" stroke-opacity="0.200000" d="M187.09,-66.05C192.17,-67.52 197.25,-69.17 202,-71 208.12,-73.36 208.79,-75.87 215,-78 219.25,-79.46 223.7,-80.75 228.21,-81.91"/>
<polygon fill="#000000" fill-opacity="0.200000" stroke="#000000" stroke-width="2" stroke-opacity="0.200000" points="227.62,-85.37 238.15,-84.22 229.2,-78.55 227.62,-85.37"/>
</g>
<!-- src/transformers/transformImage.ts -->
<g id="node17" class="node">
<title>src/transformers/transformImage.ts</title>
<g id="a_node17"><a xlink:href="https://github.com/dragonman225/nast-util-from-notionapi/tree/master/src/transformers/transformImage.ts" xlink:title="transformImage.ts">
<path fill="#ddfeff" stroke="black" d="M338,-280C338,-280 249,-280 249,-280 246,-280 243,-277 243,-274 243,-274 243,-268 243,-268 243,-265 246,-262 249,-262 249,-262 338,-262 338,-262 341,-262 344,-265 344,-268 344,-268 344,-274 344,-274 344,-277 341,-280 338,-280"/>
<text text-anchor="middle" x="293.5" y="-268.8" font-family="Helvetica,sans-Serif" font-size="9.00">transformImage.ts</text>
</a>
</g>
</g>
<!-- src/transformBlock.ts&#45;&gt;src/transformers/transformImage.ts -->
<g id="edge17" class="edge">
<title>src/transformBlock.ts&#45;&gt;src/transformers/transformImage.ts</title>
<path fill="none" stroke="#000000" stroke-width="2" stroke-opacity="0.200000" d="M192.12,-63.13C195.86,-65.15 199.24,-67.73 202,-71 228.55,-102.52 187.67,-225.15 215,-256 219.94,-261.57 226.26,-265.45 233.17,-268.11"/>
<polygon fill="#000000" fill-opacity="0.200000" stroke="#000000" stroke-width="2" stroke-opacity="0.200000" points="232.3,-271.5 242.88,-271.03 234.31,-264.8 232.3,-271.5"/>
</g>
<!-- src/transformers/transformNumberedListItem.ts -->
<g id="node18" class="node">
<title>src/transformers/transformNumberedListItem.ts</title>
<g id="a_node18"><a xlink:href="https://github.com/dragonman225/nast-util-from-notionapi/tree/master/src/transformers/transformNumberedListItem.ts" xlink:title="transformNumberedListItem.ts">
<path fill="#ddfeff" stroke="black" d="M366,-250C366,-250 221,-250 221,-250 218,-250 215,-247 215,-244 215,-244 215,-238 215,-238 215,-235 218,-232 221,-232 221,-232 366,-232 366,-232 369,-232 372,-235 372,-238 372,-238 372,-244 372,-244 372,-247 369,-250 366,-250"/>
<text text-anchor="middle" x="293.5" y="-238.8" font-family="Helvetica,sans-Serif" font-size="9.00">transformNumberedListItem.ts</text>
</a>
</g>
</g>
<!-- src/transformBlock.ts&#45;&gt;src/transformers/transformNumberedListItem.ts -->
<g id="edge18" class="edge">
<title>src/transformBlock.ts&#45;&gt;src/transformers/transformNumberedListItem.ts</title>
<path fill="none" stroke="#000000" stroke-width="2" stroke-opacity="0.200000" d="M192.07,-63.17C195.82,-65.18 199.22,-67.75 202,-71 222.69,-95.23 196.66,-184.66 215.78,-223.28"/>
<polygon fill="#000000" fill-opacity="0.200000" stroke="#000000" stroke-width="2" stroke-opacity="0.200000" points="213.15,-225.64 221.67,-231.94 218.93,-221.7 213.15,-225.64"/>
</g>
<!-- src/transformers/transformPage.ts -->
<g id="node19" class="node">
<title>src/transformers/transformPage.ts</title>
<g id="a_node19"><a xlink:href="https://github.com/dragonman225/nast-util-from-notionapi/tree/master/src/transformers/transformPage.ts" xlink:title="transformPage.ts">
<path fill="#ddfeff" stroke="black" d="M334.5,-640C334.5,-640 252.5,-640 252.5,-640 249.5,-640 246.5,-637 246.5,-634 246.5,-634 246.5,-628 246.5,-628 246.5,-625 249.5,-622 252.5,-622 252.5,-622 334.5,-622 334.5,-622 337.5,-622 340.5,-625 340.5,-628 340.5,-628 340.5,-634 340.5,-634 340.5,-637 337.5,-640 334.5,-640"/>
<text text-anchor="middle" x="293.5" y="-628.8" font-family="Helvetica,sans-Serif" font-size="9.00">transformPage.ts</text>
</a>
</g>
</g>
<!-- src/transformBlock.ts&#45;&gt;src/transformers/transformPage.ts -->
<g id="edge19" class="edge">
<title>src/transformBlock.ts&#45;&gt;src/transformers/transformPage.ts</title>
<path fill="none" stroke="#000000" stroke-width="2" stroke-opacity="0.200000" d="M192.02,-62.85C195.82,-64.92 199.26,-67.58 202,-71 220.97,-94.61 195.45,-592.87 215,-616 220.6,-622.62 228.16,-626.88 236.37,-629.55"/>
<polygon fill="#000000" fill-opacity="0.200000" stroke="#000000" stroke-width="2" stroke-opacity="0.200000" points="235.69,-632.99 246.24,-632 237.37,-626.2 235.69,-632.99"/>
</g>
<!-- src/transformers/transformQuote.ts -->
<g id="node20" class="node">
<title>src/transformers/transformQuote.ts</title>
<g id="a_node20"><a xlink:href="https://github.com/dragonman225/nast-util-from-notionapi/tree/master/src/transformers/transformQuote.ts" xlink:title="transformQuote.ts">
<path fill="#ddfeff" stroke="black" d="M337,-220C337,-220 250,-220 250,-220 247,-220 244,-217 244,-214 244,-214 244,-208 244,-208 244,-205 247,-202 250,-202 250,-202 337,-202 337,-202 340,-202 343,-205 343,-208 343,-208 343,-214 343,-214 343,-217 340,-220 337,-220"/>
<text text-anchor="middle" x="293.5" y="-208.8" font-family="Helvetica,sans-Serif" font-size="9.00">transformQuote.ts</text>
</a>
</g>
</g>
<!-- src/transformBlock.ts&#45;&gt;src/transformers/transformQuote.ts -->
<g id="edge20" class="edge">
<title>src/transformBlock.ts&#45;&gt;src/transformers/transformQuote.ts</title>
<path fill="none" stroke="#000000" stroke-width="2" stroke-opacity="0.200000" d="M192.01,-63.23C195.76,-65.23 199.19,-67.77 202,-71 238.7,-113.11 177.27,-154.81 215,-196 220.16,-201.63 226.73,-205.52 233.88,-208.16"/>
<polygon fill="#000000" fill-opacity="0.200000" stroke="#000000" stroke-width="2" stroke-opacity="0.200000" points="233.3,-211.63 243.88,-211.03 235.23,-204.91 233.3,-211.63"/>
</g>
<!-- src/transformers/transformStub.ts -->
<g id="node21" class="node">
<title>src/transformers/transformStub.ts</title>
<g id="a_node21"><a xlink:href="https://github.com/dragonman225/nast-util-from-notionapi/tree/master/src/transformers/transformStub.ts" xlink:title="transformStub.ts">
<path fill="#ddfeff" stroke="black" d="M334.5,-190C334.5,-190 252.5,-190 252.5,-190 249.5,-190 246.5,-187 246.5,-184 246.5,-184 246.5,-178 246.5,-178 246.5,-175 249.5,-172 252.5,-172 252.5,-172 334.5,-172 334.5,-172 337.5,-172 340.5,-175 340.5,-178 340.5,-178 340.5,-184 340.5,-184 340.5,-187 337.5,-190 334.5,-190"/>
<text text-anchor="middle" x="293.5" y="-178.8" font-family="Helvetica,sans-Serif" font-size="9.00">transformStub.ts</text>
</a>
</g>
</g>
<!-- src/transformBlock.ts&#45;&gt;src/transformers/transformStub.ts -->
<g id="edge21" class="edge">
<title>src/transformBlock.ts&#45;&gt;src/transformers/transformStub.ts</title>
<path fill="none" stroke="#000000" stroke-width="2" stroke-opacity="0.200000" d="M192.17,-63.47C195.84,-65.43 199.2,-67.9 202,-71 230.51,-102.67 185.71,-135.05 215,-166 220.89,-172.22 228.53,-176.3 236.71,-178.91"/>
<polygon fill="#000000" fill-opacity="0.200000" stroke="#000000" stroke-width="2" stroke-opacity="0.200000" points="235.93,-182.33 246.48,-181.34 237.62,-175.53 235.93,-182.33"/>
</g>
<!-- src/transformers/transformText.ts -->
<g id="node22" class="node">
<title>src/transformers/transformText.ts</title>
<g id="a_node22"><a xlink:href="https://github.com/dragonman225/nast-util-from-notionapi/tree/master/src/transformers/transformText.ts" xlink:title="transformText.ts">
<path fill="#ddfeff" stroke="black" d="M332.5,-160C332.5,-160 254.5,-160 254.5,-160 251.5,-160 248.5,-157 248.5,-154 248.5,-154 248.5,-148 248.5,-148 248.5,-145 251.5,-142 254.5,-142 254.5,-142 332.5,-142 332.5,-142 335.5,-142 338.5,-145 338.5,-148 338.5,-148 338.5,-154 338.5,-154 338.5,-157 335.5,-160 332.5,-160"/>
<text text-anchor="middle" x="293.5" y="-148.8" font-family="Helvetica,sans-Serif" font-size="9.00">transformText.ts</text>
</a>
</g>
</g>
<!-- src/transformBlock.ts&#45;&gt;src/transformers/transformText.ts -->
<g id="edge22" class="edge">
<title>src/transformBlock.ts&#45;&gt;src/transformers/transformText.ts</title>
<path fill="none" stroke="#000000" stroke-width="2" stroke-opacity="0.200000" d="M192.24,-63.79C195.85,-65.69 199.18,-68.06 202,-71 222.37,-92.28 194.1,-115.23 215,-136 221.43,-142.39 229.7,-146.48 238.45,-149.03"/>
<polygon fill="#000000" fill-opacity="0.200000" stroke="#000000" stroke-width="2" stroke-opacity="0.200000" points="237.91,-152.49 248.44,-151.29 239.46,-145.67 237.91,-152.49"/>
</g>
<!-- src/transformers/transformToDo.ts -->
<g id="node23" class="node">
<title>src/transformers/transformToDo.ts</title>
<g id="a_node23"><a xlink:href="https://github.com/dragonman225/nast-util-from-notionapi/tree/master/src/transformers/transformToDo.ts" xlink:title="transformToDo.ts">
<path fill="#ddfeff" stroke="black" d="M334,-490C334,-490 253,-490 253,-490 250,-490 247,-487 247,-484 247,-484 247,-478 247,-478 247,-475 250,-472 253,-472 253,-472 334,-472 334,-472 337,-472 340,-475 340,-478 340,-478 340,-484 340,-484 340,-487 337,-490 334,-490"/>
<text text-anchor="middle" x="293.5" y="-478.8" font-family="Helvetica,sans-Serif" font-size="9.00">transformToDo.ts</text>
</a>
</g>
</g>
<!-- src/transformBlock.ts&#45;&gt;src/transformers/transformToDo.ts -->
<g id="edge23" class="edge">
<title>src/transformBlock.ts&#45;&gt;src/transformers/transformToDo.ts</title>
<path fill="none" stroke="#000000" stroke-width="2" stroke-opacity="0.200000" d="M192.25,-63.02C195.96,-65.07 199.3,-67.68 202,-71 229.66,-105.11 186.5,-432.59 215,-466 220.69,-472.67 228.37,-476.94 236.7,-479.6"/>
<polygon fill="#000000" fill-opacity="0.200000" stroke="#000000" stroke-width="2" stroke-opacity="0.200000" points="236.15,-483.07 246.69,-482.03 237.8,-476.27 236.15,-483.07"/>
</g>
<!-- src/transformers/transformToggleList.ts -->
<g id="node24" class="node">
<title>src/transformers/transformToggleList.ts</title>
<g id="a_node24"><a xlink:href="https://github.com/dragonman225/nast-util-from-notionapi/tree/master/src/transformers/transformToggleList.ts" xlink:title="transformToggleList.ts">
<path fill="#ddfeff" stroke="black" d="M345.5,-460C345.5,-460 241.5,-460 241.5,-460 238.5,-460 235.5,-457 235.5,-454 235.5,-454 235.5,-448 235.5,-448 235.5,-445 238.5,-442 241.5,-442 241.5,-442 345.5,-442 345.5,-442 348.5,-442 351.5,-445 351.5,-448 351.5,-448 351.5,-454 351.5,-454 351.5,-457 348.5,-460 345.5,-460"/>
<text text-anchor="middle" x="293.5" y="-448.8" font-family="Helvetica,sans-Serif" font-size="9.00">transformToggleList.ts</text>
</a>
</g>
</g>
<!-- src/transformBlock.ts&#45;&gt;src/transformers/transformToggleList.ts -->
<g id="edge24" class="edge">
<title>src/transformBlock.ts&#45;&gt;src/transformers/transformToggleList.ts</title>
<path fill="none" stroke="#000000" stroke-width="2" stroke-opacity="0.200000" d="M192.24,-63.03C195.95,-65.07 199.3,-67.68 202,-71 227.6,-102.48 188.62,-405.16 215,-436 218.09,-439.61 221.77,-442.52 225.81,-444.85"/>
<polygon fill="#000000" fill-opacity="0.200000" stroke="#000000" stroke-width="2" stroke-opacity="0.200000" points="224.62,-448.15 235.18,-449.07 227.5,-441.77 224.62,-448.15"/>
</g>
<!-- src/transformBlock.ts&#45;&gt;src/utils.ts -->
<g id="edge25" class="edge">
<title>src/transformBlock.ts&#45;&gt;src/utils.ts</title>
<path fill="none" stroke="#000000" stroke-width="2" stroke-opacity="0.200000" d="M192.08,-52.53C212.85,-50.56 236.88,-48.28 256.23,-46.44"/>
<polygon fill="#000000" fill-opacity="0.200000" stroke="#000000" stroke-width="2" stroke-opacity="0.200000" points="256.82,-49.9 266.45,-45.47 256.16,-42.93 256.82,-49.9"/>
</g>
<!-- src/transformers/utils.ts -->
<g id="node25" class="node">
<title>src/transformers/utils.ts</title>
<g id="a_node25"><a xlink:href="https://github.com/dragonman225/nast-util-from-notionapi/tree/master/src/transformers/utils.ts" xlink:title="utils.ts">
<path fill="#ddfeff" stroke="black" d="M443.5,-385C443.5,-385 401.5,-385 401.5,-385 398.5,-385 395.5,-382 395.5,-379 395.5,-379 395.5,-373 395.5,-373 395.5,-370 398.5,-367 401.5,-367 401.5,-367 443.5,-367 443.5,-367 446.5,-367 449.5,-370 449.5,-373 449.5,-373 449.5,-379 449.5,-379 449.5,-382 446.5,-385 443.5,-385"/>
<text text-anchor="middle" x="422.5" y="-373.8" font-family="Helvetica,sans-Serif" font-size="9.00">utils.ts</text>
</a>
</g>
</g>
<!-- src/transformers/transformAudio.ts&#45;&gt;src/transformers/utils.ts -->
<g id="edge26" class="edge">
<title>src/transformers/transformAudio.ts&#45;&gt;src/transformers/utils.ts</title>
<path fill="none" stroke="#000000" stroke-width="2" stroke-opacity="0.200000" d="M342.59,-120.56C353.73,-122.85 364.51,-127.44 372,-136 405.26,-174.04 354.71,-322.56 385,-363 385.58,-363.78 386.21,-364.51 386.89,-365.2"/>
<polygon fill="#000000" fill-opacity="0.200000" stroke="#000000" stroke-width="2" stroke-opacity="0.200000" points="385.19,-368.27 395.43,-371.02 389.14,-362.49 385.19,-368.27"/>
</g>
<!-- src/transformers/transformBookmark.ts&#45;&gt;src/transformers/utils.ts -->
<g id="edge27" class="edge">
<title>src/transformers/transformBookmark.ts&#45;&gt;src/transformers/utils.ts</title>
<path fill="none" stroke="#000000" stroke-width="2" stroke-opacity="0.200000" d="M352.36,-597.57C359.64,-595.02 366.47,-591.32 372,-586 399.58,-559.51 414.65,-441.7 419.63,-395.08"/>
<polygon fill="#000000" fill-opacity="0.200000" stroke="#000000" stroke-width="2" stroke-opacity="0.200000" points="423.11,-395.4 420.65,-385.09 416.15,-394.69 423.11,-395.4"/>
</g>
<!-- src/transformers/transformBulletedListItem.ts&#45;&gt;src/transformers/utils.ts -->
<g id="edge28" class="edge">
<title>src/transformers/transformBulletedListItem.ts&#45;&gt;src/transformers/utils.ts</title>
<path fill="none" stroke="#000000" stroke-width="2" stroke-opacity="0.200000" d="M364.14,-561.88C366.94,-560.18 369.59,-558.23 372,-556 417.93,-513.49 422.73,-432.69 422.32,-395.56"/>
<polygon fill="#000000" fill-opacity="0.200000" stroke="#000000" stroke-width="2" stroke-opacity="0.200000" points="425.81,-395.05 422.05,-385.14 418.81,-395.23 425.81,-395.05"/>
</g>
<!-- src/transformers/transformCallout.ts&#45;&gt;src/transformers/utils.ts -->
<g id="edge29" class="edge">
<title>src/transformers/transformCallout.ts&#45;&gt;src/transformers/utils.ts</title>
<path fill="none" stroke="#000000" stroke-width="2" stroke-opacity="0.200000" d="M345.17,-539.09C354.96,-536.67 364.49,-532.61 372,-526 410.51,-492.12 419.17,-427.68 421.04,-395.42"/>
<polygon fill="#000000" fill-opacity="0.200000" stroke="#000000" stroke-width="2" stroke-opacity="0.200000" points="424.55,-395.24 421.47,-385.1 417.56,-394.95 424.55,-395.24"/>
</g>
<!-- src/transformers/transformCode.ts&#45;&gt;src/transformers/utils.ts -->
<g id="edge30" class="edge">
<title>src/transformers/transformCode.ts&#45;&gt;src/transformers/utils.ts</title>
<path fill="none" stroke="#000000" stroke-width="2" stroke-opacity="0.200000" d="M341.18,-509.49C352.22,-507.21 363.3,-503.11 372,-496 403.14,-470.54 414.92,-422.24 419.2,-395.33"/>
<polygon fill="#000000" fill-opacity="0.200000" stroke="#000000" stroke-width="2" stroke-opacity="0.200000" points="422.69,-395.63 420.61,-385.24 415.76,-394.66 422.69,-395.63"/>
</g>
<!-- src/transformers/transformCollection.ts&#45;&gt;src/transformers/transformPage.ts -->
<g id="edge32" class="edge">
<title>src/transformers/transformCollection.ts&#45;&gt;src/transformers/transformPage.ts</title>
<path fill="none" stroke="#000000" stroke-width="2" stroke-opacity="0.200000" d="M146.2,-370.04C151.86,-411.28 177.19,-580.99 215,-616 221.08,-621.63 228.6,-625.43 236.56,-627.97"/>
<polygon fill="#000000" fill-opacity="0.200000" stroke="#000000" stroke-width="2" stroke-opacity="0.200000" points="235.85,-631.4 246.4,-630.46 237.56,-624.61 235.85,-631.4"/>
</g>
<!-- src/transformers/transformCollection.ts&#45;&gt;src/transformers/utils.ts -->
<g id="edge33" class="edge">
<title>src/transformers/transformCollection.ts&#45;&gt;src/transformers/utils.ts</title>
<path fill="none" stroke="#000000" stroke-width="2" stroke-opacity="0.200000" d="M145.77,-370.06C149.74,-414.69 169.59,-610.4 215,-646 269.91,-689.06 318.4,-690.67 372,-646 410.62,-613.82 419.2,-451.32 421.03,-395.14"/>
<polygon fill="#000000" fill-opacity="0.200000" stroke="#000000" stroke-width="2" stroke-opacity="0.200000" points="424.53,-395.22 421.32,-385.12 417.53,-395.01 424.53,-395.22"/>
</g>
<!-- src/transformers/transformCollection.ts&#45;&gt;src/utils.ts -->
<g id="edge31" class="edge">
<title>src/transformers/transformCollection.ts&#45;&gt;src/utils.ts</title>
<path fill="none" stroke="#000000" stroke-width="2" stroke-opacity="0.200000" d="M198.15,-351.82C199.54,-350.67 200.83,-349.4 202,-348 221.77,-324.37 196.71,-95.8 215,-71 224.59,-58 240.8,-51.02 255.93,-47.28"/>
<polygon fill="#000000" fill-opacity="0.200000" stroke="#000000" stroke-width="2" stroke-opacity="0.200000" points="257.04,-50.62 266.13,-45.17 255.63,-43.77 257.04,-50.62"/>
</g>
<!-- src/transformers/transformColumn.ts&#45;&gt;src/transformers/utils.ts -->
<g id="edge34" class="edge">
<title>src/transformers/transformColumn.ts&#45;&gt;src/transformers/utils.ts</title>
<path fill="none" stroke="#000000" stroke-width="2" stroke-opacity="0.200000" d="M347.32,-413.38C355.72,-411.43 364.2,-409.01 372,-406 381.92,-402.18 392.09,-396.39 400.61,-390.92"/>
<polygon fill="#000000" fill-opacity="0.200000" stroke="#000000" stroke-width="2" stroke-opacity="0.200000" points="402.76,-393.69 409.12,-385.21 398.86,-387.88 402.76,-393.69"/>
</g>
<!-- src/transformers/transformColumnList.ts&#45;&gt;src/transformers/utils.ts -->
<g id="edge35" class="edge">
<title>src/transformers/transformColumnList.ts&#45;&gt;src/transformers/utils.ts</title>
<path fill="none" stroke="#000000" stroke-width="2" stroke-opacity="0.200000" d="M354.65,-383.9C365.2,-382.65 375.87,-381.39 385.49,-380.25"/>
<polygon fill="#000000" fill-opacity="0.200000" stroke="#000000" stroke-width="2" stroke-opacity="0.200000" points="385.95,-383.72 395.47,-379.07 385.13,-376.77 385.95,-383.72"/>
</g>
<!-- src/transformers/transformDivider.ts&#45;&gt;src/transformers/utils.ts -->
<g id="edge36" class="edge">
<title>src/transformers/transformDivider.ts&#45;&gt;src/transformers/utils.ts</title>
<path fill="none" stroke="#000000" stroke-width="2" stroke-opacity="0.200000" d="M344.69,-366.93C358.24,-368.53 372.62,-370.23 385.24,-371.72"/>
<polygon fill="#000000" fill-opacity="0.200000" stroke="#000000" stroke-width="2" stroke-opacity="0.200000" points="385.02,-375.22 395.36,-372.91 385.84,-368.26 385.02,-375.22"/>
</g>
<!-- src/transformers/transformEmbed.ts&#45;&gt;src/transformers/utils.ts -->
<g id="edge37" class="edge">
<title>src/transformers/transformEmbed.ts&#45;&gt;src/transformers/utils.ts</title>
<path fill="none" stroke="#000000" stroke-width="2" stroke-opacity="0.200000" d="M345.68,-335.45C354.9,-337.73 364.08,-341.09 372,-346 380.09,-351.01 377.31,-357.4 385,-363 385.49,-363.36 386,-363.71 386.51,-364.05"/>
<polygon fill="#000000" fill-opacity="0.200000" stroke="#000000" stroke-width="2" stroke-opacity="0.200000" points="384.96,-367.19 395.43,-368.82 388.26,-361.02 384.96,-367.19"/>
</g>
<!-- src/transformers/transformEquation.ts&#45;&gt;src/transformers/utils.ts -->
<g id="edge38" class="edge">
<title>src/transformers/transformEquation.ts&#45;&gt;src/transformers/utils.ts</title>
<path fill="none" stroke="#000000" stroke-width="2" stroke-opacity="0.200000" d="M350.21,-303.97C358.25,-306.5 365.86,-310.33 372,-316 387.92,-330.71 370.24,-347.13 385,-363 385.53,-363.57 386.09,-364.12 386.67,-364.64"/>
<polygon fill="#000000" fill-opacity="0.200000" stroke="#000000" stroke-width="2" stroke-opacity="0.200000" points="384.98,-367.71 395.28,-370.18 388.76,-361.83 384.98,-367.71"/>
</g>
<!-- src/transformers/transformHeading.ts&#45;&gt;src/block&#45;map.ts -->
<g id="edge39" class="edge">
<title>src/transformers/transformHeading.ts&#45;&gt;src/block&#45;map.ts</title>
<path fill="none" stroke="#000000" stroke-width="2" stroke-opacity="0.200000" d="M348.85,-84.22C356.72,-82.56 364.64,-80.52 372,-78 378.21,-75.87 379.04,-73.74 385,-71 385.69,-70.68 386.4,-70.36 387.11,-70.05"/>
<polygon fill="#000000" fill-opacity="0.200000" stroke="#000000" stroke-width="2" stroke-opacity="0.200000" points="388.72,-73.17 396.58,-66.07 386.01,-66.71 388.72,-73.17"/>
</g>
<!-- src/transformers/transformHeading.ts&#45;&gt;src/transformers/utils.ts -->
<g id="edge40" class="edge">
<title>src/transformers/transformHeading.ts&#45;&gt;src/transformers/utils.ts</title>
<path fill="none" stroke="#000000" stroke-width="2" stroke-opacity="0.200000" d="M348.61,-92C357.56,-94.61 365.89,-98.96 372,-106 390.75,-127.59 367.93,-340.06 385,-363 385.58,-363.78 386.21,-364.51 386.88,-365.2"/>
<polygon fill="#000000" fill-opacity="0.200000" stroke="#000000" stroke-width="2" stroke-opacity="0.200000" points="385.18,-368.27 395.41,-371.03 389.13,-362.5 385.18,-368.27"/>
</g>
<!-- src/transformers/transformImage.ts&#45;&gt;src/transformers/utils.ts -->
<g id="edge41" class="edge">
<title>src/transformers/transformImage.ts&#45;&gt;src/transformers/utils.ts</title>
<path fill="none" stroke="#000000" stroke-width="2" stroke-opacity="0.200000" d="M344.37,-271.67C354.68,-274.08 364.63,-278.45 372,-286 396.25,-310.83 362.7,-336.41 385,-363 385.61,-363.72 386.25,-364.4 386.94,-365.05"/>
<polygon fill="#000000" fill-opacity="0.200000" stroke="#000000" stroke-width="2" stroke-opacity="0.200000" points="385.09,-368.02 395.37,-370.6 388.94,-362.18 385.09,-368.02"/>
</g>
<!-- src/transformers/transformNumberedListItem.ts&#45;&gt;src/transformers/utils.ts -->
<g id="edge42" class="edge">
<title>src/transformers/transformNumberedListItem.ts&#45;&gt;src/transformers/utils.ts</title>
<path fill="none" stroke="#000000" stroke-width="2" stroke-opacity="0.200000" d="M365.23,-250.16C367.67,-251.86 369.94,-253.79 372,-256 404.66,-291.04 355.07,-325.59 385,-363 385.59,-363.74 386.22,-364.43 386.89,-365.08"/>
<polygon fill="#000000" fill-opacity="0.200000" stroke="#000000" stroke-width="2" stroke-opacity="0.200000" points="384.99,-368.02 395.24,-370.7 388.9,-362.22 384.99,-368.02"/>
</g>
<!-- src/transformers/transformPage.ts&#45;&gt;src/transformers/utils.ts -->
<g id="edge43" class="edge">
<title>src/transformers/transformPage.ts&#45;&gt;src/transformers/utils.ts</title>
<path fill="none" stroke="#000000" stroke-width="2" stroke-opacity="0.200000" d="M340.55,-630.9C352.12,-628.69 363.62,-624.28 372,-616 403.44,-584.94 416.45,-446.19 420.24,-395.03"/>
<polygon fill="#000000" fill-opacity="0.200000" stroke="#000000" stroke-width="2" stroke-opacity="0.200000" points="423.73,-395.23 420.94,-385.01 416.75,-394.74 423.73,-395.23"/>
</g>
<!-- src/transformers/transformQuote.ts&#45;&gt;src/transformers/utils.ts -->
<g id="edge44" class="edge">
<title>src/transformers/transformQuote.ts&#45;&gt;src/transformers/utils.ts</title>
<path fill="none" stroke="#000000" stroke-width="2" stroke-opacity="0.200000" d="M343.17,-210.92C354.04,-213.26 364.54,-217.78 372,-226 392.56,-248.64 366.21,-338.87 385,-363 385.58,-363.74 386.2,-364.44 386.87,-365.1"/>
<polygon fill="#000000" fill-opacity="0.200000" stroke="#000000" stroke-width="2" stroke-opacity="0.200000" points="384.93,-368.02 395.17,-370.76 388.88,-362.24 384.93,-368.02"/>
</g>
<!-- src/transformers/transformStub.ts&#45;&gt;src/transformers/utils.ts -->
<g id="edge45" class="edge">
<title>src/transformers/transformStub.ts&#45;&gt;src/transformers/utils.ts</title>
<path fill="none" stroke="#000000" stroke-width="2" stroke-opacity="0.200000" d="M340.85,-180.35C352.57,-182.52 364.06,-187.1 372,-196 396.79,-223.77 362.38,-333.44 385,-363 385.59,-363.77 386.23,-364.5 386.91,-365.18"/>
<polygon fill="#000000" fill-opacity="0.200000" stroke="#000000" stroke-width="2" stroke-opacity="0.200000" points="385.24,-368.27 395.49,-370.97 389.16,-362.47 385.24,-368.27"/>
</g>
<!-- src/transformers/transformText.ts&#45;&gt;src/transformers/utils.ts -->
<g id="edge46" class="edge">
<title>src/transformers/transformText.ts&#45;&gt;src/transformers/utils.ts</title>
<path fill="none" stroke="#000000" stroke-width="2" stroke-opacity="0.200000" d="M338.9,-149.94C351.31,-151.95 363.66,-156.54 372,-166 401.02,-198.9 358.54,-328 385,-363 385.59,-363.77 386.22,-364.5 386.9,-365.19"/>
<polygon fill="#000000" fill-opacity="0.200000" stroke="#000000" stroke-width="2" stroke-opacity="0.200000" points="385.21,-368.27 395.45,-371 389.15,-362.48 385.21,-368.27"/>
</g>
<!-- src/transformers/transformToDo.ts&#45;&gt;src/transformers/utils.ts -->
<g id="edge47" class="edge">
<title>src/transformers/transformToDo.ts&#45;&gt;src/transformers/utils.ts</title>
<path fill="none" stroke="#000000" stroke-width="2" stroke-opacity="0.200000" d="M340.25,-478.88C351.43,-476.63 362.81,-472.7 372,-466 396.06,-448.48 409.79,-415.55 416.43,-394.75"/>
<polygon fill="#000000" fill-opacity="0.200000" stroke="#000000" stroke-width="2" stroke-opacity="0.200000" points="419.79,-395.7 419.27,-385.12 413.08,-393.72 419.79,-395.7"/>
</g>
<!-- src/transformers/transformToggleList.ts&#45;&gt;src/transformers/utils.ts -->
<g id="edge48" class="edge">
<title>src/transformers/transformToggleList.ts&#45;&gt;src/transformers/utils.ts</title>
<path fill="none" stroke="#000000" stroke-width="2" stroke-opacity="0.200000" d="M351.63,-444.66C358.77,-442.53 365.76,-439.71 372,-436 388.98,-425.91 402.71,-407.77 411.37,-394.07"/>
<polygon fill="#000000" fill-opacity="0.200000" stroke="#000000" stroke-width="2" stroke-opacity="0.200000" points="414.4,-395.82 416.53,-385.44 408.39,-392.23 414.4,-395.82"/>
</g>
</g>
</svg>
