<?xml version="1.0" encoding="UTF-8" standalone="no"?>
<!DOCTYPE svg PUBLIC "-//W3C//DTD SVG 1.1//EN"
 "http://www.w3.org/Graphics/SVG/1.1/DTD/svg11.dtd">
<!-- Generated by graphviz version 2.43.20190912.0211 (20190912.0211)
 -->
<!-- Title: dependency&#45;cruiser output Pages: 1 -->
<svg width="484pt" height="722pt"
 viewBox="0.00 0.00 484.00 722.00" xmlns="http://www.w3.org/2000/svg" xmlns:xlink="http://www.w3.org/1999/xlink">
<g id="graph0" class="graph" transform="scale(1 1) rotate(0) translate(4 718)">
<title>dependency&#45;cruiser output</title>
<polygon fill="white" stroke="transparent" points="-4,4 -4,-718 480,-718 480,4 -4,4"/>
<g id="clust1" class="cluster">
<title>cluster_src</title>
<path fill="#ffffff" stroke="black" stroke-width="2" d="M20,-26C20,-26 456,-26 456,-26 462,-26 468,-32 468,-38 468,-38 468,-694 468,-694 468,-700 462,-706 456,-706 456,-706 20,-706 20,-706 14,-706 8,-700 8,-694 8,-694 8,-38 8,-38 8,-32 14,-26 20,-26"/>
<text text-anchor="middle" x="238" y="-694.8" font-family="Helvetica,sans-Serif" font-weight="bold" font-size="9.00">src</text>
</g>
<g id="clust2" class="cluster">
<title>cluster_src/transformers</title>
<path fill="#ffffff" stroke="black" stroke-width="2" d="M90,-74C90,-74 445.5,-74 445.5,-74 451.5,-74 457.5,-80 457.5,-86 457.5,-86 457.5,-668 457.5,-668 457.5,-674 451.5,-680 445.5,-680 445.5,-680 90,-680 90,-680 84,-680 78,-674 78,-668 78,-668 78,-86 78,-86 78,-80 84,-74 90,-74"/>
<text text-anchor="middle" x="267.75" y="-668.8" font-family="Helvetica,sans-Serif" font-weight="bold" font-size="9.00">transformers</text>
</g>
<!-- assert -->
<g id="node1" class="node">
<title>assert</title>
<path fill="#ffffcc" stroke="grey" d="M165,-18C165,-18 123,-18 123,-18 120,-18 117,-15 117,-12 117,-12 117,-6 117,-6 117,-3 120,0 123,0 123,0 165,0 165,0 168,0 171,-3 171,-6 171,-6 171,-12 171,-12 171,-15 168,-18 165,-18"/>
<text text-anchor="middle" x="144" y="-6.8" font-family="Helvetica,sans-Serif" font-size="9.00" fill="grey">assert</text>
</g>
<!-- src/block&#45;map.ts -->
<g id="node2" class="node">
<title>src/block&#45;map.ts</title>
<g id="a_node2"><a xlink:href="https://github.com/dragonman225/nast-util-from-notionapi/tree/master/src/block-map.ts" xlink:title="block&#45;map.ts">
<path fill="#ddfeff" stroke="black" d="M454,-66C454,-66 391,-66 391,-66 388,-66 385,-63 385,-60 385,-60 385,-54 385,-54 385,-51 388,-48 391,-48 391,-48 454,-48 454,-48 457,-48 460,-51 460,-54 460,-54 460,-60 460,-60 460,-63 457,-66 454,-66"/>
<text text-anchor="middle" x="422.5" y="-54.8" font-family="Helvetica,sans-Serif" font-size="9.00">block&#45;map.ts</text>
</a>
</g>
</g>
<!-- src/index.ts -->
<g id="node3" class="node">
<title>src/index.ts</title>
<g id="a_node3"><a xlink:href="https://github.com/dragonman225/nast-util-from-notionapi/tree/master/src/index.ts" xlink:title="index.ts">
<path fill="#ddfeff" stroke="black" d="M64,-59C64,-59 22,-59 22,-59 19,-59 16,-56 16,-53 16,-53 16,-47 16,-47 16,-44 19,-41 22,-41 22,-41 64,-41 64,-41 67,-41 70,-44 70,-47 70,-47 70,-53 70,-53 70,-56 67,-59 64,-59"/>
<text text-anchor="middle" x="43" y="-47.8" font-family="Helvetica,sans-Serif" font-size="9.00">index.ts</text>
</a>
</g>
</g>
<!-- src/index.ts&#45;&gt;assert -->
<g id="edge2" class="edge">
<title>src/index.ts&#45;&gt;assert</title>
<path fill="none" stroke="grey" d="M53.02,-40.91C59.45,-34.94 68.6,-27.45 78,-23 86.89,-18.8 97.06,-15.84 106.68,-13.77"/>
<polygon fill="grey" stroke="grey" points="107.63,-17.15 116.8,-11.85 106.33,-10.27 107.63,-17.15"/>
</g>
<!-- src/transformBlock.ts -->
<g id="node4" class="node">
<title>src/transformBlock.ts</title>
<g id="a_node4"><a xlink:href="https://github.com/dragonman225/nast-util-from-notionapi/tree/master/src/transformBlock.ts" xlink:title="transformBlock.ts">
<path fill="#ddfeff" stroke="black" d="M186,-66C186,-66 102,-66 102,-66 99,-66 96,-63 96,-60 96,-60 96,-54 96,-54 96,-51 99,-48 102,-48 102,-48 186,-48 186,-48 189,-48 192,-51 192,-54 192,-54 192,-60 192,-60 192,-63 189,-66 186,-66"/>
<text text-anchor="middle" x="144" y="-54.8" font-family="Helvetica,sans-Serif" font-size="9.00">transformBlock.ts</text>
</a>
</g>
</g>
<!-- src/index.ts&#45;&gt;src/transformBlock.ts -->
<g id="edge1" class="edge">
<title>src/index.ts&#45;&gt;src/transformBlock.ts</title>
<path fill="none" stroke="#000000" stroke-width="2" stroke-opacity="0.200000" d="M70.01,-51.84C74.83,-52.18 80.03,-52.55 85.37,-52.92"/>
<polygon fill="#000000" fill-opacity="0.200000" stroke="#000000" stroke-width="2" stroke-opacity="0.200000" points="85.49,-56.44 95.72,-53.66 85.99,-49.46 85.49,-56.44"/>
</g>
<!-- src/transformBlock.ts&#45;&gt;src/block&#45;map.ts -->
<g id="edge3" class="edge">
<title>src/transformBlock.ts&#45;&gt;src/block&#45;map.ts</title>
<path fill="none" stroke="#000000" stroke-width="2" stroke-opacity="0.200000" d="M192.07,-57.76C199.73,-57.86 207.59,-57.95 215,-58 284.78,-58.5 302.23,-58.7 372,-58 372.9,-57.99 373.81,-57.98 374.73,-57.97"/>
<polygon fill="#000000" fill-opacity="0.200000" stroke="#000000" stroke-width="2" stroke-opacity="0.200000" points="374.79,-61.47 384.74,-57.83 374.69,-54.47 374.79,-61.47"/>
</g>
<!-- src/transformers/transformAudio.ts -->
<g id="node5" class="node">
<title>src/transformers/transformAudio.ts</title>
<g id="a_node5"><a xlink:href="https://github.com/dragonman225/nast-util-from-notionapi/tree/master/src/transformers/transformAudio.ts" xlink:title="transformAudio.ts">
<path fill="#ddfeff" stroke="black" d="M336.5,-610C336.5,-610 250.5,-610 250.5,-610 247.5,-610 244.5,-607 244.5,-604 244.5,-604 244.5,-598 244.5,-598 244.5,-595 247.5,-592 250.5,-592 250.5,-592 336.5,-592 336.5,-592 339.5,-592 342.5,-595 342.5,-598 342.5,-598 342.5,-604 342.5,-604 342.5,-607 339.5,-610 336.5,-610"/>
<text text-anchor="middle" x="293.5" y="-598.8" font-family="Helvetica,sans-Serif" font-size="9.00">transformAudio.ts</text>
</a>
</g>
</g>
<!-- src/transformBlock.ts&#45;&gt;src/transformers/transformAudio.ts -->
<g id="edge4" class="edge">
<title>src/transformBlock.ts&#45;&gt;src/transformers/transformAudio.ts</title>
<path fill="none" stroke="#000000" stroke-width="2" stroke-opacity="0.200000" d="M192.01,-62.86C195.82,-64.92 199.25,-67.59 202,-71 237.89,-115.6 178.02,-542.31 215,-586 220.17,-592.1 227.01,-596.21 234.49,-598.9"/>
<polygon fill="#000000" fill-opacity="0.200000" stroke="#000000" stroke-width="2" stroke-opacity="0.200000" points="233.65,-602.3 244.23,-601.6 235.53,-595.56 233.65,-602.3"/>
</g>
<!-- src/transformers/transformBookmark.ts -->
<g id="node6" class="node">
<title>src/transformers/transformBookmark.ts</title>
<g id="a_node6"><a xlink:href="https://github.com/dragonman225/nast-util-from-notionapi/tree/master/src/transformers/transformBookmark.ts" xlink:title="transformBookmark.ts">
<path fill="#ddfeff" stroke="black" d="M346,-580C346,-580 241,-580 241,-580 238,-580 235,-577 235,-574 235,-574 235,-568 235,-568 235,-565 238,-562 241,-562 241,-562 346,-562 346,-562 349,-562 352,-565 352,-568 352,-568 352,-574 352,-574 352,-577 349,-580 346,-580"/>
<text text-anchor="middle" x="293.5" y="-568.8" font-family="Helvetica,sans-Serif" font-size="9.00">transformBookmark.ts</text>
</a>
</g>
</g>
<!-- src/transformBlock.ts&#45;&gt;src/transformers/transformBookmark.ts -->
<g id="edge5" class="edge">
<title>src/transformBlock.ts&#45;&gt;src/transformers/transformBookmark.ts</title>
<path fill="none" stroke="#000000" stroke-width="2" stroke-opacity="0.200000" d="M192.01,-62.86C195.82,-64.93 199.25,-67.59 202,-71 235.83,-112.97 180.14,-514.88 215,-556 218.02,-559.57 221.62,-562.45 225.57,-564.76"/>
<polygon fill="#000000" fill-opacity="0.200000" stroke="#000000" stroke-width="2" stroke-opacity="0.200000" points="224.19,-567.98 234.74,-568.98 227.12,-561.62 224.19,-567.98"/>
</g>
<!-- src/transformers/transformBulletedListItem.ts -->
<g id="node7" class="node">
<title>src/transformers/transformBulletedListItem.ts</title>
<g id="a_node7"><a xlink:href="https://github.com/dragonman225/nast-util-from-notionapi/tree/master/src/transformers/transformBulletedListItem.ts" xlink:title="transformBulletedListItem.ts">
<path fill="#ddfeff" stroke="black" d="M360.5,-550C360.5,-550 226.5,-550 226.5,-550 223.5,-550 220.5,-547 220.5,-544 220.5,-544 220.5,-538 220.5,-538 220.5,-535 223.5,-532 226.5,-532 226.5,-532 360.5,-532 360.5,-532 363.5,-532 366.5,-535 366.5,-538 366.5,-538 366.5,-544 366.5,-544 366.5,-547 363.5,-550 360.5,-550"/>
<text text-anchor="middle" x="293.5" y="-538.8" font-family="Helvetica,sans-Serif" font-size="9.00">transformBulletedListItem.ts</text>
</a>
</g>
</g>
<!-- src/transformBlock.ts&#45;&gt;src/transformers/transformBulletedListItem.ts -->
<g id="edge6" class="edge">
<title>src/transformBlock.ts&#45;&gt;src/transformers/transformBulletedListItem.ts</title>
<path fill="none" stroke="#000000" stroke-width="2" stroke-opacity="0.200000" d="M192.26,-63.01C195.97,-65.06 199.31,-67.67 202,-71 232.22,-108.43 187.09,-451.43 216.11,-523.03"/>
<polygon fill="#000000" fill-opacity="0.200000" stroke="#000000" stroke-width="2" stroke-opacity="0.200000" points="213.16,-524.92 221.19,-531.83 219.23,-521.42 213.16,-524.92"/>
</g>
<!-- src/transformers/transformCallout.ts -->
<g id="node8" class="node">
<title>src/transformers/transformCallout.ts</title>
<g id="a_node8"><a xlink:href="https://github.com/dragonman225/nast-util-from-notionapi/tree/master/src/transformers/transformCallout.ts" xlink:title="transformCallout.ts">
<path fill="#ddfeff" stroke="black" d="M339,-520C339,-520 248,-520 248,-520 245,-520 242,-517 242,-514 242,-514 242,-508 242,-508 242,-505 245,-502 248,-502 248,-502 339,-502 339,-502 342,-502 345,-505 345,-508 345,-508 345,-514 345,-514 345,-517 342,-520 339,-520"/>
<text text-anchor="middle" x="293.5" y="-508.8" font-family="Helvetica,sans-Serif" font-size="9.00">transformCallout.ts</text>
</a>
</g>
</g>
<!-- src/transformBlock.ts&#45;&gt;src/transformers/transformCallout.ts -->
<g id="edge7" class="edge">
<title>src/transformBlock.ts&#45;&gt;src/transformers/transformCallout.ts</title>
<path fill="none" stroke="#000000" stroke-width="2" stroke-opacity="0.200000" d="M192.26,-63.02C195.97,-65.06 199.31,-67.67 202,-71 231.72,-107.73 184.38,-460.02 215,-496 219.6,-501.4 225.5,-505.23 231.99,-507.9"/>
<polygon fill="#000000" fill-opacity="0.200000" stroke="#000000" stroke-width="2" stroke-opacity="0.200000" points="231.26,-511.34 241.85,-511.04 233.38,-504.67 231.26,-511.34"/>
</g>
<!-- src/transformers/transformCode.ts -->
<g id="node9" class="node">
<title>src/transformers/transformCode.ts</title>
<g id="a_node9"><a xlink:href="https://github.com/dragonman225/nast-util-from-notionapi/tree/master/src/transformers/transformCode.ts" xlink:title="transformCode.ts">
<path fill="#ddfeff" stroke="black" d="M335,-490C335,-490 252,-490 252,-490 249,-490 246,-487 246,-484 246,-484 246,-478 246,-478 246,-475 249,-472 252,-472 252,-472 335,-472 335,-472 338,-472 341,-475 341,-478 341,-478 341,-484 341,-484 341,-487 338,-490 335,-490"/>
<text text-anchor="middle" x="293.5" y="-478.8" font-family="Helvetica,sans-Serif" font-size="9.00">transformCode.ts</text>
</a>
</g>
</g>
<!-- src/transformBlock.ts&#45;&gt;src/transformers/transformCode.ts -->
<g id="edge8" class="edge">
<title>src/transformBlock.ts&#45;&gt;src/transformers/transformCode.ts</title>
<path fill="none" stroke="#000000" stroke-width="2" stroke-opacity="0.200000" d="M192.25,-63.02C195.96,-65.07 199.3,-67.68 202,-71 229.66,-105.11 186.5,-432.59 215,-466 220.56,-472.52 228.03,-476.75 236.14,-479.42"/>
<polygon fill="#000000" fill-opacity="0.200000" stroke="#000000" stroke-width="2" stroke-opacity="0.200000" points="235.33,-482.82 245.89,-481.88 237.05,-476.04 235.33,-482.82"/>
</g>
<!-- src/transformers/transformCollection.ts -->
<g id="node10" class="node">
<title>src/transformers/transformCollection.ts</title>
<g id="a_node10"><a xlink:href="https://github.com/dragonman225/nast-util-from-notionapi/tree/master/src/transformers/transformCollection.ts" xlink:title="transformCollection.ts">
<path fill="#ddfeff" stroke="black" d="M196,-640C196,-640 92,-640 92,-640 89,-640 86,-637 86,-634 86,-634 86,-628 86,-628 86,-625 89,-622 92,-622 92,-622 196,-622 196,-622 199,-622 202,-625 202,-628 202,-628 202,-634 202,-634 202,-637 199,-640 196,-640"/>
<text text-anchor="middle" x="144" y="-628.8" font-family="Helvetica,sans-Serif" font-size="9.00">transformCollection.ts</text>
</a>
</g>
</g>
<!-- src/transformBlock.ts&#45;&gt;src/transformers/transformCollection.ts -->
<g id="edge9" class="edge">
<title>src/transformBlock.ts&#45;&gt;src/transformers/transformCollection.ts</title>
<path fill="none" stroke="#000000" stroke-width="2" stroke-opacity="0.200000" d="M144,-66.25C144,-248.12 144,-429.99 144,-611.86"/>
<polygon fill="#000000" fill-opacity="0.200000" stroke="#000000" stroke-width="2" stroke-opacity="0.200000" points="140.5,-611.9 144,-621.9 147.5,-611.9 140.5,-611.9"/>
</g>
<!-- src/transformers/transformColumn.ts -->
<g id="node11" class="node">
<title>src/transformers/transformColumn.ts</title>
<g id="a_node11"><a xlink:href="https://github.com/dragonman225/nast-util-from-notionapi/tree/master/src/transformers/transformColumn.ts" xlink:title="transformColumn.ts">
<path fill="#ddfeff" stroke="black" d="M341,-400C341,-400 246,-400 246,-400 243,-400 240,-397 240,-394 240,-394 240,-388 240,-388 240,-385 243,-382 246,-382 246,-382 341,-382 341,-382 344,-382 347,-385 347,-388 347,-388 347,-394 347,-394 347,-397 344,-400 341,-400"/>
<text text-anchor="middle" x="293.5" y="-388.8" font-family="Helvetica,sans-Serif" font-size="9.00">transformColumn.ts</text>
</a>
</g>
</g>
<!-- src/transformBlock.ts&#45;&gt;src/transformers/transformColumn.ts -->
<g id="edge10" class="edge">
<title>src/transformBlock.ts&#45;&gt;src/transformers/transformColumn.ts</title>
<path fill="none" stroke="#000000" stroke-width="2" stroke-opacity="0.200000" d="M192.22,-63.05C195.93,-65.09 199.29,-67.69 202,-71 223.49,-97.24 192.86,-350.3 215,-376 219.23,-380.91 224.53,-384.51 230.38,-387.13"/>
<polygon fill="#000000" fill-opacity="0.200000" stroke="#000000" stroke-width="2" stroke-opacity="0.200000" points="229.33,-390.47 239.92,-390.48 231.64,-383.87 229.33,-390.47"/>
</g>
<!-- src/transformers/transformColumnList.ts -->
<g id="node12" class="node">
<title>src/transformers/transformColumnList.ts</title>
<g id="a_node12"><a xlink:href="https://github.com/dragonman225/nast-util-from-notionapi/tree/master/src/transformers/transformColumnList.ts" xlink:title="transformColumnList.ts">
<path fill="#ddfeff" stroke="black" d="M348.5,-370C348.5,-370 238.5,-370 238.5,-370 235.5,-370 232.5,-367 232.5,-364 232.5,-364 232.5,-358 232.5,-358 232.5,-355 235.5,-352 238.5,-352 238.5,-352 348.5,-352 348.5,-352 351.5,-352 354.5,-355 354.5,-358 354.5,-358 354.5,-364 354.5,-364 354.5,-367 351.5,-370 348.5,-370"/>
<text text-anchor="middle" x="293.5" y="-358.8" font-family="Helvetica,sans-Serif" font-size="9.00">transformColumnList.ts</text>
</a>
</g>
</g>
<!-- src/transformBlock.ts&#45;&gt;src/transformers/transformColumnList.ts -->
<g id="edge11" class="edge">
<title>src/transformBlock.ts&#45;&gt;src/transformers/transformColumnList.ts</title>
<path fill="none" stroke="#000000" stroke-width="2" stroke-opacity="0.200000" d="M192.2,-63.07C195.92,-65.1 199.28,-67.7 202,-71 221.44,-94.62 194.98,-322.87 215,-346 217.4,-348.78 220.16,-351.14 223.15,-353.14"/>
<polygon fill="#000000" fill-opacity="0.200000" stroke="#000000" stroke-width="2" stroke-opacity="0.200000" points="221.7,-356.33 232.18,-357.87 224.95,-350.13 221.7,-356.33"/>
</g>
<!-- src/transformers/transformDivider.ts -->
<g id="node13" class="node">
<title>src/transformers/transformDivider.ts</title>
<g id="a_node13"><a xlink:href="https://github.com/dragonman225/nast-util-from-notionapi/tree/master/src/transformers/transformDivider.ts" xlink:title="transformDivider.ts">
<path fill="#ddfeff" stroke="black" d="M338.5,-340C338.5,-340 248.5,-340 248.5,-340 245.5,-340 242.5,-337 242.5,-334 242.5,-334 242.5,-328 242.5,-328 242.5,-325 245.5,-322 248.5,-322 248.5,-322 338.5,-322 338.5,-322 341.5,-322 344.5,-325 344.5,-328 344.5,-328 344.5,-334 344.5,-334 344.5,-337 341.5,-340 338.5,-340"/>
<text text-anchor="middle" x="293.5" y="-328.8" font-family="Helvetica,sans-Serif" font-size="9.00">transformDivider.ts</text>
</a>
</g>
</g>
<!-- src/transformBlock.ts&#45;&gt;src/transformers/transformDivider.ts -->
<g id="edge12" class="edge">
<title>src/transformBlock.ts&#45;&gt;src/transformers/transformDivider.ts</title>
<path fill="none" stroke="#000000" stroke-width="2" stroke-opacity="0.200000" d="M192.18,-63.08C195.9,-65.11 199.27,-67.7 202,-71 236.77,-113 179.2,-274.88 215,-316 219.72,-321.42 225.75,-325.24 232.36,-327.91"/>
<polygon fill="#000000" fill-opacity="0.200000" stroke="#000000" stroke-width="2" stroke-opacity="0.200000" points="231.79,-331.39 242.38,-331.02 233.87,-324.71 231.79,-331.39"/>
</g>
<!-- src/transformers/transformEmbed.ts -->
<g id="node14" class="node">
<title>src/transformers/transformEmbed.ts</title>
<g id="a_node14"><a xlink:href="https://github.com/dragonman225/nast-util-from-notionapi/tree/master/src/transformers/transformEmbed.ts" xlink:title="transformEmbed.ts">
<path fill="#ddfeff" stroke="black" d="M339.5,-310C339.5,-310 247.5,-310 247.5,-310 244.5,-310 241.5,-307 241.5,-304 241.5,-304 241.5,-298 241.5,-298 241.5,-295 244.5,-292 247.5,-292 247.5,-292 339.5,-292 339.5,-292 342.5,-292 345.5,-295 345.5,-298 345.5,-298 345.5,-304 345.5,-304 345.5,-307 342.5,-310 339.5,-310"/>
<text text-anchor="middle" x="293.5" y="-298.8" font-family="Helvetica,sans-Serif" font-size="9.00">transformEmbed.ts</text>
</a>
</g>
</g>
<!-- src/transformBlock.ts&#45;&gt;src/transformers/transformEmbed.ts -->
<g id="edge13" class="edge">
<title>src/transformBlock.ts&#45;&gt;src/transformers/transformEmbed.ts</title>
<path fill="none" stroke="#000000" stroke-width="2" stroke-opacity="0.200000" d="M192.15,-63.1C195.88,-65.13 199.26,-67.71 202,-71 232.66,-107.76 183.44,-250.01 215,-286 219.55,-291.19 225.32,-294.92 231.64,-297.56"/>
<polygon fill="#000000" fill-opacity="0.200000" stroke="#000000" stroke-width="2" stroke-opacity="0.200000" points="230.63,-300.91 241.22,-300.7 232.81,-294.26 230.63,-300.91"/>
</g>
<!-- src/transformers/transformEquation.ts -->
<g id="node15" class="node">
<title>src/transformers/transformEquation.ts</title>
<g id="a_node15"><a xlink:href="https://github.com/dragonman225/nast-util-from-notionapi/tree/master/src/transformers/transformEquation.ts" xlink:title="transformEquation.ts">
<path fill="#ddfeff" stroke="black" d="M344,-280C344,-280 243,-280 243,-280 240,-280 237,-277 237,-274 237,-274 237,-268 237,-268 237,-265 240,-262 243,-262 243,-262 344,-262 344,-262 347,-262 350,-265 350,-268 350,-268 350,-274 350,-274 350,-277 347,-280 344,-280"/>
<text text-anchor="middle" x="293.5" y="-268.8" font-family="Helvetica,sans-Serif" font-size="9.00">transformEquation.ts</text>
</a>
</g>
</g>
<!-- src/transformBlock.ts&#45;&gt;src/transformers/transformEquation.ts -->
<g id="edge14" class="edge">
<title>src/transformBlock.ts&#45;&gt;src/transformers/transformEquation.ts</title>
<path fill="none" stroke="#000000" stroke-width="2" stroke-opacity="0.200000" d="M192.12,-63.13C195.86,-65.15 199.24,-67.73 202,-71 228.55,-102.52 187.67,-225.15 215,-256 218.54,-260 222.81,-263.13 227.49,-265.56"/>
<polygon fill="#000000" fill-opacity="0.200000" stroke="#000000" stroke-width="2" stroke-opacity="0.200000" points="226.34,-268.88 236.92,-269.42 228.99,-262.4 226.34,-268.88"/>
</g>
<!-- src/transformers/transformHeading.ts -->
<g id="node16" class="node">
<title>src/transformers/transformHeading.ts</title>
<g id="a_node16"><a xlink:href="https://github.com/dragonman225/nast-util-from-notionapi/tree/master/src/transformers/transformHeading.ts" xlink:title="transformHeading.ts">
<path fill="#ddfeff" stroke="black" d="M342.5,-100C342.5,-100 244.5,-100 244.5,-100 241.5,-100 238.5,-97 238.5,-94 238.5,-94 238.5,-88 238.5,-88 238.5,-85 241.5,-82 244.5,-82 244.5,-82 342.5,-82 342.5,-82 345.5,-82 348.5,-85 348.5,-88 348.5,-88 348.5,-94 348.5,-94 348.5,-97 345.5,-100 342.5,-100"/>
<text text-anchor="middle" x="293.5" y="-88.8" font-family="Helvetica,sans-Serif" font-size="9.00">transformHeading.ts</text>
</a>
</g>
</g>
<!-- src/transformBlock.ts&#45;&gt;src/transformers/transformHeading.ts -->
<g id="edge15" class="edge">
<title>src/transformBlock.ts&#45;&gt;src/transformers/transformHeading.ts</title>
<path fill="none" stroke="#000000" stroke-width="2" stroke-opacity="0.200000" d="M187.09,-66.05C192.17,-67.52 197.25,-69.17 202,-71 208.12,-73.36 208.79,-75.87 215,-78 219.25,-79.46 223.7,-80.75 228.21,-81.91"/>
<polygon fill="#000000" fill-opacity="0.200000" stroke="#000000" stroke-width="2" stroke-opacity="0.200000" points="227.62,-85.37 238.15,-84.22 229.2,-78.55 227.62,-85.37"/>
</g>
<!-- src/transformers/transformImage.ts -->
<g id="node17" class="node">
<title>src/transformers/transformImage.ts</title>
<g id="a_node17"><a xlink:href="https://github.com/dragonman225/nast-util-from-notionapi/tree/master/src/transformers/transformImage.ts" xlink:title="transformImage.ts">
<path fill="#ddfeff" stroke="black" d="M338,-250C338,-250 249,-250 249,-250 246,-250 243,-247 243,-244 243,-244 243,-238 243,-238 243,-235 246,-232 249,-232 249,-232 338,-232 338,-232 341,-232 344,-235 344,-238 344,-238 344,-244 344,-244 344,-247 341,-250 338,-250"/>
<text text-anchor="middle" x="293.5" y="-238.8" font-family="Helvetica,sans-Serif" font-size="9.00">transformImage.ts</text>
</a>
</g>
</g>
<!-- src/transformBlock.ts&#45;&gt;src/transformers/transformImage.ts -->
<g id="edge16" class="edge">
<title>src/transformBlock.ts&#45;&gt;src/transformers/transformImage.ts</title>
<path fill="none" stroke="#000000" stroke-width="2" stroke-opacity="0.200000" d="M192.07,-63.17C195.82,-65.18 199.22,-67.75 202,-71 224.45,-97.28 191.91,-200.28 215,-226 219.97,-231.54 226.32,-235.4 233.24,-238.05"/>
<polygon fill="#000000" fill-opacity="0.200000" stroke="#000000" stroke-width="2" stroke-opacity="0.200000" points="232.38,-241.45 242.96,-240.96 234.38,-234.74 232.38,-241.45"/>
</g>
<!-- src/transformers/transformNumberedListItem.ts -->
<g id="node18" class="node">
<title>src/transformers/transformNumberedListItem.ts</title>
<g id="a_node18"><a xlink:href="https://github.com/dragonman225/nast-util-from-notionapi/tree/master/src/transformers/transformNumberedListItem.ts" xlink:title="transformNumberedListItem.ts">
<path fill="#ddfeff" stroke="black" d="M366,-220C366,-220 221,-220 221,-220 218,-220 215,-217 215,-214 215,-214 215,-208 215,-208 215,-205 218,-202 221,-202 221,-202 366,-202 366,-202 369,-202 372,-205 372,-208 372,-208 372,-214 372,-214 372,-217 369,-220 366,-220"/>
<text text-anchor="middle" x="293.5" y="-208.8" font-family="Helvetica,sans-Serif" font-size="9.00">transformNumberedListItem.ts</text>
</a>
</g>
</g>
<!-- src/transformBlock.ts&#45;&gt;src/transformers/transformNumberedListItem.ts -->
<g id="edge17" class="edge">
<title>src/transformBlock.ts&#45;&gt;src/transformers/transformNumberedListItem.ts</title>
<path fill="none" stroke="#000000" stroke-width="2" stroke-opacity="0.200000" d="M192.01,-63.23C195.76,-65.23 199.19,-67.77 202,-71 236.62,-110.73 183.91,-150.09 215.15,-193.94"/>
<polygon fill="#000000" fill-opacity="0.200000" stroke="#000000" stroke-width="2" stroke-opacity="0.200000" points="212.65,-196.41 221.72,-201.89 218.05,-191.95 212.65,-196.41"/>
</g>
<!-- src/transformers/transformPage.ts -->
<g id="node19" class="node">
<title>src/transformers/transformPage.ts</title>
<g id="a_node19"><a xlink:href="https://github.com/dragonman225/nast-util-from-notionapi/tree/master/src/transformers/transformPage.ts" xlink:title="transformPage.ts">
<path fill="#ddfeff" stroke="black" d="M334.5,-640C334.5,-640 252.5,-640 252.5,-640 249.5,-640 246.5,-637 246.5,-634 246.5,-634 246.5,-628 246.5,-628 246.5,-625 249.5,-622 252.5,-622 252.5,-622 334.5,-622 334.5,-622 337.5,-622 340.5,-625 340.5,-628 340.5,-628 340.5,-634 340.5,-634 340.5,-637 337.5,-640 334.5,-640"/>
<text text-anchor="middle" x="293.5" y="-628.8" font-family="Helvetica,sans-Serif" font-size="9.00">transformPage.ts</text>
</a>
</g>
</g>
<!-- src/transformBlock.ts&#45;&gt;src/transformers/transformPage.ts -->
<g id="edge18" class="edge">
<title>src/transformBlock.ts&#45;&gt;src/transformers/transformPage.ts</title>
<path fill="none" stroke="#000000" stroke-width="2" stroke-opacity="0.200000" d="M192.02,-62.85C195.82,-64.92 199.26,-67.58 202,-71 220.97,-94.61 195.45,-592.87 215,-616 220.6,-622.62 228.16,-626.88 236.37,-629.55"/>
<polygon fill="#000000" fill-opacity="0.200000" stroke="#000000" stroke-width="2" stroke-opacity="0.200000" points="235.69,-632.99 246.24,-632 237.37,-626.2 235.69,-632.99"/>
</g>
<!-- src/transformers/transformQuote.ts -->
<g id="node20" class="node">
<title>src/transformers/transformQuote.ts</title>
<g id="a_node20"><a xlink:href="https://github.com/dragonman225/nast-util-from-notionapi/tree/master/src/transformers/transformQuote.ts" xlink:title="transformQuote.ts">
<path fill="#ddfeff" stroke="black" d="M337,-190C337,-190 250,-190 250,-190 247,-190 244,-187 244,-184 244,-184 244,-178 244,-178 244,-175 247,-172 250,-172 250,-172 337,-172 337,-172 340,-172 343,-175 343,-178 343,-178 343,-184 343,-184 343,-187 340,-190 337,-190"/>
<text text-anchor="middle" x="293.5" y="-178.8" font-family="Helvetica,sans-Serif" font-size="9.00">transformQuote.ts</text>
</a>
</g>
</g>
<!-- src/transformBlock.ts&#45;&gt;src/transformers/transformQuote.ts -->
<g id="edge19" class="edge">
<title>src/transformBlock.ts&#45;&gt;src/transformers/transformQuote.ts</title>
<path fill="none" stroke="#000000" stroke-width="2" stroke-opacity="0.200000" d="M192.17,-63.47C195.84,-65.43 199.2,-67.9 202,-71 230.51,-102.67 185.71,-135.05 215,-166 220.18,-171.47 226.71,-175.29 233.78,-177.9"/>
<polygon fill="#000000" fill-opacity="0.200000" stroke="#000000" stroke-width="2" stroke-opacity="0.200000" points="233.08,-181.35 243.66,-180.77 235.03,-174.62 233.08,-181.35"/>
</g>
<!-- src/transformers/transformStub.ts -->
<g id="node21" class="node">
<title>src/transformers/transformStub.ts</title>
<g id="a_node21"><a xlink:href="https://github.com/dragonman225/nast-util-from-notionapi/tree/master/src/transformers/transformStub.ts" xlink:title="transformStub.ts">
<path fill="#ddfeff" stroke="black" d="M334.5,-160C334.5,-160 252.5,-160 252.5,-160 249.5,-160 246.5,-157 246.5,-154 246.5,-154 246.5,-148 246.5,-148 246.5,-145 249.5,-142 252.5,-142 252.5,-142 334.5,-142 334.5,-142 337.5,-142 340.5,-145 340.5,-148 340.5,-148 340.5,-154 340.5,-154 340.5,-157 337.5,-160 334.5,-160"/>
<text text-anchor="middle" x="293.5" y="-148.8" font-family="Helvetica,sans-Serif" font-size="9.00">transformStub.ts</text>
</a>
</g>
</g>
<!-- src/transformBlock.ts&#45;&gt;src/transformers/transformStub.ts -->
<g id="edge20" class="edge">
<title>src/transformBlock.ts&#45;&gt;src/transformers/transformStub.ts</title>
<path fill="none" stroke="#000000" stroke-width="2" stroke-opacity="0.200000" d="M192.24,-63.79C195.85,-65.69 199.18,-68.06 202,-71 222.37,-92.28 194.1,-115.23 215,-136 220.94,-141.91 228.47,-145.85 236.48,-148.42"/>
<polygon fill="#000000" fill-opacity="0.200000" stroke="#000000" stroke-width="2" stroke-opacity="0.200000" points="235.87,-151.88 246.42,-150.93 237.58,-145.09 235.87,-151.88"/>
</g>
<!-- src/transformers/transformText.ts -->
<g id="node22" class="node">
<title>src/transformers/transformText.ts</title>
<g id="a_node22"><a xlink:href="https://github.com/dragonman225/nast-util-from-notionapi/tree/master/src/transformers/transformText.ts" xlink:title="transformText.ts">
<path fill="#ddfeff" stroke="black" d="M332.5,-130C332.5,-130 254.5,-130 254.5,-130 251.5,-130 248.5,-127 248.5,-124 248.5,-124 248.5,-118 248.5,-118 248.5,-115 251.5,-112 254.5,-112 254.5,-112 332.5,-112 332.5,-112 335.5,-112 338.5,-115 338.5,-118 338.5,-118 338.5,-124 338.5,-124 338.5,-127 335.5,-130 332.5,-130"/>
<text text-anchor="middle" x="293.5" y="-118.8" font-family="Helvetica,sans-Serif" font-size="9.00">transformText.ts</text>
</a>
</g>
</g>
<!-- src/transformBlock.ts&#45;&gt;src/transformers/transformText.ts -->
<g id="edge21" class="edge">
<title>src/transformBlock.ts&#45;&gt;src/transformers/transformText.ts</title>
<path fill="none" stroke="#000000" stroke-width="2" stroke-opacity="0.200000" d="M192.04,-64.42C195.65,-66.19 199.03,-68.36 202,-71 214.39,-82.04 202.34,-95.27 215,-106 221.76,-111.73 230.05,-115.52 238.66,-117.99"/>
<polygon fill="#000000" fill-opacity="0.200000" stroke="#000000" stroke-width="2" stroke-opacity="0.200000" points="237.94,-121.41 248.47,-120.25 239.51,-114.59 237.94,-121.41"/>
</g>
<!-- src/transformers/transformToDo.ts -->
<g id="node23" class="node">
<title>src/transformers/transformToDo.ts</title>
<g id="a_node23"><a xlink:href="https://github.com/dragonman225/nast-util-from-notionapi/tree/master/src/transformers/transformToDo.ts" xlink:title="transformToDo.ts">
<path fill="#ddfeff" stroke="black" d="M334,-460C334,-460 253,-460 253,-460 250,-460 247,-457 247,-454 247,-454 247,-448 247,-448 247,-445 250,-442 253,-442 253,-442 334,-442 334,-442 337,-442 340,-445 340,-448 340,-448 340,-454 340,-454 340,-457 337,-460 334,-460"/>
<text text-anchor="middle" x="293.5" y="-448.8" font-family="Helvetica,sans-Serif" font-size="9.00">transformToDo.ts</text>
</a>
</g>
</g>
<!-- src/transformBlock.ts&#45;&gt;src/transformers/transformToDo.ts -->
<g id="edge22" class="edge">
<title>src/transformBlock.ts&#45;&gt;src/transformers/transformToDo.ts</title>
<path fill="none" stroke="#000000" stroke-width="2" stroke-opacity="0.200000" d="M192.24,-63.03C195.95,-65.07 199.3,-67.68 202,-71 227.6,-102.48 188.62,-405.16 215,-436 220.7,-442.66 228.39,-446.93 236.72,-449.59"/>
<polygon fill="#000000" fill-opacity="0.200000" stroke="#000000" stroke-width="2" stroke-opacity="0.200000" points="236.17,-453.06 246.71,-452.01 237.82,-446.25 236.17,-453.06"/>
</g>
<!-- src/transformers/transformToggleList.ts -->
<g id="node24" class="node">
<title>src/transformers/transformToggleList.ts</title>
<g id="a_node24"><a xlink:href="https://github.com/dragonman225/nast-util-from-notionapi/tree/master/src/transformers/transformToggleList.ts" xlink:title="transformToggleList.ts">
<path fill="#ddfeff" stroke="black" d="M345.5,-430C345.5,-430 241.5,-430 241.5,-430 238.5,-430 235.5,-427 235.5,-424 235.5,-424 235.5,-418 235.5,-418 235.5,-415 238.5,-412 241.5,-412 241.5,-412 345.5,-412 345.5,-412 348.5,-412 351.5,-415 351.5,-418 351.5,-418 351.5,-424 351.5,-424 351.5,-427 348.5,-430 345.5,-430"/>
<text text-anchor="middle" x="293.5" y="-418.8" font-family="Helvetica,sans-Serif" font-size="9.00">transformToggleList.ts</text>
</a>
</g>
</g>
<!-- src/transformBlock.ts&#45;&gt;src/transformers/transformToggleList.ts -->
<g id="edge23" class="edge">
<title>src/transformBlock.ts&#45;&gt;src/transformers/transformToggleList.ts</title>
<path fill="none" stroke="#000000" stroke-width="2" stroke-opacity="0.200000" d="M192.23,-63.04C195.94,-65.08 199.29,-67.68 202,-71 225.55,-99.86 190.74,-377.73 215,-406 218.1,-409.61 221.78,-412.51 225.82,-414.84"/>
<polygon fill="#000000" fill-opacity="0.200000" stroke="#000000" stroke-width="2" stroke-opacity="0.200000" points="224.64,-418.14 235.19,-419.06 227.51,-411.76 224.64,-418.14"/>
</g>
<!-- src/utils.ts -->
<g id="node26" class="node">
<title>src/utils.ts</title>
<g id="a_node26"><a xlink:href="https://github.com/dragonman225/nast-util-from-notionapi/tree/master/src/utils.ts" xlink:title="utils.ts">
<path fill="#ddfeff" stroke="black" d="M314.5,-52C314.5,-52 272.5,-52 272.5,-52 269.5,-52 266.5,-49 266.5,-46 266.5,-46 266.5,-40 266.5,-40 266.5,-37 269.5,-34 272.5,-34 272.5,-34 314.5,-34 314.5,-34 317.5,-34 320.5,-37 320.5,-40 320.5,-40 320.5,-46 320.5,-46 320.5,-49 317.5,-52 314.5,-52"/>
<text text-anchor="middle" x="293.5" y="-40.8" font-family="Helvetica,sans-Serif" font-size="9.00">utils.ts</text>
</a>
</g>
</g>
<!-- src/transformBlock.ts&#45;&gt;src/utils.ts -->
<g id="edge24" class="edge">
<title>src/transformBlock.ts&#45;&gt;src/utils.ts</title>
<path fill="none" stroke="#000000" stroke-width="2" stroke-opacity="0.200000" d="M192.08,-52.53C212.85,-50.56 236.88,-48.28 256.23,-46.44"/>
<polygon fill="#000000" fill-opacity="0.200000" stroke="#000000" stroke-width="2" stroke-opacity="0.200000" points="256.82,-49.9 266.45,-45.47 256.16,-42.93 256.82,-49.9"/>
</g>
<!-- src/transformers/utils.ts -->
<g id="node25" class="node">
<title>src/transformers/utils.ts</title>
<g id="a_node25"><a xlink:href="https://github.com/dragonman225/nast-util-from-notionapi/tree/master/src/transformers/utils.ts" xlink:title="utils.ts">
<path fill="#ddfeff" stroke="black" d="M443.5,-385C443.5,-385 401.5,-385 401.5,-385 398.5,-385 395.5,-382 395.5,-379 395.5,-379 395.5,-373 395.5,-373 395.5,-370 398.5,-367 401.5,-367 401.5,-367 443.5,-367 443.5,-367 446.5,-367 449.5,-370 449.5,-373 449.5,-373 449.5,-379 449.5,-379 449.5,-382 446.5,-385 443.5,-385"/>
<text text-anchor="middle" x="422.5" y="-373.8" font-family="Helvetica,sans-Serif" font-size="9.00">utils.ts</text>
</a>
</g>
</g>
<!-- src/transformers/transformAudio.ts&#45;&gt;src/transformers/utils.ts -->
<g id="edge25" class="edge">
<title>src/transformers/transformAudio.ts&#45;&gt;src/transformers/utils.ts</title>
<path fill="none" stroke="#000000" stroke-width="2" stroke-opacity="0.200000" d="M342.81,-600.25C353.56,-597.91 364.09,-593.59 372,-586 399.58,-559.51 414.65,-441.7 419.63,-395.08"/>
<polygon fill="#000000" fill-opacity="0.200000" stroke="#000000" stroke-width="2" stroke-opacity="0.200000" points="423.11,-395.4 420.65,-385.09 416.15,-394.69 423.11,-395.4"/>
</g>
<!-- src/transformers/transformBookmark.ts&#45;&gt;src/transformers/utils.ts -->
<g id="edge26" class="edge">
<title>src/transformers/transformBookmark.ts&#45;&gt;src/transformers/utils.ts</title>
<path fill="none" stroke="#000000" stroke-width="2" stroke-opacity="0.200000" d="M352.18,-567.39C359.49,-564.86 366.37,-561.21 372,-556 417.93,-513.49 422.73,-432.69 422.32,-395.56"/>
<polygon fill="#000000" fill-opacity="0.200000" stroke="#000000" stroke-width="2" stroke-opacity="0.200000" points="425.81,-395.05 422.05,-385.14 418.81,-395.23 425.81,-395.05"/>
</g>
<!-- src/transformers/transformBulletedListItem.ts&#45;&gt;src/transformers/utils.ts -->
<g id="edge27" class="edge">
<title>src/transformers/transformBulletedListItem.ts&#45;&gt;src/transformers/utils.ts</title>
<path fill="none" stroke="#000000" stroke-width="2" stroke-opacity="0.200000" d="M363.64,-531.93C366.62,-530.23 369.43,-528.26 372,-526 410.51,-492.12 419.17,-427.68 421.04,-395.42"/>
<polygon fill="#000000" fill-opacity="0.200000" stroke="#000000" stroke-width="2" stroke-opacity="0.200000" points="424.55,-395.24 421.47,-385.1 417.56,-394.95 424.55,-395.24"/>
</g>
<!-- src/transformers/transformCallout.ts&#45;&gt;src/transformers/utils.ts -->
<g id="edge28" class="edge">
<title>src/transformers/transformCallout.ts&#45;&gt;src/transformers/utils.ts</title>
<path fill="none" stroke="#000000" stroke-width="2" stroke-opacity="0.200000" d="M345.22,-508.57C354.89,-506.16 364.36,-502.25 372,-496 403.14,-470.54 414.92,-422.24 419.2,-395.33"/>
<polygon fill="#000000" fill-opacity="0.200000" stroke="#000000" stroke-width="2" stroke-opacity="0.200000" points="422.69,-395.63 420.61,-385.24 415.76,-394.66 422.69,-395.63"/>
</g>
<!-- src/transformers/transformCode.ts&#45;&gt;src/transformers/utils.ts -->
<g id="edge29" class="edge">
<title>src/transformers/transformCode.ts&#45;&gt;src/transformers/utils.ts</title>
<path fill="none" stroke="#000000" stroke-width="2" stroke-opacity="0.200000" d="M341.06,-478.72C351.97,-476.44 363.03,-472.54 372,-466 396.06,-448.48 409.79,-415.55 416.43,-394.75"/>
<polygon fill="#000000" fill-opacity="0.200000" stroke="#000000" stroke-width="2" stroke-opacity="0.200000" points="419.79,-395.7 419.27,-385.12 413.08,-393.72 419.79,-395.7"/>
</g>
<!-- src/transformers/transformCollection.ts&#45;&gt;src/transformers/transformPage.ts -->
<g id="edge30" class="edge">
<title>src/transformers/transformCollection.ts&#45;&gt;src/transformers/transformPage.ts</title>
<path fill="none" stroke="#000000" stroke-width="2" stroke-opacity="0.200000" d="M202.03,-631C213.2,-631 224.91,-631 236.06,-631"/>
<polygon fill="#000000" fill-opacity="0.200000" stroke="#000000" stroke-width="2" stroke-opacity="0.200000" points="236.12,-634.5 246.12,-631 236.12,-627.5 236.12,-634.5"/>
</g>
<!-- src/transformers/transformCollection.ts&#45;&gt;src/transformers/utils.ts -->
<g id="edge31" class="edge">
<title>src/transformers/transformCollection.ts&#45;&gt;src/transformers/utils.ts</title>
<path fill="none" stroke="#000000" stroke-width="2" stroke-opacity="0.200000" d="M164.12,-640.1C206.9,-658.97 311.32,-696.57 372,-646 410.62,-613.82 419.2,-451.32 421.03,-395.14"/>
<polygon fill="#000000" fill-opacity="0.200000" stroke="#000000" stroke-width="2" stroke-opacity="0.200000" points="424.53,-395.22 421.32,-385.12 417.53,-395.01 424.53,-395.22"/>
</g>
<!-- src/transformers/transformColumn.ts&#45;&gt;src/transformers/utils.ts -->
<g id="edge32" class="edge">
<title>src/transformers/transformColumn.ts&#45;&gt;src/transformers/utils.ts</title>
<path fill="none" stroke="#000000" stroke-width="2" stroke-opacity="0.200000" d="M347.26,-384.77C360.12,-383.25 373.58,-381.66 385.46,-380.26"/>
<polygon fill="#000000" fill-opacity="0.200000" stroke="#000000" stroke-width="2" stroke-opacity="0.200000" points="385.92,-383.73 395.44,-379.08 385.1,-376.78 385.92,-383.73"/>
</g>
<!-- src/transformers/transformColumnList.ts&#45;&gt;src/transformers/utils.ts -->
<g id="edge33" class="edge">
<title>src/transformers/transformColumnList.ts&#45;&gt;src/transformers/utils.ts</title>
<path fill="none" stroke="#000000" stroke-width="2" stroke-opacity="0.200000" d="M354.65,-368.1C365.2,-369.35 375.87,-370.61 385.49,-371.75"/>
<polygon fill="#000000" fill-opacity="0.200000" stroke="#000000" stroke-width="2" stroke-opacity="0.200000" points="385.13,-375.23 395.47,-372.93 385.95,-368.28 385.13,-375.23"/>
</g>
<!-- src/transformers/transformDivider.ts&#45;&gt;src/transformers/utils.ts -->
<g id="edge34" class="edge">
<title>src/transformers/transformDivider.ts&#45;&gt;src/transformers/utils.ts</title>
<path fill="none" stroke="#000000" stroke-width="2" stroke-opacity="0.200000" d="M344.87,-335.25C354.35,-337.54 363.84,-340.95 372,-346 380.09,-351.01 377.31,-357.4 385,-363 385.49,-363.36 386,-363.71 386.51,-364.05"/>
<polygon fill="#000000" fill-opacity="0.200000" stroke="#000000" stroke-width="2" stroke-opacity="0.200000" points="384.96,-367.19 395.43,-368.82 388.26,-361.02 384.96,-367.19"/>
</g>
<!-- src/transformers/transformEmbed.ts&#45;&gt;src/transformers/utils.ts -->
<g id="edge35" class="edge">
<title>src/transformers/transformEmbed.ts&#45;&gt;src/transformers/utils.ts</title>
<path fill="none" stroke="#000000" stroke-width="2" stroke-opacity="0.200000" d="M345.83,-302.73C355.45,-305.19 364.75,-309.3 372,-316 387.92,-330.71 370.24,-347.13 385,-363 385.53,-363.57 386.09,-364.12 386.67,-364.64"/>
<polygon fill="#000000" fill-opacity="0.200000" stroke="#000000" stroke-width="2" stroke-opacity="0.200000" points="384.98,-367.71 395.28,-370.18 388.76,-361.83 384.98,-367.71"/>
</g>
<!-- src/transformers/transformEquation.ts&#45;&gt;src/transformers/utils.ts -->
<g id="edge36" class="edge">
<title>src/transformers/transformEquation.ts&#45;&gt;src/transformers/utils.ts</title>
<path fill="none" stroke="#000000" stroke-width="2" stroke-opacity="0.200000" d="M350.34,-273.31C358.46,-275.91 366.06,-279.92 372,-286 396.25,-310.83 362.7,-336.41 385,-363 385.61,-363.72 386.25,-364.4 386.94,-365.05"/>
<polygon fill="#000000" fill-opacity="0.200000" stroke="#000000" stroke-width="2" stroke-opacity="0.200000" points="385.09,-368.02 395.37,-370.6 388.94,-362.18 385.09,-368.02"/>
</g>
<!-- src/transformers/transformHeading.ts&#45;&gt;src/block&#45;map.ts -->
<g id="edge37" class="edge">
<title>src/transformers/transformHeading.ts&#45;&gt;src/block&#45;map.ts</title>
<path fill="none" stroke="#000000" stroke-width="2" stroke-opacity="0.200000" d="M348.85,-84.22C356.72,-82.56 364.64,-80.52 372,-78 378.21,-75.87 379.04,-73.74 385,-71 385.69,-70.68 386.4,-70.36 387.11,-70.05"/>
<polygon fill="#000000" fill-opacity="0.200000" stroke="#000000" stroke-width="2" stroke-opacity="0.200000" points="388.72,-73.17 396.58,-66.07 386.01,-66.71 388.72,-73.17"/>
</g>
<!-- src/transformers/transformHeading.ts&#45;&gt;src/transformers/utils.ts -->
<g id="edge38" class="edge">
<title>src/transformers/transformHeading.ts&#45;&gt;src/transformers/utils.ts</title>
<path fill="none" stroke="#000000" stroke-width="2" stroke-opacity="0.200000" d="M348.61,-92C357.56,-94.61 365.89,-98.96 372,-106 390.75,-127.59 367.93,-340.06 385,-363 385.58,-363.78 386.21,-364.51 386.88,-365.2"/>
<polygon fill="#000000" fill-opacity="0.200000" stroke="#000000" stroke-width="2" stroke-opacity="0.200000" points="385.18,-368.27 395.41,-371.03 389.13,-362.5 385.18,-368.27"/>
</g>
<!-- src/transformers/transformImage.ts&#45;&gt;src/transformers/utils.ts -->
<g id="edge39" class="edge">
<title>src/transformers/transformImage.ts&#45;&gt;src/transformers/utils.ts</title>
<path fill="none" stroke="#000000" stroke-width="2" stroke-opacity="0.200000" d="M344.23,-241.33C354.67,-243.73 364.71,-248.18 372,-256 404.66,-291.04 355.07,-325.59 385,-363 385.59,-363.74 386.22,-364.43 386.89,-365.08"/>
<polygon fill="#000000" fill-opacity="0.200000" stroke="#000000" stroke-width="2" stroke-opacity="0.200000" points="384.99,-368.02 395.24,-370.7 388.9,-362.22 384.99,-368.02"/>
</g>
<!-- src/transformers/transformNumberedListItem.ts&#45;&gt;src/transformers/utils.ts -->
<g id="edge40" class="edge">
<title>src/transformers/transformNumberedListItem.ts&#45;&gt;src/transformers/utils.ts</title>
<path fill="none" stroke="#000000" stroke-width="2" stroke-opacity="0.200000" d="M365.3,-220.09C367.72,-221.81 369.97,-223.77 372,-226 392.56,-248.64 366.21,-338.87 385,-363 385.58,-363.74 386.2,-364.44 386.87,-365.1"/>
<polygon fill="#000000" fill-opacity="0.200000" stroke="#000000" stroke-width="2" stroke-opacity="0.200000" points="384.93,-368.02 395.17,-370.76 388.88,-362.24 384.93,-368.02"/>
</g>
<!-- src/transformers/transformPage.ts&#45;&gt;src/transformers/utils.ts -->
<g id="edge41" class="edge">
<title>src/transformers/transformPage.ts&#45;&gt;src/transformers/utils.ts</title>
<path fill="none" stroke="#000000" stroke-width="2" stroke-opacity="0.200000" d="M340.55,-630.9C352.12,-628.69 363.62,-624.28 372,-616 403.44,-584.94 416.45,-446.19 420.24,-395.03"/>
<polygon fill="#000000" fill-opacity="0.200000" stroke="#000000" stroke-width="2" stroke-opacity="0.200000" points="423.73,-395.23 420.94,-385.01 416.75,-394.74 423.73,-395.23"/>
</g>
<!-- src/transformers/transformQuote.ts&#45;&gt;src/transformers/utils.ts -->
<g id="edge42" class="edge">
<title>src/transformers/transformQuote.ts&#45;&gt;src/transformers/utils.ts</title>
<path fill="none" stroke="#000000" stroke-width="2" stroke-opacity="0.200000" d="M343.27,-180.83C354.14,-183.18 364.61,-187.72 372,-196 396.79,-223.77 362.38,-333.44 385,-363 385.59,-363.77 386.23,-364.5 386.91,-365.18"/>
<polygon fill="#000000" fill-opacity="0.200000" stroke="#000000" stroke-width="2" stroke-opacity="0.200000" points="385.24,-368.27 395.49,-370.97 389.16,-362.47 385.24,-368.27"/>
</g>
<!-- src/transformers/transformStub.ts&#45;&gt;src/transformers/utils.ts -->
<g id="edge43" class="edge">
<title>src/transformers/transformStub.ts&#45;&gt;src/transformers/utils.ts</title>
<path fill="none" stroke="#000000" stroke-width="2" stroke-opacity="0.200000" d="M340.52,-150.22C352.37,-152.36 364.02,-156.96 372,-166 401.02,-198.9 358.54,-328 385,-363 385.59,-363.77 386.22,-364.5 386.9,-365.19"/>
<polygon fill="#000000" fill-opacity="0.200000" stroke="#000000" stroke-width="2" stroke-opacity="0.200000" points="385.21,-368.27 395.45,-371 389.15,-362.48 385.21,-368.27"/>
</g>
<!-- src/transformers/transformText.ts&#45;&gt;src/transformers/utils.ts -->
<g id="edge44" class="edge">
<title>src/transformers/transformText.ts&#45;&gt;src/transformers/utils.ts</title>
<path fill="none" stroke="#000000" stroke-width="2" stroke-opacity="0.200000" d="M338.54,-119.83C351.09,-121.8 363.61,-126.4 372,-136 405.26,-174.04 354.71,-322.56 385,-363 385.58,-363.78 386.21,-364.51 386.89,-365.2"/>
<polygon fill="#000000" fill-opacity="0.200000" stroke="#000000" stroke-width="2" stroke-opacity="0.200000" points="385.19,-368.27 395.43,-371.02 389.14,-362.49 385.19,-368.27"/>
</g>
<!-- src/transformers/transformToDo.ts&#45;&gt;src/transformers/utils.ts -->
<g id="edge45" class="edge">
<title>src/transformers/transformToDo.ts&#45;&gt;src/transformers/utils.ts</title>
<path fill="none" stroke="#000000" stroke-width="2" stroke-opacity="0.200000" d="M340.25,-447.5C351.19,-445.25 362.46,-441.67 372,-436 388.98,-425.91 402.71,-407.77 411.37,-394.07"/>
<polygon fill="#000000" fill-opacity="0.200000" stroke="#000000" stroke-width="2" stroke-opacity="0.200000" points="414.4,-395.82 416.53,-385.44 408.39,-392.23 414.4,-395.82"/>
</g>
<!-- src/transformers/transformToggleList.ts&#45;&gt;src/transformers/utils.ts -->
<g id="edge46" class="edge">
<title>src/transformers/transformToggleList.ts&#45;&gt;src/transformers/utils.ts</title>
<path fill="none" stroke="#000000" stroke-width="2" stroke-opacity="0.200000" d="M351.87,-412.28C358.75,-410.54 365.61,-408.47 372,-406 381.92,-402.18 392.09,-396.39 400.61,-390.92"/>
<polygon fill="#000000" fill-opacity="0.200000" stroke="#000000" stroke-width="2" stroke-opacity="0.200000" points="402.76,-393.69 409.12,-385.21 398.86,-387.88 402.76,-393.69"/>
</g>
</g>
</svg>
