<?xml version="1.0" encoding="UTF-8" standalone="no"?>
<!DOCTYPE svg PUBLIC "-//W3C//DTD SVG 1.1//EN"
 "http://www.w3.org/Graphics/SVG/1.1/DTD/svg11.dtd">
<!-- Generated by graphviz version 2.42.3 (0)
 -->
<!-- Title: dependency&#45;cruiser output Pages: 1 -->
<svg width="449pt" height="700pt"
 viewBox="0.00 0.00 449.00 700.00" xmlns="http://www.w3.org/2000/svg" xmlns:xlink="http://www.w3.org/1999/xlink">
<g id="graph0" class="graph" transform="scale(1 1) rotate(0) translate(4 696)">
<title>dependency&#45;cruiser output</title>
<polygon fill="white" stroke="transparent" points="-4,4 -4,-696 445,-696 445,4 -4,4"/>
<g id="clust1" class="cluster">
<title>cluster_src</title>
<path fill="#ffffff" stroke="black" stroke-width="2" d="M20,-8C20,-8 421,-8 421,-8 427,-8 433,-14 433,-20 433,-20 433,-672 433,-672 433,-678 427,-684 421,-684 421,-684 20,-684 20,-684 14,-684 8,-678 8,-672 8,-672 8,-20 8,-20 8,-14 14,-8 20,-8"/>
<text text-anchor="middle" x="220.5" y="-672.8" font-family="Helvetica,sans-Serif" font-weight="bold" font-size="9.00">src</text>
</g>
<g id="clust2" class="cluster">
<title>cluster_src/widgets</title>
<path fill="#ffffff" stroke="black" stroke-width="2" d="M195,-26C195,-26 260,-26 260,-26 266,-26 272,-32 272,-38 272,-38 272,-636 272,-636 272,-642 266,-648 260,-648 260,-648 195,-648 195,-648 189,-648 183,-642 183,-636 183,-636 183,-38 183,-38 183,-32 189,-26 195,-26"/>
<text text-anchor="middle" x="227.5" y="-636.8" font-family="Helvetica,sans-Serif" font-weight="bold" font-size="9.00">widgets</text>
</g>
<!-- src/constants.ts -->
<g id="node1" class="node">
<title>src/constants.ts</title>
<g id="a_node1"><a xlink:href="https://github.com/dragonman225/notionapi-agent/tree/master/src/constants.ts" xlink:title="constants.ts">
<path fill="#ddfeff" stroke="black" d="M416,-129C416,-129 356,-129 356,-129 353,-129 350,-126 350,-123 350,-123 350,-117 350,-117 350,-114 353,-111 356,-111 356,-111 416,-111 416,-111 419,-111 422,-114 422,-117 422,-117 422,-123 422,-123 422,-126 419,-129 416,-129"/>
<text text-anchor="middle" x="386" y="-117.8" font-family="Helvetica,sans-Serif" font-size="9.00">constants.ts</text>
</a>
</g>
</g>
<!-- src/index.ts -->
<g id="node2" class="node">
<title>src/index.ts</title>
<g id="a_node2"><a xlink:href="https://github.com/dragonman225/notionapi-agent/tree/master/src/index.ts" xlink:title="index.ts">
<path fill="#ddfeff" stroke="black" d="M64,-505C64,-505 22,-505 22,-505 19,-505 16,-502 16,-499 16,-499 16,-493 16,-493 16,-490 19,-487 22,-487 22,-487 64,-487 64,-487 67,-487 70,-490 70,-493 70,-493 70,-499 70,-499 70,-502 67,-505 64,-505"/>
<text text-anchor="middle" x="43" y="-493.8" font-family="Helvetica,sans-Serif" font-size="9.00">index.ts</text>
</a>
</g>
</g>
<!-- src/render&#45;control.ts -->
<g id="node3" class="node">
<title>src/render&#45;control.ts</title>
<g id="a_node3"><a xlink:href="https://github.com/dragonman225/notionapi-agent/tree/master/src/render-control.ts" xlink:title="render&#45;control.ts">
<path fill="#ddfeff" stroke="black" d="M169,-337C169,-337 89,-337 89,-337 86,-337 83,-334 83,-331 83,-331 83,-325 83,-325 83,-322 86,-319 89,-319 89,-319 169,-319 169,-319 172,-319 175,-322 175,-325 175,-325 175,-331 175,-331 175,-334 172,-337 169,-337"/>
<text text-anchor="middle" x="129" y="-325.8" font-family="Helvetica,sans-Serif" font-size="9.00">render&#45;control.ts</text>
</a>
</g>
</g>
<!-- src/index.ts&#45;&gt;src/render&#45;control.ts -->
<g id="edge1" class="edge">
<title>src/index.ts&#45;&gt;src/render&#45;control.ts</title>
<path fill="none" stroke="#000000" stroke-width="2" stroke-opacity="0.200000" d="M48.52,-486.97C62.25,-459.51 103.59,-376.82 120.58,-342.83"/>
<polygon fill="#000000" fill-opacity="0.200000" stroke="#000000" stroke-width="2" stroke-opacity="0.200000" points="122.66,-343.38 123.46,-337.08 118.9,-341.5 122.66,-343.38"/>
</g>
<!-- src/util.ts -->
<g id="node4" class="node">
<title>src/util.ts</title>
<g id="a_node4"><a xlink:href="https://github.com/dragonman225/notionapi-agent/tree/master/src/util.ts" xlink:title="util.ts">
<path fill="#ddfeff" stroke="black" d="M328,-382C328,-382 286,-382 286,-382 283,-382 280,-379 280,-376 280,-376 280,-370 280,-370 280,-367 283,-364 286,-364 286,-364 328,-364 328,-364 331,-364 334,-367 334,-370 334,-370 334,-376 334,-376 334,-379 331,-382 328,-382"/>
<text text-anchor="middle" x="307" y="-370.8" font-family="Helvetica,sans-Serif" font-size="9.00">util.ts</text>
</a>
</g>
</g>
<!-- src/index.ts&#45;&gt;src/util.ts -->
<g id="edge2" class="edge">
<title>src/index.ts&#45;&gt;src/util.ts</title>
<path fill="none" stroke="#000000" stroke-width="2" stroke-opacity="0.200000" d="M49.5,-505.12C75.83,-547.78 191.18,-722.54 272,-651 291.86,-633.43 302.56,-443.96 305.29,-388.29"/>
<polygon fill="#000000" fill-opacity="0.200000" stroke="#000000" stroke-width="2" stroke-opacity="0.200000" points="307.39,-388.28 305.59,-382.19 303.2,-388.08 307.39,-388.28"/>
</g>
<!-- src/render&#45;control.ts&#45;&gt;src/constants.ts -->
<g id="edge3" class="edge">
<title>src/render&#45;control.ts&#45;&gt;src/constants.ts</title>
<path fill="none" stroke="#000000" stroke-width="2" stroke-opacity="0.200000" d="M130.08,-318.96C130.73,-272.63 136.22,-62.35 183,-23 235.72,21.35 281.23,-13.72 334,-58 350.78,-72.08 366.17,-92.23 375.56,-105.7"/>
<polygon fill="#000000" fill-opacity="0.200000" stroke="#000000" stroke-width="2" stroke-opacity="0.200000" points="373.85,-106.92 378.97,-110.68 377.32,-104.54 373.85,-106.92"/>
</g>
<!-- src/widgets/audio.ts -->
<g id="node6" class="node">
<title>src/widgets/audio.ts</title>
<g id="a_node6"><a xlink:href="https://github.com/dragonman225/notionapi-agent/tree/master/src/widgets/audio.ts" xlink:title="audio.ts">
<path fill="#ddfeff" stroke="black" d="M248.5,-622C248.5,-622 206.5,-622 206.5,-622 203.5,-622 200.5,-619 200.5,-616 200.5,-616 200.5,-610 200.5,-610 200.5,-607 203.5,-604 206.5,-604 206.5,-604 248.5,-604 248.5,-604 251.5,-604 254.5,-607 254.5,-610 254.5,-610 254.5,-616 254.5,-616 254.5,-619 251.5,-622 248.5,-622"/>
<text text-anchor="middle" x="227.5" y="-610.8" font-family="Helvetica,sans-Serif" font-size="9.00">audio.ts</text>
</a>
</g>
</g>
<!-- src/render&#45;control.ts&#45;&gt;src/widgets/audio.ts -->
<g id="edge4" class="edge">
<title>src/render&#45;control.ts&#45;&gt;src/widgets/audio.ts</title>
<path fill="none" stroke="#000000" stroke-width="2" stroke-opacity="0.200000" d="M130.59,-337.14C133.51,-379.61 147.71,-557.47 183,-598 186.17,-601.64 190.27,-604.4 194.69,-606.49"/>
<polygon fill="#000000" fill-opacity="0.200000" stroke="#000000" stroke-width="2" stroke-opacity="0.200000" points="194.05,-608.5 200.4,-608.8 195.62,-604.6 194.05,-608.5"/>
</g>
<!-- src/widgets/bookmark.ts -->
<g id="node7" class="node">
<title>src/widgets/bookmark.ts</title>
<g id="a_node7"><a xlink:href="https://github.com/dragonman225/notionapi-agent/tree/master/src/widgets/bookmark.ts" xlink:title="bookmark.ts">
<path fill="#ddfeff" stroke="black" d="M258,-592C258,-592 197,-592 197,-592 194,-592 191,-589 191,-586 191,-586 191,-580 191,-580 191,-577 194,-574 197,-574 197,-574 258,-574 258,-574 261,-574 264,-577 264,-580 264,-580 264,-586 264,-586 264,-589 261,-592 258,-592"/>
<text text-anchor="middle" x="227.5" y="-580.8" font-family="Helvetica,sans-Serif" font-size="9.00">bookmark.ts</text>
</a>
</g>
</g>
<!-- src/render&#45;control.ts&#45;&gt;src/widgets/bookmark.ts -->
<g id="edge5" class="edge">
<title>src/render&#45;control.ts&#45;&gt;src/widgets/bookmark.ts</title>
<path fill="none" stroke="#000000" stroke-width="2" stroke-opacity="0.200000" d="M130.84,-337.17C134.62,-376.73 151.34,-532.48 183,-568 183.84,-568.94 184.74,-569.82 185.69,-570.64"/>
<polygon fill="#000000" fill-opacity="0.200000" stroke="#000000" stroke-width="2" stroke-opacity="0.200000" points="184.71,-572.53 190.81,-574.33 187.16,-569.12 184.71,-572.53"/>
</g>
<!-- src/widgets/callout.ts -->
<g id="node8" class="node">
<title>src/widgets/callout.ts</title>
<g id="a_node8"><a xlink:href="https://github.com/dragonman225/notionapi-agent/tree/master/src/widgets/callout.ts" xlink:title="callout.ts">
<path fill="#ddfeff" stroke="black" d="M250.5,-562C250.5,-562 204.5,-562 204.5,-562 201.5,-562 198.5,-559 198.5,-556 198.5,-556 198.5,-550 198.5,-550 198.5,-547 201.5,-544 204.5,-544 204.5,-544 250.5,-544 250.5,-544 253.5,-544 256.5,-547 256.5,-550 256.5,-550 256.5,-556 256.5,-556 256.5,-559 253.5,-562 250.5,-562"/>
<text text-anchor="middle" x="227.5" y="-550.8" font-family="Helvetica,sans-Serif" font-size="9.00">callout.ts</text>
</a>
</g>
</g>
<!-- src/render&#45;control.ts&#45;&gt;src/widgets/callout.ts -->
<g id="edge6" class="edge">
<title>src/render&#45;control.ts&#45;&gt;src/widgets/callout.ts</title>
<path fill="none" stroke="#000000" stroke-width="2" stroke-opacity="0.200000" d="M129.45,-337.4C128.1,-369.81 128.06,-478.19 183,-538 185.76,-541 189.15,-543.41 192.81,-545.33"/>
<polygon fill="#000000" fill-opacity="0.200000" stroke="#000000" stroke-width="2" stroke-opacity="0.200000" points="191.98,-547.26 198.32,-547.81 193.71,-543.43 191.98,-547.26"/>
</g>
<!-- src/widgets/code.ts -->
<g id="node9" class="node">
<title>src/widgets/code.ts</title>
<g id="a_node9"><a xlink:href="https://github.com/dragonman225/notionapi-agent/tree/master/src/widgets/code.ts" xlink:title="code.ts">
<path fill="#ddfeff" stroke="black" d="M248.5,-532C248.5,-532 206.5,-532 206.5,-532 203.5,-532 200.5,-529 200.5,-526 200.5,-526 200.5,-520 200.5,-520 200.5,-517 203.5,-514 206.5,-514 206.5,-514 248.5,-514 248.5,-514 251.5,-514 254.5,-517 254.5,-520 254.5,-520 254.5,-526 254.5,-526 254.5,-529 251.5,-532 248.5,-532"/>
<text text-anchor="middle" x="227.5" y="-520.8" font-family="Helvetica,sans-Serif" font-size="9.00">code.ts</text>
</a>
</g>
</g>
<!-- src/render&#45;control.ts&#45;&gt;src/widgets/code.ts -->
<g id="edge7" class="edge">
<title>src/render&#45;control.ts&#45;&gt;src/widgets/code.ts</title>
<path fill="none" stroke="#000000" stroke-width="2" stroke-opacity="0.200000" d="M129.93,-337.28C130.21,-366.54 135.07,-457.83 183,-508 186.26,-511.41 190.33,-514.05 194.66,-516.08"/>
<polygon fill="#000000" fill-opacity="0.200000" stroke="#000000" stroke-width="2" stroke-opacity="0.200000" points="193.9,-518.04 200.25,-518.36 195.49,-514.15 193.9,-518.04"/>
</g>
<!-- src/widgets/collection.ts -->
<g id="node10" class="node">
<title>src/widgets/collection.ts</title>
<g id="a_node10"><a xlink:href="https://github.com/dragonman225/notionapi-agent/tree/master/src/widgets/collection.ts" xlink:title="collection.ts">
<path fill="#ddfeff" stroke="black" d="M257,-82C257,-82 198,-82 198,-82 195,-82 192,-79 192,-76 192,-76 192,-70 192,-70 192,-67 195,-64 198,-64 198,-64 257,-64 257,-64 260,-64 263,-67 263,-70 263,-70 263,-76 263,-76 263,-79 260,-82 257,-82"/>
<text text-anchor="middle" x="227.5" y="-70.8" font-family="Helvetica,sans-Serif" font-size="9.00">collection.ts</text>
</a>
</g>
</g>
<!-- src/render&#45;control.ts&#45;&gt;src/widgets/collection.ts -->
<g id="edge8" class="edge">
<title>src/render&#45;control.ts&#45;&gt;src/widgets/collection.ts</title>
<path fill="none" stroke="#000000" stroke-width="2" stroke-opacity="0.200000" d="M130.84,-318.83C134.62,-279.27 151.34,-123.52 183,-88 184.07,-86.8 185.24,-85.7 186.49,-84.68"/>
<polygon fill="#000000" fill-opacity="0.200000" stroke="#000000" stroke-width="2" stroke-opacity="0.200000" points="187.86,-86.29 191.64,-81.18 185.5,-82.81 187.86,-86.29"/>
</g>
<!-- src/widgets/column.ts -->
<g id="node11" class="node">
<title>src/widgets/column.ts</title>
<g id="a_node11"><a xlink:href="https://github.com/dragonman225/notionapi-agent/tree/master/src/widgets/column.ts" xlink:title="column.ts">
<path fill="#ddfeff" stroke="black" d="M252.5,-52C252.5,-52 202.5,-52 202.5,-52 199.5,-52 196.5,-49 196.5,-46 196.5,-46 196.5,-40 196.5,-40 196.5,-37 199.5,-34 202.5,-34 202.5,-34 252.5,-34 252.5,-34 255.5,-34 258.5,-37 258.5,-40 258.5,-40 258.5,-46 258.5,-46 258.5,-49 255.5,-52 252.5,-52"/>
<text text-anchor="middle" x="227.5" y="-40.8" font-family="Helvetica,sans-Serif" font-size="9.00">column.ts</text>
</a>
</g>
</g>
<!-- src/render&#45;control.ts&#45;&gt;src/widgets/column.ts -->
<g id="edge9" class="edge">
<title>src/render&#45;control.ts&#45;&gt;src/widgets/column.ts</title>
<path fill="none" stroke="#000000" stroke-width="2" stroke-opacity="0.200000" d="M130.59,-318.86C133.51,-276.39 147.71,-98.53 183,-58 185.23,-55.44 187.92,-53.32 190.85,-51.55"/>
<polygon fill="#000000" fill-opacity="0.200000" stroke="#000000" stroke-width="2" stroke-opacity="0.200000" points="191.95,-53.35 196.35,-48.76 190.05,-49.61 191.95,-53.35"/>
</g>
<!-- src/widgets/divider.ts -->
<g id="node12" class="node">
<title>src/widgets/divider.ts</title>
<g id="a_node12"><a xlink:href="https://github.com/dragonman225/notionapi-agent/tree/master/src/widgets/divider.ts" xlink:title="divider.ts">
<path fill="#ddfeff" stroke="black" d="M250,-502C250,-502 205,-502 205,-502 202,-502 199,-499 199,-496 199,-496 199,-490 199,-490 199,-487 202,-484 205,-484 205,-484 250,-484 250,-484 253,-484 256,-487 256,-490 256,-490 256,-496 256,-496 256,-499 253,-502 250,-502"/>
<text text-anchor="middle" x="227.5" y="-490.8" font-family="Helvetica,sans-Serif" font-size="9.00">divider.ts</text>
</a>
</g>
</g>
<!-- src/render&#45;control.ts&#45;&gt;src/widgets/divider.ts -->
<g id="edge10" class="edge">
<title>src/render&#45;control.ts&#45;&gt;src/widgets/divider.ts</title>
<path fill="none" stroke="#000000" stroke-width="2" stroke-opacity="0.200000" d="M130.56,-337.2C132.63,-363.09 142.03,-437.34 183,-478 185.9,-480.87 189.37,-483.2 193.07,-485.08"/>
<polygon fill="#000000" fill-opacity="0.200000" stroke="#000000" stroke-width="2" stroke-opacity="0.200000" points="192.28,-487.02 198.62,-487.52 193.97,-483.18 192.28,-487.02"/>
</g>
<!-- src/widgets/embed.ts -->
<g id="node13" class="node">
<title>src/widgets/embed.ts</title>
<g id="a_node13"><a xlink:href="https://github.com/dragonman225/notionapi-agent/tree/master/src/widgets/embed.ts" xlink:title="embed.ts">
<path fill="#ddfeff" stroke="black" d="M251,-472C251,-472 204,-472 204,-472 201,-472 198,-469 198,-466 198,-466 198,-460 198,-460 198,-457 201,-454 204,-454 204,-454 251,-454 251,-454 254,-454 257,-457 257,-460 257,-460 257,-466 257,-466 257,-469 254,-472 251,-472"/>
<text text-anchor="middle" x="227.5" y="-460.8" font-family="Helvetica,sans-Serif" font-size="9.00">embed.ts</text>
</a>
</g>
</g>
<!-- src/render&#45;control.ts&#45;&gt;src/widgets/embed.ts -->
<g id="edge11" class="edge">
<title>src/render&#45;control.ts&#45;&gt;src/widgets/embed.ts</title>
<path fill="none" stroke="#000000" stroke-width="2" stroke-opacity="0.200000" d="M131.5,-337.28C135.58,-359.59 148.97,-416.71 183,-448 185.78,-450.55 189.01,-452.68 192.44,-454.44"/>
<polygon fill="#000000" fill-opacity="0.200000" stroke="#000000" stroke-width="2" stroke-opacity="0.200000" points="191.62,-456.37 197.95,-456.93 193.34,-452.54 191.62,-456.37"/>
</g>
<!-- src/widgets/equation.ts -->
<g id="node14" class="node">
<title>src/widgets/equation.ts</title>
<g id="a_node14"><a xlink:href="https://github.com/dragonman225/notionapi-agent/tree/master/src/widgets/equation.ts" xlink:title="equation.ts">
<path fill="#ddfeff" stroke="black" d="M255.5,-442C255.5,-442 199.5,-442 199.5,-442 196.5,-442 193.5,-439 193.5,-436 193.5,-436 193.5,-430 193.5,-430 193.5,-427 196.5,-424 199.5,-424 199.5,-424 255.5,-424 255.5,-424 258.5,-424 261.5,-427 261.5,-430 261.5,-430 261.5,-436 261.5,-436 261.5,-439 258.5,-442 255.5,-442"/>
<text text-anchor="middle" x="227.5" y="-430.8" font-family="Helvetica,sans-Serif" font-size="9.00">equation.ts</text>
</a>
</g>
</g>
<!-- src/render&#45;control.ts&#45;&gt;src/widgets/equation.ts -->
<g id="edge12" class="edge">
<title>src/render&#45;control.ts&#45;&gt;src/widgets/equation.ts</title>
<path fill="none" stroke="#000000" stroke-width="2" stroke-opacity="0.200000" d="M132.93,-337.08C139.2,-355.12 155.62,-395.62 183,-418 184.55,-419.26 186.21,-420.42 187.94,-421.49"/>
<polygon fill="#000000" fill-opacity="0.200000" stroke="#000000" stroke-width="2" stroke-opacity="0.200000" points="187.06,-423.4 193.34,-424.4 189.06,-419.7 187.06,-423.4"/>
</g>
<!-- src/widgets/file.ts -->
<g id="node15" class="node">
<title>src/widgets/file.ts</title>
<g id="a_node15"><a xlink:href="https://github.com/dragonman225/notionapi-agent/tree/master/src/widgets/file.ts" xlink:title="file.ts">
<path fill="#ddfeff" stroke="black" d="M248.5,-352C248.5,-352 206.5,-352 206.5,-352 203.5,-352 200.5,-349 200.5,-346 200.5,-346 200.5,-340 200.5,-340 200.5,-337 203.5,-334 206.5,-334 206.5,-334 248.5,-334 248.5,-334 251.5,-334 254.5,-337 254.5,-340 254.5,-340 254.5,-346 254.5,-346 254.5,-349 251.5,-352 248.5,-352"/>
<text text-anchor="middle" x="227.5" y="-340.8" font-family="Helvetica,sans-Serif" font-size="9.00">file.ts</text>
</a>
</g>
</g>
<!-- src/render&#45;control.ts&#45;&gt;src/widgets/file.ts -->
<g id="edge13" class="edge">
<title>src/render&#45;control.ts&#45;&gt;src/widgets/file.ts</title>
<path fill="none" stroke="#000000" stroke-width="2" stroke-opacity="0.200000" d="M175.14,-335.02C181.62,-336.02 188.17,-337.04 194.32,-338"/>
<polygon fill="#000000" fill-opacity="0.200000" stroke="#000000" stroke-width="2" stroke-opacity="0.200000" points="194.08,-340.09 200.33,-338.93 194.72,-335.94 194.08,-340.09"/>
</g>
<!-- src/widgets/heading.ts -->
<g id="node16" class="node">
<title>src/widgets/heading.ts</title>
<g id="a_node16"><a xlink:href="https://github.com/dragonman225/notionapi-agent/tree/master/src/widgets/heading.ts" xlink:title="heading.ts">
<path fill="#ddfeff" stroke="black" d="M254,-112C254,-112 201,-112 201,-112 198,-112 195,-109 195,-106 195,-106 195,-100 195,-100 195,-97 198,-94 201,-94 201,-94 254,-94 254,-94 257,-94 260,-97 260,-100 260,-100 260,-106 260,-106 260,-109 257,-112 254,-112"/>
<text text-anchor="middle" x="227.5" y="-100.8" font-family="Helvetica,sans-Serif" font-size="9.00">heading.ts</text>
</a>
</g>
</g>
<!-- src/render&#45;control.ts&#45;&gt;src/widgets/heading.ts -->
<g id="edge14" class="edge">
<title>src/render&#45;control.ts&#45;&gt;src/widgets/heading.ts</title>
<path fill="none" stroke="#000000" stroke-width="2" stroke-opacity="0.200000" d="M129.45,-318.6C128.1,-286.19 128.06,-177.81 183,-118 184.82,-116.01 186.92,-114.29 189.19,-112.8"/>
<polygon fill="#000000" fill-opacity="0.200000" stroke="#000000" stroke-width="2" stroke-opacity="0.200000" points="190.53,-114.46 194.75,-109.71 188.49,-110.79 190.53,-114.46"/>
</g>
<!-- src/widgets/image.ts -->
<g id="node17" class="node">
<title>src/widgets/image.ts</title>
<g id="a_node17"><a xlink:href="https://github.com/dragonman225/notionapi-agent/tree/master/src/widgets/image.ts" xlink:title="image.ts">
<path fill="#ddfeff" stroke="black" d="M249.5,-412C249.5,-412 205.5,-412 205.5,-412 202.5,-412 199.5,-409 199.5,-406 199.5,-406 199.5,-400 199.5,-400 199.5,-397 202.5,-394 205.5,-394 205.5,-394 249.5,-394 249.5,-394 252.5,-394 255.5,-397 255.5,-400 255.5,-400 255.5,-406 255.5,-406 255.5,-409 252.5,-412 249.5,-412"/>
<text text-anchor="middle" x="227.5" y="-400.8" font-family="Helvetica,sans-Serif" font-size="9.00">image.ts</text>
</a>
</g>
</g>
<!-- src/render&#45;control.ts&#45;&gt;src/widgets/image.ts -->
<g id="edge15" class="edge">
<title>src/render&#45;control.ts&#45;&gt;src/widgets/image.ts</title>
<path fill="none" stroke="#000000" stroke-width="2" stroke-opacity="0.200000" d="M135.74,-337.05C144.45,-350.08 162.21,-374.09 183,-388 186.22,-390.16 189.79,-392.04 193.45,-393.66"/>
<polygon fill="#000000" fill-opacity="0.200000" stroke="#000000" stroke-width="2" stroke-opacity="0.200000" points="192.9,-395.71 199.25,-396.02 194.48,-391.82 192.9,-395.71"/>
</g>
<!-- src/widgets/list.ts -->
<g id="node18" class="node">
<title>src/widgets/list.ts</title>
<g id="a_node18"><a xlink:href="https://github.com/dragonman225/notionapi-agent/tree/master/src/widgets/list.ts" xlink:title="list.ts">
<path fill="#ddfeff" stroke="black" d="M248.5,-382C248.5,-382 206.5,-382 206.5,-382 203.5,-382 200.5,-379 200.5,-376 200.5,-376 200.5,-370 200.5,-370 200.5,-367 203.5,-364 206.5,-364 206.5,-364 248.5,-364 248.5,-364 251.5,-364 254.5,-367 254.5,-370 254.5,-370 254.5,-376 254.5,-376 254.5,-379 251.5,-382 248.5,-382"/>
<text text-anchor="middle" x="227.5" y="-370.8" font-family="Helvetica,sans-Serif" font-size="9.00">list.ts</text>
</a>
</g>
</g>
<!-- src/render&#45;control.ts&#45;&gt;src/widgets/list.ts -->
<g id="edge16" class="edge">
<title>src/render&#45;control.ts&#45;&gt;src/widgets/list.ts</title>
<path fill="none" stroke="#000000" stroke-width="2" stroke-opacity="0.200000" d="M144.47,-337.15C154.92,-343.51 169.51,-351.92 183,-358 186.72,-359.68 190.68,-361.28 194.65,-362.78"/>
<polygon fill="#000000" fill-opacity="0.200000" stroke="#000000" stroke-width="2" stroke-opacity="0.200000" points="194.08,-364.8 200.43,-364.88 195.52,-360.86 194.08,-364.8"/>
</g>
<!-- src/widgets/page.ts -->
<g id="node19" class="node">
<title>src/widgets/page.ts</title>
<g id="a_node19"><a xlink:href="https://github.com/dragonman225/notionapi-agent/tree/master/src/widgets/page.ts" xlink:title="page.ts">
<path fill="#ddfeff" stroke="black" d="M248.5,-322C248.5,-322 206.5,-322 206.5,-322 203.5,-322 200.5,-319 200.5,-316 200.5,-316 200.5,-310 200.5,-310 200.5,-307 203.5,-304 206.5,-304 206.5,-304 248.5,-304 248.5,-304 251.5,-304 254.5,-307 254.5,-310 254.5,-310 254.5,-316 254.5,-316 254.5,-319 251.5,-322 248.5,-322"/>
<text text-anchor="middle" x="227.5" y="-310.8" font-family="Helvetica,sans-Serif" font-size="9.00">page.ts</text>
</a>
</g>
</g>
<!-- src/render&#45;control.ts&#45;&gt;src/widgets/page.ts -->
<g id="edge17" class="edge">
<title>src/render&#45;control.ts&#45;&gt;src/widgets/page.ts</title>
<path fill="none" stroke="#000000" stroke-width="2" stroke-opacity="0.200000" d="M175.14,-320.98C181.62,-319.98 188.17,-318.96 194.32,-318"/>
<polygon fill="#000000" fill-opacity="0.200000" stroke="#000000" stroke-width="2" stroke-opacity="0.200000" points="194.72,-320.06 200.33,-317.07 194.08,-315.91 194.72,-320.06"/>
</g>
<!-- src/widgets/pdf.ts -->
<g id="node20" class="node">
<title>src/widgets/pdf.ts</title>
<g id="a_node20"><a xlink:href="https://github.com/dragonman225/notionapi-agent/tree/master/src/widgets/pdf.ts" xlink:title="pdf.ts">
<path fill="#ddfeff" stroke="black" d="M248.5,-202C248.5,-202 206.5,-202 206.5,-202 203.5,-202 200.5,-199 200.5,-196 200.5,-196 200.5,-190 200.5,-190 200.5,-187 203.5,-184 206.5,-184 206.5,-184 248.5,-184 248.5,-184 251.5,-184 254.5,-187 254.5,-190 254.5,-190 254.5,-196 254.5,-196 254.5,-199 251.5,-202 248.5,-202"/>
<text text-anchor="middle" x="227.5" y="-190.8" font-family="Helvetica,sans-Serif" font-size="9.00">pdf.ts</text>
</a>
</g>
</g>
<!-- src/render&#45;control.ts&#45;&gt;src/widgets/pdf.ts -->
<g id="edge18" class="edge">
<title>src/render&#45;control.ts&#45;&gt;src/widgets/pdf.ts</title>
<path fill="none" stroke="#000000" stroke-width="2" stroke-opacity="0.200000" d="M131.5,-318.72C135.58,-296.41 148.97,-239.29 183,-208 186.32,-204.95 190.28,-202.52 194.45,-200.58"/>
<polygon fill="#000000" fill-opacity="0.200000" stroke="#000000" stroke-width="2" stroke-opacity="0.200000" points="195.45,-202.44 200.21,-198.22 193.86,-198.55 195.45,-202.44"/>
</g>
<!-- src/widgets/quote.ts -->
<g id="node21" class="node">
<title>src/widgets/quote.ts</title>
<g id="a_node21"><a xlink:href="https://github.com/dragonman225/notionapi-agent/tree/master/src/widgets/quote.ts" xlink:title="quote.ts">
<path fill="#ddfeff" stroke="black" d="M248.5,-292C248.5,-292 206.5,-292 206.5,-292 203.5,-292 200.5,-289 200.5,-286 200.5,-286 200.5,-280 200.5,-280 200.5,-277 203.5,-274 206.5,-274 206.5,-274 248.5,-274 248.5,-274 251.5,-274 254.5,-277 254.5,-280 254.5,-280 254.5,-286 254.5,-286 254.5,-289 251.5,-292 248.5,-292"/>
<text text-anchor="middle" x="227.5" y="-280.8" font-family="Helvetica,sans-Serif" font-size="9.00">quote.ts</text>
</a>
</g>
</g>
<!-- src/render&#45;control.ts&#45;&gt;src/widgets/quote.ts -->
<g id="edge19" class="edge">
<title>src/render&#45;control.ts&#45;&gt;src/widgets/quote.ts</title>
<path fill="none" stroke="#000000" stroke-width="2" stroke-opacity="0.200000" d="M144.47,-318.85C154.92,-312.49 169.51,-304.08 183,-298 186.72,-296.32 190.68,-294.72 194.65,-293.22"/>
<polygon fill="#000000" fill-opacity="0.200000" stroke="#000000" stroke-width="2" stroke-opacity="0.200000" points="195.52,-295.14 200.43,-291.12 194.08,-291.2 195.52,-295.14"/>
</g>
<!-- src/widgets/text.ts -->
<g id="node22" class="node">
<title>src/widgets/text.ts</title>
<g id="a_node22"><a xlink:href="https://github.com/dragonman225/notionapi-agent/tree/master/src/widgets/text.ts" xlink:title="text.ts">
<path fill="#ddfeff" stroke="black" d="M248.5,-142C248.5,-142 206.5,-142 206.5,-142 203.5,-142 200.5,-139 200.5,-136 200.5,-136 200.5,-130 200.5,-130 200.5,-127 203.5,-124 206.5,-124 206.5,-124 248.5,-124 248.5,-124 251.5,-124 254.5,-127 254.5,-130 254.5,-130 254.5,-136 254.5,-136 254.5,-139 251.5,-142 248.5,-142"/>
<text text-anchor="middle" x="227.5" y="-130.8" font-family="Helvetica,sans-Serif" font-size="9.00">text.ts</text>
</a>
</g>
</g>
<!-- src/render&#45;control.ts&#45;&gt;src/widgets/text.ts -->
<g id="edge20" class="edge">
<title>src/render&#45;control.ts&#45;&gt;src/widgets/text.ts</title>
<path fill="none" stroke="#000000" stroke-width="2" stroke-opacity="0.200000" d="M129.93,-318.72C130.21,-289.46 135.07,-198.17 183,-148 186.26,-144.59 190.33,-141.95 194.66,-139.92"/>
<polygon fill="#000000" fill-opacity="0.200000" stroke="#000000" stroke-width="2" stroke-opacity="0.200000" points="195.49,-141.85 200.25,-137.64 193.9,-137.96 195.49,-141.85"/>
</g>
<!-- src/widgets/to&#45;do.ts -->
<g id="node23" class="node">
<title>src/widgets/to&#45;do.ts</title>
<g id="a_node23"><a xlink:href="https://github.com/dragonman225/notionapi-agent/tree/master/src/widgets/to-do.ts" xlink:title="to&#45;do.ts">
<path fill="#ddfeff" stroke="black" d="M248.5,-172C248.5,-172 206.5,-172 206.5,-172 203.5,-172 200.5,-169 200.5,-166 200.5,-166 200.5,-160 200.5,-160 200.5,-157 203.5,-154 206.5,-154 206.5,-154 248.5,-154 248.5,-154 251.5,-154 254.5,-157 254.5,-160 254.5,-160 254.5,-166 254.5,-166 254.5,-169 251.5,-172 248.5,-172"/>
<text text-anchor="middle" x="227.5" y="-160.8" font-family="Helvetica,sans-Serif" font-size="9.00">to&#45;do.ts</text>
</a>
</g>
</g>
<!-- src/render&#45;control.ts&#45;&gt;src/widgets/to&#45;do.ts -->
<g id="edge21" class="edge">
<title>src/render&#45;control.ts&#45;&gt;src/widgets/to&#45;do.ts</title>
<path fill="none" stroke="#000000" stroke-width="2" stroke-opacity="0.200000" d="M130.56,-318.8C132.63,-292.91 142.03,-218.66 183,-178 186.35,-174.68 190.47,-172.09 194.82,-170.07"/>
<polygon fill="#000000" fill-opacity="0.200000" stroke="#000000" stroke-width="2" stroke-opacity="0.200000" points="195.65,-172 200.43,-167.81 194.08,-168.11 195.65,-172"/>
</g>
<!-- src/widgets/toggle.ts -->
<g id="node24" class="node">
<title>src/widgets/toggle.ts</title>
<g id="a_node24"><a xlink:href="https://github.com/dragonman225/notionapi-agent/tree/master/src/widgets/toggle.ts" xlink:title="toggle.ts">
<path fill="#ddfeff" stroke="black" d="M249.5,-232C249.5,-232 205.5,-232 205.5,-232 202.5,-232 199.5,-229 199.5,-226 199.5,-226 199.5,-220 199.5,-220 199.5,-217 202.5,-214 205.5,-214 205.5,-214 249.5,-214 249.5,-214 252.5,-214 255.5,-217 255.5,-220 255.5,-220 255.5,-226 255.5,-226 255.5,-229 252.5,-232 249.5,-232"/>
<text text-anchor="middle" x="227.5" y="-220.8" font-family="Helvetica,sans-Serif" font-size="9.00">toggle.ts</text>
</a>
</g>
</g>
<!-- src/render&#45;control.ts&#45;&gt;src/widgets/toggle.ts -->
<g id="edge22" class="edge">
<title>src/render&#45;control.ts&#45;&gt;src/widgets/toggle.ts</title>
<path fill="none" stroke="#000000" stroke-width="2" stroke-opacity="0.200000" d="M132.93,-318.92C139.2,-300.88 155.62,-260.38 183,-238 186.16,-235.42 189.79,-233.27 193.57,-231.48"/>
<polygon fill="#000000" fill-opacity="0.200000" stroke="#000000" stroke-width="2" stroke-opacity="0.200000" points="194.48,-233.38 199.2,-229.12 192.85,-229.51 194.48,-233.38"/>
</g>
<!-- src/widgets/video.ts -->
<g id="node25" class="node">
<title>src/widgets/video.ts</title>
<g id="a_node25"><a xlink:href="https://github.com/dragonman225/notionapi-agent/tree/master/src/widgets/video.ts" xlink:title="video.ts">
<path fill="#ddfeff" stroke="black" d="M248.5,-262C248.5,-262 206.5,-262 206.5,-262 203.5,-262 200.5,-259 200.5,-256 200.5,-256 200.5,-250 200.5,-250 200.5,-247 203.5,-244 206.5,-244 206.5,-244 248.5,-244 248.5,-244 251.5,-244 254.5,-247 254.5,-250 254.5,-250 254.5,-256 254.5,-256 254.5,-259 251.5,-262 248.5,-262"/>
<text text-anchor="middle" x="227.5" y="-250.8" font-family="Helvetica,sans-Serif" font-size="9.00">video.ts</text>
</a>
</g>
</g>
<!-- src/render&#45;control.ts&#45;&gt;src/widgets/video.ts -->
<g id="edge23" class="edge">
<title>src/render&#45;control.ts&#45;&gt;src/widgets/video.ts</title>
<path fill="none" stroke="#000000" stroke-width="2" stroke-opacity="0.200000" d="M135.74,-318.95C144.45,-305.92 162.21,-281.91 183,-268 186.48,-265.67 190.36,-263.67 194.32,-261.95"/>
<polygon fill="#000000" fill-opacity="0.200000" stroke="#000000" stroke-width="2" stroke-opacity="0.200000" points="195.36,-263.8 200.17,-259.65 193.81,-259.9 195.36,-263.8"/>
</g>
<!-- src/util.ts&#45;&gt;src/constants.ts -->
<g id="edge25" class="edge">
<title>src/util.ts&#45;&gt;src/constants.ts</title>
<path fill="none" stroke="#000000" stroke-width="2" stroke-opacity="0.200000" d="M310.74,-364C322.15,-326.5 365.98,-182.51 380.38,-135.18"/>
<polygon fill="#000000" fill-opacity="0.200000" stroke="#000000" stroke-width="2" stroke-opacity="0.200000" points="382.47,-135.51 382.21,-129.16 378.46,-134.29 382.47,-135.51"/>
</g>
<!-- src/notion&#45;utils.ts -->
<g id="node5" class="node">
<title>src/notion&#45;utils.ts</title>
<g id="a_node5"><a xlink:href="https://github.com/dragonman225/notionapi-agent/tree/master/src/notion-utils.ts" xlink:title="notion&#45;utils.ts">
<path fill="#ddfeff" stroke="black" d="M419,-352C419,-352 353,-352 353,-352 350,-352 347,-349 347,-346 347,-346 347,-340 347,-340 347,-337 350,-334 353,-334 353,-334 419,-334 419,-334 422,-334 425,-337 425,-340 425,-340 425,-346 425,-346 425,-349 422,-352 419,-352"/>
<text text-anchor="middle" x="386" y="-340.8" font-family="Helvetica,sans-Serif" font-size="9.00">notion&#45;utils.ts</text>
</a>
</g>
</g>
<!-- src/util.ts&#45;&gt;src/notion&#45;utils.ts -->
<g id="edge26" class="edge">
<title>src/util.ts&#45;&gt;src/notion&#45;utils.ts</title>
<path fill="none" stroke="#000000" stroke-width="2" stroke-opacity="0.200000" d="M331.1,-364C338.8,-361 347.48,-357.62 355.58,-354.46"/>
<polygon fill="#000000" fill-opacity="0.200000" stroke="#000000" stroke-width="2" stroke-opacity="0.200000" points="356.82,-356.23 361.65,-352.1 355.29,-352.32 356.82,-356.23"/>
</g>
<!-- src/util&#45;prismjs.ts -->
<g id="node26" class="node">
<title>src/util&#45;prismjs.ts</title>
<g id="a_node26"><a xlink:href="https://github.com/dragonman225/notionapi-agent/tree/master/src/util-prismjs.ts" xlink:title="util&#45;prismjs.ts">
<path fill="#ddfeff" stroke="black" d="M418.5,-382C418.5,-382 353.5,-382 353.5,-382 350.5,-382 347.5,-379 347.5,-376 347.5,-376 347.5,-370 347.5,-370 347.5,-367 350.5,-364 353.5,-364 353.5,-364 418.5,-364 418.5,-364 421.5,-364 424.5,-367 424.5,-370 424.5,-370 424.5,-376 424.5,-376 424.5,-379 421.5,-382 418.5,-382"/>
<text text-anchor="middle" x="386" y="-370.8" font-family="Helvetica,sans-Serif" font-size="9.00">util&#45;prismjs.ts</text>
</a>
</g>
</g>
<!-- src/util.ts&#45;&gt;src/util&#45;prismjs.ts -->
<g id="edge27" class="edge">
<title>src/util.ts&#45;&gt;src/util&#45;prismjs.ts</title>
<path fill="none" stroke="#000000" stroke-width="2" stroke-opacity="0.200000" d="M334.07,-368.72C334.2,-368.71 334.34,-368.71 334.47,-368.7"/>
<polygon fill="#000000" fill-opacity="0.200000" stroke="#000000" stroke-width="2" stroke-opacity="0.200000" points="341.37,-370.69 347.34,-368.5 341.31,-366.49 341.37,-370.69"/>
<polyline fill="none" stroke="#000000" stroke-width="2" stroke-opacity="0.200000" points="341.34,-368.59 338.34,-368.64 "/>
<ellipse fill="none" stroke="#000000" stroke-width="2" stroke-opacity="0.200000" cx="335.94" cy="-368.68" rx="2.4" ry="2.4"/>
</g>
<!-- src/widgets/audio.ts&#45;&gt;src/util.ts -->
<g id="edge28" class="edge">
<title>src/widgets/audio.ts&#45;&gt;src/util.ts</title>
<path fill="none" stroke="#000000" stroke-width="2" stroke-opacity="0.200000" d="M254.76,-608.93C261.25,-606.7 267.6,-603.28 272,-598 298.69,-565.95 304.48,-433.69 305.69,-388.34"/>
<polygon fill="#000000" fill-opacity="0.200000" stroke="#000000" stroke-width="2" stroke-opacity="0.200000" points="307.8,-388.12 305.84,-382.07 303.6,-388.02 307.8,-388.12"/>
</g>
<!-- src/widgets/bookmark.ts&#45;&gt;src/util.ts -->
<g id="edge29" class="edge">
<title>src/widgets/bookmark.ts&#45;&gt;src/util.ts</title>
<path fill="none" stroke="#000000" stroke-width="2" stroke-opacity="0.200000" d="M264.31,-574.43C267.19,-572.67 269.82,-570.55 272,-568 295.12,-540.87 303.1,-429.66 305.29,-388.45"/>
<polygon fill="#000000" fill-opacity="0.200000" stroke="#000000" stroke-width="2" stroke-opacity="0.200000" points="307.4,-388.35 305.6,-382.25 303.2,-388.13 307.4,-388.35"/>
</g>
<!-- src/widgets/callout.ts&#45;&gt;src/util.ts -->
<g id="edge30" class="edge">
<title>src/widgets/callout.ts&#45;&gt;src/util.ts</title>
<path fill="none" stroke="#000000" stroke-width="2" stroke-opacity="0.200000" d="M256.83,-547.95C262.53,-545.74 267.99,-542.56 272,-538 291.63,-515.66 301.53,-424.71 304.77,-388.24"/>
<polygon fill="#000000" fill-opacity="0.200000" stroke="#000000" stroke-width="2" stroke-opacity="0.200000" points="306.87,-388.25 305.3,-382.09 302.69,-387.89 306.87,-388.25"/>
</g>
<!-- src/widgets/code.ts&#45;&gt;src/util.ts -->
<g id="edge31" class="edge">
<title>src/widgets/code.ts&#45;&gt;src/util.ts</title>
<path fill="none" stroke="#000000" stroke-width="2" stroke-opacity="0.200000" d="M254.88,-518.48C261.22,-516.26 267.46,-512.94 272,-508 303.04,-474.19 306.74,-416.25 306.58,-388.59"/>
<polygon fill="#000000" fill-opacity="0.200000" stroke="#000000" stroke-width="2" stroke-opacity="0.200000" points="308.67,-388.2 306.47,-382.24 304.47,-388.28 308.67,-388.2"/>
</g>
<!-- src/widgets/collection.ts&#45;&gt;src/constants.ts -->
<g id="edge32" class="edge">
<title>src/widgets/collection.ts&#45;&gt;src/constants.ts</title>
<path fill="none" stroke="#000000" stroke-width="2" stroke-opacity="0.200000" d="M258.67,-82.06C284.44,-89.8 321.56,-100.95 348.89,-109.16"/>
<polygon fill="#000000" fill-opacity="0.200000" stroke="#000000" stroke-width="2" stroke-opacity="0.200000" points="348.57,-111.25 354.92,-110.97 349.78,-107.23 348.57,-111.25"/>
</g>
<!-- src/widgets/collection.ts&#45;&gt;src/util.ts -->
<g id="edge33" class="edge">
<title>src/widgets/collection.ts&#45;&gt;src/util.ts</title>
<path fill="none" stroke="#000000" stroke-width="2" stroke-opacity="0.200000" d="M263.22,-80.7C266.56,-82.62 269.59,-85.02 272,-88 305.9,-130.03 306.77,-305.16 306.24,-357.91"/>
<polygon fill="#000000" fill-opacity="0.200000" stroke="#000000" stroke-width="2" stroke-opacity="0.200000" points="304.14,-357.96 306.17,-363.98 308.34,-358.01 304.14,-357.96"/>
</g>
<!-- src/widgets/column.ts&#45;&gt;src/constants.ts -->
<g id="edge34" class="edge">
<title>src/widgets/column.ts&#45;&gt;src/constants.ts</title>
<path fill="none" stroke="#000000" stroke-width="2" stroke-opacity="0.200000" d="M256.25,-52.14C261.52,-54 266.95,-55.99 272,-58 300.1,-69.16 307.55,-71.34 334,-86 345.47,-92.35 357.71,-100.47 367.32,-107.17"/>
<polygon fill="#000000" fill-opacity="0.200000" stroke="#000000" stroke-width="2" stroke-opacity="0.200000" points="366.26,-108.99 372.37,-110.73 368.68,-105.56 366.26,-108.99"/>
</g>
<!-- src/widgets/divider.ts&#45;&gt;src/util.ts -->
<g id="edge35" class="edge">
<title>src/widgets/divider.ts&#45;&gt;src/util.ts</title>
<path fill="none" stroke="#000000" stroke-width="2" stroke-opacity="0.200000" d="M256.02,-487.78C261.89,-485.58 267.64,-482.45 272,-478 296.31,-453.23 303.24,-410.95 305.21,-388.34"/>
<polygon fill="#000000" fill-opacity="0.200000" stroke="#000000" stroke-width="2" stroke-opacity="0.200000" points="307.32,-388.39 305.67,-382.25 303.13,-388.08 307.32,-388.39"/>
</g>
<!-- src/widgets/embed.ts&#45;&gt;src/util.ts -->
<g id="edge36" class="edge">
<title>src/widgets/embed.ts&#45;&gt;src/util.ts</title>
<path fill="none" stroke="#000000" stroke-width="2" stroke-opacity="0.200000" d="M257.02,-456.89C262.45,-454.75 267.75,-451.87 272,-448 289.54,-432.03 298.63,-405.24 302.85,-388.38"/>
<polygon fill="#000000" fill-opacity="0.200000" stroke="#000000" stroke-width="2" stroke-opacity="0.200000" points="304.97,-388.55 304.28,-382.23 300.88,-387.6 304.97,-388.55"/>
</g>
<!-- src/widgets/equation.ts&#45;&gt;src/util.ts -->
<g id="edge37" class="edge">
<title>src/widgets/equation.ts&#45;&gt;src/util.ts</title>
<path fill="none" stroke="#000000" stroke-width="2" stroke-opacity="0.200000" d="M261.84,-423.85C265.43,-422.19 268.9,-420.25 272,-418 283,-410.02 292.06,-397.47 298.06,-387.65"/>
<polygon fill="#000000" fill-opacity="0.200000" stroke="#000000" stroke-width="2" stroke-opacity="0.200000" points="300.01,-388.47 301.23,-382.23 296.38,-386.35 300.01,-388.47"/>
</g>
<!-- src/widgets/heading.ts&#45;&gt;src/constants.ts -->
<g id="edge38" class="edge">
<title>src/widgets/heading.ts&#45;&gt;src/constants.ts</title>
<path fill="none" stroke="#000000" stroke-width="2" stroke-opacity="0.200000" d="M260.17,-106.44C284.23,-109.05 317.53,-112.67 343.69,-115.51"/>
<polygon fill="#000000" fill-opacity="0.200000" stroke="#000000" stroke-width="2" stroke-opacity="0.200000" points="343.64,-117.62 349.83,-116.18 344.09,-113.44 343.64,-117.62"/>
</g>
<!-- src/widgets/heading.ts&#45;&gt;src/util.ts -->
<g id="edge39" class="edge">
<title>src/widgets/heading.ts&#45;&gt;src/util.ts</title>
<path fill="none" stroke="#000000" stroke-width="2" stroke-opacity="0.200000" d="M260.18,-109.18C264.7,-111.31 268.86,-114.17 272,-118 302.25,-154.98 305.69,-308.24 306,-357.6"/>
<polygon fill="#000000" fill-opacity="0.200000" stroke="#000000" stroke-width="2" stroke-opacity="0.200000" points="303.9,-357.87 306.02,-363.86 308.1,-357.85 303.9,-357.87"/>
</g>
<!-- src/widgets/image.ts&#45;&gt;src/util.ts -->
<g id="edge40" class="edge">
<title>src/widgets/image.ts&#45;&gt;src/util.ts</title>
<path fill="none" stroke="#000000" stroke-width="2" stroke-opacity="0.200000" d="M255.78,-393.98C261.18,-392.09 266.79,-390.04 272,-388 274.78,-386.91 277.67,-385.72 280.53,-384.51"/>
<polygon fill="#000000" fill-opacity="0.200000" stroke="#000000" stroke-width="2" stroke-opacity="0.200000" points="281.66,-386.31 286.34,-382.01 280,-382.45 281.66,-386.31"/>
</g>
<!-- src/widgets/list.ts&#45;&gt;src/util.ts -->
<g id="edge41" class="edge">
<title>src/widgets/list.ts&#45;&gt;src/util.ts</title>
<path fill="none" stroke="#000000" stroke-width="2" stroke-opacity="0.200000" d="M254.74,-373C260.8,-373 267.32,-373 273.6,-373"/>
<polygon fill="#000000" fill-opacity="0.200000" stroke="#000000" stroke-width="2" stroke-opacity="0.200000" points="273.79,-375.1 279.79,-373 273.79,-370.9 273.79,-375.1"/>
</g>
<!-- src/widgets/page.ts&#45;&gt;src/util.ts -->
<g id="edge42" class="edge">
<title>src/widgets/page.ts&#45;&gt;src/util.ts</title>
<path fill="none" stroke="#000000" stroke-width="2" stroke-opacity="0.200000" d="M254.58,-319.2C260.64,-321.37 266.83,-324.25 272,-328 283,-335.98 292.06,-348.53 298.06,-358.35"/>
<polygon fill="#000000" fill-opacity="0.200000" stroke="#000000" stroke-width="2" stroke-opacity="0.200000" points="296.38,-359.65 301.23,-363.77 300.01,-357.53 296.38,-359.65"/>
</g>
<!-- src/widgets/quote.ts&#45;&gt;src/util.ts -->
<g id="edge43" class="edge">
<title>src/widgets/quote.ts&#45;&gt;src/util.ts</title>
<path fill="none" stroke="#000000" stroke-width="2" stroke-opacity="0.200000" d="M254.76,-288.26C260.95,-290.47 267.16,-293.59 272,-298 289.54,-313.97 298.63,-340.76 302.85,-357.62"/>
<polygon fill="#000000" fill-opacity="0.200000" stroke="#000000" stroke-width="2" stroke-opacity="0.200000" points="300.88,-358.4 304.28,-363.77 304.97,-357.45 300.88,-358.4"/>
</g>
<!-- src/widgets/text.ts&#45;&gt;src/constants.ts -->
<g id="edge44" class="edge">
<title>src/widgets/text.ts&#45;&gt;src/constants.ts</title>
<path fill="none" stroke="#000000" stroke-width="2" stroke-opacity="0.200000" d="M254.69,-130.82C278.96,-128.81 315.46,-125.78 343.66,-123.43"/>
<polygon fill="#000000" fill-opacity="0.200000" stroke="#000000" stroke-width="2" stroke-opacity="0.200000" points="344.1,-125.5 349.91,-122.92 343.75,-121.32 344.1,-125.5"/>
</g>
<!-- src/widgets/text.ts&#45;&gt;src/util.ts -->
<g id="edge45" class="edge">
<title>src/widgets/text.ts&#45;&gt;src/util.ts</title>
<path fill="none" stroke="#000000" stroke-width="2" stroke-opacity="0.200000" d="M254.76,-137.07C261.25,-139.3 267.6,-142.72 272,-148 298.69,-180.05 304.48,-312.31 305.69,-357.66"/>
<polygon fill="#000000" fill-opacity="0.200000" stroke="#000000" stroke-width="2" stroke-opacity="0.200000" points="303.6,-357.98 305.84,-363.93 307.8,-357.88 303.6,-357.98"/>
</g>
<!-- src/widgets/to&#45;do.ts&#45;&gt;src/constants.ts -->
<g id="edge46" class="edge">
<title>src/widgets/to&#45;do.ts&#45;&gt;src/constants.ts</title>
<path fill="none" stroke="#000000" stroke-width="2" stroke-opacity="0.200000" d="M254.69,-155.8C279.72,-148.93 317.73,-138.48 346.26,-130.65"/>
<polygon fill="#000000" fill-opacity="0.200000" stroke="#000000" stroke-width="2" stroke-opacity="0.200000" points="346.96,-132.63 352.19,-129.02 345.85,-128.58 346.96,-132.63"/>
</g>
<!-- src/widgets/to&#45;do.ts&#45;&gt;src/util.ts -->
<g id="edge47" class="edge">
<title>src/widgets/to&#45;do.ts&#45;&gt;src/util.ts</title>
<path fill="none" stroke="#000000" stroke-width="2" stroke-opacity="0.200000" d="M254.68,-167.14C261.17,-169.36 267.54,-172.77 272,-178 295.12,-205.13 303.1,-316.34 305.29,-357.55"/>
<polygon fill="#000000" fill-opacity="0.200000" stroke="#000000" stroke-width="2" stroke-opacity="0.200000" points="303.2,-357.87 305.6,-363.75 307.4,-357.65 303.2,-357.87"/>
</g>
<!-- src/widgets/toggle.ts&#45;&gt;src/constants.ts -->
<g id="edge48" class="edge">
<title>src/widgets/toggle.ts&#45;&gt;src/constants.ts</title>
<path fill="none" stroke="#000000" stroke-width="2" stroke-opacity="0.200000" d="M255.78,-215.14C261.29,-213.13 266.94,-210.74 272,-208 311.06,-186.82 350.64,-152.34 370.99,-133.44"/>
<polygon fill="#000000" fill-opacity="0.200000" stroke="#000000" stroke-width="2" stroke-opacity="0.200000" points="372.56,-134.84 375.5,-129.21 369.69,-131.78 372.56,-134.84"/>
</g>
<!-- src/widgets/toggle.ts&#45;&gt;src/util.ts -->
<g id="edge49" class="edge">
<title>src/widgets/toggle.ts&#45;&gt;src/util.ts</title>
<path fill="none" stroke="#000000" stroke-width="2" stroke-opacity="0.200000" d="M255.78,-227.85C261.81,-230.06 267.68,-233.29 272,-238 303.04,-271.81 306.74,-329.75 306.58,-357.41"/>
<polygon fill="#000000" fill-opacity="0.200000" stroke="#000000" stroke-width="2" stroke-opacity="0.200000" points="304.47,-357.72 306.47,-363.76 308.67,-357.8 304.47,-357.72"/>
</g>
<!-- src/widgets/video.ts&#45;&gt;src/util.ts -->
<g id="edge50" class="edge">
<title>src/widgets/video.ts&#45;&gt;src/util.ts</title>
<path fill="none" stroke="#000000" stroke-width="2" stroke-opacity="0.200000" d="M254.66,-257.73C261,-259.95 267.3,-263.21 272,-268 296.31,-292.77 303.24,-335.05 305.21,-357.66"/>
<polygon fill="#000000" fill-opacity="0.200000" stroke="#000000" stroke-width="2" stroke-opacity="0.200000" points="303.13,-357.92 305.67,-363.75 307.32,-357.61 303.13,-357.92"/>
</g>
<!-- src/util&#45;prismjs.ts&#45;&gt;src/util.ts -->
<g id="edge24" class="edge">
<title>src/util&#45;prismjs.ts&#45;&gt;src/util.ts</title>
<path fill="none" stroke="#000000" stroke-width="2" stroke-opacity="0.200000" d="M347.34,-377.5C347.2,-377.5 347.06,-377.5 346.92,-377.5"/>
<polygon fill="#000000" fill-opacity="0.200000" stroke="#000000" stroke-width="2" stroke-opacity="0.200000" points="340.1,-375.29 334.07,-377.28 340.03,-379.48 340.1,-375.29"/>
<polyline fill="none" stroke="#000000" stroke-width="2" stroke-opacity="0.200000" points="340.07,-377.39 343.07,-377.44 "/>
<ellipse fill="none" stroke="#000000" stroke-width="2" stroke-opacity="0.200000" cx="345.47" cy="-377.48" rx="2.4" ry="2.4"/>
</g>
</g>
</svg>
