<?xml version="1.0" encoding="UTF-8" standalone="no"?>
<!DOCTYPE svg PUBLIC "-//W3C//DTD SVG 1.1//EN"
 "http://www.w3.org/Graphics/SVG/1.1/DTD/svg11.dtd">
<!-- Generated by graphviz version 2.42.3 (0)
 -->
<!-- Title: dependency&#45;cruiser output Pages: 1 -->
<svg width="531pt" height="616pt"
 viewBox="0.00 0.00 531.00 615.60" xmlns="http://www.w3.org/2000/svg" xmlns:xlink="http://www.w3.org/1999/xlink">
<g id="graph0" class="graph" transform="scale(1 1) rotate(0) translate(4 611.6)">
<title>dependency&#45;cruiser output</title>
<polygon fill="white" stroke="transparent" points="-4,4 -4,-611.6 527,-611.6 527,4 -4,4"/>
<g id="clust1" class="cluster">
<title>cluster_src</title>
<path fill="#ffffff" stroke="black" stroke-width="2" d="M20,-15.6C20,-15.6 503,-15.6 503,-15.6 509,-15.6 515,-21.6 515,-27.6 515,-27.6 515,-587.6 515,-587.6 515,-593.6 509,-599.6 503,-599.6 503,-599.6 20,-599.6 20,-599.6 14,-599.6 8,-593.6 8,-587.6 8,-587.6 8,-27.6 8,-27.6 8,-21.6 14,-15.6 20,-15.6"/>
<text text-anchor="middle" x="261.5" y="-588.4" font-family="Helvetica,sans-Serif" font-weight="bold" font-size="9.00">src</text>
</g>
<g id="clust2" class="cluster">
<title>cluster_src/widgets</title>
<path fill="#ffffff" stroke="black" stroke-width="2" d="M195,-47.6C195,-47.6 279,-47.6 279,-47.6 285,-47.6 291,-53.6 291,-59.6 291,-59.6 291,-537.6 291,-537.6 291,-543.6 285,-549.6 279,-549.6 279,-549.6 195,-549.6 195,-549.6 189,-549.6 183,-543.6 183,-537.6 183,-537.6 183,-59.6 183,-59.6 183,-53.6 189,-47.6 195,-47.6"/>
<text text-anchor="middle" x="237" y="-538.4" font-family="Helvetica,sans-Serif" font-weight="bold" font-size="9.00">widgets</text>
</g>
<!-- src/constants.ts -->
<g id="node1" class="node">
<title>src/constants.ts</title>
<g id="a_node1"><a xlink:href="https://github.com/dragonman225/notionapi-agent/tree/master/src/constants.ts" xlink:title="constants.ts">
<path fill="#ddfeff" stroke="black" d="M479.5,-403.6C479.5,-403.6 419.5,-403.6 419.5,-403.6 416.5,-403.6 413.5,-400.6 413.5,-397.6 413.5,-397.6 413.5,-391.6 413.5,-391.6 413.5,-388.6 416.5,-385.6 419.5,-385.6 419.5,-385.6 479.5,-385.6 479.5,-385.6 482.5,-385.6 485.5,-388.6 485.5,-391.6 485.5,-391.6 485.5,-397.6 485.5,-397.6 485.5,-400.6 482.5,-403.6 479.5,-403.6"/>
<text text-anchor="middle" x="449.5" y="-392.4" font-family="Helvetica,sans-Serif" font-size="9.00">constants.ts</text>
</a>
</g>
</g>
<!-- src/index.ts -->
<g id="node2" class="node">
<title>src/index.ts</title>
<g id="a_node2"><a xlink:href="https://github.com/dragonman225/notionapi-agent/tree/master/src/index.ts" xlink:title="index.ts">
<path fill="#ddfeff" stroke="black" d="M64,-443.6C64,-443.6 22,-443.6 22,-443.6 19,-443.6 16,-440.6 16,-437.6 16,-437.6 16,-431.6 16,-431.6 16,-428.6 19,-425.6 22,-425.6 22,-425.6 64,-425.6 64,-425.6 67,-425.6 70,-428.6 70,-431.6 70,-431.6 70,-437.6 70,-437.6 70,-440.6 67,-443.6 64,-443.6"/>
<text text-anchor="middle" x="43" y="-432.4" font-family="Helvetica,sans-Serif" font-size="9.00">index.ts</text>
</a>
</g>
</g>
<!-- src/render&#45;control.ts -->
<g id="node3" class="node">
<title>src/render&#45;control.ts</title>
<g id="a_node3"><a xlink:href="https://github.com/dragonman225/notionapi-agent/tree/master/src/render-control.ts" xlink:title="render&#45;control.ts">
<path fill="#ddfeff" stroke="black" d="M169,-298.6C169,-298.6 89,-298.6 89,-298.6 86,-298.6 83,-295.6 83,-292.6 83,-292.6 83,-286.6 83,-286.6 83,-283.6 86,-280.6 89,-280.6 89,-280.6 169,-280.6 169,-280.6 172,-280.6 175,-283.6 175,-286.6 175,-286.6 175,-292.6 175,-292.6 175,-295.6 172,-298.6 169,-298.6"/>
<text text-anchor="middle" x="129" y="-287.4" font-family="Helvetica,sans-Serif" font-size="9.00">render&#45;control.ts</text>
</a>
</g>
</g>
<!-- src/index.ts&#45;&gt;src/render&#45;control.ts -->
<g id="edge1" class="edge">
<title>src/index.ts&#45;&gt;src/render&#45;control.ts</title>
<path fill="none" stroke="#000000" stroke-width="2" stroke-opacity="0.200000" d="M49.25,-425.53C63.4,-401.12 102.36,-333.87 119.6,-304.1"/>
<polygon fill="#000000" fill-opacity="0.200000" stroke="#000000" stroke-width="2" stroke-opacity="0.200000" points="121.56,-304.92 122.75,-298.67 117.92,-302.81 121.56,-304.92"/>
</g>
<!-- src/render&#45;utils.ts -->
<g id="node4" class="node">
<title>src/render&#45;utils.ts</title>
<g id="a_node4"><a xlink:href="https://github.com/dragonman225/notionapi-agent/tree/master/src/render-utils.ts" xlink:title="render&#45;utils.ts">
<path fill="#ddfeff" stroke="black" d="M373,-328.6C373,-328.6 305,-328.6 305,-328.6 302,-328.6 299,-325.6 299,-322.6 299,-322.6 299,-316.6 299,-316.6 299,-313.6 302,-310.6 305,-310.6 305,-310.6 373,-310.6 373,-310.6 376,-310.6 379,-313.6 379,-316.6 379,-316.6 379,-322.6 379,-322.6 379,-325.6 376,-328.6 373,-328.6"/>
<text text-anchor="middle" x="339" y="-317.4" font-family="Helvetica,sans-Serif" font-size="9.00">render&#45;utils.ts</text>
</a>
</g>
</g>
<!-- src/index.ts&#45;&gt;src/render&#45;utils.ts -->
<g id="edge2" class="edge">
<title>src/index.ts&#45;&gt;src/render&#45;utils.ts</title>
<path fill="none" stroke="#000000" stroke-width="2" stroke-opacity="0.200000" d="M51.12,-443.8C82.19,-482.87 208.04,-630.01 291,-561.6 326.24,-532.55 335.39,-383.69 337.46,-335.02"/>
<polygon fill="#000000" fill-opacity="0.200000" stroke="#000000" stroke-width="2" stroke-opacity="0.200000" points="339.56,-334.92 337.7,-328.84 335.37,-334.76 339.56,-334.92"/>
</g>
<!-- src/render&#45;control.ts&#45;&gt;src/constants.ts -->
<g id="edge3" class="edge">
<title>src/render&#45;control.ts&#45;&gt;src/constants.ts</title>
<path fill="none" stroke="#000000" stroke-width="2" stroke-opacity="0.200000" d="M130.5,-280.51C132.94,-239.83 145.07,-75.21 183,-44.6 220.36,-14.46 243.9,-35.34 291,-44.6 332.46,-52.76 354.56,-46.13 379,-80.6 395.35,-103.66 380.91,-308.61 392,-334.6 400.2,-353.83 417.44,-370.65 430.73,-381.55"/>
<polygon fill="#000000" fill-opacity="0.200000" stroke="#000000" stroke-width="2" stroke-opacity="0.200000" points="429.42,-383.19 435.42,-385.29 432.04,-379.91 429.42,-383.19"/>
</g>
<!-- src/render&#45;control.ts&#45;&gt;src/render&#45;utils.ts -->
<g id="edge5" class="edge">
<title>src/render&#45;control.ts&#45;&gt;src/render&#45;utils.ts</title>
<path fill="none" stroke="#000000" stroke-width="2" stroke-opacity="0.200000" d="M130.36,-298.78C132.24,-341.4 142.45,-519.41 183,-552.6 201.57,-567.81 272.43,-567.81 291,-552.6 325.01,-524.77 334.96,-381.98 337.35,-334.77"/>
<polygon fill="#000000" fill-opacity="0.200000" stroke="#000000" stroke-width="2" stroke-opacity="0.200000" points="339.44,-334.86 337.63,-328.77 335.25,-334.66 339.44,-334.86"/>
</g>
<!-- src/log&#45;utils.ts -->
<g id="node5" class="node">
<title>src/log&#45;utils.ts</title>
<g id="a_node5"><a xlink:href="https://github.com/dragonman225/notionapi-agent/tree/master/src/log-utils.ts" xlink:title="log&#45;utils.ts">
<path fill="#ddfeff" stroke="black" d="M475,-54.6C475,-54.6 424,-54.6 424,-54.6 421,-54.6 418,-51.6 418,-48.6 418,-48.6 418,-42.6 418,-42.6 418,-39.6 421,-36.6 424,-36.6 424,-36.6 475,-36.6 475,-36.6 478,-36.6 481,-39.6 481,-42.6 481,-42.6 481,-48.6 481,-48.6 481,-51.6 478,-54.6 475,-54.6"/>
<text text-anchor="middle" x="449.5" y="-43.4" font-family="Helvetica,sans-Serif" font-size="9.00">log&#45;utils.ts</text>
</a>
</g>
</g>
<!-- src/render&#45;control.ts&#45;&gt;src/log&#45;utils.ts -->
<g id="edge4" class="edge">
<title>src/render&#45;control.ts&#45;&gt;src/log&#45;utils.ts</title>
<path fill="none" stroke="#000000" stroke-width="2" stroke-opacity="0.200000" d="M130.38,-280.53C132.34,-238.39 142.86,-62.39 183,-29.6 253.25,27.77 372.01,-12.32 423.47,-34.09"/>
<polygon fill="#000000" fill-opacity="0.200000" stroke="#000000" stroke-width="2" stroke-opacity="0.200000" points="422.78,-36.07 429.12,-36.52 424.44,-32.22 422.78,-36.07"/>
</g>
<!-- src/widgets/audio.ts -->
<g id="node7" class="node">
<title>src/widgets/audio.ts</title>
<g id="a_node7"><a xlink:href="https://github.com/dragonman225/notionapi-agent/tree/master/src/widgets/audio.ts" xlink:title="audio.ts">
<path fill="#ddfeff" stroke="black" d="M258,-373.6C258,-373.6 216,-373.6 216,-373.6 213,-373.6 210,-370.6 210,-367.6 210,-367.6 210,-361.6 210,-361.6 210,-358.6 213,-355.6 216,-355.6 216,-355.6 258,-355.6 258,-355.6 261,-355.6 264,-358.6 264,-361.6 264,-361.6 264,-367.6 264,-367.6 264,-370.6 261,-373.6 258,-373.6"/>
<text text-anchor="middle" x="237" y="-362.4" font-family="Helvetica,sans-Serif" font-size="9.00">audio.ts</text>
</a>
</g>
</g>
<!-- src/render&#45;control.ts&#45;&gt;src/widgets/audio.ts -->
<g id="edge6" class="edge">
<title>src/render&#45;control.ts&#45;&gt;src/widgets/audio.ts</title>
<path fill="none" stroke="#000000" stroke-width="2" stroke-opacity="0.200000" d="M135.64,-298.81C144.22,-312.03 161.82,-336.28 183,-349.6 189.32,-353.58 196.72,-356.53 203.95,-358.7"/>
<polygon fill="#000000" fill-opacity="0.200000" stroke="#000000" stroke-width="2" stroke-opacity="0.200000" points="203.62,-360.79 209.96,-360.36 204.73,-356.74 203.62,-360.79"/>
</g>
<!-- src/widgets/bookmark.ts -->
<g id="node8" class="node">
<title>src/widgets/bookmark.ts</title>
<g id="a_node8"><a xlink:href="https://github.com/dragonman225/notionapi-agent/tree/master/src/widgets/bookmark.ts" xlink:title="bookmark.ts">
<path fill="#ddfeff" stroke="black" d="M267.5,-343.6C267.5,-343.6 206.5,-343.6 206.5,-343.6 203.5,-343.6 200.5,-340.6 200.5,-337.6 200.5,-337.6 200.5,-331.6 200.5,-331.6 200.5,-328.6 203.5,-325.6 206.5,-325.6 206.5,-325.6 267.5,-325.6 267.5,-325.6 270.5,-325.6 273.5,-328.6 273.5,-331.6 273.5,-331.6 273.5,-337.6 273.5,-337.6 273.5,-340.6 270.5,-343.6 267.5,-343.6"/>
<text text-anchor="middle" x="237" y="-332.4" font-family="Helvetica,sans-Serif" font-size="9.00">bookmark.ts</text>
</a>
</g>
</g>
<!-- src/render&#45;control.ts&#45;&gt;src/widgets/bookmark.ts -->
<g id="edge7" class="edge">
<title>src/render&#45;control.ts&#45;&gt;src/widgets/bookmark.ts</title>
<path fill="none" stroke="#000000" stroke-width="2" stroke-opacity="0.200000" d="M143.93,-298.71C154.35,-305.22 169.14,-313.82 183,-319.6 186.68,-321.14 190.56,-322.57 194.48,-323.89"/>
<polygon fill="#000000" fill-opacity="0.200000" stroke="#000000" stroke-width="2" stroke-opacity="0.200000" points="193.89,-325.91 200.25,-325.75 195.18,-321.91 193.89,-325.91"/>
</g>
<!-- src/widgets/callout.ts -->
<g id="node9" class="node">
<title>src/widgets/callout.ts</title>
<g id="a_node9"><a xlink:href="https://github.com/dragonman225/notionapi-agent/tree/master/src/widgets/callout.ts" xlink:title="callout.ts">
<path fill="#ddfeff" stroke="black" d="M260,-313.6C260,-313.6 214,-313.6 214,-313.6 211,-313.6 208,-310.6 208,-307.6 208,-307.6 208,-301.6 208,-301.6 208,-298.6 211,-295.6 214,-295.6 214,-295.6 260,-295.6 260,-295.6 263,-295.6 266,-298.6 266,-301.6 266,-301.6 266,-307.6 266,-307.6 266,-310.6 263,-313.6 260,-313.6"/>
<text text-anchor="middle" x="237" y="-302.4" font-family="Helvetica,sans-Serif" font-size="9.00">callout.ts</text>
</a>
</g>
</g>
<!-- src/render&#45;control.ts&#45;&gt;src/widgets/callout.ts -->
<g id="edge8" class="edge">
<title>src/render&#45;control.ts&#45;&gt;src/widgets/callout.ts</title>
<path fill="none" stroke="#000000" stroke-width="2" stroke-opacity="0.200000" d="M175.26,-296.01C184.05,-297.25 193.13,-298.54 201.5,-299.72"/>
<polygon fill="#000000" fill-opacity="0.200000" stroke="#000000" stroke-width="2" stroke-opacity="0.200000" points="201.52,-301.85 207.75,-300.61 202.11,-297.69 201.52,-301.85"/>
</g>
<!-- src/widgets/code.ts -->
<g id="node10" class="node">
<title>src/widgets/code.ts</title>
<g id="a_node10"><a xlink:href="https://github.com/dragonman225/notionapi-agent/tree/master/src/widgets/code.ts" xlink:title="code.ts">
<path fill="#ddfeff" stroke="black" d="M258,-283.6C258,-283.6 216,-283.6 216,-283.6 213,-283.6 210,-280.6 210,-277.6 210,-277.6 210,-271.6 210,-271.6 210,-268.6 213,-265.6 216,-265.6 216,-265.6 258,-265.6 258,-265.6 261,-265.6 264,-268.6 264,-271.6 264,-271.6 264,-277.6 264,-277.6 264,-280.6 261,-283.6 258,-283.6"/>
<text text-anchor="middle" x="237" y="-272.4" font-family="Helvetica,sans-Serif" font-size="9.00">code.ts</text>
</a>
</g>
</g>
<!-- src/render&#45;control.ts&#45;&gt;src/widgets/code.ts -->
<g id="edge9" class="edge">
<title>src/render&#45;control.ts&#45;&gt;src/widgets/code.ts</title>
<path fill="none" stroke="#000000" stroke-width="2" stroke-opacity="0.200000" d="M175.26,-283.2C184.86,-281.84 194.81,-280.43 203.81,-279.16"/>
<polygon fill="#000000" fill-opacity="0.200000" stroke="#000000" stroke-width="2" stroke-opacity="0.200000" points="204.22,-281.22 209.87,-278.3 203.63,-277.06 204.22,-281.22"/>
</g>
<!-- src/widgets/collection.ts -->
<g id="node11" class="node">
<title>src/widgets/collection.ts</title>
<g id="a_node11"><a xlink:href="https://github.com/dragonman225/notionapi-agent/tree/master/src/widgets/collection.ts" xlink:title="collection.ts">
<path fill="#ddfeff" stroke="black" d="M266.5,-73.6C266.5,-73.6 207.5,-73.6 207.5,-73.6 204.5,-73.6 201.5,-70.6 201.5,-67.6 201.5,-67.6 201.5,-61.6 201.5,-61.6 201.5,-58.6 204.5,-55.6 207.5,-55.6 207.5,-55.6 266.5,-55.6 266.5,-55.6 269.5,-55.6 272.5,-58.6 272.5,-61.6 272.5,-61.6 272.5,-67.6 272.5,-67.6 272.5,-70.6 269.5,-73.6 266.5,-73.6"/>
<text text-anchor="middle" x="237" y="-62.4" font-family="Helvetica,sans-Serif" font-size="9.00">collection.ts</text>
</a>
</g>
</g>
<!-- src/render&#45;control.ts&#45;&gt;src/widgets/collection.ts -->
<g id="edge10" class="edge">
<title>src/render&#45;control.ts&#45;&gt;src/widgets/collection.ts</title>
<path fill="none" stroke="#000000" stroke-width="2" stroke-opacity="0.200000" d="M131.08,-280.57C135.58,-244.26 154.04,-109.4 183,-79.6 186.59,-75.91 191.02,-73.1 195.78,-70.98"/>
<polygon fill="#000000" fill-opacity="0.200000" stroke="#000000" stroke-width="2" stroke-opacity="0.200000" points="196.63,-72.9 201.48,-68.78 195.12,-68.98 196.63,-72.9"/>
</g>
<!-- src/widgets/column&#45;helper.ts -->
<g id="node12" class="node">
<title>src/widgets/column&#45;helper.ts</title>
<g id="a_node12"><a xlink:href="https://github.com/dragonman225/notionapi-agent/tree/master/src/widgets/column-helper.ts" xlink:title="column&#45;helper.ts">
<path fill="#ddfeff" stroke="black" d="M277,-103.6C277,-103.6 197,-103.6 197,-103.6 194,-103.6 191,-100.6 191,-97.6 191,-97.6 191,-91.6 191,-91.6 191,-88.6 194,-85.6 197,-85.6 197,-85.6 277,-85.6 277,-85.6 280,-85.6 283,-88.6 283,-91.6 283,-91.6 283,-97.6 283,-97.6 283,-100.6 280,-103.6 277,-103.6"/>
<text text-anchor="middle" x="237" y="-92.4" font-family="Helvetica,sans-Serif" font-size="9.00">column&#45;helper.ts</text>
</a>
</g>
</g>
<!-- src/render&#45;control.ts&#45;&gt;src/widgets/column&#45;helper.ts -->
<g id="edge11" class="edge">
<title>src/render&#45;control.ts&#45;&gt;src/widgets/column&#45;helper.ts</title>
<path fill="none" stroke="#000000" stroke-width="2" stroke-opacity="0.200000" d="M129.81,-280.21C129.74,-250.61 133.68,-158.41 183,-109.6 183.87,-108.75 184.78,-107.94 185.73,-107.17"/>
<polygon fill="#000000" fill-opacity="0.200000" stroke="#000000" stroke-width="2" stroke-opacity="0.200000" points="187.01,-108.84 190.77,-103.72 184.63,-105.38 187.01,-108.84"/>
</g>
<!-- src/widgets/divider.ts -->
<g id="node13" class="node">
<title>src/widgets/divider.ts</title>
<g id="a_node13"><a xlink:href="https://github.com/dragonman225/notionapi-agent/tree/master/src/widgets/divider.ts" xlink:title="divider.ts">
<path fill="#ddfeff" stroke="black" d="M259.5,-253.6C259.5,-253.6 214.5,-253.6 214.5,-253.6 211.5,-253.6 208.5,-250.6 208.5,-247.6 208.5,-247.6 208.5,-241.6 208.5,-241.6 208.5,-238.6 211.5,-235.6 214.5,-235.6 214.5,-235.6 259.5,-235.6 259.5,-235.6 262.5,-235.6 265.5,-238.6 265.5,-241.6 265.5,-241.6 265.5,-247.6 265.5,-247.6 265.5,-250.6 262.5,-253.6 259.5,-253.6"/>
<text text-anchor="middle" x="237" y="-242.4" font-family="Helvetica,sans-Serif" font-size="9.00">divider.ts</text>
</a>
</g>
</g>
<!-- src/render&#45;control.ts&#45;&gt;src/widgets/divider.ts -->
<g id="edge12" class="edge">
<title>src/render&#45;control.ts&#45;&gt;src/widgets/divider.ts</title>
<path fill="none" stroke="#000000" stroke-width="2" stroke-opacity="0.200000" d="M143.93,-280.5C154.35,-273.99 169.14,-265.39 183,-259.6 189.15,-257.04 195.88,-254.76 202.41,-252.8"/>
<polygon fill="#000000" fill-opacity="0.200000" stroke="#000000" stroke-width="2" stroke-opacity="0.200000" points="203.15,-254.77 208.34,-251.09 201.99,-250.73 203.15,-254.77"/>
</g>
<!-- src/widgets/embed.ts -->
<g id="node14" class="node">
<title>src/widgets/embed.ts</title>
<g id="a_node14"><a xlink:href="https://github.com/dragonman225/notionapi-agent/tree/master/src/widgets/embed.ts" xlink:title="embed.ts">
<path fill="#ddfeff" stroke="black" d="M260.5,-223.6C260.5,-223.6 213.5,-223.6 213.5,-223.6 210.5,-223.6 207.5,-220.6 207.5,-217.6 207.5,-217.6 207.5,-211.6 207.5,-211.6 207.5,-208.6 210.5,-205.6 213.5,-205.6 213.5,-205.6 260.5,-205.6 260.5,-205.6 263.5,-205.6 266.5,-208.6 266.5,-211.6 266.5,-211.6 266.5,-217.6 266.5,-217.6 266.5,-220.6 263.5,-223.6 260.5,-223.6"/>
<text text-anchor="middle" x="237" y="-212.4" font-family="Helvetica,sans-Serif" font-size="9.00">embed.ts</text>
</a>
</g>
</g>
<!-- src/render&#45;control.ts&#45;&gt;src/widgets/embed.ts -->
<g id="edge13" class="edge">
<title>src/render&#45;control.ts&#45;&gt;src/widgets/embed.ts</title>
<path fill="none" stroke="#000000" stroke-width="2" stroke-opacity="0.200000" d="M135.64,-280.4C144.22,-267.18 161.82,-242.93 183,-229.6 188.58,-226.1 194.99,-223.39 201.39,-221.31"/>
<polygon fill="#000000" fill-opacity="0.200000" stroke="#000000" stroke-width="2" stroke-opacity="0.200000" points="202.08,-223.29 207.24,-219.57 200.89,-219.27 202.08,-223.29"/>
</g>
<!-- src/widgets/equation.ts -->
<g id="node15" class="node">
<title>src/widgets/equation.ts</title>
<g id="a_node15"><a xlink:href="https://github.com/dragonman225/notionapi-agent/tree/master/src/widgets/equation.ts" xlink:title="equation.ts">
<path fill="#ddfeff" stroke="black" d="M265,-193.6C265,-193.6 209,-193.6 209,-193.6 206,-193.6 203,-190.6 203,-187.6 203,-187.6 203,-181.6 203,-181.6 203,-178.6 206,-175.6 209,-175.6 209,-175.6 265,-175.6 265,-175.6 268,-175.6 271,-178.6 271,-181.6 271,-181.6 271,-187.6 271,-187.6 271,-190.6 268,-193.6 265,-193.6"/>
<text text-anchor="middle" x="237" y="-182.4" font-family="Helvetica,sans-Serif" font-size="9.00">equation.ts</text>
</a>
</g>
</g>
<!-- src/render&#45;control.ts&#45;&gt;src/widgets/equation.ts -->
<g id="edge14" class="edge">
<title>src/render&#45;control.ts&#45;&gt;src/widgets/equation.ts</title>
<path fill="none" stroke="#000000" stroke-width="2" stroke-opacity="0.200000" d="M132.83,-280.39C138.91,-262.12 155.01,-221.21 183,-199.6 187.14,-196.41 191.92,-193.9 196.89,-191.92"/>
<polygon fill="#000000" fill-opacity="0.200000" stroke="#000000" stroke-width="2" stroke-opacity="0.200000" points="197.82,-193.82 202.77,-189.84 196.42,-189.86 197.82,-193.82"/>
</g>
<!-- src/widgets/heading.ts -->
<g id="node16" class="node">
<title>src/widgets/heading.ts</title>
<g id="a_node16"><a xlink:href="https://github.com/dragonman225/notionapi-agent/tree/master/src/widgets/heading.ts" xlink:title="heading.ts">
<path fill="#ddfeff" stroke="black" d="M263.5,-463.6C263.5,-463.6 210.5,-463.6 210.5,-463.6 207.5,-463.6 204.5,-460.6 204.5,-457.6 204.5,-457.6 204.5,-451.6 204.5,-451.6 204.5,-448.6 207.5,-445.6 210.5,-445.6 210.5,-445.6 263.5,-445.6 263.5,-445.6 266.5,-445.6 269.5,-448.6 269.5,-451.6 269.5,-451.6 269.5,-457.6 269.5,-457.6 269.5,-460.6 266.5,-463.6 263.5,-463.6"/>
<text text-anchor="middle" x="237" y="-452.4" font-family="Helvetica,sans-Serif" font-size="9.00">heading.ts</text>
</a>
</g>
</g>
<!-- src/render&#45;control.ts&#45;&gt;src/widgets/heading.ts -->
<g id="edge15" class="edge">
<title>src/render&#45;control.ts&#45;&gt;src/widgets/heading.ts</title>
<path fill="none" stroke="#000000" stroke-width="2" stroke-opacity="0.200000" d="M130.45,-298.92C132.22,-325.13 140.9,-400.11 183,-439.6 187.39,-443.73 192.83,-446.73 198.54,-448.91"/>
<polygon fill="#000000" fill-opacity="0.200000" stroke="#000000" stroke-width="2" stroke-opacity="0.200000" points="197.95,-450.93 204.31,-450.83 199.28,-446.94 197.95,-450.93"/>
</g>
<!-- src/widgets/image.ts -->
<g id="node17" class="node">
<title>src/widgets/image.ts</title>
<g id="a_node17"><a xlink:href="https://github.com/dragonman225/notionapi-agent/tree/master/src/widgets/image.ts" xlink:title="image.ts">
<path fill="#ddfeff" stroke="black" d="M259,-163.6C259,-163.6 215,-163.6 215,-163.6 212,-163.6 209,-160.6 209,-157.6 209,-157.6 209,-151.6 209,-151.6 209,-148.6 212,-145.6 215,-145.6 215,-145.6 259,-145.6 259,-145.6 262,-145.6 265,-148.6 265,-151.6 265,-151.6 265,-157.6 265,-157.6 265,-160.6 262,-163.6 259,-163.6"/>
<text text-anchor="middle" x="237" y="-152.4" font-family="Helvetica,sans-Serif" font-size="9.00">image.ts</text>
</a>
</g>
</g>
<!-- src/render&#45;control.ts&#45;&gt;src/widgets/image.ts -->
<g id="edge16" class="edge">
<title>src/render&#45;control.ts&#45;&gt;src/widgets/image.ts</title>
<path fill="none" stroke="#000000" stroke-width="2" stroke-opacity="0.200000" d="M131.33,-280.53C135.1,-258.19 147.93,-200.08 183,-169.6 188.64,-164.7 195.77,-161.4 202.96,-159.17"/>
<polygon fill="#000000" fill-opacity="0.200000" stroke="#000000" stroke-width="2" stroke-opacity="0.200000" points="203.74,-161.13 208.99,-157.54 202.64,-157.08 203.74,-161.13"/>
</g>
<!-- src/widgets/list.ts -->
<g id="node18" class="node">
<title>src/widgets/list.ts</title>
<g id="a_node18"><a xlink:href="https://github.com/dragonman225/notionapi-agent/tree/master/src/widgets/list.ts" xlink:title="list.ts">
<path fill="#ddfeff" stroke="black" d="M258,-493.6C258,-493.6 216,-493.6 216,-493.6 213,-493.6 210,-490.6 210,-487.6 210,-487.6 210,-481.6 210,-481.6 210,-478.6 213,-475.6 216,-475.6 216,-475.6 258,-475.6 258,-475.6 261,-475.6 264,-478.6 264,-481.6 264,-481.6 264,-487.6 264,-487.6 264,-490.6 261,-493.6 258,-493.6"/>
<text text-anchor="middle" x="237" y="-482.4" font-family="Helvetica,sans-Serif" font-size="9.00">list.ts</text>
</a>
</g>
</g>
<!-- src/render&#45;control.ts&#45;&gt;src/widgets/list.ts -->
<g id="edge17" class="edge">
<title>src/render&#45;control.ts&#45;&gt;src/widgets/list.ts</title>
<path fill="none" stroke="#000000" stroke-width="2" stroke-opacity="0.200000" d="M129.81,-299C129.74,-328.6 133.68,-420.8 183,-469.6 188.69,-475.23 196.32,-478.78 204.02,-481.02"/>
<polygon fill="#000000" fill-opacity="0.200000" stroke="#000000" stroke-width="2" stroke-opacity="0.200000" points="203.55,-483.06 209.88,-482.48 204.57,-478.99 203.55,-483.06"/>
</g>
<!-- src/widgets/quote.ts -->
<g id="node19" class="node">
<title>src/widgets/quote.ts</title>
<g id="a_node19"><a xlink:href="https://github.com/dragonman225/notionapi-agent/tree/master/src/widgets/quote.ts" xlink:title="quote.ts">
<path fill="#ddfeff" stroke="black" d="M258,-133.6C258,-133.6 216,-133.6 216,-133.6 213,-133.6 210,-130.6 210,-127.6 210,-127.6 210,-121.6 210,-121.6 210,-118.6 213,-115.6 216,-115.6 216,-115.6 258,-115.6 258,-115.6 261,-115.6 264,-118.6 264,-121.6 264,-121.6 264,-127.6 264,-127.6 264,-130.6 261,-133.6 258,-133.6"/>
<text text-anchor="middle" x="237" y="-122.4" font-family="Helvetica,sans-Serif" font-size="9.00">quote.ts</text>
</a>
</g>
</g>
<!-- src/render&#45;control.ts&#45;&gt;src/widgets/quote.ts -->
<g id="edge18" class="edge">
<title>src/render&#45;control.ts&#45;&gt;src/widgets/quote.ts</title>
<path fill="none" stroke="#000000" stroke-width="2" stroke-opacity="0.200000" d="M130.45,-280.29C132.22,-254.08 140.9,-179.1 183,-139.6 188.67,-134.29 196.08,-130.84 203.55,-128.6"/>
<polygon fill="#000000" fill-opacity="0.200000" stroke="#000000" stroke-width="2" stroke-opacity="0.200000" points="204.52,-130.52 209.81,-126.99 203.47,-126.45 204.52,-130.52"/>
</g>
<!-- src/widgets/text.ts -->
<g id="node20" class="node">
<title>src/widgets/text.ts</title>
<g id="a_node20"><a xlink:href="https://github.com/dragonman225/notionapi-agent/tree/master/src/widgets/text.ts" xlink:title="text.ts">
<path fill="#ddfeff" stroke="black" d="M258,-523.6C258,-523.6 216,-523.6 216,-523.6 213,-523.6 210,-520.6 210,-517.6 210,-517.6 210,-511.6 210,-511.6 210,-508.6 213,-505.6 216,-505.6 216,-505.6 258,-505.6 258,-505.6 261,-505.6 264,-508.6 264,-511.6 264,-511.6 264,-517.6 264,-517.6 264,-520.6 261,-523.6 258,-523.6"/>
<text text-anchor="middle" x="237" y="-512.4" font-family="Helvetica,sans-Serif" font-size="9.00">text.ts</text>
</a>
</g>
</g>
<!-- src/render&#45;control.ts&#45;&gt;src/widgets/text.ts -->
<g id="edge19" class="edge">
<title>src/render&#45;control.ts&#45;&gt;src/widgets/text.ts</title>
<path fill="none" stroke="#000000" stroke-width="2" stroke-opacity="0.200000" d="M131.08,-298.64C135.58,-334.95 154.04,-469.81 183,-499.6 188.58,-505.34 196.17,-508.93 203.87,-511.16"/>
<polygon fill="#000000" fill-opacity="0.200000" stroke="#000000" stroke-width="2" stroke-opacity="0.200000" points="203.41,-513.22 209.74,-512.62 204.42,-509.14 203.41,-513.22"/>
</g>
<!-- src/widgets/to&#45;do.ts -->
<g id="node21" class="node">
<title>src/widgets/to&#45;do.ts</title>
<g id="a_node21"><a xlink:href="https://github.com/dragonman225/notionapi-agent/tree/master/src/widgets/to-do.ts" xlink:title="to&#45;do.ts">
<path fill="#ddfeff" stroke="black" d="M258,-403.6C258,-403.6 216,-403.6 216,-403.6 213,-403.6 210,-400.6 210,-397.6 210,-397.6 210,-391.6 210,-391.6 210,-388.6 213,-385.6 216,-385.6 216,-385.6 258,-385.6 258,-385.6 261,-385.6 264,-388.6 264,-391.6 264,-391.6 264,-397.6 264,-397.6 264,-400.6 261,-403.6 258,-403.6"/>
<text text-anchor="middle" x="237" y="-392.4" font-family="Helvetica,sans-Serif" font-size="9.00">to&#45;do.ts</text>
</a>
</g>
</g>
<!-- src/render&#45;control.ts&#45;&gt;src/widgets/to&#45;do.ts -->
<g id="edge20" class="edge">
<title>src/render&#45;control.ts&#45;&gt;src/widgets/to&#45;do.ts</title>
<path fill="none" stroke="#000000" stroke-width="2" stroke-opacity="0.200000" d="M132.83,-298.82C138.91,-317.09 155.01,-358 183,-379.6 189.03,-384.26 196.45,-387.47 203.79,-389.68"/>
<polygon fill="#000000" fill-opacity="0.200000" stroke="#000000" stroke-width="2" stroke-opacity="0.200000" points="203.58,-391.8 209.92,-391.32 204.67,-387.74 203.58,-391.8"/>
</g>
<!-- src/widgets/toggle.ts -->
<g id="node22" class="node">
<title>src/widgets/toggle.ts</title>
<g id="a_node22"><a xlink:href="https://github.com/dragonman225/notionapi-agent/tree/master/src/widgets/toggle.ts" xlink:title="toggle.ts">
<path fill="#ddfeff" stroke="black" d="M259,-433.6C259,-433.6 215,-433.6 215,-433.6 212,-433.6 209,-430.6 209,-427.6 209,-427.6 209,-421.6 209,-421.6 209,-418.6 212,-415.6 215,-415.6 215,-415.6 259,-415.6 259,-415.6 262,-415.6 265,-418.6 265,-421.6 265,-421.6 265,-427.6 265,-427.6 265,-430.6 262,-433.6 259,-433.6"/>
<text text-anchor="middle" x="237" y="-422.4" font-family="Helvetica,sans-Serif" font-size="9.00">toggle.ts</text>
</a>
</g>
</g>
<!-- src/render&#45;control.ts&#45;&gt;src/widgets/toggle.ts -->
<g id="edge21" class="edge">
<title>src/render&#45;control.ts&#45;&gt;src/widgets/toggle.ts</title>
<path fill="none" stroke="#000000" stroke-width="2" stroke-opacity="0.200000" d="M131.33,-298.67C135.1,-321.02 147.93,-379.13 183,-409.6 188.64,-414.5 195.77,-417.81 202.96,-420.04"/>
<polygon fill="#000000" fill-opacity="0.200000" stroke="#000000" stroke-width="2" stroke-opacity="0.200000" points="202.64,-422.13 208.99,-421.67 203.74,-418.08 202.64,-422.13"/>
</g>
<!-- src/render&#45;utils.ts&#45;&gt;src/constants.ts -->
<g id="edge23" class="edge">
<title>src/render&#45;utils.ts&#45;&gt;src/constants.ts</title>
<path fill="none" stroke="#000000" stroke-width="2" stroke-opacity="0.200000" d="M353.3,-328.8C372.69,-342.2 408.74,-367.12 430.49,-382.15"/>
<polygon fill="#000000" fill-opacity="0.200000" stroke="#000000" stroke-width="2" stroke-opacity="0.200000" points="429.3,-383.88 435.43,-385.57 431.68,-380.43 429.3,-383.88"/>
</g>
<!-- src/render&#45;utils.ts&#45;&gt;src/log&#45;utils.ts -->
<g id="edge24" class="edge">
<title>src/render&#45;utils.ts&#45;&gt;src/log&#45;utils.ts</title>
<path fill="none" stroke="#000000" stroke-width="2" stroke-opacity="0.200000" d="M343.61,-310.49C359.44,-270.51 422.83,-110.43 442.59,-60.54"/>
<polygon fill="#000000" fill-opacity="0.200000" stroke="#000000" stroke-width="2" stroke-opacity="0.200000" points="444.62,-61.11 444.88,-54.76 440.71,-59.56 444.62,-61.11"/>
</g>
<!-- src/notion&#45;utils.ts -->
<g id="node6" class="node">
<title>src/notion&#45;utils.ts</title>
<g id="a_node6"><a xlink:href="https://github.com/dragonman225/notionapi-agent/tree/master/src/notion-utils.ts" xlink:title="notion&#45;utils.ts">
<path fill="#ddfeff" stroke="black" d="M482.5,-298.6C482.5,-298.6 416.5,-298.6 416.5,-298.6 413.5,-298.6 410.5,-295.6 410.5,-292.6 410.5,-292.6 410.5,-286.6 410.5,-286.6 410.5,-283.6 413.5,-280.6 416.5,-280.6 416.5,-280.6 482.5,-280.6 482.5,-280.6 485.5,-280.6 488.5,-283.6 488.5,-286.6 488.5,-286.6 488.5,-292.6 488.5,-292.6 488.5,-295.6 485.5,-298.6 482.5,-298.6"/>
<text text-anchor="middle" x="449.5" y="-287.4" font-family="Helvetica,sans-Serif" font-size="9.00">notion&#45;utils.ts</text>
</a>
</g>
</g>
<!-- src/render&#45;utils.ts&#45;&gt;src/notion&#45;utils.ts -->
<g id="edge25" class="edge">
<title>src/render&#45;utils.ts&#45;&gt;src/notion&#45;utils.ts</title>
<path fill="none" stroke="#000000" stroke-width="2" stroke-opacity="0.200000" d="M371.04,-310.53C377.93,-308.55 385.21,-306.49 392,-304.6 397.24,-303.15 402.77,-301.65 408.23,-300.18"/>
<polygon fill="#000000" fill-opacity="0.200000" stroke="#000000" stroke-width="2" stroke-opacity="0.200000" points="408.86,-302.19 414.11,-298.61 407.77,-298.13 408.86,-302.19"/>
</g>
<!-- src/render&#45;utils&#45;prismjs.ts -->
<g id="node23" class="node">
<title>src/render&#45;utils&#45;prismjs.ts</title>
<g id="a_node23"><a xlink:href="https://github.com/dragonman225/notionapi-agent/tree/master/src/render-utils-prismjs.ts" xlink:title="render&#45;utils&#45;prismjs.ts">
<path fill="#ddfeff" stroke="black" d="M501,-328.6C501,-328.6 398,-328.6 398,-328.6 395,-328.6 392,-325.6 392,-322.6 392,-322.6 392,-316.6 392,-316.6 392,-313.6 395,-310.6 398,-310.6 398,-310.6 501,-310.6 501,-310.6 504,-310.6 507,-313.6 507,-316.6 507,-316.6 507,-322.6 507,-322.6 507,-325.6 504,-328.6 501,-328.6"/>
<text text-anchor="middle" x="449.5" y="-317.4" font-family="Helvetica,sans-Serif" font-size="9.00">render&#45;utils&#45;prismjs.ts</text>
</a>
</g>
</g>
<!-- src/render&#45;utils.ts&#45;&gt;src/render&#45;utils&#45;prismjs.ts -->
<g id="edge26" class="edge">
<title>src/render&#45;utils.ts&#45;&gt;src/render&#45;utils&#45;prismjs.ts</title>
<path fill="none" stroke="#000000" stroke-width="2" stroke-opacity="0.200000" d="M379.17,-315.26C379.3,-315.26 379.43,-315.26 379.56,-315.25"/>
<polygon fill="#000000" fill-opacity="0.200000" stroke="#000000" stroke-width="2" stroke-opacity="0.200000" points="385.85,-317.28 391.83,-315.11 385.8,-313.08 385.85,-317.28"/>
<polyline fill="none" stroke="#000000" stroke-width="2" stroke-opacity="0.200000" points="385.83,-315.18 382.83,-315.22 "/>
<ellipse fill="none" stroke="#000000" stroke-width="2" stroke-opacity="0.200000" cx="380.43" cy="-315.24" rx="2.4" ry="2.4"/>
</g>
<!-- src/widgets/audio.ts&#45;&gt;src/render&#45;utils.ts -->
<g id="edge27" class="edge">
<title>src/widgets/audio.ts&#45;&gt;src/render&#45;utils.ts</title>
<path fill="none" stroke="#000000" stroke-width="2" stroke-opacity="0.200000" d="M264.15,-358.83C272.88,-356.48 282.54,-353.4 291,-349.6 301.38,-344.94 312.15,-338.23 320.75,-332.34"/>
<polygon fill="#000000" fill-opacity="0.200000" stroke="#000000" stroke-width="2" stroke-opacity="0.200000" points="322.09,-333.97 325.8,-328.8 319.68,-330.52 322.09,-333.97"/>
</g>
<!-- src/widgets/bookmark.ts&#45;&gt;src/render&#45;utils.ts -->
<g id="edge28" class="edge">
<title>src/widgets/bookmark.ts&#45;&gt;src/render&#45;utils.ts</title>
<path fill="none" stroke="#000000" stroke-width="2" stroke-opacity="0.200000" d="M273.54,-329.27C279.68,-328.35 286.15,-327.38 292.52,-326.43"/>
<polygon fill="#000000" fill-opacity="0.200000" stroke="#000000" stroke-width="2" stroke-opacity="0.200000" points="293.22,-328.45 298.84,-325.48 292.59,-324.29 293.22,-328.45"/>
</g>
<!-- src/widgets/callout.ts&#45;&gt;src/render&#45;utils.ts -->
<g id="edge29" class="edge">
<title>src/widgets/callout.ts&#45;&gt;src/render&#45;utils.ts</title>
<path fill="none" stroke="#000000" stroke-width="2" stroke-opacity="0.200000" d="M266.12,-308.82C274.46,-310.07 283.81,-311.48 292.94,-312.85"/>
<polygon fill="#000000" fill-opacity="0.200000" stroke="#000000" stroke-width="2" stroke-opacity="0.200000" points="292.65,-314.93 298.9,-313.74 293.28,-310.77 292.65,-314.93"/>
</g>
<!-- src/widgets/code.ts&#45;&gt;src/render&#45;utils.ts -->
<g id="edge30" class="edge">
<title>src/widgets/code.ts&#45;&gt;src/render&#45;utils.ts</title>
<path fill="none" stroke="#000000" stroke-width="2" stroke-opacity="0.200000" d="M264.15,-280.38C272.88,-282.73 282.54,-285.81 291,-289.6 301.38,-294.27 312.15,-300.98 320.75,-306.87"/>
<polygon fill="#000000" fill-opacity="0.200000" stroke="#000000" stroke-width="2" stroke-opacity="0.200000" points="319.68,-308.68 325.8,-310.4 322.09,-305.24 319.68,-308.68"/>
</g>
<!-- src/widgets/collection.ts&#45;&gt;src/constants.ts -->
<g id="edge31" class="edge">
<title>src/widgets/collection.ts&#45;&gt;src/constants.ts</title>
<path fill="none" stroke="#000000" stroke-width="2" stroke-opacity="0.200000" d="M272.65,-72.34C278.92,-74.32 285.28,-76.72 291,-79.6 335.14,-101.85 355.69,-104.02 379,-147.6 398.65,-184.34 375.3,-296.44 392,-334.6 400.3,-353.58 417.29,-370.29 430.47,-381.22"/>
<polygon fill="#000000" fill-opacity="0.200000" stroke="#000000" stroke-width="2" stroke-opacity="0.200000" points="429.51,-383.13 435.5,-385.26 432.14,-379.86 429.51,-383.13"/>
</g>
<!-- src/widgets/collection.ts&#45;&gt;src/render&#45;utils.ts -->
<g id="edge33" class="edge">
<title>src/widgets/collection.ts&#45;&gt;src/render&#45;utils.ts</title>
<path fill="none" stroke="#000000" stroke-width="2" stroke-opacity="0.200000" d="M272.76,-68.23C279.69,-70.51 286.28,-74.08 291,-79.6 300.74,-91.01 296.46,-131.83 299,-146.6 309.09,-205.28 326.19,-274.02 333.95,-304.15"/>
<polygon fill="#000000" fill-opacity="0.200000" stroke="#000000" stroke-width="2" stroke-opacity="0.200000" points="332.01,-305.01 335.55,-310.3 336.07,-303.96 332.01,-305.01"/>
</g>
<!-- src/widgets/collection.ts&#45;&gt;src/log&#45;utils.ts -->
<g id="edge32" class="edge">
<title>src/widgets/collection.ts&#45;&gt;src/log&#45;utils.ts</title>
<path fill="none" stroke="#000000" stroke-width="2" stroke-opacity="0.200000" d="M272.66,-56.73C278.8,-55.16 285.12,-53.42 291,-51.6 294.63,-50.48 295.27,-49.32 299,-48.6 336.85,-41.35 381.07,-41.5 411.55,-42.91"/>
<polygon fill="#000000" fill-opacity="0.200000" stroke="#000000" stroke-width="2" stroke-opacity="0.200000" points="411.74,-45.02 417.83,-43.22 411.95,-40.82 411.74,-45.02"/>
</g>
<!-- src/widgets/column&#45;helper.ts&#45;&gt;src/constants.ts -->
<g id="edge34" class="edge">
<title>src/widgets/column&#45;helper.ts&#45;&gt;src/constants.ts</title>
<path fill="none" stroke="#000000" stroke-width="2" stroke-opacity="0.200000" d="M283.42,-103.53C286.2,-105.23 288.77,-107.23 291,-109.6 302.52,-121.87 293.38,-130.75 299,-146.6 325.31,-220.79 345.56,-233.35 379,-304.6 385.17,-317.76 384.01,-322.47 392,-334.6 403.67,-352.33 420.78,-369.66 433.11,-381.1"/>
<polygon fill="#000000" fill-opacity="0.200000" stroke="#000000" stroke-width="2" stroke-opacity="0.200000" points="431.9,-382.83 437.75,-385.33 434.73,-379.73 431.9,-382.83"/>
</g>
<!-- src/widgets/column&#45;helper.ts&#45;&gt;src/render&#45;utils.ts -->
<g id="edge36" class="edge">
<title>src/widgets/column&#45;helper.ts&#45;&gt;src/render&#45;utils.ts</title>
<path fill="none" stroke="#000000" stroke-width="2" stroke-opacity="0.200000" d="M283.38,-102.84C286.25,-104.69 288.85,-106.92 291,-109.6 301.08,-122.2 294.27,-239.18 299,-254.6 304.81,-273.54 317.27,-292.68 326.55,-305.23"/>
<polygon fill="#000000" fill-opacity="0.200000" stroke="#000000" stroke-width="2" stroke-opacity="0.200000" points="325.01,-306.68 330.3,-310.19 328.36,-304.14 325.01,-306.68"/>
</g>
<!-- src/widgets/column&#45;helper.ts&#45;&gt;src/log&#45;utils.ts -->
<g id="edge35" class="edge">
<title>src/widgets/column&#45;helper.ts&#45;&gt;src/log&#45;utils.ts</title>
<path fill="none" stroke="#000000" stroke-width="2" stroke-opacity="0.200000" d="M277.1,-85.5C315.7,-76.52 374.26,-62.89 411.95,-54.11"/>
<polygon fill="#000000" fill-opacity="0.200000" stroke="#000000" stroke-width="2" stroke-opacity="0.200000" points="412.44,-56.15 417.81,-52.75 411.49,-52.06 412.44,-56.15"/>
</g>
<!-- src/widgets/divider.ts&#45;&gt;src/render&#45;utils.ts -->
<g id="edge37" class="edge">
<title>src/widgets/divider.ts&#45;&gt;src/render&#45;utils.ts</title>
<path fill="none" stroke="#000000" stroke-width="2" stroke-opacity="0.200000" d="M265.57,-248.93C274.21,-251.17 283.46,-254.54 291,-259.6 308.31,-271.22 322.11,-291.25 330.17,-304.95"/>
<polygon fill="#000000" fill-opacity="0.200000" stroke="#000000" stroke-width="2" stroke-opacity="0.200000" points="328.47,-306.21 333.26,-310.39 332.12,-304.14 328.47,-306.21"/>
</g>
<!-- src/widgets/embed.ts&#45;&gt;src/render&#45;utils.ts -->
<g id="edge38" class="edge">
<title>src/widgets/embed.ts&#45;&gt;src/render&#45;utils.ts</title>
<path fill="none" stroke="#000000" stroke-width="2" stroke-opacity="0.200000" d="M266.77,-217.45C275.49,-219.6 284.47,-223.29 291,-229.6 299.39,-237.71 294.19,-243.98 299,-254.6 307.26,-272.86 319.49,-292.39 328.05,-305.22"/>
<polygon fill="#000000" fill-opacity="0.200000" stroke="#000000" stroke-width="2" stroke-opacity="0.200000" points="326.37,-306.49 331.47,-310.29 329.85,-304.14 326.37,-306.49"/>
</g>
<!-- src/widgets/equation.ts&#45;&gt;src/render&#45;utils.ts -->
<g id="edge39" class="edge">
<title>src/widgets/equation.ts&#45;&gt;src/render&#45;utils.ts</title>
<path fill="none" stroke="#000000" stroke-width="2" stroke-opacity="0.200000" d="M271.01,-187.8C278.54,-190.05 285.83,-193.71 291,-199.6 307.28,-218.18 290.71,-231.34 299,-254.6 305.73,-273.48 318.25,-292.89 327.29,-305.53"/>
<polygon fill="#000000" fill-opacity="0.200000" stroke="#000000" stroke-width="2" stroke-opacity="0.200000" points="325.69,-306.9 330.93,-310.51 329.08,-304.42 325.69,-306.9"/>
</g>
<!-- src/widgets/heading.ts&#45;&gt;src/constants.ts -->
<g id="edge40" class="edge">
<title>src/widgets/heading.ts&#45;&gt;src/constants.ts</title>
<path fill="none" stroke="#000000" stroke-width="2" stroke-opacity="0.200000" d="M269.67,-445.65C276.7,-443.67 284.1,-441.57 291,-439.6 332.07,-427.93 379.15,-414.47 411.05,-405.33"/>
<polygon fill="#000000" fill-opacity="0.200000" stroke="#000000" stroke-width="2" stroke-opacity="0.200000" points="411.64,-407.35 416.83,-403.68 410.48,-403.31 411.64,-407.35"/>
</g>
<!-- src/widgets/heading.ts&#45;&gt;src/render&#45;utils.ts -->
<g id="edge41" class="edge">
<title>src/widgets/heading.ts&#45;&gt;src/render&#45;utils.ts</title>
<path fill="none" stroke="#000000" stroke-width="2" stroke-opacity="0.200000" d="M269.57,-450.7C277.3,-448.47 285.05,-445 291,-439.6 322.04,-411.46 332.82,-360.28 336.37,-334.82"/>
<polygon fill="#000000" fill-opacity="0.200000" stroke="#000000" stroke-width="2" stroke-opacity="0.200000" points="338.48,-334.87 337.16,-328.65 334.31,-334.34 338.48,-334.87"/>
</g>
<!-- src/widgets/image.ts&#45;&gt;src/render&#45;utils.ts -->
<g id="edge42" class="edge">
<title>src/widgets/image.ts&#45;&gt;src/render&#45;utils.ts</title>
<path fill="none" stroke="#000000" stroke-width="2" stroke-opacity="0.200000" d="M265.13,-156.11C274.7,-158.05 284.64,-161.96 291,-169.6 303.14,-184.18 293.08,-236.58 299,-254.6 305.25,-273.64 317.86,-293.03 327.05,-305.61"/>
<polygon fill="#000000" fill-opacity="0.200000" stroke="#000000" stroke-width="2" stroke-opacity="0.200000" points="325.48,-307.02 330.76,-310.57 328.85,-304.5 325.48,-307.02"/>
</g>
<!-- src/widgets/list.ts&#45;&gt;src/constants.ts -->
<g id="edge43" class="edge">
<title>src/widgets/list.ts&#45;&gt;src/constants.ts</title>
<path fill="none" stroke="#000000" stroke-width="2" stroke-opacity="0.200000" d="M264.13,-478.05C272.77,-475.66 282.38,-472.76 291,-469.6 340.85,-451.34 396.29,-422.92 426.28,-406.82"/>
<polygon fill="#000000" fill-opacity="0.200000" stroke="#000000" stroke-width="2" stroke-opacity="0.200000" points="427.65,-408.46 431.93,-403.77 425.65,-404.77 427.65,-408.46"/>
</g>
<!-- src/widgets/list.ts&#45;&gt;src/render&#45;utils.ts -->
<g id="edge44" class="edge">
<title>src/widgets/list.ts&#45;&gt;src/render&#45;utils.ts</title>
<path fill="none" stroke="#000000" stroke-width="2" stroke-opacity="0.200000" d="M264.05,-482.41C273.59,-480.39 283.8,-476.61 291,-469.6 329.01,-432.64 336.4,-365.37 337.75,-335.1"/>
<polygon fill="#000000" fill-opacity="0.200000" stroke="#000000" stroke-width="2" stroke-opacity="0.200000" points="339.86,-334.96 337.96,-328.9 335.66,-334.82 339.86,-334.96"/>
</g>
<!-- src/widgets/quote.ts&#45;&gt;src/render&#45;utils.ts -->
<g id="edge45" class="edge">
<title>src/widgets/quote.ts&#45;&gt;src/render&#45;utils.ts</title>
<path fill="none" stroke="#000000" stroke-width="2" stroke-opacity="0.200000" d="M264.13,-125.81C274.04,-127.67 284.49,-131.59 291,-139.6 307.15,-159.49 291.31,-230.17 299,-254.6 305.02,-273.72 317.67,-293.09 326.94,-305.65"/>
<polygon fill="#000000" fill-opacity="0.200000" stroke="#000000" stroke-width="2" stroke-opacity="0.200000" points="325.38,-307.07 330.68,-310.59 328.73,-304.54 325.38,-307.07"/>
</g>
<!-- src/widgets/text.ts&#45;&gt;src/constants.ts -->
<g id="edge46" class="edge">
<title>src/widgets/text.ts&#45;&gt;src/constants.ts</title>
<path fill="none" stroke="#000000" stroke-width="2" stroke-opacity="0.200000" d="M264.25,-508.37C272.9,-506 282.49,-503.04 291,-499.6 332.12,-483.03 342.23,-477.38 379,-452.6 399.2,-438.99 420.41,-420.61 434.01,-408.22"/>
<polygon fill="#000000" fill-opacity="0.200000" stroke="#000000" stroke-width="2" stroke-opacity="0.200000" points="435.66,-409.55 438.66,-403.94 432.82,-406.46 435.66,-409.55"/>
</g>
<!-- src/widgets/text.ts&#45;&gt;src/render&#45;utils.ts -->
<g id="edge47" class="edge">
<title>src/widgets/text.ts&#45;&gt;src/render&#45;utils.ts</title>
<path fill="none" stroke="#000000" stroke-width="2" stroke-opacity="0.200000" d="M264.23,-512.59C273.79,-510.59 283.97,-506.78 291,-499.6 336.14,-453.54 339.45,-369.82 338.73,-335.21"/>
<polygon fill="#000000" fill-opacity="0.200000" stroke="#000000" stroke-width="2" stroke-opacity="0.200000" points="340.82,-334.91 338.54,-328.97 336.62,-335.04 340.82,-334.91"/>
</g>
<!-- src/widgets/to&#45;do.ts&#45;&gt;src/constants.ts -->
<g id="edge48" class="edge">
<title>src/widgets/to&#45;do.ts&#45;&gt;src/constants.ts</title>
<path fill="none" stroke="#000000" stroke-width="2" stroke-opacity="0.200000" d="M264.23,-394.6C300.05,-394.6 364.65,-394.6 407.05,-394.6"/>
<polygon fill="#000000" fill-opacity="0.200000" stroke="#000000" stroke-width="2" stroke-opacity="0.200000" points="407.14,-396.7 413.14,-394.6 407.14,-392.5 407.14,-396.7"/>
</g>
<!-- src/widgets/to&#45;do.ts&#45;&gt;src/render&#45;utils.ts -->
<g id="edge49" class="edge">
<title>src/widgets/to&#45;do.ts&#45;&gt;src/render&#45;utils.ts</title>
<path fill="none" stroke="#000000" stroke-width="2" stroke-opacity="0.200000" d="M264.21,-390.62C273.24,-388.39 283.06,-384.93 291,-379.6 308.31,-367.99 322.11,-347.96 330.17,-334.26"/>
<polygon fill="#000000" fill-opacity="0.200000" stroke="#000000" stroke-width="2" stroke-opacity="0.200000" points="332.12,-335.07 333.26,-328.82 328.47,-333 332.12,-335.07"/>
</g>
<!-- src/widgets/toggle.ts&#45;&gt;src/constants.ts -->
<g id="edge50" class="edge">
<title>src/widgets/toggle.ts&#45;&gt;src/constants.ts</title>
<path fill="none" stroke="#000000" stroke-width="2" stroke-opacity="0.200000" d="M265.09,-420.74C301.18,-415.6 365.36,-406.45 407.42,-400.46"/>
<polygon fill="#000000" fill-opacity="0.200000" stroke="#000000" stroke-width="2" stroke-opacity="0.200000" points="407.82,-402.52 413.46,-399.6 407.22,-398.37 407.82,-402.52"/>
</g>
<!-- src/widgets/toggle.ts&#45;&gt;src/render&#45;utils.ts -->
<g id="edge51" class="edge">
<title>src/widgets/toggle.ts&#45;&gt;src/render&#45;utils.ts</title>
<path fill="none" stroke="#000000" stroke-width="2" stroke-opacity="0.200000" d="M265.06,-421.34C274.06,-419.17 283.65,-415.58 291,-409.6 315.07,-390.04 328.25,-354.85 334.15,-334.76"/>
<polygon fill="#000000" fill-opacity="0.200000" stroke="#000000" stroke-width="2" stroke-opacity="0.200000" points="336.22,-335.15 335.81,-328.81 332.17,-334.02 336.22,-335.15"/>
</g>
<!-- src/render&#45;utils&#45;prismjs.ts&#45;&gt;src/render&#45;utils.ts -->
<g id="edge22" class="edge">
<title>src/render&#45;utils&#45;prismjs.ts&#45;&gt;src/render&#45;utils.ts</title>
<path fill="none" stroke="#000000" stroke-width="2" stroke-opacity="0.200000" d="M391.83,-324.1C391.69,-324.1 391.56,-324.1 391.43,-324.1"/>
<polygon fill="#000000" fill-opacity="0.200000" stroke="#000000" stroke-width="2" stroke-opacity="0.200000" points="385.2,-321.92 379.17,-323.95 385.14,-326.12 385.2,-321.92"/>
<polyline fill="none" stroke="#000000" stroke-width="2" stroke-opacity="0.200000" points="385.17,-324.02 388.17,-324.06 "/>
<ellipse fill="none" stroke="#000000" stroke-width="2" stroke-opacity="0.200000" cx="390.57" cy="-324.09" rx="2.4" ry="2.4"/>
</g>
</g>
</svg>
