<?xml version="1.0" encoding="UTF-8" standalone="no"?>
<!DOCTYPE svg PUBLIC "-//W3C//DTD SVG 1.1//EN"
 "http://www.w3.org/Graphics/SVG/1.1/DTD/svg11.dtd">
<!-- Generated by graphviz version 2.42.3 (0)
 -->
<!-- Title: dependency&#45;cruiser output Pages: 1 -->
<svg width="454pt" height="734pt"
 viewBox="0.00 0.00 454.00 734.00" xmlns="http://www.w3.org/2000/svg" xmlns:xlink="http://www.w3.org/1999/xlink">
<g id="graph0" class="graph" transform="scale(1 1) rotate(0) translate(4 730)">
<title>dependency&#45;cruiser output</title>
<polygon fill="white" stroke="transparent" points="-4,4 -4,-730 450,-730 450,4 -4,4"/>
<g id="clust1" class="cluster">
<title>cluster_src</title>
<path fill="#ffffff" stroke="black" stroke-width="2" d="M20,-8C20,-8 426,-8 426,-8 432,-8 438,-14 438,-20 438,-20 438,-706 438,-706 438,-712 432,-718 426,-718 426,-718 20,-718 20,-718 14,-718 8,-712 8,-706 8,-706 8,-20 8,-20 8,-14 14,-8 20,-8"/>
<text text-anchor="middle" x="223" y="-706.8" font-family="Helvetica,sans-Serif" font-weight="bold" font-size="9.00">src</text>
</g>
<g id="clust2" class="cluster">
<title>cluster_src/transformers</title>
<path fill="#ffffff" stroke="black" stroke-width="2" d="M90,-56C90,-56 418,-56 418,-56 424,-56 430,-62 430,-68 430,-68 430,-680 430,-680 430,-686 424,-692 418,-692 418,-692 90,-692 90,-692 84,-692 78,-686 78,-680 78,-680 78,-68 78,-68 78,-62 84,-56 90,-56"/>
<text text-anchor="middle" x="254" y="-680.8" font-family="Helvetica,sans-Serif" font-weight="bold" font-size="9.00">transformers</text>
</g>
<!-- src/index.ts -->
<g id="node1" class="node">
<title>src/index.ts</title>
<g id="a_node1"><a xlink:href="https://github.com/dragonman225/notionapi-agent/tree/master/src/index.ts" xlink:title="index.ts">
<path fill="#ddfeff" stroke="black" d="M64,-41C64,-41 22,-41 22,-41 19,-41 16,-38 16,-35 16,-35 16,-29 16,-29 16,-26 19,-23 22,-23 22,-23 64,-23 64,-23 67,-23 70,-26 70,-29 70,-29 70,-35 70,-35 70,-38 67,-41 64,-41"/>
<text text-anchor="middle" x="43" y="-29.8" font-family="Helvetica,sans-Serif" font-size="9.00">index.ts</text>
</a>
</g>
</g>
<!-- src/transformBlock.ts -->
<g id="node2" class="node">
<title>src/transformBlock.ts</title>
<g id="a_node2"><a xlink:href="https://github.com/dragonman225/notionapi-agent/tree/master/src/transformBlock.ts" xlink:title="transformBlock.ts">
<path fill="#ddfeff" stroke="black" d="M186,-48C186,-48 102,-48 102,-48 99,-48 96,-45 96,-42 96,-42 96,-36 96,-36 96,-33 99,-30 102,-30 102,-30 186,-30 186,-30 189,-30 192,-33 192,-36 192,-36 192,-42 192,-42 192,-45 189,-48 186,-48"/>
<text text-anchor="middle" x="144" y="-36.8" font-family="Helvetica,sans-Serif" font-size="9.00">transformBlock.ts</text>
</a>
</g>
</g>
<!-- src/index.ts&#45;&gt;src/transformBlock.ts -->
<g id="edge1" class="edge">
<title>src/index.ts&#45;&gt;src/transformBlock.ts</title>
<path fill="none" stroke="#000000" stroke-width="2" stroke-opacity="0.200000" d="M70.01,-33.84C76.06,-34.27 82.73,-34.74 89.49,-35.22"/>
<polygon fill="#000000" fill-opacity="0.200000" stroke="#000000" stroke-width="2" stroke-opacity="0.200000" points="89.58,-37.33 95.72,-35.66 89.88,-33.14 89.58,-37.33"/>
</g>
<!-- src/utils.ts -->
<g id="node3" class="node">
<title>src/utils.ts</title>
<g id="a_node3"><a xlink:href="https://github.com/dragonman225/notionapi-agent/tree/master/src/utils.ts" xlink:title="utils.ts">
<path fill="#ddfeff" stroke="black" d="M306,-41C306,-41 264,-41 264,-41 261,-41 258,-38 258,-35 258,-35 258,-29 258,-29 258,-26 261,-23 264,-23 264,-23 306,-23 306,-23 309,-23 312,-26 312,-29 312,-29 312,-35 312,-35 312,-38 309,-41 306,-41"/>
<text text-anchor="middle" x="285" y="-29.8" font-family="Helvetica,sans-Serif" font-size="9.00">utils.ts</text>
</a>
</g>
</g>
<!-- src/index.ts&#45;&gt;src/utils.ts -->
<g id="edge2" class="edge">
<title>src/index.ts&#45;&gt;src/utils.ts</title>
<path fill="none" stroke="#000000" stroke-width="2" stroke-opacity="0.200000" d="M70.25,-25.19C72.86,-24.71 75.47,-24.29 78,-24 139.21,-16.9 211.26,-22.97 251.88,-27.7"/>
<polygon fill="#000000" fill-opacity="0.200000" stroke="#000000" stroke-width="2" stroke-opacity="0.200000" points="251.68,-29.79 257.89,-28.42 252.18,-25.62 251.68,-29.79"/>
</g>
<!-- src/transformBlock.ts&#45;&gt;src/utils.ts -->
<g id="edge24" class="edge">
<title>src/transformBlock.ts&#45;&gt;src/utils.ts</title>
<path fill="none" stroke="#000000" stroke-width="2" stroke-opacity="0.200000" d="M192.06,-36.63C211.56,-35.65 233.7,-34.53 251.37,-33.64"/>
<polygon fill="#000000" fill-opacity="0.200000" stroke="#000000" stroke-width="2" stroke-opacity="0.200000" points="251.77,-35.73 257.66,-33.33 251.56,-31.53 251.77,-35.73"/>
</g>
<!-- src/transformers/transformAudio.ts -->
<g id="node4" class="node">
<title>src/transformers/transformAudio.ts</title>
<g id="a_node4"><a xlink:href="https://github.com/dragonman225/notionapi-agent/tree/master/src/transformers/transformAudio.ts" xlink:title="transformAudio.ts">
<path fill="#ddfeff" stroke="black" d="M328,-622C328,-622 242,-622 242,-622 239,-622 236,-619 236,-616 236,-616 236,-610 236,-610 236,-607 239,-604 242,-604 242,-604 328,-604 328,-604 331,-604 334,-607 334,-610 334,-610 334,-616 334,-616 334,-619 331,-622 328,-622"/>
<text text-anchor="middle" x="285" y="-610.8" font-family="Helvetica,sans-Serif" font-size="9.00">transformAudio.ts</text>
</a>
</g>
</g>
<!-- src/transformBlock.ts&#45;&gt;src/transformers/transformAudio.ts -->
<g id="edge3" class="edge">
<title>src/transformBlock.ts&#45;&gt;src/transformers/transformAudio.ts</title>
<path fill="none" stroke="#000000" stroke-width="2" stroke-opacity="0.200000" d="M192.02,-44.85C195.82,-46.92 199.26,-49.58 202,-53 239.94,-100.22 176.43,-551.29 215,-598 219.04,-602.89 224.27,-606.42 230.03,-608.93"/>
<polygon fill="#000000" fill-opacity="0.200000" stroke="#000000" stroke-width="2" stroke-opacity="0.200000" points="229.6,-611.01 235.96,-611.12 231.06,-607.07 229.6,-611.01"/>
</g>
<!-- src/transformers/transformBookmark.ts -->
<g id="node5" class="node">
<title>src/transformers/transformBookmark.ts</title>
<g id="a_node5"><a xlink:href="https://github.com/dragonman225/notionapi-agent/tree/master/src/transformers/transformBookmark.ts" xlink:title="transformBookmark.ts">
<path fill="#ddfeff" stroke="black" d="M337.5,-592C337.5,-592 232.5,-592 232.5,-592 229.5,-592 226.5,-589 226.5,-586 226.5,-586 226.5,-580 226.5,-580 226.5,-577 229.5,-574 232.5,-574 232.5,-574 337.5,-574 337.5,-574 340.5,-574 343.5,-577 343.5,-580 343.5,-580 343.5,-586 343.5,-586 343.5,-589 340.5,-592 337.5,-592"/>
<text text-anchor="middle" x="285" y="-580.8" font-family="Helvetica,sans-Serif" font-size="9.00">transformBookmark.ts</text>
</a>
</g>
</g>
<!-- src/transformBlock.ts&#45;&gt;src/transformers/transformBookmark.ts -->
<g id="edge4" class="edge">
<title>src/transformBlock.ts&#45;&gt;src/transformers/transformBookmark.ts</title>
<path fill="none" stroke="#000000" stroke-width="2" stroke-opacity="0.200000" d="M192.01,-44.86C195.82,-46.92 199.25,-49.59 202,-53 237.89,-97.6 178.52,-523.89 215,-568 216.76,-570.13 218.74,-571.99 220.89,-573.63"/>
<polygon fill="#000000" fill-opacity="0.200000" stroke="#000000" stroke-width="2" stroke-opacity="0.200000" points="220.02,-575.57 226.2,-577.05 222.3,-572.04 220.02,-575.57"/>
</g>
<!-- src/transformers/transformBreadcrumb.ts -->
<g id="node6" class="node">
<title>src/transformers/transformBreadcrumb.ts</title>
<g id="a_node6"><a xlink:href="https://github.com/dragonman225/notionapi-agent/tree/master/src/transformers/transformBreadcrumb.ts" xlink:title="transformBreadcrumb.ts">
<path fill="#ddfeff" stroke="black" d="M343,-562C343,-562 227,-562 227,-562 224,-562 221,-559 221,-556 221,-556 221,-550 221,-550 221,-547 224,-544 227,-544 227,-544 343,-544 343,-544 346,-544 349,-547 349,-550 349,-550 349,-556 349,-556 349,-559 346,-562 343,-562"/>
<text text-anchor="middle" x="285" y="-550.8" font-family="Helvetica,sans-Serif" font-size="9.00">transformBreadcrumb.ts</text>
</a>
</g>
</g>
<!-- src/transformBlock.ts&#45;&gt;src/transformers/transformBreadcrumb.ts -->
<g id="edge5" class="edge">
<title>src/transformBlock.ts&#45;&gt;src/transformers/transformBreadcrumb.ts</title>
<path fill="none" stroke="#000000" stroke-width="2" stroke-opacity="0.200000" d="M192.01,-44.86C195.82,-46.93 199.25,-49.59 202,-53 235.83,-94.97 180.61,-496.48 215,-538 215.47,-538.57 215.95,-539.11 216.45,-539.64"/>
<polygon fill="#000000" fill-opacity="0.200000" stroke="#000000" stroke-width="2" stroke-opacity="0.200000" points="215.44,-541.55 221.33,-543.95 218.22,-538.41 215.44,-541.55"/>
</g>
<!-- src/transformers/transformBulletedList.ts -->
<g id="node7" class="node">
<title>src/transformers/transformBulletedList.ts</title>
<g id="a_node7"><a xlink:href="https://github.com/dragonman225/notionapi-agent/tree/master/src/transformers/transformBulletedList.ts" xlink:title="transformBulletedList.ts">
<path fill="#ddfeff" stroke="black" d="M341.5,-532C341.5,-532 228.5,-532 228.5,-532 225.5,-532 222.5,-529 222.5,-526 222.5,-526 222.5,-520 222.5,-520 222.5,-517 225.5,-514 228.5,-514 228.5,-514 341.5,-514 341.5,-514 344.5,-514 347.5,-517 347.5,-520 347.5,-520 347.5,-526 347.5,-526 347.5,-529 344.5,-532 341.5,-532"/>
<text text-anchor="middle" x="285" y="-520.8" font-family="Helvetica,sans-Serif" font-size="9.00">transformBulletedList.ts</text>
</a>
</g>
</g>
<!-- src/transformBlock.ts&#45;&gt;src/transformers/transformBulletedList.ts -->
<g id="edge6" class="edge">
<title>src/transformBlock.ts&#45;&gt;src/transformers/transformBulletedList.ts</title>
<path fill="none" stroke="#000000" stroke-width="2" stroke-opacity="0.200000" d="M192.26,-45.01C195.97,-47.06 199.31,-49.67 202,-53 233.77,-92.35 182.7,-469.08 215,-508 215.79,-508.96 216.63,-509.86 217.51,-510.71"/>
<polygon fill="#000000" fill-opacity="0.200000" stroke="#000000" stroke-width="2" stroke-opacity="0.200000" points="216.25,-512.39 222.21,-514.58 218.91,-509.15 216.25,-512.39"/>
</g>
<!-- src/transformers/transformCallout.ts -->
<g id="node8" class="node">
<title>src/transformers/transformCallout.ts</title>
<g id="a_node8"><a xlink:href="https://github.com/dragonman225/notionapi-agent/tree/master/src/transformers/transformCallout.ts" xlink:title="transformCallout.ts">
<path fill="#ddfeff" stroke="black" d="M330.5,-502C330.5,-502 239.5,-502 239.5,-502 236.5,-502 233.5,-499 233.5,-496 233.5,-496 233.5,-490 233.5,-490 233.5,-487 236.5,-484 239.5,-484 239.5,-484 330.5,-484 330.5,-484 333.5,-484 336.5,-487 336.5,-490 336.5,-490 336.5,-496 336.5,-496 336.5,-499 333.5,-502 330.5,-502"/>
<text text-anchor="middle" x="285" y="-490.8" font-family="Helvetica,sans-Serif" font-size="9.00">transformCallout.ts</text>
</a>
</g>
</g>
<!-- src/transformBlock.ts&#45;&gt;src/transformers/transformCallout.ts -->
<g id="edge7" class="edge">
<title>src/transformBlock.ts&#45;&gt;src/transformers/transformCallout.ts</title>
<path fill="none" stroke="#000000" stroke-width="2" stroke-opacity="0.200000" d="M192.26,-45.02C195.97,-47.06 199.31,-49.67 202,-53 231.72,-89.73 184.79,-441.67 215,-478 218.44,-482.13 222.72,-485.29 227.46,-487.68"/>
<polygon fill="#000000" fill-opacity="0.200000" stroke="#000000" stroke-width="2" stroke-opacity="0.200000" points="226.87,-489.72 233.21,-490.16 228.53,-485.86 226.87,-489.72"/>
</g>
<!-- src/transformers/transformCode.ts -->
<g id="node9" class="node">
<title>src/transformers/transformCode.ts</title>
<g id="a_node9"><a xlink:href="https://github.com/dragonman225/notionapi-agent/tree/master/src/transformers/transformCode.ts" xlink:title="transformCode.ts">
<path fill="#ddfeff" stroke="black" d="M326.5,-472C326.5,-472 243.5,-472 243.5,-472 240.5,-472 237.5,-469 237.5,-466 237.5,-466 237.5,-460 237.5,-460 237.5,-457 240.5,-454 243.5,-454 243.5,-454 326.5,-454 326.5,-454 329.5,-454 332.5,-457 332.5,-460 332.5,-460 332.5,-466 332.5,-466 332.5,-469 329.5,-472 326.5,-472"/>
<text text-anchor="middle" x="285" y="-460.8" font-family="Helvetica,sans-Serif" font-size="9.00">transformCode.ts</text>
</a>
</g>
</g>
<!-- src/transformBlock.ts&#45;&gt;src/transformers/transformCode.ts -->
<g id="edge8" class="edge">
<title>src/transformBlock.ts&#45;&gt;src/transformers/transformCode.ts</title>
<path fill="none" stroke="#000000" stroke-width="2" stroke-opacity="0.200000" d="M192.25,-45.02C195.96,-47.07 199.3,-49.68 202,-53 229.66,-87.11 186.89,-414.27 215,-448 219.39,-453.26 225.15,-456.94 231.47,-459.48"/>
<polygon fill="#000000" fill-opacity="0.200000" stroke="#000000" stroke-width="2" stroke-opacity="0.200000" points="231.06,-461.56 237.42,-461.5 232.41,-457.58 231.06,-461.56"/>
</g>
<!-- src/transformers/transformCollection.ts -->
<g id="node10" class="node">
<title>src/transformers/transformCollection.ts</title>
<g id="a_node10"><a xlink:href="https://github.com/dragonman225/notionapi-agent/tree/master/src/transformers/transformCollection.ts" xlink:title="transformCollection.ts">
<path fill="#ddfeff" stroke="black" d="M196,-652C196,-652 92,-652 92,-652 89,-652 86,-649 86,-646 86,-646 86,-640 86,-640 86,-637 89,-634 92,-634 92,-634 196,-634 196,-634 199,-634 202,-637 202,-640 202,-640 202,-646 202,-646 202,-649 199,-652 196,-652"/>
<text text-anchor="middle" x="144" y="-640.8" font-family="Helvetica,sans-Serif" font-size="9.00">transformCollection.ts</text>
</a>
</g>
</g>
<!-- src/transformBlock.ts&#45;&gt;src/transformers/transformCollection.ts -->
<g id="edge9" class="edge">
<title>src/transformBlock.ts&#45;&gt;src/transformers/transformCollection.ts</title>
<path fill="none" stroke="#000000" stroke-width="2" stroke-opacity="0.200000" d="M144,-48.14C144,-241.42 144,-434.71 144,-627.99"/>
<polygon fill="#000000" fill-opacity="0.200000" stroke="#000000" stroke-width="2" stroke-opacity="0.200000" points="141.9,-628 144,-634 146.1,-628 141.9,-628"/>
</g>
<!-- src/transformers/transformColumn.ts -->
<g id="node11" class="node">
<title>src/transformers/transformColumn.ts</title>
<g id="a_node11"><a xlink:href="https://github.com/dragonman225/notionapi-agent/tree/master/src/transformers/transformColumn.ts" xlink:title="transformColumn.ts">
<path fill="#ddfeff" stroke="black" d="M332.5,-382C332.5,-382 237.5,-382 237.5,-382 234.5,-382 231.5,-379 231.5,-376 231.5,-376 231.5,-370 231.5,-370 231.5,-367 234.5,-364 237.5,-364 237.5,-364 332.5,-364 332.5,-364 335.5,-364 338.5,-367 338.5,-370 338.5,-370 338.5,-376 338.5,-376 338.5,-379 335.5,-382 332.5,-382"/>
<text text-anchor="middle" x="285" y="-370.8" font-family="Helvetica,sans-Serif" font-size="9.00">transformColumn.ts</text>
</a>
</g>
</g>
<!-- src/transformBlock.ts&#45;&gt;src/transformers/transformColumn.ts -->
<g id="edge10" class="edge">
<title>src/transformBlock.ts&#45;&gt;src/transformers/transformColumn.ts</title>
<path fill="none" stroke="#000000" stroke-width="2" stroke-opacity="0.200000" d="M192.22,-45.05C195.93,-47.09 199.29,-49.69 202,-53 223.49,-79.24 193.16,-332.05 215,-358 217.99,-361.55 221.59,-364.37 225.58,-366.61"/>
<polygon fill="#000000" fill-opacity="0.200000" stroke="#000000" stroke-width="2" stroke-opacity="0.200000" points="224.9,-368.62 231.22,-369.32 226.72,-364.83 224.9,-368.62"/>
</g>
<!-- src/transformers/transformColumnList.ts -->
<g id="node12" class="node">
<title>src/transformers/transformColumnList.ts</title>
<g id="a_node12"><a xlink:href="https://github.com/dragonman225/notionapi-agent/tree/master/src/transformers/transformColumnList.ts" xlink:title="transformColumnList.ts">
<path fill="#ddfeff" stroke="black" d="M340,-352C340,-352 230,-352 230,-352 227,-352 224,-349 224,-346 224,-346 224,-340 224,-340 224,-337 227,-334 230,-334 230,-334 340,-334 340,-334 343,-334 346,-337 346,-340 346,-340 346,-346 346,-346 346,-349 343,-352 340,-352"/>
<text text-anchor="middle" x="285" y="-340.8" font-family="Helvetica,sans-Serif" font-size="9.00">transformColumnList.ts</text>
</a>
</g>
</g>
<!-- src/transformBlock.ts&#45;&gt;src/transformers/transformColumnList.ts -->
<g id="edge11" class="edge">
<title>src/transformBlock.ts&#45;&gt;src/transformers/transformColumnList.ts</title>
<path fill="none" stroke="#000000" stroke-width="2" stroke-opacity="0.200000" d="M192.2,-45.07C195.92,-47.1 199.28,-49.7 202,-53 221.44,-76.62 195.25,-304.64 215,-328 216.19,-329.4 217.47,-330.7 218.84,-331.88"/>
<polygon fill="#000000" fill-opacity="0.200000" stroke="#000000" stroke-width="2" stroke-opacity="0.200000" points="217.71,-333.66 223.78,-335.52 220.2,-330.27 217.71,-333.66"/>
</g>
<!-- src/transformers/transformDivider.ts -->
<g id="node13" class="node">
<title>src/transformers/transformDivider.ts</title>
<g id="a_node13"><a xlink:href="https://github.com/dragonman225/notionapi-agent/tree/master/src/transformers/transformDivider.ts" xlink:title="transformDivider.ts">
<path fill="#ddfeff" stroke="black" d="M330,-322C330,-322 240,-322 240,-322 237,-322 234,-319 234,-316 234,-316 234,-310 234,-310 234,-307 237,-304 240,-304 240,-304 330,-304 330,-304 333,-304 336,-307 336,-310 336,-310 336,-316 336,-316 336,-319 333,-322 330,-322"/>
<text text-anchor="middle" x="285" y="-310.8" font-family="Helvetica,sans-Serif" font-size="9.00">transformDivider.ts</text>
</a>
</g>
</g>
<!-- src/transformBlock.ts&#45;&gt;src/transformers/transformDivider.ts -->
<g id="edge12" class="edge">
<title>src/transformBlock.ts&#45;&gt;src/transformers/transformDivider.ts</title>
<path fill="none" stroke="#000000" stroke-width="2" stroke-opacity="0.200000" d="M192.18,-45.08C195.9,-47.11 199.27,-49.7 202,-53 236.77,-95 179.67,-256.47 215,-298 218.62,-302.25 223.13,-305.47 228.11,-307.88"/>
<polygon fill="#000000" fill-opacity="0.200000" stroke="#000000" stroke-width="2" stroke-opacity="0.200000" points="227.32,-309.82 233.67,-310.19 228.93,-305.94 227.32,-309.82"/>
</g>
<!-- src/transformers/transformEquation.ts -->
<g id="node14" class="node">
<title>src/transformers/transformEquation.ts</title>
<g id="a_node14"><a xlink:href="https://github.com/dragonman225/notionapi-agent/tree/master/src/transformers/transformEquation.ts" xlink:title="transformEquation.ts">
<path fill="#ddfeff" stroke="black" d="M335.5,-292C335.5,-292 234.5,-292 234.5,-292 231.5,-292 228.5,-289 228.5,-286 228.5,-286 228.5,-280 228.5,-280 228.5,-277 231.5,-274 234.5,-274 234.5,-274 335.5,-274 335.5,-274 338.5,-274 341.5,-277 341.5,-280 341.5,-280 341.5,-286 341.5,-286 341.5,-289 338.5,-292 335.5,-292"/>
<text text-anchor="middle" x="285" y="-280.8" font-family="Helvetica,sans-Serif" font-size="9.00">transformEquation.ts</text>
</a>
</g>
</g>
<!-- src/transformBlock.ts&#45;&gt;src/transformers/transformEquation.ts -->
<g id="edge13" class="edge">
<title>src/transformBlock.ts&#45;&gt;src/transformers/transformEquation.ts</title>
<path fill="none" stroke="#000000" stroke-width="2" stroke-opacity="0.200000" d="M192.15,-45.1C195.88,-47.13 199.26,-49.71 202,-53 232.66,-89.76 183.85,-231.66 215,-268 217.29,-270.68 219.94,-272.94 222.84,-274.85"/>
<polygon fill="#000000" fill-opacity="0.200000" stroke="#000000" stroke-width="2" stroke-opacity="0.200000" points="222.03,-276.81 228.29,-277.92 224.09,-273.15 222.03,-276.81"/>
</g>
<!-- src/transformers/transformFile.ts -->
<g id="node15" class="node">
<title>src/transformers/transformFile.ts</title>
<g id="a_node15"><a xlink:href="https://github.com/dragonman225/notionapi-agent/tree/master/src/transformers/transformFile.ts" xlink:title="transformFile.ts">
<path fill="#ddfeff" stroke="black" d="M322,-262C322,-262 248,-262 248,-262 245,-262 242,-259 242,-256 242,-256 242,-250 242,-250 242,-247 245,-244 248,-244 248,-244 322,-244 322,-244 325,-244 328,-247 328,-250 328,-250 328,-256 328,-256 328,-259 325,-262 322,-262"/>
<text text-anchor="middle" x="285" y="-250.8" font-family="Helvetica,sans-Serif" font-size="9.00">transformFile.ts</text>
</a>
</g>
</g>
<!-- src/transformBlock.ts&#45;&gt;src/transformers/transformFile.ts -->
<g id="edge14" class="edge">
<title>src/transformBlock.ts&#45;&gt;src/transformers/transformFile.ts</title>
<path fill="none" stroke="#000000" stroke-width="2" stroke-opacity="0.200000" d="M192.12,-45.13C195.86,-47.15 199.24,-49.73 202,-53 228.55,-84.52 188.03,-206.84 215,-238 220.43,-244.28 227.82,-248.28 235.75,-250.78"/>
<polygon fill="#000000" fill-opacity="0.200000" stroke="#000000" stroke-width="2" stroke-opacity="0.200000" points="235.56,-252.9 241.9,-252.41 236.63,-248.84 235.56,-252.9"/>
</g>
<!-- src/transformers/transformHeading.ts -->
<g id="node16" class="node">
<title>src/transformers/transformHeading.ts</title>
<g id="a_node16"><a xlink:href="https://github.com/dragonman225/notionapi-agent/tree/master/src/transformers/transformHeading.ts" xlink:title="transformHeading.ts">
<path fill="#ddfeff" stroke="black" d="M334,-232C334,-232 236,-232 236,-232 233,-232 230,-229 230,-226 230,-226 230,-220 230,-220 230,-217 233,-214 236,-214 236,-214 334,-214 334,-214 337,-214 340,-217 340,-220 340,-220 340,-226 340,-226 340,-229 337,-232 334,-232"/>
<text text-anchor="middle" x="285" y="-220.8" font-family="Helvetica,sans-Serif" font-size="9.00">transformHeading.ts</text>
</a>
</g>
</g>
<!-- src/transformBlock.ts&#45;&gt;src/transformers/transformHeading.ts -->
<g id="edge15" class="edge">
<title>src/transformBlock.ts&#45;&gt;src/transformers/transformHeading.ts</title>
<path fill="none" stroke="#000000" stroke-width="2" stroke-opacity="0.200000" d="M192.07,-45.17C195.82,-47.18 199.22,-49.75 202,-53 224.45,-79.28 192.2,-182.02 215,-208 217.65,-211.02 220.76,-213.52 224.16,-215.57"/>
<polygon fill="#000000" fill-opacity="0.200000" stroke="#000000" stroke-width="2" stroke-opacity="0.200000" points="223.43,-217.56 229.72,-218.44 225.35,-213.82 223.43,-217.56"/>
</g>
<!-- src/transformers/transformNumberedList.ts -->
<g id="node17" class="node">
<title>src/transformers/transformNumberedList.ts</title>
<g id="a_node17"><a xlink:href="https://github.com/dragonman225/notionapi-agent/tree/master/src/transformers/transformNumberedList.ts" xlink:title="transformNumberedList.ts">
<path fill="#ddfeff" stroke="black" d="M347,-202C347,-202 223,-202 223,-202 220,-202 217,-199 217,-196 217,-196 217,-190 217,-190 217,-187 220,-184 223,-184 223,-184 347,-184 347,-184 350,-184 353,-187 353,-190 353,-190 353,-196 353,-196 353,-199 350,-202 347,-202"/>
<text text-anchor="middle" x="285" y="-190.8" font-family="Helvetica,sans-Serif" font-size="9.00">transformNumberedList.ts</text>
</a>
</g>
</g>
<!-- src/transformBlock.ts&#45;&gt;src/transformers/transformNumberedList.ts -->
<g id="edge16" class="edge">
<title>src/transformBlock.ts&#45;&gt;src/transformers/transformNumberedList.ts</title>
<path fill="none" stroke="#000000" stroke-width="2" stroke-opacity="0.200000" d="M192.01,-45.23C195.76,-47.23 199.19,-49.77 202,-53 238.7,-95.11 177.74,-136.38 215,-178 215.64,-178.71 216.3,-179.4 216.99,-180.05"/>
<polygon fill="#000000" fill-opacity="0.200000" stroke="#000000" stroke-width="2" stroke-opacity="0.200000" points="215.85,-181.84 221.84,-183.98 218.5,-178.57 215.85,-181.84"/>
</g>
<!-- src/transformers/transformPage.ts -->
<g id="node18" class="node">
<title>src/transformers/transformPage.ts</title>
<g id="a_node18"><a xlink:href="https://github.com/dragonman225/notionapi-agent/tree/master/src/transformers/transformPage.ts" xlink:title="transformPage.ts">
<path fill="#ddfeff" stroke="black" d="M326,-652C326,-652 244,-652 244,-652 241,-652 238,-649 238,-646 238,-646 238,-640 238,-640 238,-637 241,-634 244,-634 244,-634 326,-634 326,-634 329,-634 332,-637 332,-640 332,-640 332,-646 332,-646 332,-649 329,-652 326,-652"/>
<text text-anchor="middle" x="285" y="-640.8" font-family="Helvetica,sans-Serif" font-size="9.00">transformPage.ts</text>
</a>
</g>
</g>
<!-- src/transformBlock.ts&#45;&gt;src/transformers/transformPage.ts -->
<g id="edge17" class="edge">
<title>src/transformBlock.ts&#45;&gt;src/transformers/transformPage.ts</title>
<path fill="none" stroke="#000000" stroke-width="2" stroke-opacity="0.200000" d="M192.02,-44.85C195.83,-46.92 199.26,-49.58 202,-53 222,-77.92 194.67,-603.35 215,-628 219.42,-633.36 225.26,-637.08 231.68,-639.63"/>
<polygon fill="#000000" fill-opacity="0.200000" stroke="#000000" stroke-width="2" stroke-opacity="0.200000" points="231.36,-641.73 237.72,-641.65 232.69,-637.75 231.36,-641.73"/>
</g>
<!-- src/transformers/transformQuote.ts -->
<g id="node19" class="node">
<title>src/transformers/transformQuote.ts</title>
<g id="a_node19"><a xlink:href="https://github.com/dragonman225/notionapi-agent/tree/master/src/transformers/transformQuote.ts" xlink:title="transformQuote.ts">
<path fill="#ddfeff" stroke="black" d="M328.5,-172C328.5,-172 241.5,-172 241.5,-172 238.5,-172 235.5,-169 235.5,-166 235.5,-166 235.5,-160 235.5,-160 235.5,-157 238.5,-154 241.5,-154 241.5,-154 328.5,-154 328.5,-154 331.5,-154 334.5,-157 334.5,-160 334.5,-160 334.5,-166 334.5,-166 334.5,-169 331.5,-172 328.5,-172"/>
<text text-anchor="middle" x="285" y="-160.8" font-family="Helvetica,sans-Serif" font-size="9.00">transformQuote.ts</text>
</a>
</g>
</g>
<!-- src/transformBlock.ts&#45;&gt;src/transformers/transformQuote.ts -->
<g id="edge18" class="edge">
<title>src/transformBlock.ts&#45;&gt;src/transformers/transformQuote.ts</title>
<path fill="none" stroke="#000000" stroke-width="2" stroke-opacity="0.200000" d="M192.17,-45.47C195.84,-47.43 199.2,-49.9 202,-53 230.51,-84.67 186.06,-116.71 215,-148 219.12,-152.46 224.23,-155.75 229.78,-158.16"/>
<polygon fill="#000000" fill-opacity="0.200000" stroke="#000000" stroke-width="2" stroke-opacity="0.200000" points="229.12,-160.15 235.47,-160.29 230.59,-156.22 229.12,-160.15"/>
</g>
<!-- src/transformers/transformTableOfContent.ts -->
<g id="node20" class="node">
<title>src/transformers/transformTableOfContent.ts</title>
<g id="a_node20"><a xlink:href="https://github.com/dragonman225/notionapi-agent/tree/master/src/transformers/transformTableOfContent.ts" xlink:title="transformTableOfContent.ts">
<path fill="#ddfeff" stroke="black" d="M349,-142C349,-142 221,-142 221,-142 218,-142 215,-139 215,-136 215,-136 215,-130 215,-130 215,-127 218,-124 221,-124 221,-124 349,-124 349,-124 352,-124 355,-127 355,-130 355,-130 355,-136 355,-136 355,-139 352,-142 349,-142"/>
<text text-anchor="middle" x="285" y="-130.8" font-family="Helvetica,sans-Serif" font-size="9.00">transformTableOfContent.ts</text>
</a>
</g>
</g>
<!-- src/transformBlock.ts&#45;&gt;src/transformers/transformTableOfContent.ts -->
<g id="edge19" class="edge">
<title>src/transformBlock.ts&#45;&gt;src/transformers/transformTableOfContent.ts</title>
<path fill="none" stroke="#000000" stroke-width="2" stroke-opacity="0.200000" d="M192.24,-45.79C195.85,-47.69 199.18,-50.06 202,-53 222.37,-74.28 194.34,-97 215,-118 215.7,-118.71 216.42,-119.39 217.17,-120.04"/>
<polygon fill="#000000" fill-opacity="0.200000" stroke="#000000" stroke-width="2" stroke-opacity="0.200000" points="216.34,-122.04 222.4,-123.94 218.84,-118.67 216.34,-122.04"/>
</g>
<!-- src/transformers/transformText.ts -->
<g id="node21" class="node">
<title>src/transformers/transformText.ts</title>
<g id="a_node21"><a xlink:href="https://github.com/dragonman225/notionapi-agent/tree/master/src/transformers/transformText.ts" xlink:title="transformText.ts">
<path fill="#ddfeff" stroke="black" d="M324,-112C324,-112 246,-112 246,-112 243,-112 240,-109 240,-106 240,-106 240,-100 240,-100 240,-97 243,-94 246,-94 246,-94 324,-94 324,-94 327,-94 330,-97 330,-100 330,-100 330,-106 330,-106 330,-109 327,-112 324,-112"/>
<text text-anchor="middle" x="285" y="-100.8" font-family="Helvetica,sans-Serif" font-size="9.00">transformText.ts</text>
</a>
</g>
</g>
<!-- src/transformBlock.ts&#45;&gt;src/transformers/transformText.ts -->
<g id="edge20" class="edge">
<title>src/transformBlock.ts&#45;&gt;src/transformers/transformText.ts</title>
<path fill="none" stroke="#000000" stroke-width="2" stroke-opacity="0.200000" d="M192.04,-46.42C195.65,-48.19 199.03,-50.36 202,-53 214.39,-64.04 202.47,-77.13 215,-88 220.43,-92.71 226.98,-96.05 233.87,-98.39"/>
<polygon fill="#000000" fill-opacity="0.200000" stroke="#000000" stroke-width="2" stroke-opacity="0.200000" points="233.36,-100.44 239.71,-100.14 234.57,-96.41 233.36,-100.44"/>
</g>
<!-- src/transformers/transformToDo.ts -->
<g id="node22" class="node">
<title>src/transformers/transformToDo.ts</title>
<g id="a_node22"><a xlink:href="https://github.com/dragonman225/notionapi-agent/tree/master/src/transformers/transformToDo.ts" xlink:title="transformToDo.ts">
<path fill="#ddfeff" stroke="black" d="M325.5,-82C325.5,-82 244.5,-82 244.5,-82 241.5,-82 238.5,-79 238.5,-76 238.5,-76 238.5,-70 238.5,-70 238.5,-67 241.5,-64 244.5,-64 244.5,-64 325.5,-64 325.5,-64 328.5,-64 331.5,-67 331.5,-70 331.5,-70 331.5,-76 331.5,-76 331.5,-79 328.5,-82 325.5,-82"/>
<text text-anchor="middle" x="285" y="-70.8" font-family="Helvetica,sans-Serif" font-size="9.00">transformToDo.ts</text>
</a>
</g>
</g>
<!-- src/transformBlock.ts&#45;&gt;src/transformers/transformToDo.ts -->
<g id="edge21" class="edge">
<title>src/transformBlock.ts&#45;&gt;src/transformers/transformToDo.ts</title>
<path fill="none" stroke="#000000" stroke-width="2" stroke-opacity="0.200000" d="M187.09,-48.05C192.17,-49.52 197.25,-51.17 202,-53 208.12,-55.36 208.81,-57.81 215,-60 220.52,-61.95 226.39,-63.63 232.29,-65.07"/>
<polygon fill="#000000" fill-opacity="0.200000" stroke="#000000" stroke-width="2" stroke-opacity="0.200000" points="231.87,-67.12 238.19,-66.42 232.82,-63.03 231.87,-67.12"/>
</g>
<!-- src/transformers/transformToggle.ts -->
<g id="node23" class="node">
<title>src/transformers/transformToggle.ts</title>
<g id="a_node23"><a xlink:href="https://github.com/dragonman225/notionapi-agent/tree/master/src/transformers/transformToggle.ts" xlink:title="transformToggle.ts">
<path fill="#ddfeff" stroke="black" d="M329.5,-442C329.5,-442 240.5,-442 240.5,-442 237.5,-442 234.5,-439 234.5,-436 234.5,-436 234.5,-430 234.5,-430 234.5,-427 237.5,-424 240.5,-424 240.5,-424 329.5,-424 329.5,-424 332.5,-424 335.5,-427 335.5,-430 335.5,-430 335.5,-436 335.5,-436 335.5,-439 332.5,-442 329.5,-442"/>
<text text-anchor="middle" x="285" y="-430.8" font-family="Helvetica,sans-Serif" font-size="9.00">transformToggle.ts</text>
</a>
</g>
</g>
<!-- src/transformBlock.ts&#45;&gt;src/transformers/transformToggle.ts -->
<g id="edge22" class="edge">
<title>src/transformBlock.ts&#45;&gt;src/transformers/transformToggle.ts</title>
<path fill="none" stroke="#000000" stroke-width="2" stroke-opacity="0.200000" d="M192.24,-45.03C195.95,-47.07 199.3,-49.68 202,-53 227.6,-84.48 188.98,-386.86 215,-418 218.69,-422.42 223.36,-425.72 228.51,-428.17"/>
<polygon fill="#000000" fill-opacity="0.200000" stroke="#000000" stroke-width="2" stroke-opacity="0.200000" points="227.92,-430.2 234.27,-430.5 229.5,-426.3 227.92,-430.2"/>
</g>
<!-- src/transformers/transformVisual.ts -->
<g id="node24" class="node">
<title>src/transformers/transformVisual.ts</title>
<g id="a_node24"><a xlink:href="https://github.com/dragonman225/notionapi-agent/tree/master/src/transformers/transformVisual.ts" xlink:title="transformVisual.ts">
<path fill="#ddfeff" stroke="black" d="M328,-412C328,-412 242,-412 242,-412 239,-412 236,-409 236,-406 236,-406 236,-400 236,-400 236,-397 239,-394 242,-394 242,-394 328,-394 328,-394 331,-394 334,-397 334,-400 334,-400 334,-406 334,-406 334,-409 331,-412 328,-412"/>
<text text-anchor="middle" x="285" y="-400.8" font-family="Helvetica,sans-Serif" font-size="9.00">transformVisual.ts</text>
</a>
</g>
</g>
<!-- src/transformBlock.ts&#45;&gt;src/transformers/transformVisual.ts -->
<g id="edge23" class="edge">
<title>src/transformBlock.ts&#45;&gt;src/transformers/transformVisual.ts</title>
<path fill="none" stroke="#000000" stroke-width="2" stroke-opacity="0.200000" d="M192.23,-45.04C195.94,-47.08 199.29,-49.68 202,-53 225.55,-81.86 191.07,-359.46 215,-388 219.02,-392.79 224.17,-396.27 229.85,-398.77"/>
<polygon fill="#000000" fill-opacity="0.200000" stroke="#000000" stroke-width="2" stroke-opacity="0.200000" points="229.33,-400.81 235.68,-400.95 230.8,-396.88 229.33,-400.81"/>
</g>
<!-- src/transformers/utils.ts -->
<g id="node25" class="node">
<title>src/transformers/utils.ts</title>
<g id="a_node25"><a xlink:href="https://github.com/dragonman225/notionapi-agent/tree/master/src/transformers/utils.ts" xlink:title="utils.ts">
<path fill="#ddfeff" stroke="black" d="M416,-382C416,-382 374,-382 374,-382 371,-382 368,-379 368,-376 368,-376 368,-370 368,-370 368,-367 371,-364 374,-364 374,-364 416,-364 416,-364 419,-364 422,-367 422,-370 422,-370 422,-376 422,-376 422,-379 419,-382 416,-382"/>
<text text-anchor="middle" x="395" y="-370.8" font-family="Helvetica,sans-Serif" font-size="9.00">utils.ts</text>
</a>
</g>
</g>
<!-- src/transformers/transformAudio.ts&#45;&gt;src/transformers/utils.ts -->
<g id="edge25" class="edge">
<title>src/transformers/transformAudio.ts&#45;&gt;src/transformers/utils.ts</title>
<path fill="none" stroke="#000000" stroke-width="2" stroke-opacity="0.200000" d="M334,-610.24C341.88,-607.78 349.32,-603.93 355,-598 384.02,-567.72 391.71,-433.78 393.51,-388.23"/>
<polygon fill="#000000" fill-opacity="0.200000" stroke="#000000" stroke-width="2" stroke-opacity="0.200000" points="395.61,-388.24 393.73,-382.17 391.41,-388.09 395.61,-388.24"/>
</g>
<!-- src/transformers/transformBookmark.ts&#45;&gt;src/transformers/utils.ts -->
<g id="edge26" class="edge">
<title>src/transformers/transformBookmark.ts&#45;&gt;src/transformers/utils.ts</title>
<path fill="none" stroke="#000000" stroke-width="2" stroke-opacity="0.200000" d="M343.78,-576.12C347.92,-573.99 351.73,-571.32 355,-568 380.16,-542.42 390.18,-429.8 393.05,-388.37"/>
<polygon fill="#000000" fill-opacity="0.200000" stroke="#000000" stroke-width="2" stroke-opacity="0.200000" points="395.15,-388.48 393.45,-382.35 390.96,-388.2 395.15,-388.48"/>
</g>
<!-- src/transformers/transformBreadcrumb.ts&#45;&gt;src/transformers/utils.ts -->
<g id="edge27" class="edge">
<title>src/transformers/transformBreadcrumb.ts&#45;&gt;src/transformers/utils.ts</title>
<path fill="none" stroke="#000000" stroke-width="2" stroke-opacity="0.200000" d="M347.5,-543.84C350.2,-542.17 352.73,-540.23 355,-538 376.35,-517.03 388.39,-425.27 392.44,-388.41"/>
<polygon fill="#000000" fill-opacity="0.200000" stroke="#000000" stroke-width="2" stroke-opacity="0.200000" points="394.55,-388.38 393.1,-382.19 390.38,-387.94 394.55,-388.38"/>
</g>
<!-- src/transformers/transformBulletedList.ts&#45;&gt;src/transformers/utils.ts -->
<g id="edge28" class="edge">
<title>src/transformers/transformBulletedList.ts&#45;&gt;src/transformers/utils.ts</title>
<path fill="none" stroke="#000000" stroke-width="2" stroke-opacity="0.200000" d="M347.06,-513.89C349.91,-512.21 352.58,-510.26 355,-508 389.15,-476.07 394.03,-416.29 394.32,-388.25"/>
<polygon fill="#000000" fill-opacity="0.200000" stroke="#000000" stroke-width="2" stroke-opacity="0.200000" points="396.42,-388.15 394.31,-382.15 392.22,-388.16 396.42,-388.15"/>
</g>
<!-- src/transformers/transformCallout.ts&#45;&gt;src/transformers/utils.ts -->
<g id="edge29" class="edge">
<title>src/transformers/transformCallout.ts&#45;&gt;src/transformers/utils.ts</title>
<path fill="none" stroke="#000000" stroke-width="2" stroke-opacity="0.200000" d="M336.69,-488.2C343.37,-485.86 349.72,-482.58 355,-478 381.74,-454.8 390.17,-411.51 392.81,-388.42"/>
<polygon fill="#000000" fill-opacity="0.200000" stroke="#000000" stroke-width="2" stroke-opacity="0.200000" points="394.92,-388.4 393.44,-382.22 390.74,-387.98 394.92,-388.4"/>
</g>
<!-- src/transformers/transformCode.ts&#45;&gt;src/transformers/utils.ts -->
<g id="edge30" class="edge">
<title>src/transformers/transformCode.ts&#45;&gt;src/transformers/utils.ts</title>
<path fill="none" stroke="#000000" stroke-width="2" stroke-opacity="0.200000" d="M332.62,-458.7C340.64,-456.39 348.47,-452.99 355,-448 374.73,-432.92 385.42,-405 390.4,-387.81"/>
<polygon fill="#000000" fill-opacity="0.200000" stroke="#000000" stroke-width="2" stroke-opacity="0.200000" points="392.43,-388.35 391.98,-382.01 388.37,-387.24 392.43,-388.35"/>
</g>
<!-- src/transformers/transformCollection.ts&#45;&gt;src/transformers/transformPage.ts -->
<g id="edge31" class="edge">
<title>src/transformers/transformCollection.ts&#45;&gt;src/transformers/transformPage.ts</title>
<path fill="none" stroke="#000000" stroke-width="2" stroke-opacity="0.200000" d="M202.34,-643C212.03,-643 222.05,-643 231.61,-643"/>
<polygon fill="#000000" fill-opacity="0.200000" stroke="#000000" stroke-width="2" stroke-opacity="0.200000" points="231.81,-645.1 237.81,-643 231.81,-640.9 231.81,-645.1"/>
</g>
<!-- src/transformers/transformCollection.ts&#45;&gt;src/transformers/utils.ts -->
<g id="edge32" class="edge">
<title>src/transformers/transformCollection.ts&#45;&gt;src/transformers/utils.ts</title>
<path fill="none" stroke="#000000" stroke-width="2" stroke-opacity="0.200000" d="M163.45,-652.01C203.7,-670.23 300.19,-705.82 355,-658 395.87,-622.34 395.46,-442.02 394.4,-388.19"/>
<polygon fill="#000000" fill-opacity="0.200000" stroke="#000000" stroke-width="2" stroke-opacity="0.200000" points="396.5,-387.95 394.26,-382 392.3,-388.04 396.5,-387.95"/>
</g>
<!-- src/transformers/transformColumn.ts&#45;&gt;src/transformers/utils.ts -->
<g id="edge33" class="edge">
<title>src/transformers/transformColumn.ts&#45;&gt;src/transformers/utils.ts</title>
<path fill="none" stroke="#000000" stroke-width="2" stroke-opacity="0.200000" d="M338.73,-373C346.52,-373 354.35,-373 361.56,-373"/>
<polygon fill="#000000" fill-opacity="0.200000" stroke="#000000" stroke-width="2" stroke-opacity="0.200000" points="361.99,-375.1 367.99,-373 361.99,-370.9 361.99,-375.1"/>
</g>
<!-- src/transformers/transformColumnList.ts&#45;&gt;src/transformers/utils.ts -->
<g id="edge34" class="edge">
<title>src/transformers/transformColumnList.ts&#45;&gt;src/transformers/utils.ts</title>
<path fill="none" stroke="#000000" stroke-width="2" stroke-opacity="0.200000" d="M332.27,-352.03C339.92,-353.82 347.72,-355.82 355,-358 358.74,-359.12 362.63,-360.43 366.44,-361.8"/>
<polygon fill="#000000" fill-opacity="0.200000" stroke="#000000" stroke-width="2" stroke-opacity="0.200000" points="365.98,-363.87 372.34,-363.99 367.45,-359.94 365.98,-363.87"/>
</g>
<!-- src/transformers/transformDivider.ts&#45;&gt;src/transformers/utils.ts -->
<g id="edge35" class="edge">
<title>src/transformers/transformDivider.ts&#45;&gt;src/transformers/utils.ts</title>
<path fill="none" stroke="#000000" stroke-width="2" stroke-opacity="0.200000" d="M336.09,-319.86C342.71,-321.91 349.2,-324.56 355,-328 367.6,-335.48 378.21,-348.47 385.16,-358.58"/>
<polygon fill="#000000" fill-opacity="0.200000" stroke="#000000" stroke-width="2" stroke-opacity="0.200000" points="383.58,-360 388.64,-363.84 387.08,-357.68 383.58,-360"/>
</g>
<!-- src/transformers/transformEquation.ts&#45;&gt;src/transformers/utils.ts -->
<g id="edge36" class="edge">
<title>src/transformers/transformEquation.ts&#45;&gt;src/transformers/utils.ts</title>
<path fill="none" stroke="#000000" stroke-width="2" stroke-opacity="0.200000" d="M341.81,-290.51C346.52,-292.49 351.01,-294.95 355,-298 374.73,-313.08 385.42,-341 390.4,-358.19"/>
<polygon fill="#000000" fill-opacity="0.200000" stroke="#000000" stroke-width="2" stroke-opacity="0.200000" points="388.37,-358.76 391.98,-363.99 392.43,-357.65 388.37,-358.76"/>
</g>
<!-- src/transformers/transformFile.ts&#45;&gt;src/transformers/utils.ts -->
<g id="edge37" class="edge">
<title>src/transformers/transformFile.ts&#45;&gt;src/transformers/utils.ts</title>
<path fill="none" stroke="#000000" stroke-width="2" stroke-opacity="0.200000" d="M328.13,-255.32C337.84,-257.6 347.5,-261.49 355,-268 381.74,-291.2 390.17,-334.49 392.81,-357.58"/>
<polygon fill="#000000" fill-opacity="0.200000" stroke="#000000" stroke-width="2" stroke-opacity="0.200000" points="390.74,-358.02 393.44,-363.78 394.92,-357.6 390.74,-358.02"/>
</g>
<!-- src/transformers/transformHeading.ts&#45;&gt;src/transformers/utils.ts -->
<g id="edge38" class="edge">
<title>src/transformers/transformHeading.ts&#45;&gt;src/transformers/utils.ts</title>
<path fill="none" stroke="#000000" stroke-width="2" stroke-opacity="0.200000" d="M340.12,-228.66C345.59,-230.94 350.7,-233.98 355,-238 389.15,-269.93 394.03,-329.71 394.32,-357.75"/>
<polygon fill="#000000" fill-opacity="0.200000" stroke="#000000" stroke-width="2" stroke-opacity="0.200000" points="392.22,-357.84 394.31,-363.85 396.42,-357.85 392.22,-357.84"/>
</g>
<!-- src/transformers/transformNumberedList.ts&#45;&gt;src/transformers/utils.ts -->
<g id="edge39" class="edge">
<title>src/transformers/transformNumberedList.ts&#45;&gt;src/transformers/utils.ts</title>
<path fill="none" stroke="#000000" stroke-width="2" stroke-opacity="0.200000" d="M347.5,-202.16C350.2,-203.83 352.73,-205.77 355,-208 376.35,-228.97 388.39,-320.73 392.44,-357.59"/>
<polygon fill="#000000" fill-opacity="0.200000" stroke="#000000" stroke-width="2" stroke-opacity="0.200000" points="390.38,-358.06 393.1,-363.81 394.55,-357.62 390.38,-358.06"/>
</g>
<!-- src/transformers/transformPage.ts&#45;&gt;src/transformers/utils.ts -->
<g id="edge40" class="edge">
<title>src/transformers/transformPage.ts&#45;&gt;src/transformers/utils.ts</title>
<path fill="none" stroke="#000000" stroke-width="2" stroke-opacity="0.200000" d="M332.33,-640.86C340.85,-638.43 348.96,-634.43 355,-628 387.87,-593.01 393.04,-437.81 393.85,-388.26"/>
<polygon fill="#000000" fill-opacity="0.200000" stroke="#000000" stroke-width="2" stroke-opacity="0.200000" points="395.95,-388.27 393.93,-382.24 391.75,-388.21 395.95,-388.27"/>
</g>
<!-- src/transformers/transformQuote.ts&#45;&gt;src/transformers/utils.ts -->
<g id="edge41" class="edge">
<title>src/transformers/transformQuote.ts&#45;&gt;src/transformers/utils.ts</title>
<path fill="none" stroke="#000000" stroke-width="2" stroke-opacity="0.200000" d="M334.58,-166.1C342.21,-168.56 349.41,-172.32 355,-178 380.16,-203.58 390.18,-316.2 393.05,-357.63"/>
<polygon fill="#000000" fill-opacity="0.200000" stroke="#000000" stroke-width="2" stroke-opacity="0.200000" points="390.96,-357.8 393.45,-363.65 395.15,-357.52 390.96,-357.8"/>
</g>
<!-- src/transformers/transformTableOfContent.ts&#45;&gt;src/transformers/utils.ts -->
<g id="edge42" class="edge">
<title>src/transformers/transformTableOfContent.ts&#45;&gt;src/transformers/utils.ts</title>
<path fill="none" stroke="#000000" stroke-width="2" stroke-opacity="0.200000" d="M347.97,-142.19C350.51,-143.86 352.88,-145.79 355,-148 384.02,-178.28 391.71,-312.22 393.51,-357.77"/>
<polygon fill="#000000" fill-opacity="0.200000" stroke="#000000" stroke-width="2" stroke-opacity="0.200000" points="391.41,-357.91 393.73,-363.83 395.61,-357.76 391.41,-357.91"/>
</g>
<!-- src/transformers/transformText.ts&#45;&gt;src/transformers/utils.ts -->
<g id="edge43" class="edge">
<title>src/transformers/transformText.ts&#45;&gt;src/transformers/utils.ts</title>
<path fill="none" stroke="#000000" stroke-width="2" stroke-opacity="0.200000" d="M330.19,-104.56C339.49,-106.92 348.45,-111.03 355,-118 387.87,-152.99 393.04,-308.19 393.85,-357.74"/>
<polygon fill="#000000" fill-opacity="0.200000" stroke="#000000" stroke-width="2" stroke-opacity="0.200000" points="391.75,-357.79 393.93,-363.76 395.95,-357.73 391.75,-357.79"/>
</g>
<!-- src/transformers/transformToDo.ts&#45;&gt;src/transformers/utils.ts -->
<g id="edge44" class="edge">
<title>src/transformers/transformToDo.ts&#45;&gt;src/transformers/utils.ts</title>
<path fill="none" stroke="#000000" stroke-width="2" stroke-opacity="0.200000" d="M331.7,-74.87C340.48,-77.28 348.84,-81.34 355,-88 391.74,-127.73 394.23,-304.46 394.12,-357.74"/>
<polygon fill="#000000" fill-opacity="0.200000" stroke="#000000" stroke-width="2" stroke-opacity="0.200000" points="392.02,-357.87 394.1,-363.88 396.22,-357.89 392.02,-357.87"/>
</g>
<!-- src/transformers/transformToggle.ts&#45;&gt;src/transformers/utils.ts -->
<g id="edge45" class="edge">
<title>src/transformers/transformToggle.ts&#45;&gt;src/transformers/utils.ts</title>
<path fill="none" stroke="#000000" stroke-width="2" stroke-opacity="0.200000" d="M335.73,-426.25C342.47,-424.19 349.1,-421.5 355,-418 367.6,-410.52 378.21,-397.53 385.16,-387.42"/>
<polygon fill="#000000" fill-opacity="0.200000" stroke="#000000" stroke-width="2" stroke-opacity="0.200000" points="387.08,-388.32 388.64,-382.16 383.58,-386 387.08,-388.32"/>
</g>
<!-- src/transformers/transformVisual.ts&#45;&gt;src/transformers/utils.ts -->
<g id="edge46" class="edge">
<title>src/transformers/transformVisual.ts&#45;&gt;src/transformers/utils.ts</title>
<path fill="none" stroke="#000000" stroke-width="2" stroke-opacity="0.200000" d="M332.27,-393.97C339.92,-392.18 347.72,-390.18 355,-388 358.74,-386.88 362.63,-385.57 366.44,-384.2"/>
<polygon fill="#000000" fill-opacity="0.200000" stroke="#000000" stroke-width="2" stroke-opacity="0.200000" points="367.45,-386.06 372.34,-382.01 365.98,-382.13 367.45,-386.06"/>
</g>
</g>
</svg>
