<?xml version="1.0" encoding="UTF-8" standalone="no"?>
<!DOCTYPE svg PUBLIC "-//W3C//DTD SVG 1.1//EN"
 "http://www.w3.org/Graphics/SVG/1.1/DTD/svg11.dtd">
<!-- Generated by graphviz version 2.40.1 (0)
 -->
<!-- Title: dependency&#45;cruiser output Pages: 1 -->
<svg width="528pt" height="612pt"
 viewBox="0.00 0.00 528.00 611.65" xmlns="http://www.w3.org/2000/svg" xmlns:xlink="http://www.w3.org/1999/xlink">
<g id="graph0" class="graph" transform="scale(1 1) rotate(0) translate(4 607.6525)">
<title>dependency&#45;cruiser output</title>
<polygon fill="#ffffff" stroke="transparent" points="-4,4 -4,-607.6525 524,-607.6525 524,4 -4,4"/>
<g id="clust1" class="cluster">
<title>cluster_src</title>
<path fill="#ffffff" stroke="#000000" stroke-width="2" d="M20,-11.6525C20,-11.6525 500,-11.6525 500,-11.6525 506,-11.6525 512,-17.6525 512,-23.6525 512,-23.6525 512,-583.6525 512,-583.6525 512,-589.6525 506,-595.6525 500,-595.6525 500,-595.6525 20,-595.6525 20,-595.6525 14,-595.6525 8,-589.6525 8,-583.6525 8,-583.6525 8,-23.6525 8,-23.6525 8,-17.6525 14,-11.6525 20,-11.6525"/>
<text text-anchor="middle" x="260" y="-584.4525" font-family="Helvetica,sans-Serif" font-weight="bold" font-size="9.00" fill="#000000">src</text>
</g>
<g id="clust2" class="cluster">
<title>cluster_src/widgets</title>
<path fill="#ffffff" stroke="#000000" stroke-width="2" d="M194,-43.6525C194,-43.6525 278,-43.6525 278,-43.6525 284,-43.6525 290,-49.6525 290,-55.6525 290,-55.6525 290,-533.6525 290,-533.6525 290,-539.6525 284,-545.6525 278,-545.6525 278,-545.6525 194,-545.6525 194,-545.6525 188,-545.6525 182,-539.6525 182,-533.6525 182,-533.6525 182,-55.6525 182,-55.6525 182,-49.6525 188,-43.6525 194,-43.6525"/>
<text text-anchor="middle" x="236" y="-534.4525" font-family="Helvetica,sans-Serif" font-weight="bold" font-size="9.00" fill="#000000">widgets</text>
</g>
<!-- src/constants.ts -->
<g id="node1" class="node">
<title>src/constants.ts</title>
<g id="a_node1"><a xlink:href="https://github.com/dragonman225/nast-util-to-html/tree/master/src/constants.ts" xlink:title="constants.ts">
<path fill="#ddfeff" stroke="#000000" d="M476.5,-176.6525C476.5,-176.6525 417.5,-176.6525 417.5,-176.6525 414.5,-176.6525 411.5,-173.6525 411.5,-170.6525 411.5,-170.6525 411.5,-164.6525 411.5,-164.6525 411.5,-161.6525 414.5,-158.6525 417.5,-158.6525 417.5,-158.6525 476.5,-158.6525 476.5,-158.6525 479.5,-158.6525 482.5,-161.6525 482.5,-164.6525 482.5,-164.6525 482.5,-170.6525 482.5,-170.6525 482.5,-173.6525 479.5,-176.6525 476.5,-176.6525"/>
<text text-anchor="middle" x="447" y="-165.4525" font-family="Helvetica,sans-Serif" font-size="9.00" fill="#000000">constants.ts</text>
</a>
</g>
</g>
<!-- src/index.ts -->
<g id="node2" class="node">
<title>src/index.ts</title>
<g id="a_node2"><a xlink:href="https://github.com/dragonman225/nast-util-to-html/tree/master/src/index.ts" xlink:title="index.ts">
<path fill="#ddfeff" stroke="#000000" d="M64,-439.6525C64,-439.6525 22,-439.6525 22,-439.6525 19,-439.6525 16,-436.6525 16,-433.6525 16,-433.6525 16,-427.6525 16,-427.6525 16,-424.6525 19,-421.6525 22,-421.6525 22,-421.6525 64,-421.6525 64,-421.6525 67,-421.6525 70,-424.6525 70,-427.6525 70,-427.6525 70,-433.6525 70,-433.6525 70,-436.6525 67,-439.6525 64,-439.6525"/>
<text text-anchor="middle" x="43" y="-428.4525" font-family="Helvetica,sans-Serif" font-size="9.00" fill="#000000">index.ts</text>
</a>
</g>
</g>
<!-- src/render&#45;control.ts -->
<g id="node5" class="node">
<title>src/render&#45;control.ts</title>
<g id="a_node5"><a xlink:href="https://github.com/dragonman225/nast-util-to-html/tree/master/src/render-control.ts" xlink:title="render&#45;control.ts">
<path fill="#ddfeff" stroke="#000000" d="M168,-294.6525C168,-294.6525 89,-294.6525 89,-294.6525 86,-294.6525 83,-291.6525 83,-288.6525 83,-288.6525 83,-282.6525 83,-282.6525 83,-279.6525 86,-276.6525 89,-276.6525 89,-276.6525 168,-276.6525 168,-276.6525 171,-276.6525 174,-279.6525 174,-282.6525 174,-282.6525 174,-288.6525 174,-288.6525 174,-291.6525 171,-294.6525 168,-294.6525"/>
<text text-anchor="middle" x="128.5" y="-283.4525" font-family="Helvetica,sans-Serif" font-size="9.00" fill="#000000">render&#45;control.ts</text>
</a>
</g>
</g>
<!-- src/index.ts&#45;&gt;src/render&#45;control.ts -->
<g id="edge1" class="edge">
<title>src/index.ts&#45;&gt;src/render&#45;control.ts</title>
<path fill="none" stroke="#000000" stroke-width="2" stroke-opacity="0.466667" d="M48.3484,-421.5821C62.2036,-398.085 99.4626,-334.8971 117.887,-303.6511"/>
<polygon fill="#000000" fill-opacity="0.466667" stroke="#000000" stroke-width="2" stroke-opacity="0.466667" points="121.0892,-305.1112 123.1536,-294.7194 115.0594,-301.5557 121.0892,-305.1112"/>
</g>
<!-- src/render&#45;utils.ts -->
<g id="node7" class="node">
<title>src/render&#45;utils.ts</title>
<g id="a_node7"><a xlink:href="https://github.com/dragonman225/nast-util-to-html/tree/master/src/render-utils.ts" xlink:title="render&#45;utils.ts">
<path fill="#ddfeff" stroke="#000000" d="M371,-288.6525C371,-288.6525 304,-288.6525 304,-288.6525 301,-288.6525 298,-285.6525 298,-282.6525 298,-282.6525 298,-276.6525 298,-276.6525 298,-273.6525 301,-270.6525 304,-270.6525 304,-270.6525 371,-270.6525 371,-270.6525 374,-270.6525 377,-273.6525 377,-276.6525 377,-276.6525 377,-282.6525 377,-282.6525 377,-285.6525 374,-288.6525 371,-288.6525"/>
<text text-anchor="middle" x="337.5" y="-277.4525" font-family="Helvetica,sans-Serif" font-size="9.00" fill="#000000">render&#45;utils.ts</text>
</a>
</g>
</g>
<!-- src/index.ts&#45;&gt;src/render&#45;utils.ts -->
<g id="edge2" class="edge">
<title>src/index.ts&#45;&gt;src/render&#45;utils.ts</title>
<path fill="none" stroke="#000000" stroke-width="2" stroke-opacity="0.466667" d="M50.1579,-439.8958C81.3866,-479.1598 207.8133,-626.9875 290,-557.6525 309.9525,-540.82 329.6251,-359.1161 335.6382,-298.9074"/>
<polygon fill="#000000" fill-opacity="0.466667" stroke="#000000" stroke-width="2" stroke-opacity="0.466667" points="339.131,-299.1515 336.6271,-288.8568 332.1647,-298.4661 339.131,-299.1515"/>
</g>
<!-- src/log&#45;utils.js -->
<g id="node3" class="node">
<title>src/log&#45;utils.js</title>
<g id="a_node3"><a xlink:href="https://github.com/dragonman225/nast-util-to-html/tree/master/src/log-utils.js" xlink:title="log&#45;utils.js">
<path fill="#ffffcc" stroke="#000000" d="M472,-69.6525C472,-69.6525 422,-69.6525 422,-69.6525 419,-69.6525 416,-66.6525 416,-63.6525 416,-63.6525 416,-57.6525 416,-57.6525 416,-54.6525 419,-51.6525 422,-51.6525 422,-51.6525 472,-51.6525 472,-51.6525 475,-51.6525 478,-54.6525 478,-57.6525 478,-57.6525 478,-63.6525 478,-63.6525 478,-66.6525 475,-69.6525 472,-69.6525"/>
<text text-anchor="middle" x="447" y="-58.4525" font-family="Helvetica,sans-Serif" font-size="9.00" fill="#000000">log&#45;utils.js</text>
</a>
</g>
</g>
<!-- src/notion&#45;utils.js -->
<g id="node4" class="node">
<title>src/notion&#45;utils.js</title>
<g id="a_node4"><a xlink:href="https://github.com/dragonman225/nast-util-to-html/tree/master/src/notion-utils.js" xlink:title="notion&#45;utils.js">
<path fill="#ffffcc" stroke="#000000" d="M479.5,-273.6525C479.5,-273.6525 414.5,-273.6525 414.5,-273.6525 411.5,-273.6525 408.5,-270.6525 408.5,-267.6525 408.5,-267.6525 408.5,-261.6525 408.5,-261.6525 408.5,-258.6525 411.5,-255.6525 414.5,-255.6525 414.5,-255.6525 479.5,-255.6525 479.5,-255.6525 482.5,-255.6525 485.5,-258.6525 485.5,-261.6525 485.5,-261.6525 485.5,-267.6525 485.5,-267.6525 485.5,-270.6525 482.5,-273.6525 479.5,-273.6525"/>
<text text-anchor="middle" x="447" y="-262.4525" font-family="Helvetica,sans-Serif" font-size="9.00" fill="#000000">notion&#45;utils.js</text>
</a>
</g>
</g>
<!-- src/render&#45;control.ts&#45;&gt;src/constants.ts -->
<g id="edge3" class="edge">
<title>src/render&#45;control.ts&#45;&gt;src/constants.ts</title>
<path fill="none" stroke="#000000" stroke-width="2" stroke-opacity="0.466667" d="M129.0185,-276.5586C131.5441,-235.8759 144.0202,-71.2337 182,-40.6525 216.149,-13.1558 341.8041,-44.5092 377,-70.6525 405.3525,-91.7125 426.9272,-127.5996 438.2169,-149.3196"/>
<polygon fill="#000000" fill-opacity="0.466667" stroke="#000000" stroke-width="2" stroke-opacity="0.466667" points="435.1858,-151.0835 442.7929,-158.4579 441.4449,-147.9492 435.1858,-151.0835"/>
</g>
<!-- src/render&#45;control.ts&#45;&gt;src/log&#45;utils.js -->
<g id="edge4" class="edge">
<title>src/render&#45;control.ts&#45;&gt;src/log&#45;utils.js</title>
<path fill="none" stroke="#000000" stroke-width="2" stroke-opacity="0.466667" d="M128.9017,-276.6136C130.9731,-234.6244 141.9509,-59.2744 182,-26.6525 252.7812,31.0022 371.3611,-20.0905 422.4069,-46.7962"/>
<polygon fill="#000000" fill-opacity="0.466667" stroke="#000000" stroke-width="2" stroke-opacity="0.466667" points="420.937,-49.9795 431.404,-51.6202 424.2447,-43.8102 420.937,-49.9795"/>
</g>
<!-- src/render&#45;control.ts&#45;&gt;src/render&#45;utils.ts -->
<g id="edge5" class="edge">
<title>src/render&#45;control.ts&#45;&gt;src/render&#45;utils.ts</title>
<path fill="none" stroke="#000000" stroke-width="2" stroke-opacity="0.466667" d="M128.8778,-294.8291C130.8415,-337.4587 141.4074,-515.486 182,-548.6525 200.5852,-563.8377 271.613,-564.0771 290,-548.6525 328.2446,-516.5694 335.7107,-355.3339 337.1563,-299.0641"/>
<polygon fill="#000000" fill-opacity="0.466667" stroke="#000000" stroke-width="2" stroke-opacity="0.466667" points="340.6627,-298.8084 337.3824,-288.7342 333.6644,-298.6552 340.6627,-298.8084"/>
</g>
<!-- src/widgets/audio.ts -->
<g id="node8" class="node">
<title>src/widgets/audio.ts</title>
<g id="a_node8"><a xlink:href="https://github.com/dragonman225/nast-util-to-html/tree/master/src/widgets/audio.ts" xlink:title="audio.ts">
<path fill="#ddfeff" stroke="#000000" d="M257,-399.6525C257,-399.6525 215,-399.6525 215,-399.6525 212,-399.6525 209,-396.6525 209,-393.6525 209,-393.6525 209,-387.6525 209,-387.6525 209,-384.6525 212,-381.6525 215,-381.6525 215,-381.6525 257,-381.6525 257,-381.6525 260,-381.6525 263,-384.6525 263,-387.6525 263,-387.6525 263,-393.6525 263,-393.6525 263,-396.6525 260,-399.6525 257,-399.6525"/>
<text text-anchor="middle" x="236" y="-388.4525" font-family="Helvetica,sans-Serif" font-size="9.00" fill="#000000">audio.ts</text>
</a>
</g>
</g>
<!-- src/render&#45;control.ts&#45;&gt;src/widgets/audio.ts -->
<g id="edge6" class="edge">
<title>src/render&#45;control.ts&#45;&gt;src/widgets/audio.ts</title>
<path fill="none" stroke="#000000" stroke-width="2" stroke-opacity="0.466667" d="M131.3687,-294.8804C137.5387,-313.1738 153.8406,-354.1249 182,-375.6525 187.0727,-379.5305 193.0933,-382.406 199.2423,-384.5381"/>
<polygon fill="#000000" fill-opacity="0.466667" stroke="#000000" stroke-width="2" stroke-opacity="0.466667" points="198.3153,-387.9133 208.8931,-387.3139 200.2502,-381.1861 198.3153,-387.9133"/>
</g>
<!-- src/widgets/bookmark.ts -->
<g id="node9" class="node">
<title>src/widgets/bookmark.ts</title>
<g id="a_node9"><a xlink:href="https://github.com/dragonman225/nast-util-to-html/tree/master/src/widgets/bookmark.ts" xlink:title="bookmark.ts">
<path fill="#ddfeff" stroke="#000000" d="M266.5,-369.6525C266.5,-369.6525 205.5,-369.6525 205.5,-369.6525 202.5,-369.6525 199.5,-366.6525 199.5,-363.6525 199.5,-363.6525 199.5,-357.6525 199.5,-357.6525 199.5,-354.6525 202.5,-351.6525 205.5,-351.6525 205.5,-351.6525 266.5,-351.6525 266.5,-351.6525 269.5,-351.6525 272.5,-354.6525 272.5,-357.6525 272.5,-357.6525 272.5,-363.6525 272.5,-363.6525 272.5,-366.6525 269.5,-369.6525 266.5,-369.6525"/>
<text text-anchor="middle" x="236" y="-358.4525" font-family="Helvetica,sans-Serif" font-size="9.00" fill="#000000">bookmark.ts</text>
</a>
</g>
</g>
<!-- src/render&#45;control.ts&#45;&gt;src/widgets/bookmark.ts -->
<g id="edge7" class="edge">
<title>src/render&#45;control.ts&#45;&gt;src/widgets/bookmark.ts</title>
<path fill="none" stroke="#000000" stroke-width="2" stroke-opacity="0.466667" d="M134.207,-294.8668C142.8875,-308.1071 160.6729,-332.3771 182,-345.6525 184.4781,-347.195 187.117,-348.582 189.8449,-349.8287"/>
<polygon fill="#000000" fill-opacity="0.466667" stroke="#000000" stroke-width="2" stroke-opacity="0.466667" points="188.7708,-353.1667 199.3587,-353.5494 191.3203,-346.6475 188.7708,-353.1667"/>
</g>
<!-- src/widgets/callout.ts -->
<g id="node10" class="node">
<title>src/widgets/callout.ts</title>
<g id="a_node10"><a xlink:href="https://github.com/dragonman225/nast-util-to-html/tree/master/src/widgets/callout.ts" xlink:title="callout.ts">
<path fill="#ddfeff" stroke="#000000" d="M259,-219.6525C259,-219.6525 213,-219.6525 213,-219.6525 210,-219.6525 207,-216.6525 207,-213.6525 207,-213.6525 207,-207.6525 207,-207.6525 207,-204.6525 210,-201.6525 213,-201.6525 213,-201.6525 259,-201.6525 259,-201.6525 262,-201.6525 265,-204.6525 265,-207.6525 265,-207.6525 265,-213.6525 265,-213.6525 265,-216.6525 262,-219.6525 259,-219.6525"/>
<text text-anchor="middle" x="236" y="-208.4525" font-family="Helvetica,sans-Serif" font-size="9.00" fill="#000000">callout.ts</text>
</a>
</g>
</g>
<!-- src/render&#45;control.ts&#45;&gt;src/widgets/callout.ts -->
<g id="edge8" class="edge">
<title>src/render&#45;control.ts&#45;&gt;src/widgets/callout.ts</title>
<path fill="none" stroke="#000000" stroke-width="2" stroke-opacity="0.466667" d="M134.207,-276.4381C142.8875,-263.1978 160.6729,-238.9278 182,-225.6525 186.6981,-222.728 191.974,-220.3627 197.3391,-218.4523"/>
<polygon fill="#000000" fill-opacity="0.466667" stroke="#000000" stroke-width="2" stroke-opacity="0.466667" points="198.4594,-221.7696 206.9871,-215.4825 196.4,-215.0794 198.4594,-221.7696"/>
</g>
<!-- src/widgets/code.ts -->
<g id="node11" class="node">
<title>src/widgets/code.ts</title>
<g id="a_node11"><a xlink:href="https://github.com/dragonman225/nast-util-to-html/tree/master/src/widgets/code.ts" xlink:title="code.ts">
<path fill="#ddfeff" stroke="#000000" d="M257,-339.6525C257,-339.6525 215,-339.6525 215,-339.6525 212,-339.6525 209,-336.6525 209,-333.6525 209,-333.6525 209,-327.6525 209,-327.6525 209,-324.6525 212,-321.6525 215,-321.6525 215,-321.6525 257,-321.6525 257,-321.6525 260,-321.6525 263,-324.6525 263,-327.6525 263,-327.6525 263,-333.6525 263,-333.6525 263,-336.6525 260,-339.6525 257,-339.6525"/>
<text text-anchor="middle" x="236" y="-328.4525" font-family="Helvetica,sans-Serif" font-size="9.00" fill="#000000">code.ts</text>
</a>
</g>
</g>
<!-- src/render&#45;control.ts&#45;&gt;src/widgets/code.ts -->
<g id="edge9" class="edge">
<title>src/render&#45;control.ts&#45;&gt;src/widgets/code.ts</title>
<path fill="none" stroke="#000000" stroke-width="2" stroke-opacity="0.466667" d="M142.5619,-294.7729C153.0882,-301.2895 168.0199,-309.8895 182,-315.6525 187.4747,-317.9093 193.3982,-319.9408 199.2478,-321.7266"/>
<polygon fill="#000000" fill-opacity="0.466667" stroke="#000000" stroke-width="2" stroke-opacity="0.466667" points="198.3532,-325.111 208.9302,-324.4964 200.2785,-318.381 198.3532,-325.111"/>
</g>
<!-- src/widgets/collection.ts -->
<g id="node12" class="node">
<title>src/widgets/collection.ts</title>
<g id="a_node12"><a xlink:href="https://github.com/dragonman225/nast-util-to-html/tree/master/src/widgets/collection.ts" xlink:title="collection.ts">
<path fill="#ddfeff" stroke="#000000" d="M265.5,-99.6525C265.5,-99.6525 206.5,-99.6525 206.5,-99.6525 203.5,-99.6525 200.5,-96.6525 200.5,-93.6525 200.5,-93.6525 200.5,-87.6525 200.5,-87.6525 200.5,-84.6525 203.5,-81.6525 206.5,-81.6525 206.5,-81.6525 265.5,-81.6525 265.5,-81.6525 268.5,-81.6525 271.5,-84.6525 271.5,-87.6525 271.5,-87.6525 271.5,-93.6525 271.5,-93.6525 271.5,-96.6525 268.5,-99.6525 265.5,-99.6525"/>
<text text-anchor="middle" x="236" y="-88.4525" font-family="Helvetica,sans-Serif" font-size="9.00" fill="#000000">collection.ts</text>
</a>
</g>
</g>
<!-- src/render&#45;control.ts&#45;&gt;src/widgets/collection.ts -->
<g id="edge10" class="edge">
<title>src/render&#45;control.ts&#45;&gt;src/widgets/collection.ts</title>
<path fill="none" stroke="#000000" stroke-width="2" stroke-opacity="0.466667" d="M130.0107,-276.5776C135.6777,-243.5734 156.6482,-130.553 182,-105.6525 184.6921,-103.0083 187.8077,-100.8211 191.1569,-99.013"/>
<polygon fill="#000000" fill-opacity="0.466667" stroke="#000000" stroke-width="2" stroke-opacity="0.466667" points="192.6092,-102.1987 200.437,-95.0589 189.8653,-95.7589 192.6092,-102.1987"/>
</g>
<!-- src/widgets/column&#45;helper.ts -->
<g id="node13" class="node">
<title>src/widgets/column&#45;helper.ts</title>
<g id="a_node13"><a xlink:href="https://github.com/dragonman225/nast-util-to-html/tree/master/src/widgets/column-helper.ts" xlink:title="column&#45;helper.ts">
<path fill="#ddfeff" stroke="#000000" d="M276,-69.6525C276,-69.6525 196,-69.6525 196,-69.6525 193,-69.6525 190,-66.6525 190,-63.6525 190,-63.6525 190,-57.6525 190,-57.6525 190,-54.6525 193,-51.6525 196,-51.6525 196,-51.6525 276,-51.6525 276,-51.6525 279,-51.6525 282,-54.6525 282,-57.6525 282,-57.6525 282,-63.6525 282,-63.6525 282,-66.6525 279,-69.6525 276,-69.6525"/>
<text text-anchor="middle" x="236" y="-58.4525" font-family="Helvetica,sans-Serif" font-size="9.00" fill="#000000">column&#45;helper.ts</text>
</a>
</g>
</g>
<!-- src/render&#45;control.ts&#45;&gt;src/widgets/column&#45;helper.ts -->
<g id="edge11" class="edge">
<title>src/render&#45;control.ts&#45;&gt;src/widgets/column&#45;helper.ts</title>
<path fill="none" stroke="#000000" stroke-width="2" stroke-opacity="0.466667" d="M129.596,-276.6159C133.8912,-242.551 150.6332,-121.8429 183.1173,-77.4153"/>
<polygon fill="#000000" fill-opacity="0.466667" stroke="#000000" stroke-width="2" stroke-opacity="0.466667" points="185.971,-79.4642 189.825,-69.5951 180.6578,-74.9068 185.971,-79.4642"/>
</g>
<!-- src/widgets/divider.ts -->
<g id="node14" class="node">
<title>src/widgets/divider.ts</title>
<g id="a_node14"><a xlink:href="https://github.com/dragonman225/nast-util-to-html/tree/master/src/widgets/divider.ts" xlink:title="divider.ts">
<path fill="#ddfeff" stroke="#000000" d="M259,-309.6525C259,-309.6525 213,-309.6525 213,-309.6525 210,-309.6525 207,-306.6525 207,-303.6525 207,-303.6525 207,-297.6525 207,-297.6525 207,-294.6525 210,-291.6525 213,-291.6525 213,-291.6525 259,-291.6525 259,-291.6525 262,-291.6525 265,-294.6525 265,-297.6525 265,-297.6525 265,-303.6525 265,-303.6525 265,-306.6525 262,-309.6525 259,-309.6525"/>
<text text-anchor="middle" x="236" y="-298.4525" font-family="Helvetica,sans-Serif" font-size="9.00" fill="#000000">divider.ts</text>
</a>
</g>
</g>
<!-- src/render&#45;control.ts&#45;&gt;src/widgets/divider.ts -->
<g id="edge12" class="edge">
<title>src/render&#45;control.ts&#45;&gt;src/widgets/divider.ts</title>
<path fill="none" stroke="#000000" stroke-width="2" stroke-opacity="0.466667" d="M174.0897,-292.0138C181.6353,-293.0667 189.4006,-294.1502 196.772,-295.1788"/>
<polygon fill="#000000" fill-opacity="0.466667" stroke="#000000" stroke-width="2" stroke-opacity="0.466667" points="196.4791,-298.6717 206.8669,-296.5874 197.4465,-291.7389 196.4791,-298.6717"/>
</g>
<!-- src/widgets/embed.ts -->
<g id="node15" class="node">
<title>src/widgets/embed.ts</title>
<g id="a_node15"><a xlink:href="https://github.com/dragonman225/nast-util-to-html/tree/master/src/widgets/embed.ts" xlink:title="embed.ts">
<path fill="#ddfeff" stroke="#000000" d="M259.5,-519.6525C259.5,-519.6525 212.5,-519.6525 212.5,-519.6525 209.5,-519.6525 206.5,-516.6525 206.5,-513.6525 206.5,-513.6525 206.5,-507.6525 206.5,-507.6525 206.5,-504.6525 209.5,-501.6525 212.5,-501.6525 212.5,-501.6525 259.5,-501.6525 259.5,-501.6525 262.5,-501.6525 265.5,-504.6525 265.5,-507.6525 265.5,-507.6525 265.5,-513.6525 265.5,-513.6525 265.5,-516.6525 262.5,-519.6525 259.5,-519.6525"/>
<text text-anchor="middle" x="236" y="-508.4525" font-family="Helvetica,sans-Serif" font-size="9.00" fill="#000000">embed.ts</text>
</a>
</g>
</g>
<!-- src/render&#45;control.ts&#45;&gt;src/widgets/embed.ts -->
<g id="edge13" class="edge">
<title>src/render&#45;control.ts&#45;&gt;src/widgets/embed.ts</title>
<path fill="none" stroke="#000000" stroke-width="2" stroke-opacity="0.466667" d="M129.596,-294.689C134.1775,-331.0249 152.9208,-465.9415 182,-495.6525 186.0409,-499.7812 191.1123,-502.8016 196.5186,-505.0058"/>
<polygon fill="#000000" fill-opacity="0.466667" stroke="#000000" stroke-width="2" stroke-opacity="0.466667" points="195.8716,-508.4722 206.4617,-508.1548 197.9851,-501.7988 195.8716,-508.4722"/>
</g>
<!-- src/widgets/equation.ts -->
<g id="node16" class="node">
<title>src/widgets/equation.ts</title>
<g id="a_node16"><a xlink:href="https://github.com/dragonman225/nast-util-to-html/tree/master/src/widgets/equation.ts" xlink:title="equation.ts">
<path fill="#ddfeff" stroke="#000000" d="M263.5,-489.6525C263.5,-489.6525 208.5,-489.6525 208.5,-489.6525 205.5,-489.6525 202.5,-486.6525 202.5,-483.6525 202.5,-483.6525 202.5,-477.6525 202.5,-477.6525 202.5,-474.6525 205.5,-471.6525 208.5,-471.6525 208.5,-471.6525 263.5,-471.6525 263.5,-471.6525 266.5,-471.6525 269.5,-474.6525 269.5,-477.6525 269.5,-477.6525 269.5,-483.6525 269.5,-483.6525 269.5,-486.6525 266.5,-489.6525 263.5,-489.6525"/>
<text text-anchor="middle" x="236" y="-478.4525" font-family="Helvetica,sans-Serif" font-size="9.00" fill="#000000">equation.ts</text>
</a>
</g>
</g>
<!-- src/render&#45;control.ts&#45;&gt;src/widgets/equation.ts -->
<g id="edge14" class="edge">
<title>src/render&#45;control.ts&#45;&gt;src/widgets/equation.ts</title>
<path fill="none" stroke="#000000" stroke-width="2" stroke-opacity="0.466667" d="M130.0107,-294.7273C135.6777,-327.7315 156.6482,-440.7519 182,-465.6525 185.1237,-468.7206 188.8178,-471.1736 192.7852,-473.1329"/>
<polygon fill="#000000" fill-opacity="0.466667" stroke="#000000" stroke-width="2" stroke-opacity="0.466667" points="191.81,-476.5087 202.3988,-476.8657 194.3438,-469.9834 191.81,-476.5087"/>
</g>
<!-- src/widgets/heading.ts -->
<g id="node17" class="node">
<title>src/widgets/heading.ts</title>
<g id="a_node17"><a xlink:href="https://github.com/dragonman225/nast-util-to-html/tree/master/src/widgets/heading.ts" xlink:title="heading.ts">
<path fill="#ddfeff" stroke="#000000" d="M262,-249.6525C262,-249.6525 210,-249.6525 210,-249.6525 207,-249.6525 204,-246.6525 204,-243.6525 204,-243.6525 204,-237.6525 204,-237.6525 204,-234.6525 207,-231.6525 210,-231.6525 210,-231.6525 262,-231.6525 262,-231.6525 265,-231.6525 268,-234.6525 268,-237.6525 268,-237.6525 268,-243.6525 268,-243.6525 268,-246.6525 265,-249.6525 262,-249.6525"/>
<text text-anchor="middle" x="236" y="-238.4525" font-family="Helvetica,sans-Serif" font-size="9.00" fill="#000000">heading.ts</text>
</a>
</g>
</g>
<!-- src/render&#45;control.ts&#45;&gt;src/widgets/heading.ts -->
<g id="edge15" class="edge">
<title>src/render&#45;control.ts&#45;&gt;src/widgets/heading.ts</title>
<path fill="none" stroke="#000000" stroke-width="2" stroke-opacity="0.466667" d="M142.5619,-276.532C153.0882,-270.0154 168.0199,-261.4154 182,-255.6525 185.8962,-254.0463 190.0198,-252.5543 194.1823,-251.1837"/>
<polygon fill="#000000" fill-opacity="0.466667" stroke="#000000" stroke-width="2" stroke-opacity="0.466667" points="195.3429,-254.4888 203.8766,-248.2097 193.2898,-247.7966 195.3429,-254.4888"/>
</g>
<!-- src/widgets/image.ts -->
<g id="node18" class="node">
<title>src/widgets/image.ts</title>
<g id="a_node18"><a xlink:href="https://github.com/dragonman225/nast-util-to-html/tree/master/src/widgets/image.ts" xlink:title="image.ts">
<path fill="#ddfeff" stroke="#000000" d="M258,-459.6525C258,-459.6525 214,-459.6525 214,-459.6525 211,-459.6525 208,-456.6525 208,-453.6525 208,-453.6525 208,-447.6525 208,-447.6525 208,-444.6525 211,-441.6525 214,-441.6525 214,-441.6525 258,-441.6525 258,-441.6525 261,-441.6525 264,-444.6525 264,-447.6525 264,-447.6525 264,-453.6525 264,-453.6525 264,-456.6525 261,-459.6525 258,-459.6525"/>
<text text-anchor="middle" x="236" y="-448.4525" font-family="Helvetica,sans-Serif" font-size="9.00" fill="#000000">image.ts</text>
</a>
</g>
</g>
<!-- src/render&#45;control.ts&#45;&gt;src/widgets/image.ts -->
<g id="edge16" class="edge">
<title>src/render&#45;control.ts&#45;&gt;src/widgets/image.ts</title>
<path fill="none" stroke="#000000" stroke-width="2" stroke-opacity="0.466667" d="M128.9706,-294.9828C130.81,-321.2182 139.7022,-396.2819 182,-435.6525 186.517,-439.8569 192.1102,-442.8987 197.9691,-445.0959"/>
<polygon fill="#000000" fill-opacity="0.466667" stroke="#000000" stroke-width="2" stroke-opacity="0.466667" points="197.3546,-448.5643 207.9371,-448.0525 199.3452,-441.8533 197.3546,-448.5643"/>
</g>
<!-- src/widgets/list.ts -->
<g id="node19" class="node">
<title>src/widgets/list.ts</title>
<g id="a_node19"><a xlink:href="https://github.com/dragonman225/nast-util-to-html/tree/master/src/widgets/list.ts" xlink:title="list.ts">
<path fill="#ddfeff" stroke="#000000" d="M257,-279.6525C257,-279.6525 215,-279.6525 215,-279.6525 212,-279.6525 209,-276.6525 209,-273.6525 209,-273.6525 209,-267.6525 209,-267.6525 209,-264.6525 212,-261.6525 215,-261.6525 215,-261.6525 257,-261.6525 257,-261.6525 260,-261.6525 263,-264.6525 263,-267.6525 263,-267.6525 263,-273.6525 263,-273.6525 263,-276.6525 260,-279.6525 257,-279.6525"/>
<text text-anchor="middle" x="236" y="-268.4525" font-family="Helvetica,sans-Serif" font-size="9.00" fill="#000000">list.ts</text>
</a>
</g>
</g>
<!-- src/render&#45;control.ts&#45;&gt;src/widgets/list.ts -->
<g id="edge17" class="edge">
<title>src/render&#45;control.ts&#45;&gt;src/widgets/list.ts</title>
<path fill="none" stroke="#000000" stroke-width="2" stroke-opacity="0.466667" d="M174.0897,-279.2911C182.2862,-278.1474 190.742,-276.9675 198.6705,-275.8612"/>
<polygon fill="#000000" fill-opacity="0.466667" stroke="#000000" stroke-width="2" stroke-opacity="0.466667" points="199.303,-279.307 208.7234,-274.4585 198.3356,-272.3741 199.303,-279.307"/>
</g>
<!-- src/widgets/quote.ts -->
<g id="node20" class="node">
<title>src/widgets/quote.ts</title>
<g id="a_node20"><a xlink:href="https://github.com/dragonman225/nast-util-to-html/tree/master/src/widgets/quote.ts" xlink:title="quote.ts">
<path fill="#ddfeff" stroke="#000000" d="M257,-429.6525C257,-429.6525 215,-429.6525 215,-429.6525 212,-429.6525 209,-426.6525 209,-423.6525 209,-423.6525 209,-417.6525 209,-417.6525 209,-414.6525 212,-411.6525 215,-411.6525 215,-411.6525 257,-411.6525 257,-411.6525 260,-411.6525 263,-414.6525 263,-417.6525 263,-417.6525 263,-423.6525 263,-423.6525 263,-426.6525 260,-429.6525 257,-429.6525"/>
<text text-anchor="middle" x="236" y="-418.4525" font-family="Helvetica,sans-Serif" font-size="9.00" fill="#000000">quote.ts</text>
</a>
</g>
</g>
<!-- src/render&#45;control.ts&#45;&gt;src/widgets/quote.ts -->
<g id="edge18" class="edge">
<title>src/render&#45;control.ts&#45;&gt;src/widgets/quote.ts</title>
<path fill="none" stroke="#000000" stroke-width="2" stroke-opacity="0.466667" d="M129.8619,-294.735C133.7056,-317.1122 146.7473,-375.2794 182,-405.6525 186.8858,-409.862 192.8615,-412.8973 199.0353,-415.0841"/>
<polygon fill="#000000" fill-opacity="0.466667" stroke="#000000" stroke-width="2" stroke-opacity="0.466667" points="198.1947,-418.484 208.7716,-417.8692 200.1198,-411.7539 198.1947,-418.484"/>
</g>
<!-- src/widgets/text.ts -->
<g id="node21" class="node">
<title>src/widgets/text.ts</title>
<g id="a_node21"><a xlink:href="https://github.com/dragonman225/nast-util-to-html/tree/master/src/widgets/text.ts" xlink:title="text.ts">
<path fill="#ddfeff" stroke="#000000" d="M257,-129.6525C257,-129.6525 215,-129.6525 215,-129.6525 212,-129.6525 209,-126.6525 209,-123.6525 209,-123.6525 209,-117.6525 209,-117.6525 209,-114.6525 212,-111.6525 215,-111.6525 215,-111.6525 257,-111.6525 257,-111.6525 260,-111.6525 263,-114.6525 263,-117.6525 263,-117.6525 263,-123.6525 263,-123.6525 263,-126.6525 260,-129.6525 257,-129.6525"/>
<text text-anchor="middle" x="236" y="-118.4525" font-family="Helvetica,sans-Serif" font-size="9.00" fill="#000000">text.ts</text>
</a>
</g>
</g>
<!-- src/render&#45;control.ts&#45;&gt;src/widgets/text.ts -->
<g id="edge19" class="edge">
<title>src/render&#45;control.ts&#45;&gt;src/widgets/text.ts</title>
<path fill="none" stroke="#000000" stroke-width="2" stroke-opacity="0.466667" d="M128.9706,-276.3221C130.81,-250.0867 139.7022,-175.023 182,-135.6525 186.7674,-131.215 192.7336,-128.0726 198.9458,-125.8513"/>
<polygon fill="#000000" fill-opacity="0.466667" stroke="#000000" stroke-width="2" stroke-opacity="0.466667" points="200.107,-129.1601 208.7733,-123.0653 198.1978,-122.4255 200.107,-129.1601"/>
</g>
<!-- src/widgets/to&#45;do.ts -->
<g id="node22" class="node">
<title>src/widgets/to&#45;do.ts</title>
<g id="a_node22"><a xlink:href="https://github.com/dragonman225/nast-util-to-html/tree/master/src/widgets/to-do.ts" xlink:title="to&#45;do.ts">
<path fill="#ddfeff" stroke="#000000" d="M257,-159.6525C257,-159.6525 215,-159.6525 215,-159.6525 212,-159.6525 209,-156.6525 209,-153.6525 209,-153.6525 209,-147.6525 209,-147.6525 209,-144.6525 212,-141.6525 215,-141.6525 215,-141.6525 257,-141.6525 257,-141.6525 260,-141.6525 263,-144.6525 263,-147.6525 263,-147.6525 263,-153.6525 263,-153.6525 263,-156.6525 260,-159.6525 257,-159.6525"/>
<text text-anchor="middle" x="236" y="-148.4525" font-family="Helvetica,sans-Serif" font-size="9.00" fill="#000000">to&#45;do.ts</text>
</a>
</g>
</g>
<!-- src/render&#45;control.ts&#45;&gt;src/widgets/to&#45;do.ts -->
<g id="edge20" class="edge">
<title>src/render&#45;control.ts&#45;&gt;src/widgets/to&#45;do.ts</title>
<path fill="none" stroke="#000000" stroke-width="2" stroke-opacity="0.466667" d="M129.8619,-276.5699C133.7056,-254.1927 146.7473,-196.0255 182,-165.6525 186.8858,-161.4429 192.8615,-158.4076 199.0353,-156.2208"/>
<polygon fill="#000000" fill-opacity="0.466667" stroke="#000000" stroke-width="2" stroke-opacity="0.466667" points="200.1198,-159.551 208.7716,-153.4358 198.1947,-152.8209 200.1198,-159.551"/>
</g>
<!-- src/widgets/toggle.ts -->
<g id="node23" class="node">
<title>src/widgets/toggle.ts</title>
<g id="a_node23"><a xlink:href="https://github.com/dragonman225/nast-util-to-html/tree/master/src/widgets/toggle.ts" xlink:title="toggle.ts">
<path fill="#ddfeff" stroke="#000000" d="M258,-189.6525C258,-189.6525 214,-189.6525 214,-189.6525 211,-189.6525 208,-186.6525 208,-183.6525 208,-183.6525 208,-177.6525 208,-177.6525 208,-174.6525 211,-171.6525 214,-171.6525 214,-171.6525 258,-171.6525 258,-171.6525 261,-171.6525 264,-174.6525 264,-177.6525 264,-177.6525 264,-183.6525 264,-183.6525 264,-186.6525 261,-189.6525 258,-189.6525"/>
<text text-anchor="middle" x="236" y="-178.4525" font-family="Helvetica,sans-Serif" font-size="9.00" fill="#000000">toggle.ts</text>
</a>
</g>
</g>
<!-- src/render&#45;control.ts&#45;&gt;src/widgets/toggle.ts -->
<g id="edge21" class="edge">
<title>src/render&#45;control.ts&#45;&gt;src/widgets/toggle.ts</title>
<path fill="none" stroke="#000000" stroke-width="2" stroke-opacity="0.466667" d="M131.3687,-276.4245C137.5387,-258.1311 153.8406,-217.18 182,-195.6525 186.7539,-192.0182 192.3401,-189.2644 198.0845,-187.1777"/>
<polygon fill="#000000" fill-opacity="0.466667" stroke="#000000" stroke-width="2" stroke-opacity="0.466667" points="199.2155,-190.4925 207.7821,-184.2583 197.1976,-183.7896 199.2155,-190.4925"/>
</g>
<!-- src/render&#45;utils&#45;prismjs.js -->
<g id="node6" class="node">
<title>src/render&#45;utils&#45;prismjs.js</title>
<g id="a_node6"><a xlink:href="https://github.com/dragonman225/nast-util-to-html/tree/master/src/render-utils-prismjs.js" xlink:title="render&#45;utils&#45;prismjs.js">
<path fill="#ffffcc" stroke="#000000" d="M498,-303.6525C498,-303.6525 396,-303.6525 396,-303.6525 393,-303.6525 390,-300.6525 390,-297.6525 390,-297.6525 390,-291.6525 390,-291.6525 390,-288.6525 393,-285.6525 396,-285.6525 396,-285.6525 498,-285.6525 498,-285.6525 501,-285.6525 504,-288.6525 504,-291.6525 504,-291.6525 504,-297.6525 504,-297.6525 504,-300.6525 501,-303.6525 498,-303.6525"/>
<text text-anchor="middle" x="447" y="-292.4525" font-family="Helvetica,sans-Serif" font-size="9.00" fill="#000000">render&#45;utils&#45;prismjs.js</text>
</a>
</g>
</g>
<!-- src/render&#45;utils.ts&#45;&gt;src/constants.ts -->
<g id="edge22" class="edge">
<title>src/render&#45;utils.ts&#45;&gt;src/constants.ts</title>
<path fill="none" stroke="#000000" stroke-width="2" stroke-opacity="0.466667" d="M357.3937,-270.5793C364.004,-267.0585 371.1611,-262.6607 377,-257.6525 401.9203,-236.2777 423.9326,-204.8215 436.3445,-185.3194"/>
<polygon fill="#000000" fill-opacity="0.466667" stroke="#000000" stroke-width="2" stroke-opacity="0.466667" points="439.3317,-187.1435 441.6371,-176.8025 433.3861,-183.4488 439.3317,-187.1435"/>
</g>
<!-- src/render&#45;utils.ts&#45;&gt;src/log&#45;utils.js -->
<g id="edge23" class="edge">
<title>src/render&#45;utils.ts&#45;&gt;src/log&#45;utils.js</title>
<path fill="none" stroke="#000000" stroke-width="2" stroke-opacity="0.466667" d="M340.7015,-270.4956C348.242,-249.2843 368.1392,-195.335 390,-152.6525 403.7854,-125.7368 422.7668,-96.3011 434.962,-78.1525"/>
<polygon fill="#000000" fill-opacity="0.466667" stroke="#000000" stroke-width="2" stroke-opacity="0.466667" points="437.9358,-80.0034 440.6573,-69.764 432.1445,-76.0714 437.9358,-80.0034"/>
</g>
<!-- src/render&#45;utils.ts&#45;&gt;src/notion&#45;utils.js -->
<g id="edge24" class="edge">
<title>src/render&#45;utils.ts&#45;&gt;src/notion&#45;utils.js</title>
<path fill="none" stroke="#000000" stroke-width="2" stroke-opacity="0.466667" d="M377.032,-274.2371C383.8644,-273.3012 391.0402,-272.3182 398.0857,-271.3531"/>
<polygon fill="#000000" fill-opacity="0.466667" stroke="#000000" stroke-width="2" stroke-opacity="0.466667" points="398.8271,-274.7843 408.2596,-269.9594 397.877,-267.849 398.8271,-274.7843"/>
</g>
<!-- src/render&#45;utils.ts&#45;&gt;src/render&#45;utils&#45;prismjs.js -->
<g id="edge25" class="edge">
<title>src/render&#45;utils.ts&#45;&gt;src/render&#45;utils&#45;prismjs.js</title>
<path fill="none" stroke="#000000" stroke-width="2" stroke-opacity="0.466667" d="M377.032,-285.0678C377.9433,-285.1926 378.8606,-285.3183 379.7829,-285.4446"/>
<polygon fill="#000000" fill-opacity="0.466667" stroke="#000000" stroke-width="2" stroke-opacity="0.466667" points="379.4221,-288.9278 389.8046,-286.8175 380.3722,-281.9926 379.4221,-288.9278"/>
</g>
<!-- src/widgets/audio.ts&#45;&gt;src/render&#45;utils.ts -->
<g id="edge26" class="edge">
<title>src/widgets/audio.ts&#45;&gt;src/render&#45;utils.ts</title>
<path fill="none" stroke="#000000" stroke-width="2" stroke-opacity="0.466667" d="M263.0886,-387.7036C272.4253,-385.5726 282.4279,-381.9165 290,-375.6525 314.1467,-355.6772 327.0865,-320.398 333.1102,-298.6211"/>
<polygon fill="#000000" fill-opacity="0.466667" stroke="#000000" stroke-width="2" stroke-opacity="0.466667" points="336.515,-299.4332 335.5917,-288.8787 329.7316,-297.7053 336.515,-299.4332"/>
</g>
<!-- src/widgets/bookmark.ts&#45;&gt;src/render&#45;utils.ts -->
<g id="edge27" class="edge">
<title>src/widgets/bookmark.ts&#45;&gt;src/render&#45;utils.ts</title>
<path fill="none" stroke="#000000" stroke-width="2" stroke-opacity="0.466667" d="M272.6608,-354.1039C278.7778,-352.0178 284.8124,-349.2702 290,-345.6525 307.3116,-333.5799 320.603,-313.0992 328.6659,-298.148"/>
<polygon fill="#000000" fill-opacity="0.466667" stroke="#000000" stroke-width="2" stroke-opacity="0.466667" points="331.9806,-299.3516 333.3977,-288.8519 325.7422,-296.1762 331.9806,-299.3516"/>
</g>
<!-- src/widgets/callout.ts&#45;&gt;src/constants.ts -->
<g id="edge28" class="edge">
<title>src/widgets/callout.ts&#45;&gt;src/constants.ts</title>
<path fill="none" stroke="#000000" stroke-width="2" stroke-opacity="0.466667" d="M265.3386,-204.6735C300.5925,-197.489 360.1414,-185.3535 401.4043,-176.9445"/>
<polygon fill="#000000" fill-opacity="0.466667" stroke="#000000" stroke-width="2" stroke-opacity="0.466667" points="402.1145,-180.3718 411.2142,-174.9453 400.7167,-173.5127 402.1145,-180.3718"/>
</g>
<!-- src/widgets/callout.ts&#45;&gt;src/render&#45;utils.ts -->
<g id="edge29" class="edge">
<title>src/widgets/callout.ts&#45;&gt;src/render&#45;utils.ts</title>
<path fill="none" stroke="#000000" stroke-width="2" stroke-opacity="0.466667" d="M265.0326,-215.4509C273.5072,-217.6928 282.4989,-220.9481 290,-225.6525 304.8352,-234.9565 317.6722,-250.2737 326.2477,-262.2229"/>
<polygon fill="#000000" fill-opacity="0.466667" stroke="#000000" stroke-width="2" stroke-opacity="0.466667" points="323.4054,-264.2671 331.9373,-270.5486 329.1848,-260.3176 323.4054,-264.2671"/>
</g>
<!-- src/widgets/code.ts&#45;&gt;src/render&#45;utils.ts -->
<g id="edge30" class="edge">
<title>src/widgets/code.ts&#45;&gt;src/render&#45;utils.ts</title>
<path fill="none" stroke="#000000" stroke-width="2" stroke-opacity="0.466667" d="M263.1044,-325.2556C271.9426,-322.9426 281.6291,-319.7971 290,-315.6525 300.7103,-310.3495 311.4251,-302.5036 319.9603,-295.4889"/>
<polygon fill="#000000" fill-opacity="0.466667" stroke="#000000" stroke-width="2" stroke-opacity="0.466667" points="322.3656,-298.0371 327.6879,-288.8761 317.8144,-292.7186 322.3656,-298.0371"/>
</g>
<!-- src/widgets/collection.ts&#45;&gt;src/constants.ts -->
<g id="edge31" class="edge">
<title>src/widgets/collection.ts&#45;&gt;src/constants.ts</title>
<path fill="none" stroke="#000000" stroke-width="2" stroke-opacity="0.466667" d="M268.8529,-99.7281C275.8368,-101.6715 283.1647,-103.7211 290,-105.6525 328.7156,-116.592 339.6839,-115.6167 377,-130.6525 392.9025,-137.0601 409.9256,-146.0069 423.2024,-153.4976"/>
<polygon fill="#000000" fill-opacity="0.466667" stroke="#000000" stroke-width="2" stroke-opacity="0.466667" points="421.7249,-156.6854 432.1383,-158.6375 425.2151,-150.6176 421.7249,-156.6854"/>
</g>
<!-- src/widgets/collection.ts&#45;&gt;src/log&#45;utils.js -->
<g id="edge32" class="edge">
<title>src/widgets/collection.ts&#45;&gt;src/log&#45;utils.js</title>
<path fill="none" stroke="#000000" stroke-width="2" stroke-opacity="0.466667" d="M271.7933,-85.5634C308.9218,-80.2844 366.899,-72.0412 405.8841,-66.4983"/>
<polygon fill="#000000" fill-opacity="0.466667" stroke="#000000" stroke-width="2" stroke-opacity="0.466667" points="406.4443,-69.954 415.852,-65.0811 405.4589,-63.0237 406.4443,-69.954"/>
</g>
<!-- src/widgets/collection.ts&#45;&gt;src/render&#45;utils.ts -->
<g id="edge33" class="edge">
<title>src/widgets/collection.ts&#45;&gt;src/render&#45;utils.ts</title>
<path fill="none" stroke="#000000" stroke-width="2" stroke-opacity="0.466667" d="M271.649,-94.9723C278.4444,-97.2362 284.9887,-100.6188 290,-105.6525 311.9107,-127.6609 328.3839,-220.0223 334.6919,-260.5038"/>
<polygon fill="#000000" fill-opacity="0.466667" stroke="#000000" stroke-width="2" stroke-opacity="0.466667" points="331.2394,-261.0814 336.1976,-270.4444 338.1604,-260.033 331.2394,-261.0814"/>
</g>
<!-- src/widgets/column&#45;helper.ts&#45;&gt;src/constants.ts -->
<g id="edge34" class="edge">
<title>src/widgets/column&#45;helper.ts&#45;&gt;src/constants.ts</title>
<path fill="none" stroke="#000000" stroke-width="2" stroke-opacity="0.466667" d="M282.283,-69.5558C310.8976,-76.3695 347.6374,-87.5554 377,-104.6525 398.26,-117.0316 418.7111,-136.6233 431.9595,-150.6723"/>
<polygon fill="#000000" fill-opacity="0.466667" stroke="#000000" stroke-width="2" stroke-opacity="0.466667" points="429.5374,-153.2093 438.8793,-158.2073 434.6931,-148.4745 429.5374,-153.2093"/>
</g>
<!-- src/widgets/column&#45;helper.ts&#45;&gt;src/log&#45;utils.js -->
<g id="edge35" class="edge">
<title>src/widgets/column&#45;helper.ts&#45;&gt;src/log&#45;utils.js</title>
<path fill="none" stroke="#000000" stroke-width="2" stroke-opacity="0.466667" d="M282.0441,-60.6525C318.9058,-60.6525 370.1458,-60.6525 405.6957,-60.6525"/>
<polygon fill="#000000" fill-opacity="0.466667" stroke="#000000" stroke-width="2" stroke-opacity="0.466667" points="405.7359,-64.1526 415.7358,-60.6525 405.7358,-57.1526 405.7359,-64.1526"/>
</g>
<!-- src/widgets/column&#45;helper.ts&#45;&gt;src/render&#45;utils.ts -->
<g id="edge36" class="edge">
<title>src/widgets/column&#45;helper.ts&#45;&gt;src/render&#45;utils.ts</title>
<path fill="none" stroke="#000000" stroke-width="2" stroke-opacity="0.466667" d="M282.2305,-69.5414C285.0768,-71.2461 287.7106,-73.2644 290,-75.6525 315.5192,-102.2714 330.4167,-214.7516 335.5055,-260.3412"/>
<polygon fill="#000000" fill-opacity="0.466667" stroke="#000000" stroke-width="2" stroke-opacity="0.466667" points="332.0378,-260.8298 336.5885,-270.3976 338.9976,-260.0803 332.0378,-260.8298"/>
</g>
<!-- src/widgets/divider.ts&#45;&gt;src/render&#45;utils.ts -->
<g id="edge37" class="edge">
<title>src/widgets/divider.ts&#45;&gt;src/render&#45;utils.ts</title>
<path fill="none" stroke="#000000" stroke-width="2" stroke-opacity="0.466667" d="M265.0858,-294.6347C272.2527,-293.1519 280.1293,-291.5223 287.9671,-289.9006"/>
<polygon fill="#000000" fill-opacity="0.466667" stroke="#000000" stroke-width="2" stroke-opacity="0.466667" points="288.7345,-293.3161 297.818,-287.8625 287.3162,-286.4613 288.7345,-293.3161"/>
</g>
<!-- src/widgets/embed.ts&#45;&gt;src/render&#45;utils.ts -->
<g id="edge38" class="edge">
<title>src/widgets/embed.ts&#45;&gt;src/render&#45;utils.ts</title>
<path fill="none" stroke="#000000" stroke-width="2" stroke-opacity="0.466667" d="M265.6686,-508.2803C274.5694,-506.1602 283.6443,-502.3642 290,-495.6525 317.0114,-467.1278 331.1898,-346.1964 335.7925,-298.81"/>
<polygon fill="#000000" fill-opacity="0.466667" stroke="#000000" stroke-width="2" stroke-opacity="0.466667" points="339.2933,-298.9636 336.7375,-288.6816 332.3236,-298.3132 339.2933,-298.9636"/>
</g>
<!-- src/widgets/equation.ts&#45;&gt;src/render&#45;utils.ts -->
<g id="edge39" class="edge">
<title>src/widgets/equation.ts&#45;&gt;src/render&#45;utils.ts</title>
<path fill="none" stroke="#000000" stroke-width="2" stroke-opacity="0.466667" d="M269.753,-477.0173C277.238,-474.7642 284.5538,-471.2138 290,-465.6525 313.3324,-441.8269 329.2123,-341.5921 335.0333,-298.9665"/>
<polygon fill="#000000" fill-opacity="0.466667" stroke="#000000" stroke-width="2" stroke-opacity="0.466667" points="338.508,-299.3879 336.351,-289.015 331.5686,-298.469 338.508,-299.3879"/>
</g>
<!-- src/widgets/heading.ts&#45;&gt;src/constants.ts -->
<g id="edge40" class="edge">
<title>src/widgets/heading.ts&#45;&gt;src/constants.ts</title>
<path fill="none" stroke="#000000" stroke-width="2" stroke-opacity="0.466667" d="M268.1089,-232.1971C275.3429,-230.1636 282.9616,-227.9203 290,-225.6525 333.6736,-211.5806 383.2048,-192.8005 414.7499,-180.4748"/>
<polygon fill="#000000" fill-opacity="0.466667" stroke="#000000" stroke-width="2" stroke-opacity="0.466667" points="416.3003,-183.6263 424.3296,-176.7139 413.7422,-177.1104 416.3003,-183.6263"/>
</g>
<!-- src/widgets/heading.ts&#45;&gt;src/render&#45;utils.ts -->
<g id="edge41" class="edge">
<title>src/widgets/heading.ts&#45;&gt;src/render&#45;utils.ts</title>
<path fill="none" stroke="#000000" stroke-width="2" stroke-opacity="0.466667" d="M268.0353,-248.4301C275.3442,-250.5126 283.0133,-252.9474 290,-255.6525 297.4637,-258.5422 305.3151,-262.2243 312.4371,-265.8316"/>
<polygon fill="#000000" fill-opacity="0.466667" stroke="#000000" stroke-width="2" stroke-opacity="0.466667" points="311.1092,-269.087 321.5921,-270.623 314.3551,-262.885 311.1092,-269.087"/>
</g>
<!-- src/widgets/image.ts&#45;&gt;src/render&#45;utils.ts -->
<g id="edge42" class="edge">
<title>src/widgets/image.ts&#45;&gt;src/render&#45;utils.ts</title>
<path fill="none" stroke="#000000" stroke-width="2" stroke-opacity="0.466667" d="M264.2392,-448.2375C273.4675,-446.1468 283.1053,-442.3794 290,-435.6525 309.7414,-416.3912 326.9482,-336.0812 334.0427,-298.8096"/>
<polygon fill="#000000" fill-opacity="0.466667" stroke="#000000" stroke-width="2" stroke-opacity="0.466667" points="337.528,-299.2103 335.9114,-288.7395 330.6455,-297.933 337.528,-299.2103"/>
</g>
<!-- src/widgets/list.ts&#45;&gt;src/constants.ts -->
<g id="edge43" class="edge">
<title>src/widgets/list.ts&#45;&gt;src/constants.ts</title>
<path fill="none" stroke="#000000" stroke-width="2" stroke-opacity="0.466667" d="M263.2408,-264.1565C271.9063,-261.8067 281.4563,-258.9171 290,-255.6525 341.0955,-236.1282 395.724,-202.1574 425.1619,-182.6268"/>
<polygon fill="#000000" fill-opacity="0.466667" stroke="#000000" stroke-width="2" stroke-opacity="0.466667" points="427.4459,-185.3092 433.7981,-176.8298 423.5446,-179.4971 427.4459,-185.3092"/>
</g>
<!-- src/widgets/list.ts&#45;&gt;src/render&#45;utils.ts -->
<g id="edge44" class="edge">
<title>src/widgets/list.ts&#45;&gt;src/render&#45;utils.ts</title>
<path fill="none" stroke="#000000" stroke-width="2" stroke-opacity="0.466667" d="M263.2001,-273.0643C270.7147,-273.7306 279.1143,-274.4754 287.4873,-275.2178"/>
<polygon fill="#000000" fill-opacity="0.466667" stroke="#000000" stroke-width="2" stroke-opacity="0.466667" points="287.3557,-278.7198 297.6258,-276.1168 287.974,-271.7472 287.3557,-278.7198"/>
</g>
<!-- src/widgets/quote.ts&#45;&gt;src/render&#45;utils.ts -->
<g id="edge45" class="edge">
<title>src/widgets/quote.ts&#45;&gt;src/render&#45;utils.ts</title>
<path fill="none" stroke="#000000" stroke-width="2" stroke-opacity="0.466667" d="M263.1613,-418.1687C272.6147,-416.0905 282.6751,-412.349 290,-405.6525 321.0876,-377.2315 331.9447,-326.4023 335.649,-298.7856"/>
<polygon fill="#000000" fill-opacity="0.466667" stroke="#000000" stroke-width="2" stroke-opacity="0.466667" points="339.1303,-299.1489 336.807,-288.8119 332.177,-298.3415 339.1303,-299.1489"/>
</g>
<!-- src/widgets/text.ts&#45;&gt;src/constants.ts -->
<g id="edge46" class="edge">
<title>src/widgets/text.ts&#45;&gt;src/constants.ts</title>
<path fill="none" stroke="#000000" stroke-width="2" stroke-opacity="0.466667" d="M263.1526,-126.7007C298.0106,-134.4652 359.0109,-148.053 401.1304,-157.435"/>
<polygon fill="#000000" fill-opacity="0.466667" stroke="#000000" stroke-width="2" stroke-opacity="0.466667" points="400.6168,-160.9064 411.1386,-159.6644 402.1388,-154.0738 400.6168,-160.9064"/>
</g>
<!-- src/widgets/text.ts&#45;&gt;src/render&#45;utils.ts -->
<g id="edge47" class="edge">
<title>src/widgets/text.ts&#45;&gt;src/render&#45;utils.ts</title>
<path fill="none" stroke="#000000" stroke-width="2" stroke-opacity="0.466667" d="M263.037,-122.9112C272.5883,-124.9579 282.7466,-128.7369 290,-135.6525 308.3098,-153.1095 325.9006,-225.522 333.5314,-260.5313"/>
<polygon fill="#000000" fill-opacity="0.466667" stroke="#000000" stroke-width="2" stroke-opacity="0.466667" points="330.141,-261.4149 335.6473,-270.4665 336.9875,-259.9568 330.141,-261.4149"/>
</g>
<!-- src/widgets/to&#45;do.ts&#45;&gt;src/constants.ts -->
<g id="edge48" class="edge">
<title>src/widgets/to&#45;do.ts&#45;&gt;src/constants.ts</title>
<path fill="none" stroke="#000000" stroke-width="2" stroke-opacity="0.466667" d="M263.1526,-152.8401C298.0106,-155.6486 359.0109,-160.5633 401.1304,-163.9568"/>
<polygon fill="#000000" fill-opacity="0.466667" stroke="#000000" stroke-width="2" stroke-opacity="0.466667" points="400.8898,-167.4487 411.1386,-164.7631 401.452,-160.4713 400.8898,-167.4487"/>
</g>
<!-- src/widgets/to&#45;do.ts&#45;&gt;src/render&#45;utils.ts -->
<g id="edge49" class="edge">
<title>src/widgets/to&#45;do.ts&#45;&gt;src/render&#45;utils.ts</title>
<path fill="none" stroke="#000000" stroke-width="2" stroke-opacity="0.466667" d="M263.0379,-153.2736C272.4779,-155.3666 282.5614,-159.0825 290,-165.6525 318.2773,-190.628 330.1231,-235.1287 334.7663,-260.5138"/>
<polygon fill="#000000" fill-opacity="0.466667" stroke="#000000" stroke-width="2" stroke-opacity="0.466667" points="331.3154,-261.0988 336.3843,-270.4024 338.2235,-259.9684 331.3154,-261.0988"/>
</g>
<!-- src/widgets/toggle.ts&#45;&gt;src/constants.ts -->
<g id="edge50" class="edge">
<title>src/widgets/toggle.ts&#45;&gt;src/constants.ts</title>
<path fill="none" stroke="#000000" stroke-width="2" stroke-opacity="0.466667" d="M264.0192,-178.9262C299.0527,-176.7677 359.4911,-173.044 401.2686,-170.47"/>
<polygon fill="#000000" fill-opacity="0.466667" stroke="#000000" stroke-width="2" stroke-opacity="0.466667" points="401.6953,-173.9505 411.4611,-169.8421 401.2648,-166.9637 401.6953,-173.9505"/>
</g>
<!-- src/widgets/toggle.ts&#45;&gt;src/render&#45;utils.ts -->
<g id="edge51" class="edge">
<title>src/widgets/toggle.ts&#45;&gt;src/render&#45;utils.ts</title>
<path fill="none" stroke="#000000" stroke-width="2" stroke-opacity="0.466667" d="M264.012,-184.0965C273.011,-186.278 282.5646,-189.8394 290,-195.6525 311.3936,-212.3781 324.7384,-241.5988 331.6503,-260.7866"/>
<polygon fill="#000000" fill-opacity="0.466667" stroke="#000000" stroke-width="2" stroke-opacity="0.466667" points="328.4145,-262.1459 334.9139,-270.513 335.0509,-259.919 328.4145,-262.1459"/>
</g>
</g>
</svg>
