<?xml version="1.0" encoding="UTF-8" standalone="no"?>
<!DOCTYPE svg PUBLIC "-//W3C//DTD SVG 1.1//EN"
 "http://www.w3.org/Graphics/SVG/1.1/DTD/svg11.dtd">
<!-- Generated by graphviz version 2.40.1 (0)
 -->
<!-- Title: dependency&#45;cruiser output Pages: 1 -->
<svg width="527pt" height="425pt"
 viewBox="0.00 0.00 527.00 424.54" xmlns="http://www.w3.org/2000/svg" xmlns:xlink="http://www.w3.org/1999/xlink">
<g id="graph0" class="graph" transform="scale(1 1) rotate(0) translate(4 420.5429)">
<title>dependency&#45;cruiser output</title>
<polygon fill="#ffffff" stroke="transparent" points="-4,4 -4,-420.5429 523,-420.5429 523,4 -4,4"/>
<g id="clust1" class="cluster">
<title>cluster_src</title>
<path fill="#ffffff" stroke="#000000" stroke-width="2" d="M20,-20.5429C20,-20.5429 499,-20.5429 499,-20.5429 505,-20.5429 511,-26.5429 511,-32.5429 511,-32.5429 511,-396.5429 511,-396.5429 511,-402.5429 505,-408.5429 499,-408.5429 499,-408.5429 20,-408.5429 20,-408.5429 14,-408.5429 8,-402.5429 8,-396.5429 8,-396.5429 8,-32.5429 8,-32.5429 8,-26.5429 14,-20.5429 20,-20.5429"/>
<text text-anchor="middle" x="259.5" y="-397.3429" font-family="Helvetica,sans-Serif" font-weight="bold" font-size="9.00" fill="#000000">src</text>
</g>
<g id="clust2" class="cluster">
<title>cluster_src/widgets</title>
<path fill="#ffffff" stroke="#000000" stroke-width="2" d="M195,-38.5429C195,-38.5429 367,-38.5429 367,-38.5429 373,-38.5429 379,-44.5429 379,-50.5429 379,-50.5429 379,-288.5429 379,-288.5429 379,-294.5429 373,-300.5429 367,-300.5429 367,-300.5429 195,-300.5429 195,-300.5429 189,-300.5429 183,-294.5429 183,-288.5429 183,-288.5429 183,-50.5429 183,-50.5429 183,-44.5429 189,-38.5429 195,-38.5429"/>
<text text-anchor="middle" x="281" y="-289.3429" font-family="Helvetica,sans-Serif" font-weight="bold" font-size="9.00" fill="#000000">widgets</text>
</g>
<!-- src/block&#45;map.js -->
<g id="node1" class="node">
<title>src/block&#45;map.js</title>
<g id="a_node1"><a xlink:href="https://github.com/dragonman225/nast-util-to-html/tree/master/src/block-map.js" xlink:title="block&#45;map.js">
<path fill="#ffffcc" stroke="#000000" d="M476,-152.5429C476,-152.5429 414,-152.5429 414,-152.5429 411,-152.5429 408,-149.5429 408,-146.5429 408,-146.5429 408,-140.5429 408,-140.5429 408,-137.5429 411,-134.5429 414,-134.5429 414,-134.5429 476,-134.5429 476,-134.5429 479,-134.5429 482,-137.5429 482,-140.5429 482,-140.5429 482,-146.5429 482,-146.5429 482,-149.5429 479,-152.5429 476,-152.5429"/>
<text text-anchor="middle" x="445" y="-141.3429" font-family="Helvetica,sans-Serif" font-size="9.00" fill="#000000">block&#45;map.js</text>
</a>
</g>
</g>
<!-- src/code&#45;language&#45;map.js -->
<g id="node2" class="node">
<title>src/code&#45;language&#45;map.js</title>
<g id="a_node2"><a xlink:href="https://github.com/dragonman225/nast-util-to-html/tree/master/src/code-language-map.js" xlink:title="code&#45;language&#45;map.js">
<path fill="#ffffcc" stroke="#000000" d="M497,-289.5429C497,-289.5429 393,-289.5429 393,-289.5429 390,-289.5429 387,-286.5429 387,-283.5429 387,-283.5429 387,-277.5429 387,-277.5429 387,-274.5429 390,-271.5429 393,-271.5429 393,-271.5429 497,-271.5429 497,-271.5429 500,-271.5429 503,-274.5429 503,-277.5429 503,-277.5429 503,-283.5429 503,-283.5429 503,-286.5429 500,-289.5429 497,-289.5429"/>
<text text-anchor="middle" x="445" y="-278.3429" font-family="Helvetica,sans-Serif" font-size="9.00" fill="#000000">code&#45;language&#45;map.js</text>
</a>
</g>
</g>
<!-- src/color&#45;map.js -->
<g id="node3" class="node">
<title>src/color&#45;map.js</title>
<g id="a_node3"><a xlink:href="https://github.com/dragonman225/nast-util-to-html/tree/master/src/color-map.js" xlink:title="color&#45;map.js">
<path fill="#ffffcc" stroke="#000000" d="M474.5,-349.5429C474.5,-349.5429 415.5,-349.5429 415.5,-349.5429 412.5,-349.5429 409.5,-346.5429 409.5,-343.5429 409.5,-343.5429 409.5,-337.5429 409.5,-337.5429 409.5,-334.5429 412.5,-331.5429 415.5,-331.5429 415.5,-331.5429 474.5,-331.5429 474.5,-331.5429 477.5,-331.5429 480.5,-334.5429 480.5,-337.5429 480.5,-337.5429 480.5,-343.5429 480.5,-343.5429 480.5,-346.5429 477.5,-349.5429 474.5,-349.5429"/>
<text text-anchor="middle" x="445" y="-338.3429" font-family="Helvetica,sans-Serif" font-size="9.00" fill="#000000">color&#45;map.js</text>
</a>
</g>
</g>
<!-- src/index.ts -->
<g id="node4" class="node">
<title>src/index.ts</title>
<g id="a_node4"><a xlink:href="https://github.com/dragonman225/nast-util-to-html/tree/master/src/index.ts" xlink:title="index.ts">
<path fill="#ddfeff" stroke="#000000" d="M64,-288.5429C64,-288.5429 22,-288.5429 22,-288.5429 19,-288.5429 16,-285.5429 16,-282.5429 16,-282.5429 16,-276.5429 16,-276.5429 16,-273.5429 19,-270.5429 22,-270.5429 22,-270.5429 64,-270.5429 64,-270.5429 67,-270.5429 70,-273.5429 70,-276.5429 70,-276.5429 70,-282.5429 70,-282.5429 70,-285.5429 67,-288.5429 64,-288.5429"/>
<text text-anchor="middle" x="43" y="-277.3429" font-family="Helvetica,sans-Serif" font-size="9.00" fill="#000000">index.ts</text>
</a>
</g>
</g>
<!-- src/render&#45;control.ts -->
<g id="node8" class="node">
<title>src/render&#45;control.ts</title>
<g id="a_node8"><a xlink:href="https://github.com/dragonman225/nast-util-to-html/tree/master/src/render-control.ts" xlink:title="render&#45;control.ts">
<path fill="#ddfeff" stroke="#000000" d="M169,-214.5429C169,-214.5429 89,-214.5429 89,-214.5429 86,-214.5429 83,-211.5429 83,-208.5429 83,-208.5429 83,-202.5429 83,-202.5429 83,-199.5429 86,-196.5429 89,-196.5429 89,-196.5429 169,-196.5429 169,-196.5429 172,-196.5429 175,-199.5429 175,-202.5429 175,-202.5429 175,-208.5429 175,-208.5429 175,-211.5429 172,-214.5429 169,-214.5429"/>
<text text-anchor="middle" x="129" y="-203.3429" font-family="Helvetica,sans-Serif" font-size="9.00" fill="#000000">render&#45;control.ts</text>
</a>
</g>
</g>
<!-- src/index.ts&#45;&gt;src/render&#45;control.ts -->
<g id="edge1" class="edge">
<title>src/index.ts&#45;&gt;src/render&#45;control.ts</title>
<path fill="none" stroke="#000000" stroke-width="2" stroke-opacity="0.466667" d="M53.5453,-270.469C67.7299,-258.2637 93.1793,-236.3654 110.5657,-221.405"/>
<polygon fill="#000000" fill-opacity="0.466667" stroke="#000000" stroke-width="2" stroke-opacity="0.466667" points="113.0712,-223.8664 118.3685,-214.6909 108.5055,-218.5603 113.0712,-223.8664"/>
</g>
<!-- src/render&#45;utils.js -->
<g id="node9" class="node">
<title>src/render&#45;utils.js</title>
<g id="a_node9"><a xlink:href="https://github.com/dragonman225/nast-util-to-html/tree/master/src/render-utils.js" xlink:title="render&#45;utils.js">
<path fill="#ffffcc" stroke="#000000" d="M368,-326.5429C368,-326.5429 302,-326.5429 302,-326.5429 299,-326.5429 296,-323.5429 296,-320.5429 296,-320.5429 296,-314.5429 296,-314.5429 296,-311.5429 299,-308.5429 302,-308.5429 302,-308.5429 368,-308.5429 368,-308.5429 371,-308.5429 374,-311.5429 374,-314.5429 374,-314.5429 374,-320.5429 374,-320.5429 374,-323.5429 371,-326.5429 368,-326.5429"/>
<text text-anchor="middle" x="335" y="-315.3429" font-family="Helvetica,sans-Serif" font-size="9.00" fill="#000000">render&#45;utils.js</text>
</a>
</g>
</g>
<!-- src/index.ts&#45;&gt;src/render&#45;utils.js -->
<g id="edge2" class="edge">
<title>src/index.ts&#45;&gt;src/render&#45;utils.js</title>
<path fill="none" stroke="#000000" stroke-width="2" stroke-opacity="0.466667" d="M56.5436,-288.5923C80.6957,-304.1239 133.336,-335.2711 183,-346.5429 226.3422,-356.3798 239.9856,-357.7265 283,-346.5429 294.1046,-343.6557 305.3557,-337.8201 314.5384,-332.1358"/>
<polygon fill="#000000" fill-opacity="0.466667" stroke="#000000" stroke-width="2" stroke-opacity="0.466667" points="316.509,-335.029 322.9497,-326.6167 312.6687,-329.1764 316.509,-335.029"/>
</g>
<!-- src/log&#45;utils.js -->
<g id="node5" class="node">
<title>src/log&#45;utils.js</title>
<g id="a_node5"><a xlink:href="https://github.com/dragonman225/nast-util-to-html/tree/master/src/log-utils.js" xlink:title="log&#45;utils.js">
<path fill="#ffffcc" stroke="#000000" d="M470,-379.5429C470,-379.5429 420,-379.5429 420,-379.5429 417,-379.5429 414,-376.5429 414,-373.5429 414,-373.5429 414,-367.5429 414,-367.5429 414,-364.5429 417,-361.5429 420,-361.5429 420,-361.5429 470,-361.5429 470,-361.5429 473,-361.5429 476,-364.5429 476,-367.5429 476,-367.5429 476,-373.5429 476,-373.5429 476,-376.5429 473,-379.5429 470,-379.5429"/>
<text text-anchor="middle" x="445" y="-368.3429" font-family="Helvetica,sans-Serif" font-size="9.00" fill="#000000">log&#45;utils.js</text>
</a>
</g>
</g>
<!-- src/notion&#45;utils.js -->
<g id="node6" class="node">
<title>src/notion&#45;utils.js</title>
<g id="a_node6"><a xlink:href="https://github.com/dragonman225/nast-util-to-html/tree/master/src/notion-utils.js" xlink:title="notion&#45;utils.js">
<path fill="#ffffcc" stroke="#000000" d="M477.5,-319.5429C477.5,-319.5429 412.5,-319.5429 412.5,-319.5429 409.5,-319.5429 406.5,-316.5429 406.5,-313.5429 406.5,-313.5429 406.5,-307.5429 406.5,-307.5429 406.5,-304.5429 409.5,-301.5429 412.5,-301.5429 412.5,-301.5429 477.5,-301.5429 477.5,-301.5429 480.5,-301.5429 483.5,-304.5429 483.5,-307.5429 483.5,-307.5429 483.5,-313.5429 483.5,-313.5429 483.5,-316.5429 480.5,-319.5429 477.5,-319.5429"/>
<text text-anchor="middle" x="445" y="-308.3429" font-family="Helvetica,sans-Serif" font-size="9.00" fill="#000000">notion&#45;utils.js</text>
</a>
</g>
</g>
<!-- src/render&#45;blocks.js -->
<g id="node7" class="node">
<title>src/render&#45;blocks.js</title>
<g id="a_node7"><a xlink:href="https://github.com/dragonman225/nast-util-to-html/tree/master/src/render-blocks.js" xlink:title="render&#45;blocks.js">
<path fill="#ffffcc" stroke="#000000" d="M275,-340.5429C275,-340.5429 199,-340.5429 199,-340.5429 196,-340.5429 193,-337.5429 193,-334.5429 193,-334.5429 193,-328.5429 193,-328.5429 193,-325.5429 196,-322.5429 199,-322.5429 199,-322.5429 275,-322.5429 275,-322.5429 278,-322.5429 281,-325.5429 281,-328.5429 281,-328.5429 281,-334.5429 281,-334.5429 281,-337.5429 278,-340.5429 275,-340.5429"/>
<text text-anchor="middle" x="237" y="-329.3429" font-family="Helvetica,sans-Serif" font-size="9.00" fill="#000000">render&#45;blocks.js</text>
</a>
</g>
</g>
<!-- src/render&#45;blocks.js&#45;&gt;src/color&#45;map.js -->
<g id="edge3" class="edge">
<title>src/render&#45;blocks.js&#45;&gt;src/color&#45;map.js</title>
<path fill="none" stroke="#000000" stroke-width="2" stroke-opacity="0.466667" d="M281.1115,-333.4515C315.8433,-334.9544 364.0932,-337.0421 399.2429,-338.563"/>
<polygon fill="#000000" fill-opacity="0.466667" stroke="#000000" stroke-width="2" stroke-opacity="0.466667" points="399.1015,-342.0601 409.2435,-338.9957 399.4042,-335.0666 399.1015,-342.0601"/>
</g>
<!-- src/render&#45;blocks.js&#45;&gt;src/render&#45;utils.js -->
<g id="edge4" class="edge">
<title>src/render&#45;blocks.js&#45;&gt;src/render&#45;utils.js</title>
<path fill="none" stroke="#000000" stroke-width="2" stroke-opacity="0.466667" d="M281.1263,-325.2391C282.6504,-325.0214 284.1809,-324.8027 285.7118,-324.584"/>
<polygon fill="#000000" fill-opacity="0.466667" stroke="#000000" stroke-width="2" stroke-opacity="0.466667" points="286.3527,-328.0281 295.7572,-323.149 285.3627,-321.0985 286.3527,-328.0281"/>
</g>
<!-- src/render&#45;control.ts&#45;&gt;src/block&#45;map.js -->
<g id="edge5" class="edge">
<title>src/render&#45;control.ts&#45;&gt;src/block&#45;map.js</title>
<path fill="none" stroke="#000000" stroke-width="2" stroke-opacity="0.466667" d="M130.4899,-196.2899C135.9376,-163.736 155.8828,-55.3815 183,-35.5429 253.3052,15.8918 303.0221,7.0682 379,-35.5429 413.0429,-54.6353 431.6187,-99.2271 439.8019,-124.7414"/>
<polygon fill="#000000" fill-opacity="0.466667" stroke="#000000" stroke-width="2" stroke-opacity="0.466667" points="436.4659,-125.8023 442.6875,-134.3781 443.1718,-123.7943 436.4659,-125.8023"/>
</g>
<!-- src/render&#45;control.ts&#45;&gt;src/log&#45;utils.js -->
<g id="edge6" class="edge">
<title>src/render&#45;control.ts&#45;&gt;src/log&#45;utils.js</title>
<path fill="none" stroke="#000000" stroke-width="2" stroke-opacity="0.466667" d="M129.4597,-214.6031C131.276,-240.0267 140.1555,-312.3997 183,-346.5429 246.2209,-396.9242 347.2519,-389.1147 403.5964,-379.4942"/>
<polygon fill="#000000" fill-opacity="0.466667" stroke="#000000" stroke-width="2" stroke-opacity="0.466667" points="404.3598,-382.913 413.578,-377.6903 403.1149,-376.0246 404.3598,-382.913"/>
</g>
<!-- src/render&#45;control.ts&#45;&gt;src/render&#45;blocks.js -->
<g id="edge7" class="edge">
<title>src/render&#45;control.ts&#45;&gt;src/render&#45;blocks.js</title>
<path fill="none" stroke="#000000" stroke-width="2" stroke-opacity="0.466667" d="M131.0746,-214.8423C136.1839,-235.6067 151.3266,-286.0727 183,-313.5429 184.7287,-315.0422 186.5865,-316.4175 188.5359,-317.6791"/>
<polygon fill="#000000" fill-opacity="0.466667" stroke="#000000" stroke-width="2" stroke-opacity="0.466667" points="187.086,-320.873 197.5532,-322.5129 190.3933,-314.7035 187.086,-320.873"/>
</g>
<!-- src/render&#45;control.ts&#45;&gt;src/render&#45;utils.js -->
<g id="edge8" class="edge">
<title>src/render&#45;control.ts&#45;&gt;src/render&#45;utils.js</title>
<path fill="none" stroke="#000000" stroke-width="2" stroke-opacity="0.466667" d="M131.0284,-214.8062C135.9657,-234.8981 150.6541,-282.3736 183,-303.5429 191.5088,-309.1116 244.4574,-313.0355 285.4966,-315.285"/>
<polygon fill="#000000" fill-opacity="0.466667" stroke="#000000" stroke-width="2" stroke-opacity="0.466667" points="285.4687,-318.7883 295.6394,-315.8208 285.838,-311.7981 285.4687,-318.7883"/>
</g>
<!-- src/widgets/collection.ts -->
<g id="node10" class="node">
<title>src/widgets/collection.ts</title>
<g id="a_node10"><a xlink:href="https://github.com/dragonman225/nast-util-to-html/tree/master/src/widgets/collection.ts" xlink:title="collection.ts">
<path fill="#ddfeff" stroke="#000000" d="M266.5,-274.5429C266.5,-274.5429 207.5,-274.5429 207.5,-274.5429 204.5,-274.5429 201.5,-271.5429 201.5,-268.5429 201.5,-268.5429 201.5,-262.5429 201.5,-262.5429 201.5,-259.5429 204.5,-256.5429 207.5,-256.5429 207.5,-256.5429 266.5,-256.5429 266.5,-256.5429 269.5,-256.5429 272.5,-259.5429 272.5,-262.5429 272.5,-262.5429 272.5,-268.5429 272.5,-268.5429 272.5,-271.5429 269.5,-274.5429 266.5,-274.5429"/>
<text text-anchor="middle" x="237" y="-263.3429" font-family="Helvetica,sans-Serif" font-size="9.00" fill="#000000">collection.ts</text>
</a>
</g>
</g>
<!-- src/render&#45;control.ts&#45;&gt;src/widgets/collection.ts -->
<g id="edge9" class="edge">
<title>src/render&#45;control.ts&#45;&gt;src/widgets/collection.ts</title>
<path fill="none" stroke="#000000" stroke-width="2" stroke-opacity="0.466667" d="M137.6771,-214.8302C147.6791,-225.0083 165.0581,-241.1372 183,-250.5429 185.7549,-251.9871 188.6639,-253.3045 191.6455,-254.5043"/>
<polygon fill="#000000" fill-opacity="0.466667" stroke="#000000" stroke-width="2" stroke-opacity="0.466667" points="190.7213,-257.8904 201.316,-257.947 193.069,-251.2958 190.7213,-257.8904"/>
</g>
<!-- src/widgets/column&#45;helper.ts -->
<g id="node11" class="node">
<title>src/widgets/column&#45;helper.ts</title>
<g id="a_node11"><a xlink:href="https://github.com/dragonman225/nast-util-to-html/tree/master/src/widgets/column-helper.ts" xlink:title="column&#45;helper.ts">
<path fill="#ddfeff" stroke="#000000" d="M277,-244.5429C277,-244.5429 197,-244.5429 197,-244.5429 194,-244.5429 191,-241.5429 191,-238.5429 191,-238.5429 191,-232.5429 191,-232.5429 191,-229.5429 194,-226.5429 197,-226.5429 197,-226.5429 277,-226.5429 277,-226.5429 280,-226.5429 283,-229.5429 283,-232.5429 283,-232.5429 283,-238.5429 283,-238.5429 283,-241.5429 280,-244.5429 277,-244.5429"/>
<text text-anchor="middle" x="237" y="-233.3429" font-family="Helvetica,sans-Serif" font-size="9.00" fill="#000000">column&#45;helper.ts</text>
</a>
</g>
</g>
<!-- src/render&#45;control.ts&#45;&gt;src/widgets/column&#45;helper.ts -->
<g id="edge10" class="edge">
<title>src/render&#45;control.ts&#45;&gt;src/widgets/column&#45;helper.ts</title>
<path fill="none" stroke="#000000" stroke-width="2" stroke-opacity="0.466667" d="M161.4036,-214.5439C171.7739,-217.4245 183.4166,-220.6586 194.4,-223.7095"/>
<polygon fill="#000000" fill-opacity="0.466667" stroke="#000000" stroke-width="2" stroke-opacity="0.466667" points="193.6741,-227.1403 204.246,-226.4445 195.5476,-220.3957 193.6741,-227.1403"/>
</g>
<!-- src/widgets/equation.ts -->
<g id="node13" class="node">
<title>src/widgets/equation.ts</title>
<g id="a_node13"><a xlink:href="https://github.com/dragonman225/nast-util-to-html/tree/master/src/widgets/equation.ts" xlink:title="equation.ts">
<path fill="#ddfeff" stroke="#000000" d="M265,-214.5429C265,-214.5429 209,-214.5429 209,-214.5429 206,-214.5429 203,-211.5429 203,-208.5429 203,-208.5429 203,-202.5429 203,-202.5429 203,-199.5429 206,-196.5429 209,-196.5429 209,-196.5429 265,-196.5429 265,-196.5429 268,-196.5429 271,-199.5429 271,-202.5429 271,-202.5429 271,-208.5429 271,-208.5429 271,-211.5429 268,-214.5429 265,-214.5429"/>
<text text-anchor="middle" x="237" y="-203.3429" font-family="Helvetica,sans-Serif" font-size="9.00" fill="#000000">equation.ts</text>
</a>
</g>
</g>
<!-- src/render&#45;control.ts&#45;&gt;src/widgets/equation.ts -->
<g id="edge11" class="edge">
<title>src/render&#45;control.ts&#45;&gt;src/widgets/equation.ts</title>
<path fill="none" stroke="#000000" stroke-width="2" stroke-opacity="0.466667" d="M175.115,-205.5429C180.9199,-205.5429 186.849,-205.5429 192.6262,-205.5429"/>
<polygon fill="#000000" fill-opacity="0.466667" stroke="#000000" stroke-width="2" stroke-opacity="0.466667" points="192.8015,-209.043 202.8015,-205.5429 192.8014,-202.043 192.8015,-209.043"/>
</g>
<!-- src/widgets/heading.ts -->
<g id="node14" class="node">
<title>src/widgets/heading.ts</title>
<g id="a_node14"><a xlink:href="https://github.com/dragonman225/nast-util-to-html/tree/master/src/widgets/heading.ts" xlink:title="heading.ts">
<path fill="#ddfeff" stroke="#000000" d="M263.5,-94.5429C263.5,-94.5429 210.5,-94.5429 210.5,-94.5429 207.5,-94.5429 204.5,-91.5429 204.5,-88.5429 204.5,-88.5429 204.5,-82.5429 204.5,-82.5429 204.5,-79.5429 207.5,-76.5429 210.5,-76.5429 210.5,-76.5429 263.5,-76.5429 263.5,-76.5429 266.5,-76.5429 269.5,-79.5429 269.5,-82.5429 269.5,-82.5429 269.5,-88.5429 269.5,-88.5429 269.5,-91.5429 266.5,-94.5429 263.5,-94.5429"/>
<text text-anchor="middle" x="237" y="-83.3429" font-family="Helvetica,sans-Serif" font-size="9.00" fill="#000000">heading.ts</text>
</a>
</g>
</g>
<!-- src/render&#45;control.ts&#45;&gt;src/widgets/heading.ts -->
<g id="edge12" class="edge">
<title>src/render&#45;control.ts&#45;&gt;src/widgets/heading.ts</title>
<path fill="none" stroke="#000000" stroke-width="2" stroke-opacity="0.466667" d="M131.0577,-196.3839C136.1323,-175.9549 151.2086,-126.4288 183,-100.5429 186.5332,-97.666 190.5807,-95.3396 194.8361,-93.4587"/>
<polygon fill="#000000" fill-opacity="0.466667" stroke="#000000" stroke-width="2" stroke-opacity="0.466667" points="196.1519,-96.7048 204.365,-90.0118 193.7708,-90.1222 196.1519,-96.7048"/>
</g>
<!-- src/widgets/list.ts -->
<g id="node15" class="node">
<title>src/widgets/list.ts</title>
<g id="a_node15"><a xlink:href="https://github.com/dragonman225/nast-util-to-html/tree/master/src/widgets/list.ts" xlink:title="list.ts">
<path fill="#ddfeff" stroke="#000000" d="M258,-184.5429C258,-184.5429 216,-184.5429 216,-184.5429 213,-184.5429 210,-181.5429 210,-178.5429 210,-178.5429 210,-172.5429 210,-172.5429 210,-169.5429 213,-166.5429 216,-166.5429 216,-166.5429 258,-166.5429 258,-166.5429 261,-166.5429 264,-169.5429 264,-172.5429 264,-172.5429 264,-178.5429 264,-178.5429 264,-181.5429 261,-184.5429 258,-184.5429"/>
<text text-anchor="middle" x="237" y="-173.3429" font-family="Helvetica,sans-Serif" font-size="9.00" fill="#000000">list.ts</text>
</a>
</g>
</g>
<!-- src/render&#45;control.ts&#45;&gt;src/widgets/list.ts -->
<g id="edge13" class="edge">
<title>src/render&#45;control.ts&#45;&gt;src/widgets/list.ts</title>
<path fill="none" stroke="#000000" stroke-width="2" stroke-opacity="0.466667" d="M161.4036,-196.5419C173.5622,-193.1645 187.4697,-189.3013 200.0132,-185.817"/>
<polygon fill="#000000" fill-opacity="0.466667" stroke="#000000" stroke-width="2" stroke-opacity="0.466667" points="201.0225,-189.1692 209.7209,-183.1204 199.1489,-182.4246 201.0225,-189.1692"/>
</g>
<!-- src/widgets/text.ts -->
<g id="node16" class="node">
<title>src/widgets/text.ts</title>
<g id="a_node16"><a xlink:href="https://github.com/dragonman225/nast-util-to-html/tree/master/src/widgets/text.ts" xlink:title="text.ts">
<path fill="#ddfeff" stroke="#000000" d="M258,-124.5429C258,-124.5429 216,-124.5429 216,-124.5429 213,-124.5429 210,-121.5429 210,-118.5429 210,-118.5429 210,-112.5429 210,-112.5429 210,-109.5429 213,-106.5429 216,-106.5429 216,-106.5429 258,-106.5429 258,-106.5429 261,-106.5429 264,-109.5429 264,-112.5429 264,-112.5429 264,-118.5429 264,-118.5429 264,-121.5429 261,-124.5429 258,-124.5429"/>
<text text-anchor="middle" x="237" y="-113.3429" font-family="Helvetica,sans-Serif" font-size="9.00" fill="#000000">text.ts</text>
</a>
</g>
</g>
<!-- src/render&#45;control.ts&#45;&gt;src/widgets/text.ts -->
<g id="edge14" class="edge">
<title>src/render&#45;control.ts&#45;&gt;src/widgets/text.ts</title>
<path fill="none" stroke="#000000" stroke-width="2" stroke-opacity="0.466667" d="M133.0488,-196.3841C140.5462,-180.5006 158.1248,-147.8864 183,-130.5429 188.062,-127.0135 193.9302,-124.3123 199.8944,-122.2454"/>
<polygon fill="#000000" fill-opacity="0.466667" stroke="#000000" stroke-width="2" stroke-opacity="0.466667" points="201.2749,-125.4888 209.897,-119.3318 199.3172,-118.7681 201.2749,-125.4888"/>
</g>
<!-- src/widgets/to&#45;do.ts -->
<g id="node17" class="node">
<title>src/widgets/to&#45;do.ts</title>
<g id="a_node17"><a xlink:href="https://github.com/dragonman225/nast-util-to-html/tree/master/src/widgets/to-do.ts" xlink:title="to&#45;do.ts">
<path fill="#ddfeff" stroke="#000000" d="M258,-154.5429C258,-154.5429 216,-154.5429 216,-154.5429 213,-154.5429 210,-151.5429 210,-148.5429 210,-148.5429 210,-142.5429 210,-142.5429 210,-139.5429 213,-136.5429 216,-136.5429 216,-136.5429 258,-136.5429 258,-136.5429 261,-136.5429 264,-139.5429 264,-142.5429 264,-142.5429 264,-148.5429 264,-148.5429 264,-151.5429 261,-154.5429 258,-154.5429"/>
<text text-anchor="middle" x="237" y="-143.3429" font-family="Helvetica,sans-Serif" font-size="9.00" fill="#000000">to&#45;do.ts</text>
</a>
</g>
</g>
<!-- src/render&#45;control.ts&#45;&gt;src/widgets/to&#45;do.ts -->
<g id="edge15" class="edge">
<title>src/render&#45;control.ts&#45;&gt;src/widgets/to&#45;do.ts</title>
<path fill="none" stroke="#000000" stroke-width="2" stroke-opacity="0.466667" d="M137.6771,-196.2556C147.6791,-186.0774 165.0581,-169.9486 183,-160.5429 188.2998,-157.7645 194.1698,-155.4554 200.03,-153.5504"/>
<polygon fill="#000000" fill-opacity="0.466667" stroke="#000000" stroke-width="2" stroke-opacity="0.466667" points="201.1561,-156.868 209.7808,-150.7145 199.2012,-150.1465 201.1561,-156.868"/>
</g>
<!-- src/widgets/toggle.ts -->
<g id="node18" class="node">
<title>src/widgets/toggle.ts</title>
<g id="a_node18"><a xlink:href="https://github.com/dragonman225/nast-util-to-html/tree/master/src/widgets/toggle.ts" xlink:title="toggle.ts">
<path fill="#ddfeff" stroke="#000000" d="M259,-64.5429C259,-64.5429 215,-64.5429 215,-64.5429 212,-64.5429 209,-61.5429 209,-58.5429 209,-58.5429 209,-52.5429 209,-52.5429 209,-49.5429 212,-46.5429 215,-46.5429 215,-46.5429 259,-46.5429 259,-46.5429 262,-46.5429 265,-49.5429 265,-52.5429 265,-52.5429 265,-58.5429 265,-58.5429 265,-61.5429 262,-64.5429 259,-64.5429"/>
<text text-anchor="middle" x="237" y="-53.3429" font-family="Helvetica,sans-Serif" font-size="9.00" fill="#000000">toggle.ts</text>
</a>
</g>
</g>
<!-- src/render&#45;control.ts&#45;&gt;src/widgets/toggle.ts -->
<g id="edge16" class="edge">
<title>src/render&#45;control.ts&#45;&gt;src/widgets/toggle.ts</title>
<path fill="none" stroke="#000000" stroke-width="2" stroke-opacity="0.466667" d="M129.9005,-196.431C132.796,-172.1577 144.084,-105.4128 183,-70.5429 187.5494,-66.4664 193.1152,-63.4872 198.9251,-61.3123"/>
<polygon fill="#000000" fill-opacity="0.466667" stroke="#000000" stroke-width="2" stroke-opacity="0.466667" points="200.2194,-64.5785 208.797,-58.3596 198.2134,-57.872 200.2194,-64.5785"/>
</g>
<!-- src/render&#45;utils.js&#45;&gt;src/block&#45;map.js -->
<g id="edge17" class="edge">
<title>src/render&#45;utils.js&#45;&gt;src/block&#45;map.js</title>
<path fill="none" stroke="#000000" stroke-width="2" stroke-opacity="0.466667" d="M373.1578,-308.5148C375.3018,-307.0914 377.2796,-305.4456 379,-303.5429 390.5753,-290.7409 381.4786,-281.8949 387,-265.5429 399.9985,-227.0471 421.9674,-184.7798 434.8118,-161.4769"/>
<polygon fill="#000000" fill-opacity="0.466667" stroke="#000000" stroke-width="2" stroke-opacity="0.466667" points="437.8837,-163.1545 439.7051,-152.7173 431.7726,-159.7406 437.8837,-163.1545"/>
</g>
<!-- src/render&#45;utils.js&#45;&gt;src/code&#45;language&#45;map.js -->
<g id="edge18" class="edge">
<title>src/render&#45;utils.js&#45;&gt;src/code&#45;language&#45;map.js</title>
<path fill="none" stroke="#000000" stroke-width="2" stroke-opacity="0.466667" d="M369.3485,-308.4141C372.7099,-306.9936 375.987,-305.3766 379,-303.5429 383.2953,-300.9287 382.6344,-298.038 387,-295.5429 388.1428,-294.8897 389.3145,-294.2644 390.5092,-293.6659"/>
<polygon fill="#000000" fill-opacity="0.466667" stroke="#000000" stroke-width="2" stroke-opacity="0.466667" points="392.2178,-296.7414 400.0277,-289.5822 389.4578,-290.3085 392.2178,-296.7414"/>
</g>
<!-- src/render&#45;utils.js&#45;&gt;src/color&#45;map.js -->
<g id="edge19" class="edge">
<title>src/render&#45;utils.js&#45;&gt;src/color&#45;map.js</title>
<path fill="none" stroke="#000000" stroke-width="2" stroke-opacity="0.466667" d="M374.0916,-325.7166C382.2574,-327.424 390.935,-329.2384 399.3155,-330.9907"/>
<polygon fill="#000000" fill-opacity="0.466667" stroke="#000000" stroke-width="2" stroke-opacity="0.466667" points="398.8313,-334.465 409.336,-333.0859 400.264,-327.6132 398.8313,-334.465"/>
</g>
<!-- src/render&#45;utils.js&#45;&gt;src/log&#45;utils.js -->
<g id="edge20" class="edge">
<title>src/render&#45;utils.js&#45;&gt;src/log&#45;utils.js</title>
<path fill="none" stroke="#000000" stroke-width="2" stroke-opacity="0.466667" d="M366.2982,-326.6288C370.9566,-328.9817 375.3958,-331.9104 379,-335.5429 385.7431,-342.3388 379.8131,-349.2181 387,-355.5429 391.8677,-359.8267 397.8043,-362.9136 404.0005,-365.1325"/>
<polygon fill="#000000" fill-opacity="0.466667" stroke="#000000" stroke-width="2" stroke-opacity="0.466667" points="403.2575,-368.5605 413.8349,-367.9523 405.1869,-361.8316 403.2575,-368.5605"/>
</g>
<!-- src/render&#45;utils.js&#45;&gt;src/notion&#45;utils.js -->
<g id="edge21" class="edge">
<title>src/render&#45;utils.js&#45;&gt;src/notion&#45;utils.js</title>
<path fill="none" stroke="#000000" stroke-width="2" stroke-opacity="0.466667" d="M374.0916,-315.0552C381.3089,-314.5959 388.9261,-314.1112 396.3845,-313.6366"/>
<polygon fill="#000000" fill-opacity="0.466667" stroke="#000000" stroke-width="2" stroke-opacity="0.466667" points="396.6467,-317.1271 406.4042,-312.999 396.2021,-310.1412 396.6467,-317.1271"/>
</g>
<!-- src/widgets/collection.ts&#45;&gt;src/log&#45;utils.js -->
<g id="edge22" class="edge">
<title>src/widgets/collection.ts&#45;&gt;src/log&#45;utils.js</title>
<path fill="none" stroke="#000000" stroke-width="2" stroke-opacity="0.466667" d="M272.9481,-271.3312C276.7109,-273.1443 280.1826,-275.4966 283,-278.5429 303.0037,-300.1717 274.9799,-322.9005 296,-343.5429 324.0115,-371.051 370.0464,-375.6534 403.5445,-374.7133"/>
<polygon fill="#000000" fill-opacity="0.466667" stroke="#000000" stroke-width="2" stroke-opacity="0.466667" points="404.1126,-378.1909 413.9412,-374.2353 403.791,-371.1983 404.1126,-378.1909"/>
</g>
<!-- src/widgets/collection.ts&#45;&gt;src/render&#45;utils.js -->
<g id="edge23" class="edge">
<title>src/widgets/collection.ts&#45;&gt;src/render&#45;utils.js</title>
<path fill="none" stroke="#000000" stroke-width="2" stroke-opacity="0.466667" d="M272.6372,-272.362C276.3631,-273.9987 279.911,-276.0277 283,-278.5429 290.8906,-284.9676 288.3144,-292.0172 295.9852,-301.5153"/>
<polygon fill="#000000" fill-opacity="0.466667" stroke="#000000" stroke-width="2" stroke-opacity="0.466667" points="293.5736,-304.0521 303.1875,-308.5044 298.4485,-299.0285 293.5736,-304.0521"/>
</g>
<!-- src/widgets/constants.ts -->
<g id="node12" class="node">
<title>src/widgets/constants.ts</title>
<g id="a_node12"><a xlink:href="https://github.com/dragonman225/nast-util-to-html/tree/master/src/widgets/constants.ts" xlink:title="constants.ts">
<path fill="#ddfeff" stroke="#000000" d="M365,-130.5429C365,-130.5429 305,-130.5429 305,-130.5429 302,-130.5429 299,-127.5429 299,-124.5429 299,-124.5429 299,-118.5429 299,-118.5429 299,-115.5429 302,-112.5429 305,-112.5429 305,-112.5429 365,-112.5429 365,-112.5429 368,-112.5429 371,-115.5429 371,-118.5429 371,-118.5429 371,-124.5429 371,-124.5429 371,-127.5429 368,-130.5429 365,-130.5429"/>
<text text-anchor="middle" x="335" y="-119.3429" font-family="Helvetica,sans-Serif" font-size="9.00" fill="#000000">constants.ts</text>
</a>
</g>
</g>
<!-- src/widgets/collection.ts&#45;&gt;src/widgets/constants.ts -->
<g id="edge24" class="edge">
<title>src/widgets/collection.ts&#45;&gt;src/widgets/constants.ts</title>
<path fill="none" stroke="#000000" stroke-width="2" stroke-opacity="0.466667" d="M272.8217,-258.5996C276.7053,-256.5591 280.2413,-253.9294 283,-250.5429 313.7176,-212.835 269.5834,-179.3213 294.0923,-138.8624"/>
<polygon fill="#000000" fill-opacity="0.466667" stroke="#000000" stroke-width="2" stroke-opacity="0.466667" points="296.9783,-140.8437 299.9518,-130.6747 291.2858,-136.7698 296.9783,-140.8437"/>
</g>
<!-- src/widgets/column&#45;helper.ts&#45;&gt;src/block&#45;map.js -->
<g id="edge25" class="edge">
<title>src/widgets/column&#45;helper.ts&#45;&gt;src/block&#45;map.js</title>
<path fill="none" stroke="#000000" stroke-width="2" stroke-opacity="0.466667" d="M276.2903,-226.5397C278.8038,-224.866 281.0878,-222.8855 283,-220.5429 299.123,-200.7901 276.9766,-123.5203 296,-106.5429 332.5608,-73.9143 393.4573,-107.2349 424.8783,-128.608"/>
<polygon fill="#000000" fill-opacity="0.466667" stroke="#000000" stroke-width="2" stroke-opacity="0.466667" points="423.0775,-131.6205 433.2698,-134.5132 427.106,-125.8959 423.0775,-131.6205"/>
</g>
<!-- src/widgets/column&#45;helper.ts&#45;&gt;src/log&#45;utils.js -->
<g id="edge26" class="edge">
<title>src/widgets/column&#45;helper.ts&#45;&gt;src/log&#45;utils.js</title>
<path fill="none" stroke="#000000" stroke-width="2" stroke-opacity="0.466667" d="M276.1779,-244.6398C278.7166,-246.2925 281.0371,-248.2425 283,-250.5429 306.9516,-278.6124 269.7306,-306.6295 296,-332.5429 322.5348,-358.718 347.0847,-325.2906 379,-344.5429 384.1762,-347.6653 382.0024,-352.1418 387,-355.5429 392.0678,-358.9916 397.8763,-361.6475 403.8158,-363.6927"/>
<polygon fill="#000000" fill-opacity="0.466667" stroke="#000000" stroke-width="2" stroke-opacity="0.466667" points="403.249,-367.1722 413.8278,-366.5903 405.1951,-360.4481 403.249,-367.1722"/>
</g>
<!-- src/widgets/column&#45;helper.ts&#45;&gt;src/render&#45;utils.js -->
<g id="edge27" class="edge">
<title>src/widgets/column&#45;helper.ts&#45;&gt;src/render&#45;utils.js</title>
<path fill="none" stroke="#000000" stroke-width="2" stroke-opacity="0.466667" d="M275.5368,-244.5594C278.2885,-246.2274 280.8288,-248.2031 283,-250.5429 297.5001,-266.1683 284.0132,-281.349 295.3412,-300.2721"/>
<polygon fill="#000000" fill-opacity="0.466667" stroke="#000000" stroke-width="2" stroke-opacity="0.466667" points="292.6832,-302.5563 301.5746,-308.3177 298.2168,-298.2691 292.6832,-302.5563"/>
</g>
<!-- src/widgets/equation.ts&#45;&gt;src/render&#45;utils.js -->
<g id="edge28" class="edge">
<title>src/widgets/equation.ts&#45;&gt;src/render&#45;utils.js</title>
<path fill="none" stroke="#000000" stroke-width="2" stroke-opacity="0.466667" d="M271.3172,-211.9255C275.7523,-214.0354 279.841,-216.8338 283,-220.5429 305.2242,-246.6371 277.5544,-270.514 295.4419,-300.3299"/>
<polygon fill="#000000" fill-opacity="0.466667" stroke="#000000" stroke-width="2" stroke-opacity="0.466667" points="292.668,-302.4662 301.3967,-308.4713 298.318,-298.3336 292.668,-302.4662"/>
</g>
<!-- src/widgets/heading.ts&#45;&gt;src/render&#45;utils.js -->
<g id="edge29" class="edge">
<title>src/widgets/heading.ts&#45;&gt;src/render&#45;utils.js</title>
<path fill="none" stroke="#000000" stroke-width="2" stroke-opacity="0.466667" d="M269.7886,-90.827C274.8985,-93.0436 279.6019,-96.1624 283,-100.5429 308.975,-134.0275 273.7857,-251.3997 295.6798,-299.68"/>
<polygon fill="#000000" fill-opacity="0.466667" stroke="#000000" stroke-width="2" stroke-opacity="0.466667" points="292.7309,-301.5686 300.8548,-308.3695 298.7451,-297.9868 292.7309,-301.5686"/>
</g>
<!-- src/widgets/heading.ts&#45;&gt;src/widgets/constants.ts -->
<g id="edge30" class="edge">
<title>src/widgets/heading.ts&#45;&gt;src/widgets/constants.ts</title>
<path fill="none" stroke="#000000" stroke-width="2" stroke-opacity="0.466667" d="M268.0697,-94.5612C273.1384,-96.3479 278.2736,-98.3556 283,-100.5429 289.1568,-103.3921 289.8525,-105.6735 296,-108.5429 296.093,-108.5863 296.1861,-108.6296 296.2795,-108.6728"/>
<polygon fill="#000000" fill-opacity="0.466667" stroke="#000000" stroke-width="2" stroke-opacity="0.466667" points="294.7544,-111.8288 305.3308,-112.4544 297.453,-105.3698 294.7544,-111.8288"/>
</g>
<!-- src/widgets/list.ts&#45;&gt;src/block&#45;map.js -->
<g id="edge31" class="edge">
<title>src/widgets/list.ts&#45;&gt;src/block&#45;map.js</title>
<path fill="none" stroke="#000000" stroke-width="2" stroke-opacity="0.466667" d="M264.1924,-171.3594C298.0987,-166.1431 356.6142,-157.1407 397.8776,-150.7925"/>
<polygon fill="#000000" fill-opacity="0.466667" stroke="#000000" stroke-width="2" stroke-opacity="0.466667" points="398.6196,-154.2196 407.9711,-149.2396 397.5552,-147.301 398.6196,-154.2196"/>
</g>
<!-- src/widgets/list.ts&#45;&gt;src/render&#45;utils.js -->
<g id="edge32" class="edge">
<title>src/widgets/list.ts&#45;&gt;src/render&#45;utils.js</title>
<path fill="none" stroke="#000000" stroke-width="2" stroke-opacity="0.466667" d="M264.3876,-179.0484C271.4258,-181.2574 278.3229,-184.8187 283,-190.5429 312.9871,-227.2438 270.5707,-259.6298 295.4044,-300.295"/>
<polygon fill="#000000" fill-opacity="0.466667" stroke="#000000" stroke-width="2" stroke-opacity="0.466667" points="292.6419,-302.4488 301.3092,-308.5421 298.3334,-298.3738 292.6419,-302.4488"/>
</g>
<!-- src/widgets/text.ts&#45;&gt;src/block&#45;map.js -->
<g id="edge33" class="edge">
<title>src/widgets/text.ts&#45;&gt;src/block&#45;map.js</title>
<path fill="none" stroke="#000000" stroke-width="2" stroke-opacity="0.466667" d="M264.43,-123.9042C270.5883,-125.9426 277.0569,-128.2117 283,-130.5429 288.924,-132.8666 289.8184,-135.0323 296,-136.5429 329.3046,-144.6816 368.0115,-146.2746 397.626,-145.9154"/>
<polygon fill="#000000" fill-opacity="0.466667" stroke="#000000" stroke-width="2" stroke-opacity="0.466667" points="397.7698,-149.4133 407.698,-145.7145 397.6301,-142.4147 397.7698,-149.4133"/>
</g>
<!-- src/widgets/text.ts&#45;&gt;src/render&#45;utils.js -->
<g id="edge34" class="edge">
<title>src/widgets/text.ts&#45;&gt;src/render&#45;utils.js</title>
<path fill="none" stroke="#000000" stroke-width="2" stroke-opacity="0.466667" d="M264.0547,-118.7821C271.2625,-120.9755 278.3333,-124.5952 283,-130.5429 305.0785,-158.6819 277.2834,-257.1053 295.6903,-299.5195"/>
<polygon fill="#000000" fill-opacity="0.466667" stroke="#000000" stroke-width="2" stroke-opacity="0.466667" points="292.7955,-301.5019 300.8781,-308.3519 298.8314,-297.9566 292.7955,-301.5019"/>
</g>
<!-- src/widgets/text.ts&#45;&gt;src/widgets/constants.ts -->
<g id="edge35" class="edge">
<title>src/widgets/text.ts&#45;&gt;src/widgets/constants.ts</title>
<path fill="none" stroke="#000000" stroke-width="2" stroke-opacity="0.466667" d="M264.0384,-117.1983C271.6912,-117.6668 280.2452,-118.1905 288.6922,-118.7077"/>
<polygon fill="#000000" fill-opacity="0.466667" stroke="#000000" stroke-width="2" stroke-opacity="0.466667" points="288.6796,-122.2134 298.8749,-119.3311 289.1075,-115.2265 288.6796,-122.2134"/>
</g>
<!-- src/widgets/to&#45;do.ts&#45;&gt;src/render&#45;utils.js -->
<g id="edge36" class="edge">
<title>src/widgets/to&#45;do.ts&#45;&gt;src/render&#45;utils.js</title>
<path fill="none" stroke="#000000" stroke-width="2" stroke-opacity="0.466667" d="M264.4763,-148.9768C271.516,-151.1846 278.3916,-154.7632 283,-160.5429 301.1833,-183.3477 280.6747,-262.8531 295.6764,-299.2782"/>
<polygon fill="#000000" fill-opacity="0.466667" stroke="#000000" stroke-width="2" stroke-opacity="0.466667" points="292.8739,-301.4234 300.911,-308.3267 298.933,-297.9181 292.8739,-301.4234"/>
</g>
<!-- src/widgets/to&#45;do.ts&#45;&gt;src/widgets/constants.ts -->
<g id="edge37" class="edge">
<title>src/widgets/to&#45;do.ts&#45;&gt;src/widgets/constants.ts</title>
<path fill="none" stroke="#000000" stroke-width="2" stroke-opacity="0.466667" d="M264.0384,-138.9212C271.7753,-137.0265 280.4333,-134.9061 288.9707,-132.8154"/>
<polygon fill="#000000" fill-opacity="0.466667" stroke="#000000" stroke-width="2" stroke-opacity="0.466667" points="289.9945,-136.1681 298.8749,-130.3898 288.3293,-129.3691 289.9945,-136.1681"/>
</g>
<!-- src/widgets/toggle.ts&#45;&gt;src/render&#45;utils.js -->
<g id="edge38" class="edge">
<title>src/widgets/toggle.ts&#45;&gt;src/render&#45;utils.js</title>
<path fill="none" stroke="#000000" stroke-width="2" stroke-opacity="0.466667" d="M265.0874,-59.0266C271.9592,-61.2451 278.5957,-64.8168 283,-70.5429 312.8262,-109.3199 270.3523,-245.2977 295.5387,-299.5357"/>
<polygon fill="#000000" fill-opacity="0.466667" stroke="#000000" stroke-width="2" stroke-opacity="0.466667" points="292.6965,-301.602 300.8374,-308.3825 298.7018,-298.0052 292.6965,-301.602"/>
</g>
<!-- src/widgets/toggle.ts&#45;&gt;src/widgets/constants.ts -->
<g id="edge39" class="edge">
<title>src/widgets/toggle.ts&#45;&gt;src/widgets/constants.ts</title>
<path fill="none" stroke="#000000" stroke-width="2" stroke-opacity="0.466667" d="M265.066,-60.2104C271.612,-62.4309 278.0945,-65.7075 283,-70.5429 293.6267,-81.0176 286.7166,-91.7488 294.295,-104.541"/>
<polygon fill="#000000" fill-opacity="0.466667" stroke="#000000" stroke-width="2" stroke-opacity="0.466667" points="291.6279,-106.8084 300.6734,-112.3247 297.0422,-102.3716 291.6279,-106.8084"/>
</g>
</g>
</svg>
