<?xml version="1.0" encoding="UTF-8" standalone="no"?>
<!DOCTYPE svg PUBLIC "-//W3C//DTD SVG 1.1//EN"
 "http://www.w3.org/Graphics/SVG/1.1/DTD/svg11.dtd">
<!-- Generated by graphviz version 2.40.1 (0)
 -->
<!-- Title: dependency&#45;cruiser output Pages: 1 -->
<svg width="529pt" height="612pt"
 viewBox="0.00 0.00 529.00 611.68" xmlns="http://www.w3.org/2000/svg" xmlns:xlink="http://www.w3.org/1999/xlink">
<g id="graph0" class="graph" transform="scale(1 1) rotate(0) translate(4 607.6755)">
<title>dependency&#45;cruiser output</title>
<polygon fill="#ffffff" stroke="transparent" points="-4,4 -4,-607.6755 525,-607.6755 525,4 -4,4"/>
<g id="clust1" class="cluster">
<title>cluster_src</title>
<path fill="#ffffff" stroke="#000000" stroke-width="2" d="M20,-11.6755C20,-11.6755 501,-11.6755 501,-11.6755 507,-11.6755 513,-17.6755 513,-23.6755 513,-23.6755 513,-583.6755 513,-583.6755 513,-589.6755 507,-595.6755 501,-595.6755 501,-595.6755 20,-595.6755 20,-595.6755 14,-595.6755 8,-589.6755 8,-583.6755 8,-583.6755 8,-23.6755 8,-23.6755 8,-17.6755 14,-11.6755 20,-11.6755"/>
<text text-anchor="middle" x="260.5" y="-584.4755" font-family="Helvetica,sans-Serif" font-weight="bold" font-size="9.00" fill="#000000">src</text>
</g>
<g id="clust2" class="cluster">
<title>cluster_src/widgets</title>
<path fill="#ffffff" stroke="#000000" stroke-width="2" d="M195,-43.6755C195,-43.6755 279,-43.6755 279,-43.6755 285,-43.6755 291,-49.6755 291,-55.6755 291,-55.6755 291,-533.6755 291,-533.6755 291,-539.6755 285,-545.6755 279,-545.6755 279,-545.6755 195,-545.6755 195,-545.6755 189,-545.6755 183,-539.6755 183,-533.6755 183,-533.6755 183,-55.6755 183,-55.6755 183,-49.6755 189,-43.6755 195,-43.6755"/>
<text text-anchor="middle" x="237" y="-534.4755" font-family="Helvetica,sans-Serif" font-weight="bold" font-size="9.00" fill="#000000">widgets</text>
</g>
<!-- src/constants.ts -->
<g id="node1" class="node">
<title>src/constants.ts</title>
<g id="a_node1"><a xlink:href="https://github.com/dragonman225/nast-util-to-html/tree/master/src/constants.ts" xlink:title="constants.ts">
<path fill="#ddfeff" stroke="#000000" d="M478.5,-176.6755C478.5,-176.6755 418.5,-176.6755 418.5,-176.6755 415.5,-176.6755 412.5,-173.6755 412.5,-170.6755 412.5,-170.6755 412.5,-164.6755 412.5,-164.6755 412.5,-161.6755 415.5,-158.6755 418.5,-158.6755 418.5,-158.6755 478.5,-158.6755 478.5,-158.6755 481.5,-158.6755 484.5,-161.6755 484.5,-164.6755 484.5,-164.6755 484.5,-170.6755 484.5,-170.6755 484.5,-173.6755 481.5,-176.6755 478.5,-176.6755"/>
<text text-anchor="middle" x="448.5" y="-165.4755" font-family="Helvetica,sans-Serif" font-size="9.00" fill="#000000">constants.ts</text>
</a>
</g>
</g>
<!-- src/index.ts -->
<g id="node2" class="node">
<title>src/index.ts</title>
<g id="a_node2"><a xlink:href="https://github.com/dragonman225/nast-util-to-html/tree/master/src/index.ts" xlink:title="index.ts">
<path fill="#ddfeff" stroke="#000000" d="M64,-439.6755C64,-439.6755 22,-439.6755 22,-439.6755 19,-439.6755 16,-436.6755 16,-433.6755 16,-433.6755 16,-427.6755 16,-427.6755 16,-424.6755 19,-421.6755 22,-421.6755 22,-421.6755 64,-421.6755 64,-421.6755 67,-421.6755 70,-424.6755 70,-427.6755 70,-427.6755 70,-433.6755 70,-433.6755 70,-436.6755 67,-439.6755 64,-439.6755"/>
<text text-anchor="middle" x="43" y="-428.4755" font-family="Helvetica,sans-Serif" font-size="9.00" fill="#000000">index.ts</text>
</a>
</g>
</g>
<!-- src/render&#45;control.ts -->
<g id="node5" class="node">
<title>src/render&#45;control.ts</title>
<g id="a_node5"><a xlink:href="https://github.com/dragonman225/nast-util-to-html/tree/master/src/render-control.ts" xlink:title="render&#45;control.ts">
<path fill="#ddfeff" stroke="#000000" d="M169,-294.6755C169,-294.6755 89,-294.6755 89,-294.6755 86,-294.6755 83,-291.6755 83,-288.6755 83,-288.6755 83,-282.6755 83,-282.6755 83,-279.6755 86,-276.6755 89,-276.6755 89,-276.6755 169,-276.6755 169,-276.6755 172,-276.6755 175,-279.6755 175,-282.6755 175,-282.6755 175,-288.6755 175,-288.6755 175,-291.6755 172,-294.6755 169,-294.6755"/>
<text text-anchor="middle" x="129" y="-283.4755" font-family="Helvetica,sans-Serif" font-size="9.00" fill="#000000">render&#45;control.ts</text>
</a>
</g>
</g>
<!-- src/index.ts&#45;&gt;src/render&#45;control.ts -->
<g id="edge1" class="edge">
<title>src/index.ts&#45;&gt;src/render&#45;control.ts</title>
<path fill="none" stroke="#000000" stroke-width="2" stroke-opacity="0.466667" d="M48.3797,-421.6051C62.3159,-398.1081 99.7928,-334.9202 118.325,-303.6741"/>
<polygon fill="#000000" fill-opacity="0.466667" stroke="#000000" stroke-width="2" stroke-opacity="0.466667" points="121.5314,-305.129 123.6223,-294.7425 115.5107,-301.558 121.5314,-305.129"/>
</g>
<!-- src/render&#45;utils.ts -->
<g id="node7" class="node">
<title>src/render&#45;utils.ts</title>
<g id="a_node7"><a xlink:href="https://github.com/dragonman225/nast-util-to-html/tree/master/src/render-utils.ts" xlink:title="render&#45;utils.ts">
<path fill="#ddfeff" stroke="#000000" d="M373,-288.6755C373,-288.6755 305,-288.6755 305,-288.6755 302,-288.6755 299,-285.6755 299,-282.6755 299,-282.6755 299,-276.6755 299,-276.6755 299,-273.6755 302,-270.6755 305,-270.6755 305,-270.6755 373,-270.6755 373,-270.6755 376,-270.6755 379,-273.6755 379,-276.6755 379,-276.6755 379,-282.6755 379,-282.6755 379,-285.6755 376,-288.6755 373,-288.6755"/>
<text text-anchor="middle" x="339" y="-277.4755" font-family="Helvetica,sans-Serif" font-size="9.00" fill="#000000">render&#45;utils.ts</text>
</a>
</g>
</g>
<!-- src/index.ts&#45;&gt;src/render&#45;utils.ts -->
<g id="edge2" class="edge">
<title>src/index.ts&#45;&gt;src/render&#45;utils.ts</title>
<path fill="none" stroke="#000000" stroke-width="2" stroke-opacity="0.466667" d="M50.1873,-439.9263C81.5442,-479.2215 208.4893,-627.1607 291,-557.6755 330.605,-524.3228 337.5318,-356.4304 338.7432,-298.9853"/>
<polygon fill="#000000" fill-opacity="0.466667" stroke="#000000" stroke-width="2" stroke-opacity="0.466667" points="342.2465,-298.8247 338.921,-288.7652 335.2475,-298.7028 342.2465,-298.8247"/>
</g>
<!-- src/log&#45;utils.js -->
<g id="node3" class="node">
<title>src/log&#45;utils.js</title>
<g id="a_node3"><a xlink:href="https://github.com/dragonman225/nast-util-to-html/tree/master/src/log-utils.js" xlink:title="log&#45;utils.js">
<path fill="#ffffcc" stroke="#000000" d="M473.5,-69.6755C473.5,-69.6755 423.5,-69.6755 423.5,-69.6755 420.5,-69.6755 417.5,-66.6755 417.5,-63.6755 417.5,-63.6755 417.5,-57.6755 417.5,-57.6755 417.5,-54.6755 420.5,-51.6755 423.5,-51.6755 423.5,-51.6755 473.5,-51.6755 473.5,-51.6755 476.5,-51.6755 479.5,-54.6755 479.5,-57.6755 479.5,-57.6755 479.5,-63.6755 479.5,-63.6755 479.5,-66.6755 476.5,-69.6755 473.5,-69.6755"/>
<text text-anchor="middle" x="448.5" y="-58.4755" font-family="Helvetica,sans-Serif" font-size="9.00" fill="#000000">log&#45;utils.js</text>
</a>
</g>
</g>
<!-- src/notion&#45;utils.js -->
<g id="node4" class="node">
<title>src/notion&#45;utils.js</title>
<g id="a_node4"><a xlink:href="https://github.com/dragonman225/nast-util-to-html/tree/master/src/notion-utils.js" xlink:title="notion&#45;utils.js">
<path fill="#ffffcc" stroke="#000000" d="M481,-273.6755C481,-273.6755 416,-273.6755 416,-273.6755 413,-273.6755 410,-270.6755 410,-267.6755 410,-267.6755 410,-261.6755 410,-261.6755 410,-258.6755 413,-255.6755 416,-255.6755 416,-255.6755 481,-255.6755 481,-255.6755 484,-255.6755 487,-258.6755 487,-261.6755 487,-261.6755 487,-267.6755 487,-267.6755 487,-270.6755 484,-273.6755 481,-273.6755"/>
<text text-anchor="middle" x="448.5" y="-262.4755" font-family="Helvetica,sans-Serif" font-size="9.00" fill="#000000">notion&#45;utils.js</text>
</a>
</g>
</g>
<!-- src/render&#45;control.ts&#45;&gt;src/constants.ts -->
<g id="edge3" class="edge">
<title>src/render&#45;control.ts&#45;&gt;src/constants.ts</title>
<path fill="none" stroke="#000000" stroke-width="2" stroke-opacity="0.466667" d="M129.5379,-276.5806C132.1498,-235.893 144.9742,-71.2329 183,-40.6755 217.347,-13.0745 343.6264,-44.4032 379,-70.6755 407.2844,-91.6827 428.6609,-127.5872 439.8251,-149.3248"/>
<polygon fill="#000000" fill-opacity="0.466667" stroke="#000000" stroke-width="2" stroke-opacity="0.466667" points="436.7778,-151.0586 444.3478,-158.4713 443.0526,-147.9559 436.7778,-151.0586"/>
</g>
<!-- src/render&#45;control.ts&#45;&gt;src/log&#45;utils.js -->
<g id="edge4" class="edge">
<title>src/render&#45;control.ts&#45;&gt;src/log&#45;utils.js</title>
<path fill="none" stroke="#000000" stroke-width="2" stroke-opacity="0.466667" d="M129.4199,-276.6356C131.5759,-234.6415 142.9053,-59.2729 183,-26.6755 253.966,31.0205 372.7421,-20.0944 423.8687,-46.8127"/>
<polygon fill="#000000" fill-opacity="0.466667" stroke="#000000" stroke-width="2" stroke-opacity="0.466667" points="422.4122,-50.003 432.88,-51.6389 425.7171,-43.8322 422.4122,-50.003"/>
</g>
<!-- src/render&#45;control.ts&#45;&gt;src/render&#45;utils.ts -->
<g id="edge5" class="edge">
<title>src/render&#45;control.ts&#45;&gt;src/render&#45;utils.ts</title>
<path fill="none" stroke="#000000" stroke-width="2" stroke-opacity="0.466667" d="M129.396,-294.8532C131.4443,-337.4878 142.362,-515.5337 183,-548.6755 201.5991,-563.8438 272.5992,-564.0836 291,-548.6755 329.2857,-516.6167 337.0634,-355.3656 338.6185,-299.0895"/>
<polygon fill="#000000" fill-opacity="0.466667" stroke="#000000" stroke-width="2" stroke-opacity="0.466667" points="342.1254,-298.8389 338.8646,-288.7584 335.1274,-298.6721 342.1254,-298.8389"/>
</g>
<!-- src/widgets/audio.ts -->
<g id="node8" class="node">
<title>src/widgets/audio.ts</title>
<g id="a_node8"><a xlink:href="https://github.com/dragonman225/nast-util-to-html/tree/master/src/widgets/audio.ts" xlink:title="audio.ts">
<path fill="#ddfeff" stroke="#000000" d="M258,-399.6755C258,-399.6755 216,-399.6755 216,-399.6755 213,-399.6755 210,-396.6755 210,-393.6755 210,-393.6755 210,-387.6755 210,-387.6755 210,-384.6755 213,-381.6755 216,-381.6755 216,-381.6755 258,-381.6755 258,-381.6755 261,-381.6755 264,-384.6755 264,-387.6755 264,-387.6755 264,-393.6755 264,-393.6755 264,-396.6755 261,-399.6755 258,-399.6755"/>
<text text-anchor="middle" x="237" y="-388.4755" font-family="Helvetica,sans-Serif" font-size="9.00" fill="#000000">audio.ts</text>
</a>
</g>
</g>
<!-- src/render&#45;control.ts&#45;&gt;src/widgets/audio.ts -->
<g id="edge6" class="edge">
<title>src/render&#45;control.ts&#45;&gt;src/widgets/audio.ts</title>
<path fill="none" stroke="#000000" stroke-width="2" stroke-opacity="0.466667" d="M131.9211,-294.9043C138.1948,-313.1994 154.7275,-354.1531 183,-375.6755 188.0807,-379.5432 194.1051,-382.4136 200.2555,-384.544"/>
<polygon fill="#000000" fill-opacity="0.466667" stroke="#000000" stroke-width="2" stroke-opacity="0.466667" points="199.3288,-387.9192 209.9066,-387.3194 201.2634,-381.1919 199.3288,-387.9192"/>
</g>
<!-- src/widgets/bookmark.ts -->
<g id="node9" class="node">
<title>src/widgets/bookmark.ts</title>
<g id="a_node9"><a xlink:href="https://github.com/dragonman225/nast-util-to-html/tree/master/src/widgets/bookmark.ts" xlink:title="bookmark.ts">
<path fill="#ddfeff" stroke="#000000" d="M267.5,-369.6755C267.5,-369.6755 206.5,-369.6755 206.5,-369.6755 203.5,-369.6755 200.5,-366.6755 200.5,-363.6755 200.5,-363.6755 200.5,-357.6755 200.5,-357.6755 200.5,-354.6755 203.5,-351.6755 206.5,-351.6755 206.5,-351.6755 267.5,-351.6755 267.5,-351.6755 270.5,-351.6755 273.5,-354.6755 273.5,-357.6755 273.5,-357.6755 273.5,-363.6755 273.5,-363.6755 273.5,-366.6755 270.5,-369.6755 267.5,-369.6755"/>
<text text-anchor="middle" x="237" y="-358.4755" font-family="Helvetica,sans-Serif" font-size="9.00" fill="#000000">bookmark.ts</text>
</a>
</g>
</g>
<!-- src/render&#45;control.ts&#45;&gt;src/widgets/bookmark.ts -->
<g id="edge7" class="edge">
<title>src/render&#45;control.ts&#45;&gt;src/widgets/bookmark.ts</title>
<path fill="none" stroke="#000000" stroke-width="2" stroke-opacity="0.466667" d="M134.7815,-294.8885C143.5695,-308.1269 161.5537,-332.3946 183,-345.6755 185.4817,-347.2124 188.1233,-348.595 190.8533,-349.8384"/>
<polygon fill="#000000" fill-opacity="0.466667" stroke="#000000" stroke-width="2" stroke-opacity="0.466667" points="189.7833,-353.1779 200.3715,-353.5518 192.3275,-346.6566 189.7833,-353.1779"/>
</g>
<!-- src/widgets/callout.ts -->
<g id="node10" class="node">
<title>src/widgets/callout.ts</title>
<g id="a_node10"><a xlink:href="https://github.com/dragonman225/nast-util-to-html/tree/master/src/widgets/callout.ts" xlink:title="callout.ts">
<path fill="#ddfeff" stroke="#000000" d="M260,-219.6755C260,-219.6755 214,-219.6755 214,-219.6755 211,-219.6755 208,-216.6755 208,-213.6755 208,-213.6755 208,-207.6755 208,-207.6755 208,-204.6755 211,-201.6755 214,-201.6755 214,-201.6755 260,-201.6755 260,-201.6755 263,-201.6755 266,-204.6755 266,-207.6755 266,-207.6755 266,-213.6755 266,-213.6755 266,-216.6755 263,-219.6755 260,-219.6755"/>
<text text-anchor="middle" x="237" y="-208.4755" font-family="Helvetica,sans-Serif" font-size="9.00" fill="#000000">callout.ts</text>
</a>
</g>
</g>
<!-- src/render&#45;control.ts&#45;&gt;src/widgets/callout.ts -->
<g id="edge8" class="edge">
<title>src/render&#45;control.ts&#45;&gt;src/widgets/callout.ts</title>
<path fill="none" stroke="#000000" stroke-width="2" stroke-opacity="0.466667" d="M134.7815,-276.4626C143.5695,-263.2242 161.5537,-238.9565 183,-225.6755 187.5368,-222.8661 192.6081,-220.5719 197.7767,-218.7012"/>
<polygon fill="#000000" fill-opacity="0.466667" stroke="#000000" stroke-width="2" stroke-opacity="0.466667" points="199.2156,-221.9189 207.721,-215.6016 197.1325,-215.236 199.2156,-221.9189"/>
</g>
<!-- src/widgets/code.ts -->
<g id="node11" class="node">
<title>src/widgets/code.ts</title>
<g id="a_node11"><a xlink:href="https://github.com/dragonman225/nast-util-to-html/tree/master/src/widgets/code.ts" xlink:title="code.ts">
<path fill="#ddfeff" stroke="#000000" d="M258,-339.6755C258,-339.6755 216,-339.6755 216,-339.6755 213,-339.6755 210,-336.6755 210,-333.6755 210,-333.6755 210,-327.6755 210,-327.6755 210,-324.6755 213,-321.6755 216,-321.6755 216,-321.6755 258,-321.6755 258,-321.6755 261,-321.6755 264,-324.6755 264,-327.6755 264,-327.6755 264,-333.6755 264,-333.6755 264,-336.6755 261,-339.6755 258,-339.6755"/>
<text text-anchor="middle" x="237" y="-328.4755" font-family="Helvetica,sans-Serif" font-size="9.00" fill="#000000">code.ts</text>
</a>
</g>
</g>
<!-- src/render&#45;control.ts&#45;&gt;src/widgets/code.ts -->
<g id="edge9" class="edge">
<title>src/render&#45;control.ts&#45;&gt;src/widgets/code.ts</title>
<path fill="none" stroke="#000000" stroke-width="2" stroke-opacity="0.466667" d="M143.2051,-294.7882C153.8355,-301.3008 168.909,-309.8994 183,-315.6755 188.4791,-317.9215 194.405,-319.9473 200.2556,-321.7308"/>
<polygon fill="#000000" fill-opacity="0.466667" stroke="#000000" stroke-width="2" stroke-opacity="0.466667" points="199.3615,-325.1153 209.9384,-324.4994 201.286,-318.385 199.3615,-325.1153"/>
</g>
<!-- src/widgets/collection.ts -->
<g id="node12" class="node">
<title>src/widgets/collection.ts</title>
<g id="a_node12"><a xlink:href="https://github.com/dragonman225/nast-util-to-html/tree/master/src/widgets/collection.ts" xlink:title="collection.ts">
<path fill="#ddfeff" stroke="#000000" d="M266.5,-99.6755C266.5,-99.6755 207.5,-99.6755 207.5,-99.6755 204.5,-99.6755 201.5,-96.6755 201.5,-93.6755 201.5,-93.6755 201.5,-87.6755 201.5,-87.6755 201.5,-84.6755 204.5,-81.6755 207.5,-81.6755 207.5,-81.6755 266.5,-81.6755 266.5,-81.6755 269.5,-81.6755 272.5,-84.6755 272.5,-87.6755 272.5,-87.6755 272.5,-93.6755 272.5,-93.6755 272.5,-96.6755 269.5,-99.6755 266.5,-99.6755"/>
<text text-anchor="middle" x="237" y="-88.4755" font-family="Helvetica,sans-Serif" font-size="9.00" fill="#000000">collection.ts</text>
</a>
</g>
</g>
<!-- src/render&#45;control.ts&#45;&gt;src/widgets/collection.ts -->
<g id="edge10" class="edge">
<title>src/render&#45;control.ts&#45;&gt;src/widgets/collection.ts</title>
<path fill="none" stroke="#000000" stroke-width="2" stroke-opacity="0.466667" d="M130.5371,-276.5998C136.2999,-243.5925 157.5971,-130.5627 183,-105.6755 185.6954,-103.0348 188.8134,-100.85 192.1641,-99.0435"/>
<polygon fill="#000000" fill-opacity="0.466667" stroke="#000000" stroke-width="2" stroke-opacity="0.466667" points="193.6166,-102.2291 201.4467,-95.0919 190.8748,-95.7884 193.6166,-102.2291"/>
</g>
<!-- src/widgets/column&#45;helper.ts -->
<g id="node13" class="node">
<title>src/widgets/column&#45;helper.ts</title>
<g id="a_node13"><a xlink:href="https://github.com/dragonman225/nast-util-to-html/tree/master/src/widgets/column-helper.ts" xlink:title="column&#45;helper.ts">
<path fill="#ddfeff" stroke="#000000" d="M277,-69.6755C277,-69.6755 197,-69.6755 197,-69.6755 194,-69.6755 191,-66.6755 191,-63.6755 191,-63.6755 191,-57.6755 191,-57.6755 191,-54.6755 194,-51.6755 197,-51.6755 197,-51.6755 277,-51.6755 277,-51.6755 280,-51.6755 283,-54.6755 283,-57.6755 283,-57.6755 283,-63.6755 283,-63.6755 283,-66.6755 280,-69.6755 277,-69.6755"/>
<text text-anchor="middle" x="237" y="-58.4755" font-family="Helvetica,sans-Serif" font-size="9.00" fill="#000000">column&#45;helper.ts</text>
</a>
</g>
</g>
<!-- src/render&#45;control.ts&#45;&gt;src/widgets/column&#45;helper.ts -->
<g id="edge11" class="edge">
<title>src/render&#45;control.ts&#45;&gt;src/widgets/column&#45;helper.ts</title>
<path fill="none" stroke="#000000" stroke-width="2" stroke-opacity="0.466667" d="M130.1187,-276.6381C134.4993,-242.57 151.5423,-121.8518 184.1096,-77.4406"/>
<polygon fill="#000000" fill-opacity="0.466667" stroke="#000000" stroke-width="2" stroke-opacity="0.466667" points="186.9648,-79.4883 190.8309,-69.6241 181.6572,-74.9244 186.9648,-79.4883"/>
</g>
<!-- src/widgets/divider.ts -->
<g id="node14" class="node">
<title>src/widgets/divider.ts</title>
<g id="a_node14"><a xlink:href="https://github.com/dragonman225/nast-util-to-html/tree/master/src/widgets/divider.ts" xlink:title="divider.ts">
<path fill="#ddfeff" stroke="#000000" d="M259.5,-309.6755C259.5,-309.6755 214.5,-309.6755 214.5,-309.6755 211.5,-309.6755 208.5,-306.6755 208.5,-303.6755 208.5,-303.6755 208.5,-297.6755 208.5,-297.6755 208.5,-294.6755 211.5,-291.6755 214.5,-291.6755 214.5,-291.6755 259.5,-291.6755 259.5,-291.6755 262.5,-291.6755 265.5,-294.6755 265.5,-297.6755 265.5,-297.6755 265.5,-303.6755 265.5,-303.6755 265.5,-306.6755 262.5,-309.6755 259.5,-309.6755"/>
<text text-anchor="middle" x="237" y="-298.4755" font-family="Helvetica,sans-Serif" font-size="9.00" fill="#000000">divider.ts</text>
</a>
</g>
</g>
<!-- src/render&#45;control.ts&#45;&gt;src/widgets/divider.ts -->
<g id="edge12" class="edge">
<title>src/render&#45;control.ts&#45;&gt;src/widgets/divider.ts</title>
<path fill="none" stroke="#000000" stroke-width="2" stroke-opacity="0.466667" d="M175.115,-292.0804C182.8405,-293.1534 190.7861,-294.2569 198.3007,-295.3006"/>
<polygon fill="#000000" fill-opacity="0.466667" stroke="#000000" stroke-width="2" stroke-opacity="0.466667" points="197.8333,-298.7692 208.2198,-296.6783 198.7964,-291.8358 197.8333,-298.7692"/>
</g>
<!-- src/widgets/embed.ts -->
<g id="node15" class="node">
<title>src/widgets/embed.ts</title>
<g id="a_node15"><a xlink:href="https://github.com/dragonman225/nast-util-to-html/tree/master/src/widgets/embed.ts" xlink:title="embed.ts">
<path fill="#ddfeff" stroke="#000000" d="M260.5,-519.6755C260.5,-519.6755 213.5,-519.6755 213.5,-519.6755 210.5,-519.6755 207.5,-516.6755 207.5,-513.6755 207.5,-513.6755 207.5,-507.6755 207.5,-507.6755 207.5,-504.6755 210.5,-501.6755 213.5,-501.6755 213.5,-501.6755 260.5,-501.6755 260.5,-501.6755 263.5,-501.6755 266.5,-504.6755 266.5,-507.6755 266.5,-507.6755 266.5,-513.6755 266.5,-513.6755 266.5,-516.6755 263.5,-519.6755 260.5,-519.6755"/>
<text text-anchor="middle" x="237" y="-508.4755" font-family="Helvetica,sans-Serif" font-size="9.00" fill="#000000">embed.ts</text>
</a>
</g>
</g>
<!-- src/render&#45;control.ts&#45;&gt;src/widgets/embed.ts -->
<g id="edge13" class="edge">
<title>src/render&#45;control.ts&#45;&gt;src/widgets/embed.ts</title>
<path fill="none" stroke="#000000" stroke-width="2" stroke-opacity="0.466667" d="M130.1187,-294.713C134.7913,-331.0523 153.871,-465.9801 183,-495.6755 187.0456,-499.7998 192.1193,-502.8178 197.5268,-505.0209"/>
<polygon fill="#000000" fill-opacity="0.466667" stroke="#000000" stroke-width="2" stroke-opacity="0.466667" points="196.8804,-508.4874 207.4705,-508.1693 198.9934,-501.8139 196.8804,-508.4874"/>
</g>
<!-- src/widgets/equation.ts -->
<g id="node16" class="node">
<title>src/widgets/equation.ts</title>
<g id="a_node16"><a xlink:href="https://github.com/dragonman225/nast-util-to-html/tree/master/src/widgets/equation.ts" xlink:title="equation.ts">
<path fill="#ddfeff" stroke="#000000" d="M265,-489.6755C265,-489.6755 209,-489.6755 209,-489.6755 206,-489.6755 203,-486.6755 203,-483.6755 203,-483.6755 203,-477.6755 203,-477.6755 203,-474.6755 206,-471.6755 209,-471.6755 209,-471.6755 265,-471.6755 265,-471.6755 268,-471.6755 271,-474.6755 271,-477.6755 271,-477.6755 271,-483.6755 271,-483.6755 271,-486.6755 268,-489.6755 265,-489.6755"/>
<text text-anchor="middle" x="237" y="-478.4755" font-family="Helvetica,sans-Serif" font-size="9.00" fill="#000000">equation.ts</text>
</a>
</g>
</g>
<!-- src/render&#45;control.ts&#45;&gt;src/widgets/equation.ts -->
<g id="edge14" class="edge">
<title>src/render&#45;control.ts&#45;&gt;src/widgets/equation.ts</title>
<path fill="none" stroke="#000000" stroke-width="2" stroke-opacity="0.466667" d="M130.5371,-294.7512C136.2999,-327.7586 157.5971,-440.7884 183,-465.6755 186.0495,-468.6631 189.6398,-471.0672 193.4961,-473.0001"/>
<polygon fill="#000000" fill-opacity="0.466667" stroke="#000000" stroke-width="2" stroke-opacity="0.466667" points="192.2612,-476.2755 202.8472,-476.7078 194.8413,-469.7683 192.2612,-476.2755"/>
</g>
<!-- src/widgets/heading.ts -->
<g id="node17" class="node">
<title>src/widgets/heading.ts</title>
<g id="a_node17"><a xlink:href="https://github.com/dragonman225/nast-util-to-html/tree/master/src/widgets/heading.ts" xlink:title="heading.ts">
<path fill="#ddfeff" stroke="#000000" d="M263.5,-249.6755C263.5,-249.6755 210.5,-249.6755 210.5,-249.6755 207.5,-249.6755 204.5,-246.6755 204.5,-243.6755 204.5,-243.6755 204.5,-237.6755 204.5,-237.6755 204.5,-234.6755 207.5,-231.6755 210.5,-231.6755 210.5,-231.6755 263.5,-231.6755 263.5,-231.6755 266.5,-231.6755 269.5,-234.6755 269.5,-237.6755 269.5,-237.6755 269.5,-243.6755 269.5,-243.6755 269.5,-246.6755 266.5,-249.6755 263.5,-249.6755"/>
<text text-anchor="middle" x="237" y="-238.4755" font-family="Helvetica,sans-Serif" font-size="9.00" fill="#000000">heading.ts</text>
</a>
</g>
</g>
<!-- src/render&#45;control.ts&#45;&gt;src/widgets/heading.ts -->
<g id="edge15" class="edge">
<title>src/render&#45;control.ts&#45;&gt;src/widgets/heading.ts</title>
<path fill="none" stroke="#000000" stroke-width="2" stroke-opacity="0.466667" d="M143.2051,-276.5629C153.8355,-270.0502 168.909,-261.4516 183,-255.6755 186.6926,-254.1619 190.5881,-252.7482 194.5268,-251.4413"/>
<polygon fill="#000000" fill-opacity="0.466667" stroke="#000000" stroke-width="2" stroke-opacity="0.466667" points="195.7941,-254.7131 204.315,-248.4167 193.7274,-248.0251 195.7941,-254.7131"/>
</g>
<!-- src/widgets/image.ts -->
<g id="node18" class="node">
<title>src/widgets/image.ts</title>
<g id="a_node18"><a xlink:href="https://github.com/dragonman225/nast-util-to-html/tree/master/src/widgets/image.ts" xlink:title="image.ts">
<path fill="#ddfeff" stroke="#000000" d="M259,-459.6755C259,-459.6755 215,-459.6755 215,-459.6755 212,-459.6755 209,-456.6755 209,-453.6755 209,-453.6755 209,-447.6755 209,-447.6755 209,-444.6755 212,-441.6755 215,-441.6755 215,-441.6755 259,-441.6755 259,-441.6755 262,-441.6755 265,-444.6755 265,-447.6755 265,-447.6755 265,-453.6755 265,-453.6755 265,-456.6755 262,-459.6755 259,-459.6755"/>
<text text-anchor="middle" x="237" y="-448.4755" font-family="Helvetica,sans-Serif" font-size="9.00" fill="#000000">image.ts</text>
</a>
</g>
</g>
<!-- src/render&#45;control.ts&#45;&gt;src/widgets/image.ts -->
<g id="edge16" class="edge">
<title>src/render&#45;control.ts&#45;&gt;src/widgets/image.ts</title>
<path fill="none" stroke="#000000" stroke-width="2" stroke-opacity="0.466667" d="M129.5046,-295.008C131.4389,-321.2489 140.5992,-396.3258 183,-435.6755 187.5232,-439.8733 193.1195,-442.9117 198.9797,-445.1077"/>
<polygon fill="#000000" fill-opacity="0.466667" stroke="#000000" stroke-width="2" stroke-opacity="0.466667" points="198.3656,-448.5762 208.948,-448.0638 200.3558,-441.8651 198.3656,-448.5762"/>
</g>
<!-- src/widgets/list.ts -->
<g id="node19" class="node">
<title>src/widgets/list.ts</title>
<g id="a_node19"><a xlink:href="https://github.com/dragonman225/nast-util-to-html/tree/master/src/widgets/list.ts" xlink:title="list.ts">
<path fill="#ddfeff" stroke="#000000" d="M258,-279.6755C258,-279.6755 216,-279.6755 216,-279.6755 213,-279.6755 210,-276.6755 210,-273.6755 210,-273.6755 210,-267.6755 210,-267.6755 210,-264.6755 213,-261.6755 216,-261.6755 216,-261.6755 258,-261.6755 258,-261.6755 261,-261.6755 264,-264.6755 264,-267.6755 264,-267.6755 264,-273.6755 264,-273.6755 264,-276.6755 261,-279.6755 258,-279.6755"/>
<text text-anchor="middle" x="237" y="-268.4755" font-family="Helvetica,sans-Serif" font-size="9.00" fill="#000000">list.ts</text>
</a>
</g>
</g>
<!-- src/render&#45;control.ts&#45;&gt;src/widgets/list.ts -->
<g id="edge17" class="edge">
<title>src/render&#45;control.ts&#45;&gt;src/widgets/list.ts</title>
<path fill="none" stroke="#000000" stroke-width="2" stroke-opacity="0.466667" d="M175.115,-279.2707C183.3269,-278.1301 191.7875,-276.9551 199.7149,-275.854"/>
<polygon fill="#000000" fill-opacity="0.466667" stroke="#000000" stroke-width="2" stroke-opacity="0.466667" points="200.34,-279.3009 209.7634,-274.4584 199.3769,-272.3674 200.34,-279.3009"/>
</g>
<!-- src/widgets/quote.ts -->
<g id="node20" class="node">
<title>src/widgets/quote.ts</title>
<g id="a_node20"><a xlink:href="https://github.com/dragonman225/nast-util-to-html/tree/master/src/widgets/quote.ts" xlink:title="quote.ts">
<path fill="#ddfeff" stroke="#000000" d="M258,-429.6755C258,-429.6755 216,-429.6755 216,-429.6755 213,-429.6755 210,-426.6755 210,-423.6755 210,-423.6755 210,-417.6755 210,-417.6755 210,-414.6755 213,-411.6755 216,-411.6755 216,-411.6755 258,-411.6755 258,-411.6755 261,-411.6755 264,-414.6755 264,-417.6755 264,-417.6755 264,-423.6755 264,-423.6755 264,-426.6755 261,-429.6755 258,-429.6755"/>
<text text-anchor="middle" x="237" y="-418.4755" font-family="Helvetica,sans-Serif" font-size="9.00" fill="#000000">quote.ts</text>
</a>
</g>
</g>
<!-- src/render&#45;control.ts&#45;&gt;src/widgets/quote.ts -->
<g id="edge18" class="edge">
<title>src/render&#45;control.ts&#45;&gt;src/widgets/quote.ts</title>
<path fill="none" stroke="#000000" stroke-width="2" stroke-opacity="0.466667" d="M130.4021,-294.7598C134.3444,-317.141 147.6398,-375.3165 183,-405.6755 187.8931,-409.8766 193.8724,-412.9078 200.0473,-415.0932"/>
<polygon fill="#000000" fill-opacity="0.466667" stroke="#000000" stroke-width="2" stroke-opacity="0.466667" points="199.2069,-418.4932 209.7839,-417.878 201.1319,-411.763 199.2069,-418.4932"/>
</g>
<!-- src/widgets/text.ts -->
<g id="node21" class="node">
<title>src/widgets/text.ts</title>
<g id="a_node21"><a xlink:href="https://github.com/dragonman225/nast-util-to-html/tree/master/src/widgets/text.ts" xlink:title="text.ts">
<path fill="#ddfeff" stroke="#000000" d="M258,-129.6755C258,-129.6755 216,-129.6755 216,-129.6755 213,-129.6755 210,-126.6755 210,-123.6755 210,-123.6755 210,-117.6755 210,-117.6755 210,-114.6755 213,-111.6755 216,-111.6755 216,-111.6755 258,-111.6755 258,-111.6755 261,-111.6755 264,-114.6755 264,-117.6755 264,-117.6755 264,-123.6755 264,-123.6755 264,-126.6755 261,-129.6755 258,-129.6755"/>
<text text-anchor="middle" x="237" y="-118.4755" font-family="Helvetica,sans-Serif" font-size="9.00" fill="#000000">text.ts</text>
</a>
</g>
</g>
<!-- src/render&#45;control.ts&#45;&gt;src/widgets/text.ts -->
<g id="edge19" class="edge">
<title>src/render&#45;control.ts&#45;&gt;src/widgets/text.ts</title>
<path fill="none" stroke="#000000" stroke-width="2" stroke-opacity="0.466667" d="M129.5046,-276.3431C131.4389,-250.1021 140.5992,-175.0252 183,-135.6755 187.7739,-131.2451 193.7433,-128.106 199.9565,-125.8859"/>
<polygon fill="#000000" fill-opacity="0.466667" stroke="#000000" stroke-width="2" stroke-opacity="0.466667" points="201.1178,-129.1947 209.7841,-123.1 199.2086,-122.4601 201.1178,-129.1947"/>
</g>
<!-- src/widgets/to&#45;do.ts -->
<g id="node22" class="node">
<title>src/widgets/to&#45;do.ts</title>
<g id="a_node22"><a xlink:href="https://github.com/dragonman225/nast-util-to-html/tree/master/src/widgets/to-do.ts" xlink:title="to&#45;do.ts">
<path fill="#ddfeff" stroke="#000000" d="M258,-159.6755C258,-159.6755 216,-159.6755 216,-159.6755 213,-159.6755 210,-156.6755 210,-153.6755 210,-153.6755 210,-147.6755 210,-147.6755 210,-144.6755 213,-141.6755 216,-141.6755 216,-141.6755 258,-141.6755 258,-141.6755 261,-141.6755 264,-144.6755 264,-147.6755 264,-147.6755 264,-153.6755 264,-153.6755 264,-156.6755 261,-159.6755 258,-159.6755"/>
<text text-anchor="middle" x="237" y="-148.4755" font-family="Helvetica,sans-Serif" font-size="9.00" fill="#000000">to&#45;do.ts</text>
</a>
</g>
</g>
<!-- src/render&#45;control.ts&#45;&gt;src/widgets/to&#45;do.ts -->
<g id="edge20" class="edge">
<title>src/render&#45;control.ts&#45;&gt;src/widgets/to&#45;do.ts</title>
<path fill="none" stroke="#000000" stroke-width="2" stroke-opacity="0.466667" d="M130.4021,-276.5913C134.3444,-254.2101 147.6398,-196.0345 183,-165.6755 187.8931,-161.4745 193.8724,-158.4433 200.0473,-156.2578"/>
<polygon fill="#000000" fill-opacity="0.466667" stroke="#000000" stroke-width="2" stroke-opacity="0.466667" points="201.1319,-159.5881 209.7839,-153.473 199.2069,-152.8579 201.1319,-159.5881"/>
</g>
<!-- src/widgets/toggle.ts -->
<g id="node23" class="node">
<title>src/widgets/toggle.ts</title>
<g id="a_node23"><a xlink:href="https://github.com/dragonman225/nast-util-to-html/tree/master/src/widgets/toggle.ts" xlink:title="toggle.ts">
<path fill="#ddfeff" stroke="#000000" d="M259,-189.6755C259,-189.6755 215,-189.6755 215,-189.6755 212,-189.6755 209,-186.6755 209,-183.6755 209,-183.6755 209,-177.6755 209,-177.6755 209,-174.6755 212,-171.6755 215,-171.6755 215,-171.6755 259,-171.6755 259,-171.6755 262,-171.6755 265,-174.6755 265,-177.6755 265,-177.6755 265,-183.6755 265,-183.6755 265,-186.6755 262,-189.6755 259,-189.6755"/>
<text text-anchor="middle" x="237" y="-178.4755" font-family="Helvetica,sans-Serif" font-size="9.00" fill="#000000">toggle.ts</text>
</a>
</g>
</g>
<!-- src/render&#45;control.ts&#45;&gt;src/widgets/toggle.ts -->
<g id="edge21" class="edge">
<title>src/render&#45;control.ts&#45;&gt;src/widgets/toggle.ts</title>
<path fill="none" stroke="#000000" stroke-width="2" stroke-opacity="0.466667" d="M131.9211,-276.4467C138.1948,-258.1517 154.7275,-217.198 183,-195.6755 187.7613,-192.051 193.3514,-189.3022 199.0974,-187.2177"/>
<polygon fill="#000000" fill-opacity="0.466667" stroke="#000000" stroke-width="2" stroke-opacity="0.466667" points="200.2284,-190.5324 208.7957,-184.2992 198.2112,-183.8294 200.2284,-190.5324"/>
</g>
<!-- src/render&#45;utils&#45;prismjs.js -->
<g id="node6" class="node">
<title>src/render&#45;utils&#45;prismjs.js</title>
<g id="a_node6"><a xlink:href="https://github.com/dragonman225/nast-util-to-html/tree/master/src/render-utils-prismjs.js" xlink:title="render&#45;utils&#45;prismjs.js">
<path fill="#ffffcc" stroke="#000000" d="M499,-303.6755C499,-303.6755 398,-303.6755 398,-303.6755 395,-303.6755 392,-300.6755 392,-297.6755 392,-297.6755 392,-291.6755 392,-291.6755 392,-288.6755 395,-285.6755 398,-285.6755 398,-285.6755 499,-285.6755 499,-285.6755 502,-285.6755 505,-288.6755 505,-291.6755 505,-291.6755 505,-297.6755 505,-297.6755 505,-300.6755 502,-303.6755 499,-303.6755"/>
<text text-anchor="middle" x="448.5" y="-292.4755" font-family="Helvetica,sans-Serif" font-size="9.00" fill="#000000">render&#45;utils&#45;prismjs.js</text>
</a>
</g>
</g>
<!-- src/render&#45;utils.ts&#45;&gt;src/constants.ts -->
<g id="edge22" class="edge">
<title>src/render&#45;utils.ts&#45;&gt;src/constants.ts</title>
<path fill="none" stroke="#000000" stroke-width="2" stroke-opacity="0.466667" d="M359.1601,-270.6515C365.8552,-267.1346 373.0999,-262.7267 379,-257.6755 403.8731,-236.3813 425.6895,-204.9013 437.9693,-185.3725"/>
<polygon fill="#000000" fill-opacity="0.466667" stroke="#000000" stroke-width="2" stroke-opacity="0.466667" points="440.9564,-187.1965 443.203,-176.8426 434.9899,-183.5356 440.9564,-187.1965"/>
</g>
<!-- src/render&#45;utils.ts&#45;&gt;src/log&#45;utils.js -->
<g id="edge23" class="edge">
<title>src/render&#45;utils.ts&#45;&gt;src/log&#45;utils.js</title>
<path fill="none" stroke="#000000" stroke-width="2" stroke-opacity="0.466667" d="M342.2583,-270.5278C349.926,-249.3357 370.1211,-195.424 392,-152.6755 405.7442,-125.8212 424.5385,-96.3697 436.6006,-78.201"/>
<polygon fill="#000000" fill-opacity="0.466667" stroke="#000000" stroke-width="2" stroke-opacity="0.466667" points="439.5701,-80.0568 442.2322,-69.8019 433.7561,-76.1585 439.5701,-80.0568"/>
</g>
<!-- src/render&#45;utils.ts&#45;&gt;src/notion&#45;utils.js -->
<g id="edge24" class="edge">
<title>src/render&#45;utils.ts&#45;&gt;src/notion&#45;utils.js</title>
<path fill="none" stroke="#000000" stroke-width="2" stroke-opacity="0.466667" d="M379.152,-274.1753C385.8776,-273.254 392.9202,-272.2892 399.8319,-271.3424"/>
<polygon fill="#000000" fill-opacity="0.466667" stroke="#000000" stroke-width="2" stroke-opacity="0.466667" points="400.3801,-274.8001 409.8125,-269.9752 399.43,-267.8648 400.3801,-274.8001"/>
</g>
<!-- src/render&#45;utils.ts&#45;&gt;src/render&#45;utils&#45;prismjs.js -->
<g id="edge25" class="edge">
<title>src/render&#45;utils.ts&#45;&gt;src/render&#45;utils&#45;prismjs.js</title>
<path fill="none" stroke="#000000" stroke-width="2" stroke-opacity="0.466667" d="M379.152,-285.1758C380.0599,-285.3002 380.9736,-285.4254 381.892,-285.5512"/>
<polygon fill="#000000" fill-opacity="0.466667" stroke="#000000" stroke-width="2" stroke-opacity="0.466667" points="381.4781,-289.0271 391.8606,-286.9167 382.4282,-282.0918 381.4781,-289.0271"/>
</g>
<!-- src/widgets/audio.ts&#45;&gt;src/render&#45;utils.ts -->
<g id="edge26" class="edge">
<title>src/widgets/audio.ts&#45;&gt;src/render&#45;utils.ts</title>
<path fill="none" stroke="#000000" stroke-width="2" stroke-opacity="0.466667" d="M264.0742,-387.7093C273.4094,-385.5765 283.4148,-381.9237 291,-375.6755 315.2386,-355.7093 328.3661,-320.4273 334.5072,-298.6474"/>
<polygon fill="#000000" fill-opacity="0.466667" stroke="#000000" stroke-width="2" stroke-opacity="0.466667" points="337.9115,-299.4625 337.0414,-288.9034 331.1369,-297.7004 337.9115,-299.4625"/>
</g>
<!-- src/widgets/bookmark.ts&#45;&gt;src/render&#45;utils.ts -->
<g id="edge27" class="edge">
<title>src/widgets/bookmark.ts&#45;&gt;src/render&#45;utils.ts</title>
<path fill="none" stroke="#000000" stroke-width="2" stroke-opacity="0.466667" d="M273.6458,-354.1054C279.7644,-352.0216 285.8034,-349.2803 291,-345.6755 308.404,-333.6027 321.8505,-313.122 330.0263,-298.171"/>
<polygon fill="#000000" fill-opacity="0.466667" stroke="#000000" stroke-width="2" stroke-opacity="0.466667" points="333.3484,-299.3659 334.8283,-288.8749 327.1291,-296.1532 333.3484,-299.3659"/>
</g>
<!-- src/widgets/callout.ts&#45;&gt;src/constants.ts -->
<g id="edge28" class="edge">
<title>src/widgets/callout.ts&#45;&gt;src/constants.ts</title>
<path fill="none" stroke="#000000" stroke-width="2" stroke-opacity="0.466667" d="M266.4082,-204.6966C301.6407,-197.5334 361.0815,-185.4486 402.4276,-177.0425"/>
<polygon fill="#000000" fill-opacity="0.466667" stroke="#000000" stroke-width="2" stroke-opacity="0.466667" points="403.1599,-180.4653 412.2621,-175.0431 401.7652,-173.6056 403.1599,-180.4653"/>
</g>
<!-- src/widgets/callout.ts&#45;&gt;src/render&#45;utils.ts -->
<g id="edge29" class="edge">
<title>src/widgets/callout.ts&#45;&gt;src/render&#45;utils.ts</title>
<path fill="none" stroke="#000000" stroke-width="2" stroke-opacity="0.466667" d="M266.0174,-215.4983C274.4915,-217.7411 283.4867,-220.9907 291,-225.6755 305.9278,-234.9836 318.9059,-250.3005 327.5902,-262.2485"/>
<polygon fill="#000000" fill-opacity="0.466667" stroke="#000000" stroke-width="2" stroke-opacity="0.466667" points="324.7846,-264.3448 333.3553,-270.5732 330.5394,-260.3594 324.7846,-264.3448"/>
</g>
<!-- src/widgets/code.ts&#45;&gt;src/render&#45;utils.ts -->
<g id="edge30" class="edge">
<title>src/widgets/code.ts&#45;&gt;src/render&#45;utils.ts</title>
<path fill="none" stroke="#000000" stroke-width="2" stroke-opacity="0.466667" d="M264.0922,-325.2539C272.9296,-322.9394 282.6187,-319.7991 291,-315.6755 301.7954,-310.3642 312.6203,-302.5175 321.2507,-295.5044"/>
<polygon fill="#000000" fill-opacity="0.466667" stroke="#000000" stroke-width="2" stroke-opacity="0.466667" points="323.6917,-298.0238 329.0671,-288.8939 319.1715,-292.679 323.6917,-298.0238"/>
</g>
<!-- src/widgets/collection.ts&#45;&gt;src/constants.ts -->
<g id="edge31" class="edge">
<title>src/widgets/collection.ts&#45;&gt;src/constants.ts</title>
<path fill="none" stroke="#000000" stroke-width="2" stroke-opacity="0.466667" d="M269.5616,-99.6873C276.6317,-101.6533 284.0682,-103.7282 291,-105.6755 330.1435,-116.6722 341.2871,-115.481 379,-130.6755 394.814,-137.047 411.7161,-145.9929 424.8921,-153.4922"/>
<polygon fill="#000000" fill-opacity="0.466667" stroke="#000000" stroke-width="2" stroke-opacity="0.466667" points="423.3534,-156.6459 433.759,-158.6396 426.8679,-150.5921 423.3534,-156.6459"/>
</g>
<!-- src/widgets/collection.ts&#45;&gt;src/log&#45;utils.js -->
<g id="edge32" class="edge">
<title>src/widgets/collection.ts&#45;&gt;src/log&#45;utils.js</title>
<path fill="none" stroke="#000000" stroke-width="2" stroke-opacity="0.466667" d="M272.8781,-85.5864C310.0946,-80.3075 368.2091,-72.0643 407.2867,-66.5214"/>
<polygon fill="#000000" fill-opacity="0.466667" stroke="#000000" stroke-width="2" stroke-opacity="0.466667" points="407.8689,-69.9739 417.2782,-65.1042 406.8858,-63.0433 407.8689,-69.9739"/>
</g>
<!-- src/widgets/collection.ts&#45;&gt;src/render&#45;utils.ts -->
<g id="edge33" class="edge">
<title>src/widgets/collection.ts&#45;&gt;src/render&#45;utils.ts</title>
<path fill="none" stroke="#000000" stroke-width="2" stroke-opacity="0.466667" d="M272.6387,-95.0057C279.4348,-97.2688 285.982,-100.6486 291,-105.6755 312.9562,-127.6708 329.7045,-220.0395 336.1342,-260.5249"/>
<polygon fill="#000000" fill-opacity="0.466667" stroke="#000000" stroke-width="2" stroke-opacity="0.466667" points="332.6842,-261.118 337.6698,-270.4665 339.6022,-260.0494 332.6842,-261.118"/>
</g>
<!-- src/widgets/column&#45;helper.ts&#45;&gt;src/constants.ts -->
<g id="edge34" class="edge">
<title>src/widgets/column&#45;helper.ts&#45;&gt;src/constants.ts</title>
<path fill="none" stroke="#000000" stroke-width="2" stroke-opacity="0.466667" d="M283.2991,-69.4235C312.1685,-76.1994 349.3374,-87.4008 379,-104.6755 400.4106,-117.1445 420.9194,-137.044 434.0363,-151.1381"/>
<polygon fill="#000000" fill-opacity="0.466667" stroke="#000000" stroke-width="2" stroke-opacity="0.466667" points="431.5481,-153.6046 440.856,-158.6656 436.7357,-148.9048 431.5481,-153.6046"/>
</g>
<!-- src/widgets/column&#45;helper.ts&#45;&gt;src/log&#45;utils.js -->
<g id="edge35" class="edge">
<title>src/widgets/column&#45;helper.ts&#45;&gt;src/log&#45;utils.js</title>
<path fill="none" stroke="#000000" stroke-width="2" stroke-opacity="0.466667" d="M283.1532,-60.6755C320.2129,-60.6755 371.7714,-60.6755 407.4175,-60.6755"/>
<polygon fill="#000000" fill-opacity="0.466667" stroke="#000000" stroke-width="2" stroke-opacity="0.466667" points="407.4793,-64.1756 417.4793,-60.6755 407.4792,-57.1756 407.4793,-64.1756"/>
</g>
<!-- src/widgets/column&#45;helper.ts&#45;&gt;src/render&#45;utils.ts -->
<g id="edge36" class="edge">
<title>src/widgets/column&#45;helper.ts&#45;&gt;src/render&#45;utils.ts</title>
<path fill="none" stroke="#000000" stroke-width="2" stroke-opacity="0.466667" d="M283.2242,-69.5705C286.072,-71.2738 288.7078,-73.2901 291,-75.6755 316.564,-102.2793 331.7492,-214.7684 336.9556,-260.3623"/>
<polygon fill="#000000" fill-opacity="0.466667" stroke="#000000" stroke-width="2" stroke-opacity="0.466667" points="333.4895,-260.8635 338.0645,-270.4197 340.4474,-260.0963 333.4895,-260.8635"/>
</g>
<!-- src/widgets/divider.ts&#45;&gt;src/render&#45;utils.ts -->
<g id="edge37" class="edge">
<title>src/widgets/divider.ts&#45;&gt;src/render&#45;utils.ts</title>
<path fill="none" stroke="#000000" stroke-width="2" stroke-opacity="0.466667" d="M265.6841,-294.77C272.8931,-293.2858 280.8431,-291.649 288.7683,-290.0174"/>
<polygon fill="#000000" fill-opacity="0.466667" stroke="#000000" stroke-width="2" stroke-opacity="0.466667" points="289.6473,-293.4099 298.7361,-287.9652 288.2357,-286.5537 289.6473,-293.4099"/>
</g>
<!-- src/widgets/embed.ts&#45;&gt;src/render&#45;utils.ts -->
<g id="edge38" class="edge">
<title>src/widgets/embed.ts&#45;&gt;src/render&#45;utils.ts</title>
<path fill="none" stroke="#000000" stroke-width="2" stroke-opacity="0.466667" d="M266.6599,-508.295C275.5601,-506.1745 284.6369,-502.3803 291,-495.6755 318.056,-467.1668 332.5272,-346.2259 337.2456,-298.835"/>
<polygon fill="#000000" fill-opacity="0.466667" stroke="#000000" stroke-width="2" stroke-opacity="0.466667" points="340.7463,-298.9937 338.2154,-288.7056 333.7782,-298.3265 340.7463,-298.9937"/>
</g>
<!-- src/widgets/equation.ts&#45;&gt;src/render&#45;utils.ts -->
<g id="edge39" class="edge">
<title>src/widgets/equation.ts&#45;&gt;src/render&#45;utils.ts</title>
<path fill="none" stroke="#000000" stroke-width="2" stroke-opacity="0.466667" d="M271.0237,-476.9455C278.411,-474.6888 285.6149,-471.1606 291,-465.6755 314.3776,-441.864 330.5375,-341.6213 336.4787,-298.9916"/>
<polygon fill="#000000" fill-opacity="0.466667" stroke="#000000" stroke-width="2" stroke-opacity="0.466667" points="339.9528,-299.4179 337.8245,-289.039 333.016,-298.4798 339.9528,-299.4179"/>
</g>
<!-- src/widgets/heading.ts&#45;&gt;src/constants.ts -->
<g id="edge40" class="edge">
<title>src/widgets/heading.ts&#45;&gt;src/constants.ts</title>
<path fill="none" stroke="#000000" stroke-width="2" stroke-opacity="0.466667" d="M269.6746,-232.0401C276.7377,-230.0506 284.1427,-227.871 291,-225.6755 334.8219,-211.645 384.5087,-192.8553 416.1513,-180.5161"/>
<polygon fill="#000000" fill-opacity="0.466667" stroke="#000000" stroke-width="2" stroke-opacity="0.466667" points="417.7268,-183.6579 425.7605,-176.7508 415.1729,-177.1404 417.7268,-183.6579"/>
</g>
<!-- src/widgets/heading.ts&#45;&gt;src/render&#45;utils.ts -->
<g id="edge41" class="edge">
<title>src/widgets/heading.ts&#45;&gt;src/render&#45;utils.ts</title>
<path fill="none" stroke="#000000" stroke-width="2" stroke-opacity="0.466667" d="M269.5972,-248.6376C276.7343,-250.6826 284.1893,-253.0551 291,-255.6755 298.5325,-258.5737 306.4633,-262.2585 313.6605,-265.8658"/>
<polygon fill="#000000" fill-opacity="0.466667" stroke="#000000" stroke-width="2" stroke-opacity="0.466667" points="312.4239,-269.1668 322.9136,-270.6555 315.6418,-262.9502 312.4239,-269.1668"/>
</g>
<!-- src/widgets/image.ts&#45;&gt;src/render&#45;utils.ts -->
<g id="edge42" class="edge">
<title>src/widgets/image.ts&#45;&gt;src/render&#45;utils.ts</title>
<path fill="none" stroke="#000000" stroke-width="2" stroke-opacity="0.466667" d="M265.2281,-448.2492C274.4554,-446.1574 284.0955,-442.3924 291,-435.6755 310.7873,-416.426 328.2598,-336.1098 335.4786,-298.8347"/>
<polygon fill="#000000" fill-opacity="0.466667" stroke="#000000" stroke-width="2" stroke-opacity="0.466667" points="338.9639,-299.2395 337.3809,-288.7636 332.0856,-297.9401 338.9639,-299.2395"/>
</g>
<!-- src/widgets/list.ts&#45;&gt;src/constants.ts -->
<g id="edge43" class="edge">
<title>src/widgets/list.ts&#45;&gt;src/constants.ts</title>
<path fill="none" stroke="#000000" stroke-width="2" stroke-opacity="0.466667" d="M264.232,-264.1563C272.8969,-261.8053 282.449,-258.9209 291,-255.6755 331.6981,-240.2296 341.1062,-234.0992 379,-212.6755 395.4703,-203.3639 413.3769,-191.7314 426.8888,-182.6262"/>
<polygon fill="#000000" fill-opacity="0.466667" stroke="#000000" stroke-width="2" stroke-opacity="0.466667" points="429.1718,-185.3061 435.4693,-176.786 425.2331,-179.5193 429.1718,-185.3061"/>
</g>
<!-- src/widgets/list.ts&#45;&gt;src/render&#45;utils.ts -->
<g id="edge44" class="edge">
<title>src/widgets/list.ts&#45;&gt;src/render&#45;utils.ts</title>
<path fill="none" stroke="#000000" stroke-width="2" stroke-opacity="0.466667" d="M264.0663,-273.0637C271.619,-273.7302 280.0773,-274.4765 288.5168,-275.2211"/>
<polygon fill="#000000" fill-opacity="0.466667" stroke="#000000" stroke-width="2" stroke-opacity="0.466667" points="288.4706,-278.7306 298.7395,-276.1231 289.0859,-271.7577 288.4706,-278.7306"/>
</g>
<!-- src/widgets/quote.ts&#45;&gt;src/render&#45;utils.ts -->
<g id="edge45" class="edge">
<title>src/widgets/quote.ts&#45;&gt;src/render&#45;utils.ts</title>
<path fill="none" stroke="#000000" stroke-width="2" stroke-opacity="0.466667" d="M264.1487,-418.178C273.6007,-416.0983 283.6635,-412.3594 291,-405.6755 322.1778,-377.2712 333.2459,-326.4353 337.0671,-298.8131"/>
<polygon fill="#000000" fill-opacity="0.466667" stroke="#000000" stroke-width="2" stroke-opacity="0.466667" points="340.5477,-299.1838 338.2676,-288.8373 333.5978,-298.3475 340.5477,-299.1838"/>
</g>
<!-- src/widgets/text.ts&#45;&gt;src/constants.ts -->
<g id="edge46" class="edge">
<title>src/widgets/text.ts&#45;&gt;src/constants.ts</title>
<path fill="none" stroke="#000000" stroke-width="2" stroke-opacity="0.466667" d="M264.2169,-126.7237C299.1281,-134.4818 360.1995,-148.0532 402.415,-157.4344"/>
<polygon fill="#000000" fill-opacity="0.466667" stroke="#000000" stroke-width="2" stroke-opacity="0.466667" points="401.6602,-160.852 412.1813,-159.6047 403.1787,-154.0187 401.6602,-160.852"/>
</g>
<!-- src/widgets/text.ts&#45;&gt;src/render&#45;utils.ts -->
<g id="edge47" class="edge">
<title>src/widgets/text.ts&#45;&gt;src/render&#45;utils.ts</title>
<path fill="none" stroke="#000000" stroke-width="2" stroke-opacity="0.466667" d="M264.0254,-122.9464C273.5754,-124.9946 283.7358,-128.7713 291,-135.6755 309.3562,-153.122 327.2056,-225.5398 334.9624,-260.5524"/>
<polygon fill="#000000" fill-opacity="0.466667" stroke="#000000" stroke-width="2" stroke-opacity="0.466667" points="331.5768,-261.4559 337.114,-270.4886 338.4183,-259.9744 331.5768,-261.4559"/>
</g>
<!-- src/widgets/to&#45;do.ts&#45;&gt;src/constants.ts -->
<g id="edge48" class="edge">
<title>src/widgets/to&#45;do.ts&#45;&gt;src/constants.ts</title>
<path fill="none" stroke="#000000" stroke-width="2" stroke-opacity="0.466667" d="M264.2169,-152.8632C299.0545,-155.6634 359.9419,-160.5574 402.1475,-163.9498"/>
<polygon fill="#000000" fill-opacity="0.466667" stroke="#000000" stroke-width="2" stroke-opacity="0.466667" points="401.933,-167.4438 412.1813,-164.7563 402.4939,-160.4663 401.933,-167.4438"/>
</g>
<!-- src/widgets/to&#45;do.ts&#45;&gt;src/render&#45;utils.ts -->
<g id="edge49" class="edge">
<title>src/widgets/to&#45;do.ts&#45;&gt;src/render&#45;utils.ts</title>
<path fill="none" stroke="#000000" stroke-width="2" stroke-opacity="0.466667" d="M264.0246,-153.3117C273.4631,-155.4064 283.5492,-159.1194 291,-165.6755 319.3681,-190.6373 331.4162,-235.1431 336.1768,-260.5328"/>
<polygon fill="#000000" fill-opacity="0.466667" stroke="#000000" stroke-width="2" stroke-opacity="0.466667" points="332.7302,-261.1427 337.8408,-270.4233 339.6331,-259.9812 332.7302,-261.1427"/>
</g>
<!-- src/widgets/toggle.ts&#45;&gt;src/constants.ts -->
<g id="edge50" class="edge">
<title>src/widgets/toggle.ts&#45;&gt;src/constants.ts</title>
<path fill="none" stroke="#000000" stroke-width="2" stroke-opacity="0.466667" d="M265.0856,-178.9492C299.995,-176.8035 360.0698,-173.111 401.9171,-170.5388"/>
<polygon fill="#000000" fill-opacity="0.466667" stroke="#000000" stroke-width="2" stroke-opacity="0.466667" points="402.3707,-174.0176 412.1372,-169.9106 401.9412,-167.0308 402.3707,-174.0176"/>
</g>
<!-- src/widgets/toggle.ts&#45;&gt;src/render&#45;utils.ts -->
<g id="edge51" class="edge">
<title>src/widgets/toggle.ts&#45;&gt;src/render&#45;utils.ts</title>
<path fill="none" stroke="#000000" stroke-width="2" stroke-opacity="0.466667" d="M265.2754,-184.2069C274.1916,-186.3955 283.6283,-189.939 291,-195.6755 312.486,-212.3957 326.0067,-241.6179 333.0351,-260.8075"/>
<polygon fill="#000000" fill-opacity="0.466667" stroke="#000000" stroke-width="2" stroke-opacity="0.466667" points="329.8133,-262.2032 336.358,-270.5349 336.4374,-259.9403 329.8133,-262.2032"/>
</g>
</g>
</svg>
