<?xml version="1.0" encoding="UTF-8" standalone="no"?>
<!DOCTYPE svg PUBLIC "-//W3C//DTD SVG 1.1//EN"
 "http://www.w3.org/Graphics/SVG/1.1/DTD/svg11.dtd">
<!-- Generated by graphviz version 2.43.20190912.0211 (20190912.0211)
 -->
<!-- Title: dependency&#45;cruiser output Pages: 1 -->
<svg width="531pt" height="616pt"
 viewBox="0.00 0.00 531.00 615.70" xmlns="http://www.w3.org/2000/svg" xmlns:xlink="http://www.w3.org/1999/xlink">
<g id="graph0" class="graph" transform="scale(1 1) rotate(0) translate(4 611.7)">
<title>dependency&#45;cruiser output</title>
<polygon fill="white" stroke="transparent" points="-4,4 -4,-611.7 527,-611.7 527,4 -4,4"/>
<g id="clust1" class="cluster">
<title>cluster_src</title>
<path fill="#ffffff" stroke="black" stroke-width="2" d="M20,-15.7C20,-15.7 503,-15.7 503,-15.7 509,-15.7 515,-21.7 515,-27.7 515,-27.7 515,-587.7 515,-587.7 515,-593.7 509,-599.7 503,-599.7 503,-599.7 20,-599.7 20,-599.7 14,-599.7 8,-593.7 8,-587.7 8,-587.7 8,-27.7 8,-27.7 8,-21.7 14,-15.7 20,-15.7"/>
<text text-anchor="middle" x="261.5" y="-588.5" font-family="Helvetica,sans-Serif" font-weight="bold" font-size="9.00">src</text>
</g>
<g id="clust2" class="cluster">
<title>cluster_src/widgets</title>
<path fill="#ffffff" stroke="black" stroke-width="2" d="M195,-47.7C195,-47.7 279,-47.7 279,-47.7 285,-47.7 291,-53.7 291,-59.7 291,-59.7 291,-537.7 291,-537.7 291,-543.7 285,-549.7 279,-549.7 279,-549.7 195,-549.7 195,-549.7 189,-549.7 183,-543.7 183,-537.7 183,-537.7 183,-59.7 183,-59.7 183,-53.7 189,-47.7 195,-47.7"/>
<text text-anchor="middle" x="237" y="-538.5" font-family="Helvetica,sans-Serif" font-weight="bold" font-size="9.00">widgets</text>
</g>
<!-- src/constants.ts -->
<g id="node1" class="node">
<title>src/constants.ts</title>
<g id="a_node1"><a xlink:href="https://github.com/dragonman225/nast-util-to-html/tree/master/src/constants.ts" xlink:title="constants.ts">
<path fill="#ddfeff" stroke="black" d="M479.5,-403.7C479.5,-403.7 419.5,-403.7 419.5,-403.7 416.5,-403.7 413.5,-400.7 413.5,-397.7 413.5,-397.7 413.5,-391.7 413.5,-391.7 413.5,-388.7 416.5,-385.7 419.5,-385.7 419.5,-385.7 479.5,-385.7 479.5,-385.7 482.5,-385.7 485.5,-388.7 485.5,-391.7 485.5,-391.7 485.5,-397.7 485.5,-397.7 485.5,-400.7 482.5,-403.7 479.5,-403.7"/>
<text text-anchor="middle" x="449.5" y="-392.5" font-family="Helvetica,sans-Serif" font-size="9.00">constants.ts</text>
</a>
</g>
</g>
<!-- src/index.ts -->
<g id="node2" class="node">
<title>src/index.ts</title>
<g id="a_node2"><a xlink:href="https://github.com/dragonman225/nast-util-to-html/tree/master/src/index.ts" xlink:title="index.ts">
<path fill="#ddfeff" stroke="black" d="M64,-443.7C64,-443.7 22,-443.7 22,-443.7 19,-443.7 16,-440.7 16,-437.7 16,-437.7 16,-431.7 16,-431.7 16,-428.7 19,-425.7 22,-425.7 22,-425.7 64,-425.7 64,-425.7 67,-425.7 70,-428.7 70,-431.7 70,-431.7 70,-437.7 70,-437.7 70,-440.7 67,-443.7 64,-443.7"/>
<text text-anchor="middle" x="43" y="-432.5" font-family="Helvetica,sans-Serif" font-size="9.00">index.ts</text>
</a>
</g>
</g>
<!-- src/render&#45;control.ts -->
<g id="node5" class="node">
<title>src/render&#45;control.ts</title>
<g id="a_node5"><a xlink:href="https://github.com/dragonman225/nast-util-to-html/tree/master/src/render-control.ts" xlink:title="render&#45;control.ts">
<path fill="#ddfeff" stroke="black" d="M169,-298.7C169,-298.7 89,-298.7 89,-298.7 86,-298.7 83,-295.7 83,-292.7 83,-292.7 83,-286.7 83,-286.7 83,-283.7 86,-280.7 89,-280.7 89,-280.7 169,-280.7 169,-280.7 172,-280.7 175,-283.7 175,-286.7 175,-286.7 175,-292.7 175,-292.7 175,-295.7 172,-298.7 169,-298.7"/>
<text text-anchor="middle" x="129" y="-287.5" font-family="Helvetica,sans-Serif" font-size="9.00">render&#45;control.ts</text>
</a>
</g>
</g>
<!-- src/index.ts&#45;&gt;src/render&#45;control.ts -->
<g id="edge1" class="edge">
<title>src/index.ts&#45;&gt;src/render&#45;control.ts</title>
<path fill="none" stroke="#000000" stroke-width="2" stroke-opacity="0.200000" d="M49.25,-425.63C62.87,-402.13 99.47,-338.94 117.57,-307.69"/>
<polygon fill="#000000" fill-opacity="0.200000" stroke="#000000" stroke-width="2" stroke-opacity="0.200000" points="120.76,-309.17 122.75,-298.76 114.71,-305.66 120.76,-309.17"/>
</g>
<!-- src/render&#45;utils.ts -->
<g id="node7" class="node">
<title>src/render&#45;utils.ts</title>
<g id="a_node7"><a xlink:href="https://github.com/dragonman225/nast-util-to-html/tree/master/src/render-utils.ts" xlink:title="render&#45;utils.ts">
<path fill="#ddfeff" stroke="black" d="M373,-328.7C373,-328.7 305,-328.7 305,-328.7 302,-328.7 299,-325.7 299,-322.7 299,-322.7 299,-316.7 299,-316.7 299,-313.7 302,-310.7 305,-310.7 305,-310.7 373,-310.7 373,-310.7 376,-310.7 379,-313.7 379,-316.7 379,-316.7 379,-322.7 379,-322.7 379,-325.7 376,-328.7 373,-328.7"/>
<text text-anchor="middle" x="339" y="-317.5" font-family="Helvetica,sans-Serif" font-size="9.00">render&#45;utils.ts</text>
</a>
</g>
</g>
<!-- src/index.ts&#45;&gt;src/render&#45;utils.ts -->
<g id="edge2" class="edge">
<title>src/index.ts&#45;&gt;src/render&#45;utils.ts</title>
<path fill="none" stroke="#000000" stroke-width="2" stroke-opacity="0.200000" d="M51.12,-443.89C82.19,-482.96 208.04,-630.1 291,-561.7 325.31,-533.41 334.89,-391.61 337.28,-339.2"/>
<polygon fill="#000000" fill-opacity="0.200000" stroke="#000000" stroke-width="2" stroke-opacity="0.200000" points="340.79,-339.07 337.7,-328.94 333.79,-338.78 340.79,-339.07"/>
</g>
<!-- src/log&#45;utils.ts -->
<g id="node3" class="node">
<title>src/log&#45;utils.ts</title>
<g id="a_node3"><a xlink:href="https://github.com/dragonman225/nast-util-to-html/tree/master/src/log-utils.ts" xlink:title="log&#45;utils.ts">
<path fill="#ddfeff" stroke="black" d="M475,-54.7C475,-54.7 424,-54.7 424,-54.7 421,-54.7 418,-51.7 418,-48.7 418,-48.7 418,-42.7 418,-42.7 418,-39.7 421,-36.7 424,-36.7 424,-36.7 475,-36.7 475,-36.7 478,-36.7 481,-39.7 481,-42.7 481,-42.7 481,-48.7 481,-48.7 481,-51.7 478,-54.7 475,-54.7"/>
<text text-anchor="middle" x="449.5" y="-43.5" font-family="Helvetica,sans-Serif" font-size="9.00">log&#45;utils.ts</text>
</a>
</g>
</g>
<!-- src/notion&#45;utils.ts -->
<g id="node4" class="node">
<title>src/notion&#45;utils.ts</title>
<g id="a_node4"><a xlink:href="https://github.com/dragonman225/nast-util-to-html/tree/master/src/notion-utils.ts" xlink:title="notion&#45;utils.ts">
<path fill="#ddfeff" stroke="black" d="M482.5,-298.7C482.5,-298.7 416.5,-298.7 416.5,-298.7 413.5,-298.7 410.5,-295.7 410.5,-292.7 410.5,-292.7 410.5,-286.7 410.5,-286.7 410.5,-283.7 413.5,-280.7 416.5,-280.7 416.5,-280.7 482.5,-280.7 482.5,-280.7 485.5,-280.7 488.5,-283.7 488.5,-286.7 488.5,-286.7 488.5,-292.7 488.5,-292.7 488.5,-295.7 485.5,-298.7 482.5,-298.7"/>
<text text-anchor="middle" x="449.5" y="-287.5" font-family="Helvetica,sans-Serif" font-size="9.00">notion&#45;utils.ts</text>
</a>
</g>
</g>
<!-- src/render&#45;control.ts&#45;&gt;src/constants.ts -->
<g id="edge3" class="edge">
<title>src/render&#45;control.ts&#45;&gt;src/constants.ts</title>
<path fill="none" stroke="#000000" stroke-width="2" stroke-opacity="0.200000" d="M130.5,-280.6C132.94,-239.93 145.07,-75.3 183,-44.7 220.36,-14.56 243.9,-35.43 291,-44.7 332.46,-52.85 354.56,-46.23 379,-80.7 395.35,-103.75 380.91,-308.7 392,-334.7 399.55,-352.4 414.77,-368.07 427.51,-378.95"/>
<polygon fill="#000000" fill-opacity="0.200000" stroke="#000000" stroke-width="2" stroke-opacity="0.200000" points="425.45,-381.79 435.42,-385.38 429.87,-376.36 425.45,-381.79"/>
</g>
<!-- src/render&#45;control.ts&#45;&gt;src/log&#45;utils.ts -->
<g id="edge4" class="edge">
<title>src/render&#45;control.ts&#45;&gt;src/log&#45;utils.ts</title>
<path fill="none" stroke="#000000" stroke-width="2" stroke-opacity="0.200000" d="M130.38,-280.62C132.34,-238.48 142.86,-62.48 183,-29.7 251.54,26.28 366.26,-10.52 419.6,-32.56"/>
<polygon fill="#000000" fill-opacity="0.200000" stroke="#000000" stroke-width="2" stroke-opacity="0.200000" points="418.55,-35.91 429.12,-36.61 421.29,-29.47 418.55,-35.91"/>
</g>
<!-- src/render&#45;control.ts&#45;&gt;src/render&#45;utils.ts -->
<g id="edge5" class="edge">
<title>src/render&#45;control.ts&#45;&gt;src/render&#45;utils.ts</title>
<path fill="none" stroke="#000000" stroke-width="2" stroke-opacity="0.200000" d="M130.36,-298.87C132.24,-341.5 142.45,-519.5 183,-552.7 201.57,-567.9 272.43,-567.9 291,-552.7 324.03,-525.66 334.37,-390.15 337.12,-339.15"/>
<polygon fill="#000000" fill-opacity="0.200000" stroke="#000000" stroke-width="2" stroke-opacity="0.200000" points="340.63,-339.02 337.63,-328.86 333.64,-338.67 340.63,-339.02"/>
</g>
<!-- src/widgets/audio.ts -->
<g id="node8" class="node">
<title>src/widgets/audio.ts</title>
<g id="a_node8"><a xlink:href="https://github.com/dragonman225/nast-util-to-html/tree/master/src/widgets/audio.ts" xlink:title="audio.ts">
<path fill="#ddfeff" stroke="black" d="M258,-373.7C258,-373.7 216,-373.7 216,-373.7 213,-373.7 210,-370.7 210,-367.7 210,-367.7 210,-361.7 210,-361.7 210,-358.7 213,-355.7 216,-355.7 216,-355.7 258,-355.7 258,-355.7 261,-355.7 264,-358.7 264,-361.7 264,-361.7 264,-367.7 264,-367.7 264,-370.7 261,-373.7 258,-373.7"/>
<text text-anchor="middle" x="237" y="-362.5" font-family="Helvetica,sans-Serif" font-size="9.00">audio.ts</text>
</a>
</g>
</g>
<!-- src/render&#45;control.ts&#45;&gt;src/widgets/audio.ts -->
<g id="edge6" class="edge">
<title>src/render&#45;control.ts&#45;&gt;src/widgets/audio.ts</title>
<path fill="none" stroke="#000000" stroke-width="2" stroke-opacity="0.200000" d="M135.64,-298.9C144.22,-312.12 161.82,-336.37 183,-349.7 188.19,-352.96 194.09,-355.53 200.04,-357.54"/>
<polygon fill="#000000" fill-opacity="0.200000" stroke="#000000" stroke-width="2" stroke-opacity="0.200000" points="199.38,-361 209.96,-360.45 201.35,-354.28 199.38,-361"/>
</g>
<!-- src/widgets/bookmark.ts -->
<g id="node9" class="node">
<title>src/widgets/bookmark.ts</title>
<g id="a_node9"><a xlink:href="https://github.com/dragonman225/nast-util-to-html/tree/master/src/widgets/bookmark.ts" xlink:title="bookmark.ts">
<path fill="#ddfeff" stroke="black" d="M267.5,-343.7C267.5,-343.7 206.5,-343.7 206.5,-343.7 203.5,-343.7 200.5,-340.7 200.5,-337.7 200.5,-337.7 200.5,-331.7 200.5,-331.7 200.5,-328.7 203.5,-325.7 206.5,-325.7 206.5,-325.7 267.5,-325.7 267.5,-325.7 270.5,-325.7 273.5,-328.7 273.5,-331.7 273.5,-331.7 273.5,-337.7 273.5,-337.7 273.5,-340.7 270.5,-343.7 267.5,-343.7"/>
<text text-anchor="middle" x="237" y="-332.5" font-family="Helvetica,sans-Serif" font-size="9.00">bookmark.ts</text>
</a>
</g>
</g>
<!-- src/render&#45;control.ts&#45;&gt;src/widgets/bookmark.ts -->
<g id="edge7" class="edge">
<title>src/render&#45;control.ts&#45;&gt;src/widgets/bookmark.ts</title>
<path fill="none" stroke="#000000" stroke-width="2" stroke-opacity="0.200000" d="M143.93,-298.8C154.35,-305.31 169.14,-313.91 183,-319.7 185.48,-320.73 188.05,-321.72 190.67,-322.66"/>
<polygon fill="#000000" fill-opacity="0.200000" stroke="#000000" stroke-width="2" stroke-opacity="0.200000" points="189.65,-326.01 200.25,-325.84 191.86,-319.37 189.65,-326.01"/>
</g>
<!-- src/widgets/callout.ts -->
<g id="node10" class="node">
<title>src/widgets/callout.ts</title>
<g id="a_node10"><a xlink:href="https://github.com/dragonman225/nast-util-to-html/tree/master/src/widgets/callout.ts" xlink:title="callout.ts">
<path fill="#ddfeff" stroke="black" d="M260,-313.7C260,-313.7 214,-313.7 214,-313.7 211,-313.7 208,-310.7 208,-307.7 208,-307.7 208,-301.7 208,-301.7 208,-298.7 211,-295.7 214,-295.7 214,-295.7 260,-295.7 260,-295.7 263,-295.7 266,-298.7 266,-301.7 266,-301.7 266,-307.7 266,-307.7 266,-310.7 263,-313.7 260,-313.7"/>
<text text-anchor="middle" x="237" y="-302.5" font-family="Helvetica,sans-Serif" font-size="9.00">callout.ts</text>
</a>
</g>
</g>
<!-- src/render&#45;control.ts&#45;&gt;src/widgets/callout.ts -->
<g id="edge8" class="edge">
<title>src/render&#45;control.ts&#45;&gt;src/widgets/callout.ts</title>
<path fill="none" stroke="#000000" stroke-width="2" stroke-opacity="0.200000" d="M175.26,-296.1C182.76,-297.16 190.46,-298.25 197.77,-299.29"/>
<polygon fill="#000000" fill-opacity="0.200000" stroke="#000000" stroke-width="2" stroke-opacity="0.200000" points="197.36,-302.76 207.75,-300.7 198.34,-295.83 197.36,-302.76"/>
</g>
<!-- src/widgets/code.ts -->
<g id="node11" class="node">
<title>src/widgets/code.ts</title>
<g id="a_node11"><a xlink:href="https://github.com/dragonman225/nast-util-to-html/tree/master/src/widgets/code.ts" xlink:title="code.ts">
<path fill="#ddfeff" stroke="black" d="M258,-283.7C258,-283.7 216,-283.7 216,-283.7 213,-283.7 210,-280.7 210,-277.7 210,-277.7 210,-271.7 210,-271.7 210,-268.7 213,-265.7 216,-265.7 216,-265.7 258,-265.7 258,-265.7 261,-265.7 264,-268.7 264,-271.7 264,-271.7 264,-277.7 264,-277.7 264,-280.7 261,-283.7 258,-283.7"/>
<text text-anchor="middle" x="237" y="-272.5" font-family="Helvetica,sans-Serif" font-size="9.00">code.ts</text>
</a>
</g>
</g>
<!-- src/render&#45;control.ts&#45;&gt;src/widgets/code.ts -->
<g id="edge9" class="edge">
<title>src/render&#45;control.ts&#45;&gt;src/widgets/code.ts</title>
<path fill="none" stroke="#000000" stroke-width="2" stroke-opacity="0.200000" d="M175.26,-283.29C183.48,-282.13 191.95,-280.93 199.86,-279.81"/>
<polygon fill="#000000" fill-opacity="0.200000" stroke="#000000" stroke-width="2" stroke-opacity="0.200000" points="200.46,-283.26 209.87,-278.39 199.48,-276.33 200.46,-283.26"/>
</g>
<!-- src/widgets/collection.ts -->
<g id="node12" class="node">
<title>src/widgets/collection.ts</title>
<g id="a_node12"><a xlink:href="https://github.com/dragonman225/nast-util-to-html/tree/master/src/widgets/collection.ts" xlink:title="collection.ts">
<path fill="#ddfeff" stroke="black" d="M266.5,-73.7C266.5,-73.7 207.5,-73.7 207.5,-73.7 204.5,-73.7 201.5,-70.7 201.5,-67.7 201.5,-67.7 201.5,-61.7 201.5,-61.7 201.5,-58.7 204.5,-55.7 207.5,-55.7 207.5,-55.7 266.5,-55.7 266.5,-55.7 269.5,-55.7 272.5,-58.7 272.5,-61.7 272.5,-61.7 272.5,-67.7 272.5,-67.7 272.5,-70.7 269.5,-73.7 266.5,-73.7"/>
<text text-anchor="middle" x="237" y="-62.5" font-family="Helvetica,sans-Serif" font-size="9.00">collection.ts</text>
</a>
</g>
</g>
<!-- src/render&#45;control.ts&#45;&gt;src/widgets/collection.ts -->
<g id="edge10" class="edge">
<title>src/render&#45;control.ts&#45;&gt;src/widgets/collection.ts</title>
<path fill="none" stroke="#000000" stroke-width="2" stroke-opacity="0.200000" d="M131.08,-280.66C135.58,-244.35 154.04,-109.49 183,-79.7 185.66,-76.96 188.77,-74.72 192.13,-72.87"/>
<polygon fill="#000000" fill-opacity="0.200000" stroke="#000000" stroke-width="2" stroke-opacity="0.200000" points="193.66,-76.03 201.48,-68.87 190.91,-69.59 193.66,-76.03"/>
</g>
<!-- src/widgets/column&#45;helper.ts -->
<g id="node13" class="node">
<title>src/widgets/column&#45;helper.ts</title>
<g id="a_node13"><a xlink:href="https://github.com/dragonman225/nast-util-to-html/tree/master/src/widgets/column-helper.ts" xlink:title="column&#45;helper.ts">
<path fill="#ddfeff" stroke="black" d="M277,-103.7C277,-103.7 197,-103.7 197,-103.7 194,-103.7 191,-100.7 191,-97.7 191,-97.7 191,-91.7 191,-91.7 191,-88.7 194,-85.7 197,-85.7 197,-85.7 277,-85.7 277,-85.7 280,-85.7 283,-88.7 283,-91.7 283,-91.7 283,-97.7 283,-97.7 283,-100.7 280,-103.7 277,-103.7"/>
<text text-anchor="middle" x="237" y="-92.5" font-family="Helvetica,sans-Serif" font-size="9.00">column&#45;helper.ts</text>
</a>
</g>
</g>
<!-- src/render&#45;control.ts&#45;&gt;src/widgets/column&#45;helper.ts -->
<g id="edge11" class="edge">
<title>src/render&#45;control.ts&#45;&gt;src/widgets/column&#45;helper.ts</title>
<path fill="none" stroke="#000000" stroke-width="2" stroke-opacity="0.200000" d="M129.81,-280.3C129.74,-251.97 133.35,-166.31 183.7,-111.06"/>
<polygon fill="#000000" fill-opacity="0.200000" stroke="#000000" stroke-width="2" stroke-opacity="0.200000" points="186.29,-113.42 190.77,-103.81 181.28,-108.53 186.29,-113.42"/>
</g>
<!-- src/widgets/divider.ts -->
<g id="node14" class="node">
<title>src/widgets/divider.ts</title>
<g id="a_node14"><a xlink:href="https://github.com/dragonman225/nast-util-to-html/tree/master/src/widgets/divider.ts" xlink:title="divider.ts">
<path fill="#ddfeff" stroke="black" d="M259.5,-253.7C259.5,-253.7 214.5,-253.7 214.5,-253.7 211.5,-253.7 208.5,-250.7 208.5,-247.7 208.5,-247.7 208.5,-241.7 208.5,-241.7 208.5,-238.7 211.5,-235.7 214.5,-235.7 214.5,-235.7 259.5,-235.7 259.5,-235.7 262.5,-235.7 265.5,-238.7 265.5,-241.7 265.5,-241.7 265.5,-247.7 265.5,-247.7 265.5,-250.7 262.5,-253.7 259.5,-253.7"/>
<text text-anchor="middle" x="237" y="-242.5" font-family="Helvetica,sans-Serif" font-size="9.00">divider.ts</text>
</a>
</g>
</g>
<!-- src/render&#45;control.ts&#45;&gt;src/widgets/divider.ts -->
<g id="edge12" class="edge">
<title>src/render&#45;control.ts&#45;&gt;src/widgets/divider.ts</title>
<path fill="none" stroke="#000000" stroke-width="2" stroke-opacity="0.200000" d="M143.93,-280.59C154.35,-274.08 169.14,-265.48 183,-259.7 187.89,-257.65 193.15,-255.79 198.39,-254.13"/>
<polygon fill="#000000" fill-opacity="0.200000" stroke="#000000" stroke-width="2" stroke-opacity="0.200000" points="199.75,-257.38 208.34,-251.18 197.76,-250.67 199.75,-257.38"/>
</g>
<!-- src/widgets/embed.ts -->
<g id="node15" class="node">
<title>src/widgets/embed.ts</title>
<g id="a_node15"><a xlink:href="https://github.com/dragonman225/nast-util-to-html/tree/master/src/widgets/embed.ts" xlink:title="embed.ts">
<path fill="#ddfeff" stroke="black" d="M260.5,-223.7C260.5,-223.7 213.5,-223.7 213.5,-223.7 210.5,-223.7 207.5,-220.7 207.5,-217.7 207.5,-217.7 207.5,-211.7 207.5,-211.7 207.5,-208.7 210.5,-205.7 213.5,-205.7 213.5,-205.7 260.5,-205.7 260.5,-205.7 263.5,-205.7 266.5,-208.7 266.5,-211.7 266.5,-211.7 266.5,-217.7 266.5,-217.7 266.5,-220.7 263.5,-223.7 260.5,-223.7"/>
<text text-anchor="middle" x="237" y="-212.5" font-family="Helvetica,sans-Serif" font-size="9.00">embed.ts</text>
</a>
</g>
</g>
<!-- src/render&#45;control.ts&#45;&gt;src/widgets/embed.ts -->
<g id="edge13" class="edge">
<title>src/render&#45;control.ts&#45;&gt;src/widgets/embed.ts</title>
<path fill="none" stroke="#000000" stroke-width="2" stroke-opacity="0.200000" d="M135.64,-280.49C144.22,-267.27 161.82,-243.02 183,-229.7 187.44,-226.9 192.41,-224.62 197.48,-222.75"/>
<polygon fill="#000000" fill-opacity="0.200000" stroke="#000000" stroke-width="2" stroke-opacity="0.200000" points="198.76,-226.02 207.24,-219.66 196.64,-219.34 198.76,-226.02"/>
</g>
<!-- src/widgets/equation.ts -->
<g id="node16" class="node">
<title>src/widgets/equation.ts</title>
<g id="a_node16"><a xlink:href="https://github.com/dragonman225/nast-util-to-html/tree/master/src/widgets/equation.ts" xlink:title="equation.ts">
<path fill="#ddfeff" stroke="black" d="M265,-193.7C265,-193.7 209,-193.7 209,-193.7 206,-193.7 203,-190.7 203,-187.7 203,-187.7 203,-181.7 203,-181.7 203,-178.7 206,-175.7 209,-175.7 209,-175.7 265,-175.7 265,-175.7 268,-175.7 271,-178.7 271,-181.7 271,-181.7 271,-187.7 271,-187.7 271,-190.7 268,-193.7 265,-193.7"/>
<text text-anchor="middle" x="237" y="-182.5" font-family="Helvetica,sans-Serif" font-size="9.00">equation.ts</text>
</a>
</g>
</g>
<!-- src/render&#45;control.ts&#45;&gt;src/widgets/equation.ts -->
<g id="edge14" class="edge">
<title>src/render&#45;control.ts&#45;&gt;src/widgets/equation.ts</title>
<path fill="none" stroke="#000000" stroke-width="2" stroke-opacity="0.200000" d="M132.83,-280.48C138.91,-262.21 155.01,-221.3 183,-199.7 186.15,-197.27 189.67,-195.23 193.36,-193.53"/>
<polygon fill="#000000" fill-opacity="0.200000" stroke="#000000" stroke-width="2" stroke-opacity="0.200000" points="194.68,-196.77 202.77,-189.93 192.18,-190.23 194.68,-196.77"/>
</g>
<!-- src/widgets/heading.ts -->
<g id="node17" class="node">
<title>src/widgets/heading.ts</title>
<g id="a_node17"><a xlink:href="https://github.com/dragonman225/nast-util-to-html/tree/master/src/widgets/heading.ts" xlink:title="heading.ts">
<path fill="#ddfeff" stroke="black" d="M263.5,-463.7C263.5,-463.7 210.5,-463.7 210.5,-463.7 207.5,-463.7 204.5,-460.7 204.5,-457.7 204.5,-457.7 204.5,-451.7 204.5,-451.7 204.5,-448.7 207.5,-445.7 210.5,-445.7 210.5,-445.7 263.5,-445.7 263.5,-445.7 266.5,-445.7 269.5,-448.7 269.5,-451.7 269.5,-451.7 269.5,-457.7 269.5,-457.7 269.5,-460.7 266.5,-463.7 263.5,-463.7"/>
<text text-anchor="middle" x="237" y="-452.5" font-family="Helvetica,sans-Serif" font-size="9.00">heading.ts</text>
</a>
</g>
</g>
<!-- src/render&#45;control.ts&#45;&gt;src/widgets/heading.ts -->
<g id="edge15" class="edge">
<title>src/render&#45;control.ts&#45;&gt;src/widgets/heading.ts</title>
<path fill="none" stroke="#000000" stroke-width="2" stroke-opacity="0.200000" d="M130.45,-299.01C132.22,-325.22 140.9,-400.2 183,-439.7 186.39,-442.87 190.4,-445.38 194.67,-447.37"/>
<polygon fill="#000000" fill-opacity="0.200000" stroke="#000000" stroke-width="2" stroke-opacity="0.200000" points="193.71,-450.75 204.31,-450.92 196.14,-444.18 193.71,-450.75"/>
</g>
<!-- src/widgets/image.ts -->
<g id="node18" class="node">
<title>src/widgets/image.ts</title>
<g id="a_node18"><a xlink:href="https://github.com/dragonman225/nast-util-to-html/tree/master/src/widgets/image.ts" xlink:title="image.ts">
<path fill="#ddfeff" stroke="black" d="M259,-163.7C259,-163.7 215,-163.7 215,-163.7 212,-163.7 209,-160.7 209,-157.7 209,-157.7 209,-151.7 209,-151.7 209,-148.7 212,-145.7 215,-145.7 215,-145.7 259,-145.7 259,-145.7 262,-145.7 265,-148.7 265,-151.7 265,-151.7 265,-157.7 265,-157.7 265,-160.7 262,-163.7 259,-163.7"/>
<text text-anchor="middle" x="237" y="-152.5" font-family="Helvetica,sans-Serif" font-size="9.00">image.ts</text>
</a>
</g>
</g>
<!-- src/render&#45;control.ts&#45;&gt;src/widgets/image.ts -->
<g id="edge16" class="edge">
<title>src/render&#45;control.ts&#45;&gt;src/widgets/image.ts</title>
<path fill="none" stroke="#000000" stroke-width="2" stroke-opacity="0.200000" d="M131.33,-280.63C135.1,-258.28 147.93,-200.17 183,-169.7 187.62,-165.68 193.25,-162.73 199.09,-160.57"/>
<polygon fill="#000000" fill-opacity="0.200000" stroke="#000000" stroke-width="2" stroke-opacity="0.200000" points="200.4,-163.84 208.99,-157.63 198.4,-157.13 200.4,-163.84"/>
</g>
<!-- src/widgets/list.ts -->
<g id="node19" class="node">
<title>src/widgets/list.ts</title>
<g id="a_node19"><a xlink:href="https://github.com/dragonman225/nast-util-to-html/tree/master/src/widgets/list.ts" xlink:title="list.ts">
<path fill="#ddfeff" stroke="black" d="M258,-493.7C258,-493.7 216,-493.7 216,-493.7 213,-493.7 210,-490.7 210,-487.7 210,-487.7 210,-481.7 210,-481.7 210,-478.7 213,-475.7 216,-475.7 216,-475.7 258,-475.7 258,-475.7 261,-475.7 264,-478.7 264,-481.7 264,-481.7 264,-487.7 264,-487.7 264,-490.7 261,-493.7 258,-493.7"/>
<text text-anchor="middle" x="237" y="-482.5" font-family="Helvetica,sans-Serif" font-size="9.00">list.ts</text>
</a>
</g>
</g>
<!-- src/render&#45;control.ts&#45;&gt;src/widgets/list.ts -->
<g id="edge17" class="edge">
<title>src/render&#45;control.ts&#45;&gt;src/widgets/list.ts</title>
<path fill="none" stroke="#000000" stroke-width="2" stroke-opacity="0.200000" d="M129.81,-299.09C129.74,-328.69 133.68,-420.89 183,-469.7 187.68,-474.33 193.69,-477.56 199.96,-479.8"/>
<polygon fill="#000000" fill-opacity="0.200000" stroke="#000000" stroke-width="2" stroke-opacity="0.200000" points="199.31,-483.25 209.88,-482.57 201.19,-476.51 199.31,-483.25"/>
</g>
<!-- src/widgets/quote.ts -->
<g id="node20" class="node">
<title>src/widgets/quote.ts</title>
<g id="a_node20"><a xlink:href="https://github.com/dragonman225/nast-util-to-html/tree/master/src/widgets/quote.ts" xlink:title="quote.ts">
<path fill="#ddfeff" stroke="black" d="M258,-133.7C258,-133.7 216,-133.7 216,-133.7 213,-133.7 210,-130.7 210,-127.7 210,-127.7 210,-121.7 210,-121.7 210,-118.7 213,-115.7 216,-115.7 216,-115.7 258,-115.7 258,-115.7 261,-115.7 264,-118.7 264,-121.7 264,-121.7 264,-127.7 264,-127.7 264,-130.7 261,-133.7 258,-133.7"/>
<text text-anchor="middle" x="237" y="-122.5" font-family="Helvetica,sans-Serif" font-size="9.00">quote.ts</text>
</a>
</g>
</g>
<!-- src/render&#45;control.ts&#45;&gt;src/widgets/quote.ts -->
<g id="edge18" class="edge">
<title>src/render&#45;control.ts&#45;&gt;src/widgets/quote.ts</title>
<path fill="none" stroke="#000000" stroke-width="2" stroke-opacity="0.200000" d="M130.45,-280.38C132.22,-254.18 140.9,-179.19 183,-139.7 187.76,-135.23 193.75,-132.08 199.97,-129.86"/>
<polygon fill="#000000" fill-opacity="0.200000" stroke="#000000" stroke-width="2" stroke-opacity="0.200000" points="201.13,-133.17 209.81,-127.08 199.23,-126.43 201.13,-133.17"/>
</g>
<!-- src/widgets/text.ts -->
<g id="node21" class="node">
<title>src/widgets/text.ts</title>
<g id="a_node21"><a xlink:href="https://github.com/dragonman225/nast-util-to-html/tree/master/src/widgets/text.ts" xlink:title="text.ts">
<path fill="#ddfeff" stroke="black" d="M258,-523.7C258,-523.7 216,-523.7 216,-523.7 213,-523.7 210,-520.7 210,-517.7 210,-517.7 210,-511.7 210,-511.7 210,-508.7 213,-505.7 216,-505.7 216,-505.7 258,-505.7 258,-505.7 261,-505.7 264,-508.7 264,-511.7 264,-511.7 264,-517.7 264,-517.7 264,-520.7 261,-523.7 258,-523.7"/>
<text text-anchor="middle" x="237" y="-512.5" font-family="Helvetica,sans-Serif" font-size="9.00">text.ts</text>
</a>
</g>
</g>
<!-- src/render&#45;control.ts&#45;&gt;src/widgets/text.ts -->
<g id="edge19" class="edge">
<title>src/render&#45;control.ts&#45;&gt;src/widgets/text.ts</title>
<path fill="none" stroke="#000000" stroke-width="2" stroke-opacity="0.200000" d="M131.08,-298.73C135.58,-335.04 154.04,-469.9 183,-499.7 187.59,-504.42 193.55,-507.69 199.81,-509.94"/>
<polygon fill="#000000" fill-opacity="0.200000" stroke="#000000" stroke-width="2" stroke-opacity="0.200000" points="199.17,-513.4 209.74,-512.71 201.05,-506.65 199.17,-513.4"/>
</g>
<!-- src/widgets/to&#45;do.ts -->
<g id="node22" class="node">
<title>src/widgets/to&#45;do.ts</title>
<g id="a_node22"><a xlink:href="https://github.com/dragonman225/nast-util-to-html/tree/master/src/widgets/to-do.ts" xlink:title="to&#45;do.ts">
<path fill="#ddfeff" stroke="black" d="M258,-403.7C258,-403.7 216,-403.7 216,-403.7 213,-403.7 210,-400.7 210,-397.7 210,-397.7 210,-391.7 210,-391.7 210,-388.7 213,-385.7 216,-385.7 216,-385.7 258,-385.7 258,-385.7 261,-385.7 264,-388.7 264,-391.7 264,-391.7 264,-397.7 264,-397.7 264,-400.7 261,-403.7 258,-403.7"/>
<text text-anchor="middle" x="237" y="-392.5" font-family="Helvetica,sans-Serif" font-size="9.00">to&#45;do.ts</text>
</a>
</g>
</g>
<!-- src/render&#45;control.ts&#45;&gt;src/widgets/to&#45;do.ts -->
<g id="edge20" class="edge">
<title>src/render&#45;control.ts&#45;&gt;src/widgets/to&#45;do.ts</title>
<path fill="none" stroke="#000000" stroke-width="2" stroke-opacity="0.200000" d="M132.83,-298.91C138.91,-317.18 155.01,-358.09 183,-379.7 188.07,-383.61 194.11,-386.5 200.27,-388.63"/>
<polygon fill="#000000" fill-opacity="0.200000" stroke="#000000" stroke-width="2" stroke-opacity="0.200000" points="199.34,-392.01 209.92,-391.41 201.28,-385.28 199.34,-392.01"/>
</g>
<!-- src/widgets/toggle.ts -->
<g id="node23" class="node">
<title>src/widgets/toggle.ts</title>
<g id="a_node23"><a xlink:href="https://github.com/dragonman225/nast-util-to-html/tree/master/src/widgets/toggle.ts" xlink:title="toggle.ts">
<path fill="#ddfeff" stroke="black" d="M259,-433.7C259,-433.7 215,-433.7 215,-433.7 212,-433.7 209,-430.7 209,-427.7 209,-427.7 209,-421.7 209,-421.7 209,-418.7 212,-415.7 215,-415.7 215,-415.7 259,-415.7 259,-415.7 262,-415.7 265,-418.7 265,-421.7 265,-421.7 265,-427.7 265,-427.7 265,-430.7 262,-433.7 259,-433.7"/>
<text text-anchor="middle" x="237" y="-422.5" font-family="Helvetica,sans-Serif" font-size="9.00">toggle.ts</text>
</a>
</g>
</g>
<!-- src/render&#45;control.ts&#45;&gt;src/widgets/toggle.ts -->
<g id="edge21" class="edge">
<title>src/render&#45;control.ts&#45;&gt;src/widgets/toggle.ts</title>
<path fill="none" stroke="#000000" stroke-width="2" stroke-opacity="0.200000" d="M131.33,-298.77C135.1,-321.11 147.93,-379.22 183,-409.7 187.62,-413.71 193.25,-416.66 199.09,-418.82"/>
<polygon fill="#000000" fill-opacity="0.200000" stroke="#000000" stroke-width="2" stroke-opacity="0.200000" points="198.4,-422.27 208.99,-421.76 200.4,-415.56 198.4,-422.27"/>
</g>
<!-- src/render&#45;utils&#45;prismjs.ts -->
<g id="node6" class="node">
<title>src/render&#45;utils&#45;prismjs.ts</title>
<g id="a_node6"><a xlink:href="https://github.com/dragonman225/nast-util-to-html/tree/master/src/render-utils-prismjs.ts" xlink:title="render&#45;utils&#45;prismjs.ts">
<path fill="#ddfeff" stroke="black" d="M501,-328.7C501,-328.7 398,-328.7 398,-328.7 395,-328.7 392,-325.7 392,-322.7 392,-322.7 392,-316.7 392,-316.7 392,-313.7 395,-310.7 398,-310.7 398,-310.7 501,-310.7 501,-310.7 504,-310.7 507,-313.7 507,-316.7 507,-316.7 507,-322.7 507,-322.7 507,-325.7 504,-328.7 501,-328.7"/>
<text text-anchor="middle" x="449.5" y="-317.5" font-family="Helvetica,sans-Serif" font-size="9.00">render&#45;utils&#45;prismjs.ts</text>
</a>
</g>
</g>
<!-- src/render&#45;utils&#45;prismjs.ts&#45;&gt;src/render&#45;utils.ts -->
<g id="edge22" class="edge">
<title>src/render&#45;utils&#45;prismjs.ts&#45;&gt;src/render&#45;utils.ts</title>
<path fill="none" stroke="#000000" stroke-width="2" stroke-opacity="0.200000" d="M391.83,-324.19C391.03,-324.19 390.22,-324.19 389.43,-324.18"/>
<polygon fill="#000000" fill-opacity="0.200000" stroke="#000000" stroke-width="2" stroke-opacity="0.200000" points="389.22,-320.68 379.17,-324.04 389.12,-327.68 389.22,-320.68"/>
</g>
<!-- src/render&#45;utils.ts&#45;&gt;src/constants.ts -->
<g id="edge23" class="edge">
<title>src/render&#45;utils.ts&#45;&gt;src/constants.ts</title>
<path fill="none" stroke="#000000" stroke-width="2" stroke-opacity="0.200000" d="M353.3,-328.89C371.71,-341.61 405.14,-364.72 427.08,-379.89"/>
<polygon fill="#000000" fill-opacity="0.200000" stroke="#000000" stroke-width="2" stroke-opacity="0.200000" points="425.21,-382.85 435.43,-385.66 429.19,-377.09 425.21,-382.85"/>
</g>
<!-- src/render&#45;utils.ts&#45;&gt;src/log&#45;utils.ts -->
<g id="edge24" class="edge">
<title>src/render&#45;utils.ts&#45;&gt;src/log&#45;utils.ts</title>
<path fill="none" stroke="#000000" stroke-width="2" stroke-opacity="0.200000" d="M343.61,-310.58C359.06,-271.57 419.76,-118.28 441.06,-64.48"/>
<polygon fill="#000000" fill-opacity="0.200000" stroke="#000000" stroke-width="2" stroke-opacity="0.200000" points="444.45,-65.43 444.88,-54.85 437.94,-62.86 444.45,-65.43"/>
</g>
<!-- src/render&#45;utils.ts&#45;&gt;src/notion&#45;utils.ts -->
<g id="edge25" class="edge">
<title>src/render&#45;utils.ts&#45;&gt;src/notion&#45;utils.ts</title>
<path fill="none" stroke="#000000" stroke-width="2" stroke-opacity="0.200000" d="M371.04,-310.62C377.93,-308.64 385.21,-306.58 392,-304.7 396.02,-303.58 400.2,-302.44 404.39,-301.31"/>
<polygon fill="#000000" fill-opacity="0.200000" stroke="#000000" stroke-width="2" stroke-opacity="0.200000" points="405.36,-304.67 414.11,-298.7 403.54,-297.91 405.36,-304.67"/>
</g>
<!-- src/render&#45;utils.ts&#45;&gt;src/render&#45;utils&#45;prismjs.ts -->
<g id="edge26" class="edge">
<title>src/render&#45;utils.ts&#45;&gt;src/render&#45;utils&#45;prismjs.ts</title>
<path fill="none" stroke="#000000" stroke-width="2" stroke-opacity="0.200000" d="M379.17,-315.35C379.94,-315.34 380.72,-315.32 381.51,-315.31"/>
<polygon fill="#000000" fill-opacity="0.200000" stroke="#000000" stroke-width="2" stroke-opacity="0.200000" points="381.86,-318.8 391.83,-315.2 381.79,-311.8 381.86,-318.8"/>
</g>
<!-- src/widgets/audio.ts&#45;&gt;src/render&#45;utils.ts -->
<g id="edge27" class="edge">
<title>src/widgets/audio.ts&#45;&gt;src/render&#45;utils.ts</title>
<path fill="none" stroke="#000000" stroke-width="2" stroke-opacity="0.200000" d="M264.15,-358.92C272.88,-356.57 282.54,-353.49 291,-349.7 300.11,-345.61 309.51,-339.94 317.49,-334.63"/>
<polygon fill="#000000" fill-opacity="0.200000" stroke="#000000" stroke-width="2" stroke-opacity="0.200000" points="319.56,-337.46 325.8,-328.9 315.58,-331.7 319.56,-337.46"/>
</g>
<!-- src/widgets/bookmark.ts&#45;&gt;src/render&#45;utils.ts -->
<g id="edge28" class="edge">
<title>src/widgets/bookmark.ts&#45;&gt;src/render&#45;utils.ts</title>
<path fill="none" stroke="#000000" stroke-width="2" stroke-opacity="0.200000" d="M273.54,-329.36C278.53,-328.62 283.74,-327.84 288.93,-327.06"/>
<polygon fill="#000000" fill-opacity="0.200000" stroke="#000000" stroke-width="2" stroke-opacity="0.200000" points="289.47,-330.51 298.84,-325.57 288.43,-323.59 289.47,-330.51"/>
</g>
<!-- src/widgets/callout.ts&#45;&gt;src/render&#45;utils.ts -->
<g id="edge29" class="edge">
<title>src/widgets/callout.ts&#45;&gt;src/render&#45;utils.ts</title>
<path fill="none" stroke="#000000" stroke-width="2" stroke-opacity="0.200000" d="M266.12,-308.91C273.19,-309.97 280.99,-311.14 288.76,-312.31"/>
<polygon fill="#000000" fill-opacity="0.200000" stroke="#000000" stroke-width="2" stroke-opacity="0.200000" points="288.49,-315.81 298.9,-313.83 289.53,-308.89 288.49,-315.81"/>
</g>
<!-- src/widgets/code.ts&#45;&gt;src/render&#45;utils.ts -->
<g id="edge30" class="edge">
<title>src/widgets/code.ts&#45;&gt;src/render&#45;utils.ts</title>
<path fill="none" stroke="#000000" stroke-width="2" stroke-opacity="0.200000" d="M264.15,-280.47C272.88,-282.82 282.54,-285.9 291,-289.7 300.11,-293.79 309.51,-299.45 317.49,-304.76"/>
<polygon fill="#000000" fill-opacity="0.200000" stroke="#000000" stroke-width="2" stroke-opacity="0.200000" points="315.58,-307.7 325.8,-310.5 319.56,-301.93 315.58,-307.7"/>
</g>
<!-- src/widgets/collection.ts&#45;&gt;src/constants.ts -->
<g id="edge31" class="edge">
<title>src/widgets/collection.ts&#45;&gt;src/constants.ts</title>
<path fill="none" stroke="#000000" stroke-width="2" stroke-opacity="0.200000" d="M272.65,-72.44C278.92,-74.41 285.28,-76.81 291,-79.7 335.14,-101.94 355.69,-104.11 379,-147.7 398.65,-184.43 375.3,-296.53 392,-334.7 399.71,-352.33 414.92,-368 427.62,-378.9"/>
<polygon fill="#000000" fill-opacity="0.200000" stroke="#000000" stroke-width="2" stroke-opacity="0.200000" points="425.54,-381.72 435.5,-385.35 429.98,-376.31 425.54,-381.72"/>
</g>
<!-- src/widgets/collection.ts&#45;&gt;src/log&#45;utils.ts -->
<g id="edge32" class="edge">
<title>src/widgets/collection.ts&#45;&gt;src/log&#45;utils.ts</title>
<path fill="none" stroke="#000000" stroke-width="2" stroke-opacity="0.200000" d="M272.66,-56.82C278.8,-55.25 285.12,-53.51 291,-51.7 294.63,-50.57 295.27,-49.41 299,-48.7 335.26,-41.74 377.38,-41.59 407.65,-42.83"/>
<polygon fill="#000000" fill-opacity="0.200000" stroke="#000000" stroke-width="2" stroke-opacity="0.200000" points="407.68,-46.33 417.83,-43.31 408.01,-39.34 407.68,-46.33"/>
</g>
<!-- src/widgets/collection.ts&#45;&gt;src/render&#45;utils.ts -->
<g id="edge33" class="edge">
<title>src/widgets/collection.ts&#45;&gt;src/render&#45;utils.ts</title>
<path fill="none" stroke="#000000" stroke-width="2" stroke-opacity="0.200000" d="M272.76,-68.32C279.69,-70.6 286.28,-74.17 291,-79.7 300.74,-91.1 296.46,-131.92 299,-146.7 308.71,-203.15 324.91,-268.93 333.03,-300.66"/>
<polygon fill="#000000" fill-opacity="0.200000" stroke="#000000" stroke-width="2" stroke-opacity="0.200000" points="329.66,-301.58 335.55,-310.39 336.43,-299.83 329.66,-301.58"/>
</g>
<!-- src/widgets/column&#45;helper.ts&#45;&gt;src/constants.ts -->
<g id="edge34" class="edge">
<title>src/widgets/column&#45;helper.ts&#45;&gt;src/constants.ts</title>
<path fill="none" stroke="#000000" stroke-width="2" stroke-opacity="0.200000" d="M283.42,-103.62C286.2,-105.32 288.77,-107.33 291,-109.7 302.52,-121.96 293.38,-130.84 299,-146.7 325.31,-220.88 345.56,-233.44 379,-304.7 385.17,-317.85 384.01,-322.56 392,-334.7 402.74,-351.01 418.09,-366.98 430.08,-378.34"/>
<polygon fill="#000000" fill-opacity="0.200000" stroke="#000000" stroke-width="2" stroke-opacity="0.200000" points="428.02,-381.21 437.75,-385.42 432.77,-376.06 428.02,-381.21"/>
</g>
<!-- src/widgets/column&#45;helper.ts&#45;&gt;src/log&#45;utils.ts -->
<g id="edge35" class="edge">
<title>src/widgets/column&#45;helper.ts&#45;&gt;src/log&#45;utils.ts</title>
<path fill="none" stroke="#000000" stroke-width="2" stroke-opacity="0.200000" d="M277.1,-85.59C314.27,-76.94 369.95,-63.98 407.67,-55.2"/>
<polygon fill="#000000" fill-opacity="0.200000" stroke="#000000" stroke-width="2" stroke-opacity="0.200000" points="408.86,-58.52 417.81,-52.84 407.28,-51.7 408.86,-58.52"/>
</g>
<!-- src/widgets/column&#45;helper.ts&#45;&gt;src/render&#45;utils.ts -->
<g id="edge36" class="edge">
<title>src/widgets/column&#45;helper.ts&#45;&gt;src/render&#45;utils.ts</title>
<path fill="none" stroke="#000000" stroke-width="2" stroke-opacity="0.200000" d="M283.38,-102.93C286.25,-104.78 288.85,-107.01 291,-109.7 301.08,-122.29 294.27,-239.27 299,-254.7 304.34,-272.11 315.31,-289.69 324.26,-302.17"/>
<polygon fill="#000000" fill-opacity="0.200000" stroke="#000000" stroke-width="2" stroke-opacity="0.200000" points="321.52,-304.36 330.3,-310.28 327.13,-300.17 321.52,-304.36"/>
</g>
<!-- src/widgets/divider.ts&#45;&gt;src/render&#45;utils.ts -->
<g id="edge37" class="edge">
<title>src/widgets/divider.ts&#45;&gt;src/render&#45;utils.ts</title>
<path fill="none" stroke="#000000" stroke-width="2" stroke-opacity="0.200000" d="M265.57,-249.03C274.21,-251.26 283.46,-254.63 291,-259.7 306.91,-270.38 319.87,-288.18 328.11,-301.62"/>
<polygon fill="#000000" fill-opacity="0.200000" stroke="#000000" stroke-width="2" stroke-opacity="0.200000" points="325.21,-303.59 333.26,-310.48 331.26,-300.08 325.21,-303.59"/>
</g>
<!-- src/widgets/embed.ts&#45;&gt;src/render&#45;utils.ts -->
<g id="edge38" class="edge">
<title>src/widgets/embed.ts&#45;&gt;src/render&#45;utils.ts</title>
<path fill="none" stroke="#000000" stroke-width="2" stroke-opacity="0.200000" d="M266.77,-217.54C275.49,-219.69 284.47,-223.38 291,-229.7 299.39,-237.8 294.19,-244.07 299,-254.7 306.52,-271.32 317.34,-289 325.67,-301.72"/>
<polygon fill="#000000" fill-opacity="0.200000" stroke="#000000" stroke-width="2" stroke-opacity="0.200000" points="323,-304.02 331.47,-310.38 328.81,-300.12 323,-304.02"/>
</g>
<!-- src/widgets/equation.ts&#45;&gt;src/render&#45;utils.ts -->
<g id="edge39" class="edge">
<title>src/widgets/equation.ts&#45;&gt;src/render&#45;utils.ts</title>
<path fill="none" stroke="#000000" stroke-width="2" stroke-opacity="0.200000" d="M271.01,-187.89C278.54,-190.14 285.83,-193.8 291,-199.7 307.28,-218.27 290.71,-231.43 299,-254.7 305.19,-272.05 316.27,-289.87 325.05,-302.45"/>
<polygon fill="#000000" fill-opacity="0.200000" stroke="#000000" stroke-width="2" stroke-opacity="0.200000" points="322.24,-304.54 330.93,-310.6 327.92,-300.44 322.24,-304.54"/>
</g>
<!-- src/widgets/heading.ts&#45;&gt;src/constants.ts -->
<g id="edge40" class="edge">
<title>src/widgets/heading.ts&#45;&gt;src/constants.ts</title>
<path fill="none" stroke="#000000" stroke-width="2" stroke-opacity="0.200000" d="M269.67,-445.75C276.7,-443.76 284.1,-441.66 291,-439.7 330.37,-428.5 375.25,-415.67 407.01,-406.58"/>
<polygon fill="#000000" fill-opacity="0.200000" stroke="#000000" stroke-width="2" stroke-opacity="0.200000" points="408.18,-409.89 416.83,-403.77 406.25,-403.16 408.18,-409.89"/>
</g>
<!-- src/widgets/heading.ts&#45;&gt;src/render&#45;utils.ts -->
<g id="edge41" class="edge">
<title>src/widgets/heading.ts&#45;&gt;src/render&#45;utils.ts</title>
<path fill="none" stroke="#000000" stroke-width="2" stroke-opacity="0.200000" d="M269.57,-450.79C277.3,-448.56 285.05,-445.09 291,-439.7 320.58,-412.86 331.76,-365.11 335.82,-338.65"/>
<polygon fill="#000000" fill-opacity="0.200000" stroke="#000000" stroke-width="2" stroke-opacity="0.200000" points="339.29,-339.12 337.16,-328.74 332.35,-338.19 339.29,-339.12"/>
</g>
<!-- src/widgets/image.ts&#45;&gt;src/render&#45;utils.ts -->
<g id="edge42" class="edge">
<title>src/widgets/image.ts&#45;&gt;src/render&#45;utils.ts</title>
<path fill="none" stroke="#000000" stroke-width="2" stroke-opacity="0.200000" d="M265.13,-156.2C274.7,-158.14 284.64,-162.05 291,-169.7 303.14,-184.27 293.08,-236.67 299,-254.7 304.75,-272.2 315.87,-290 324.78,-302.54"/>
<polygon fill="#000000" fill-opacity="0.200000" stroke="#000000" stroke-width="2" stroke-opacity="0.200000" points="322.01,-304.68 330.76,-310.66 327.64,-300.53 322.01,-304.68"/>
</g>
<!-- src/widgets/list.ts&#45;&gt;src/constants.ts -->
<g id="edge43" class="edge">
<title>src/widgets/list.ts&#45;&gt;src/constants.ts</title>
<path fill="none" stroke="#000000" stroke-width="2" stroke-opacity="0.200000" d="M264.13,-478.14C272.77,-475.75 282.38,-472.85 291,-469.7 338.98,-452.11 392.14,-425.13 422.8,-408.77"/>
<polygon fill="#000000" fill-opacity="0.200000" stroke="#000000" stroke-width="2" stroke-opacity="0.200000" points="424.78,-411.68 431.93,-403.86 421.47,-405.51 424.78,-411.68"/>
</g>
<!-- src/widgets/list.ts&#45;&gt;src/render&#45;utils.ts -->
<g id="edge44" class="edge">
<title>src/widgets/list.ts&#45;&gt;src/render&#45;utils.ts</title>
<path fill="none" stroke="#000000" stroke-width="2" stroke-opacity="0.200000" d="M264.05,-482.5C273.59,-480.48 283.8,-476.7 291,-469.7 327.42,-434.28 335.72,-371.06 337.55,-339.2"/>
<polygon fill="#000000" fill-opacity="0.200000" stroke="#000000" stroke-width="2" stroke-opacity="0.200000" points="341.05,-339.12 337.96,-328.99 334.06,-338.83 341.05,-339.12"/>
</g>
<!-- src/widgets/quote.ts&#45;&gt;src/render&#45;utils.ts -->
<g id="edge45" class="edge">
<title>src/widgets/quote.ts&#45;&gt;src/render&#45;utils.ts</title>
<path fill="none" stroke="#000000" stroke-width="2" stroke-opacity="0.200000" d="M264.13,-125.9C274.04,-127.76 284.49,-131.68 291,-139.7 307.15,-159.58 291.31,-230.26 299,-254.7 304.53,-272.27 315.68,-290.07 324.64,-302.58"/>
<polygon fill="#000000" fill-opacity="0.200000" stroke="#000000" stroke-width="2" stroke-opacity="0.200000" points="321.9,-304.75 330.68,-310.68 327.51,-300.57 321.9,-304.75"/>
</g>
<!-- src/widgets/text.ts&#45;&gt;src/constants.ts -->
<g id="edge46" class="edge">
<title>src/widgets/text.ts&#45;&gt;src/constants.ts</title>
<path fill="none" stroke="#000000" stroke-width="2" stroke-opacity="0.200000" d="M264.25,-508.46C272.9,-506.1 282.49,-503.13 291,-499.7 332.12,-483.12 342.23,-477.47 379,-452.7 397.78,-440.04 417.44,-423.26 431.03,-411"/>
<polygon fill="#000000" fill-opacity="0.200000" stroke="#000000" stroke-width="2" stroke-opacity="0.200000" points="433.64,-413.36 438.66,-404.03 428.91,-408.2 433.64,-413.36"/>
</g>
<!-- src/widgets/text.ts&#45;&gt;src/render&#45;utils.ts -->
<g id="edge47" class="edge">
<title>src/widgets/text.ts&#45;&gt;src/render&#45;utils.ts</title>
<path fill="none" stroke="#000000" stroke-width="2" stroke-opacity="0.200000" d="M264.23,-512.68C273.79,-510.68 283.97,-506.87 291,-499.7 334.44,-455.36 339.15,-376.13 338.79,-339.4"/>
<polygon fill="#000000" fill-opacity="0.200000" stroke="#000000" stroke-width="2" stroke-opacity="0.200000" points="342.28,-338.98 338.54,-329.07 335.29,-339.15 342.28,-338.98"/>
</g>
<!-- src/widgets/to&#45;do.ts&#45;&gt;src/constants.ts -->
<g id="edge48" class="edge">
<title>src/widgets/to&#45;do.ts&#45;&gt;src/constants.ts</title>
<path fill="none" stroke="#000000" stroke-width="2" stroke-opacity="0.200000" d="M264.23,-394.7C298.95,-394.7 360.71,-394.7 403.08,-394.7"/>
<polygon fill="#000000" fill-opacity="0.200000" stroke="#000000" stroke-width="2" stroke-opacity="0.200000" points="403.14,-398.2 413.14,-394.7 403.14,-391.2 403.14,-398.2"/>
</g>
<!-- src/widgets/to&#45;do.ts&#45;&gt;src/render&#45;utils.ts -->
<g id="edge49" class="edge">
<title>src/widgets/to&#45;do.ts&#45;&gt;src/render&#45;utils.ts</title>
<path fill="none" stroke="#000000" stroke-width="2" stroke-opacity="0.200000" d="M264.21,-390.71C273.24,-388.48 283.06,-385.02 291,-379.7 306.91,-369.02 319.87,-351.21 328.11,-337.77"/>
<polygon fill="#000000" fill-opacity="0.200000" stroke="#000000" stroke-width="2" stroke-opacity="0.200000" points="331.26,-339.32 333.26,-328.91 325.21,-335.8 331.26,-339.32"/>
</g>
<!-- src/widgets/toggle.ts&#45;&gt;src/constants.ts -->
<g id="edge50" class="edge">
<title>src/widgets/toggle.ts&#45;&gt;src/constants.ts</title>
<path fill="none" stroke="#000000" stroke-width="2" stroke-opacity="0.200000" d="M265.09,-420.84C300.07,-415.85 361.44,-407.1 403.48,-401.11"/>
<polygon fill="#000000" fill-opacity="0.200000" stroke="#000000" stroke-width="2" stroke-opacity="0.200000" points="404.05,-404.57 413.46,-399.69 403.07,-397.64 404.05,-404.57"/>
</g>
<!-- src/widgets/toggle.ts&#45;&gt;src/render&#45;utils.ts -->
<g id="edge51" class="edge">
<title>src/widgets/toggle.ts&#45;&gt;src/render&#45;utils.ts</title>
<path fill="none" stroke="#000000" stroke-width="2" stroke-opacity="0.200000" d="M265.06,-421.43C274.06,-419.26 283.65,-415.67 291,-409.7 313.61,-391.31 326.61,-359.15 332.99,-338.66"/>
<polygon fill="#000000" fill-opacity="0.200000" stroke="#000000" stroke-width="2" stroke-opacity="0.200000" points="336.4,-339.47 335.81,-328.9 329.68,-337.54 336.4,-339.47"/>
</g>
</g>
</svg>
