<?xml version="1.0" encoding="UTF-8" standalone="no"?>
<!DOCTYPE svg PUBLIC "-//W3C//DTD SVG 1.1//EN"
 "http://www.w3.org/Graphics/SVG/1.1/DTD/svg11.dtd">
<!-- Generated by graphviz version 2.43.20190912.0211 (20190912.0211)
 -->
<!-- Title: dependency&#45;cruiser output Pages: 1 -->
<svg width="531pt" height="612pt"
 viewBox="0.00 0.00 531.00 611.75" xmlns="http://www.w3.org/2000/svg" xmlns:xlink="http://www.w3.org/1999/xlink">
<g id="graph0" class="graph" transform="scale(1 1) rotate(0) translate(4 607.75)">
<title>dependency&#45;cruiser output</title>
<polygon fill="white" stroke="transparent" points="-4,4 -4,-607.75 527,-607.75 527,4 -4,4"/>
<g id="clust1" class="cluster">
<title>cluster_src</title>
<path fill="#ffffff" stroke="black" stroke-width="2" d="M20,-11.75C20,-11.75 503,-11.75 503,-11.75 509,-11.75 515,-17.75 515,-23.75 515,-23.75 515,-583.75 515,-583.75 515,-589.75 509,-595.75 503,-595.75 503,-595.75 20,-595.75 20,-595.75 14,-595.75 8,-589.75 8,-583.75 8,-583.75 8,-23.75 8,-23.75 8,-17.75 14,-11.75 20,-11.75"/>
<text text-anchor="middle" x="261.5" y="-584.55" font-family="Helvetica,sans-Serif" font-weight="bold" font-size="9.00">src</text>
</g>
<g id="clust2" class="cluster">
<title>cluster_src/widgets</title>
<path fill="#ffffff" stroke="black" stroke-width="2" d="M195,-43.75C195,-43.75 279,-43.75 279,-43.75 285,-43.75 291,-49.75 291,-55.75 291,-55.75 291,-533.75 291,-533.75 291,-539.75 285,-545.75 279,-545.75 279,-545.75 195,-545.75 195,-545.75 189,-545.75 183,-539.75 183,-533.75 183,-533.75 183,-55.75 183,-55.75 183,-49.75 189,-43.75 195,-43.75"/>
<text text-anchor="middle" x="237" y="-534.55" font-family="Helvetica,sans-Serif" font-weight="bold" font-size="9.00">widgets</text>
</g>
<!-- src/constants.ts -->
<g id="node1" class="node">
<title>src/constants.ts</title>
<g id="a_node1"><a xlink:href="https://github.com/dragonman225/nast-util-to-html/tree/master/src/constants.ts" xlink:title="constants.ts">
<path fill="#ddfeff" stroke="black" d="M479.5,-176.75C479.5,-176.75 419.5,-176.75 419.5,-176.75 416.5,-176.75 413.5,-173.75 413.5,-170.75 413.5,-170.75 413.5,-164.75 413.5,-164.75 413.5,-161.75 416.5,-158.75 419.5,-158.75 419.5,-158.75 479.5,-158.75 479.5,-158.75 482.5,-158.75 485.5,-161.75 485.5,-164.75 485.5,-164.75 485.5,-170.75 485.5,-170.75 485.5,-173.75 482.5,-176.75 479.5,-176.75"/>
<text text-anchor="middle" x="449.5" y="-165.55" font-family="Helvetica,sans-Serif" font-size="9.00">constants.ts</text>
</a>
</g>
</g>
<!-- src/index.ts -->
<g id="node2" class="node">
<title>src/index.ts</title>
<g id="a_node2"><a xlink:href="https://github.com/dragonman225/nast-util-to-html/tree/master/src/index.ts" xlink:title="index.ts">
<path fill="#ddfeff" stroke="black" d="M64,-439.75C64,-439.75 22,-439.75 22,-439.75 19,-439.75 16,-436.75 16,-433.75 16,-433.75 16,-427.75 16,-427.75 16,-424.75 19,-421.75 22,-421.75 22,-421.75 64,-421.75 64,-421.75 67,-421.75 70,-424.75 70,-427.75 70,-427.75 70,-433.75 70,-433.75 70,-436.75 67,-439.75 64,-439.75"/>
<text text-anchor="middle" x="43" y="-428.55" font-family="Helvetica,sans-Serif" font-size="9.00">index.ts</text>
</a>
</g>
</g>
<!-- src/render&#45;control.ts -->
<g id="node5" class="node">
<title>src/render&#45;control.ts</title>
<g id="a_node5"><a xlink:href="https://github.com/dragonman225/nast-util-to-html/tree/master/src/render-control.ts" xlink:title="render&#45;control.ts">
<path fill="#ddfeff" stroke="black" d="M169,-294.75C169,-294.75 89,-294.75 89,-294.75 86,-294.75 83,-291.75 83,-288.75 83,-288.75 83,-282.75 83,-282.75 83,-279.75 86,-276.75 89,-276.75 89,-276.75 169,-276.75 169,-276.75 172,-276.75 175,-279.75 175,-282.75 175,-282.75 175,-288.75 175,-288.75 175,-291.75 172,-294.75 169,-294.75"/>
<text text-anchor="middle" x="129" y="-283.55" font-family="Helvetica,sans-Serif" font-size="9.00">render&#45;control.ts</text>
</a>
</g>
</g>
<!-- src/index.ts&#45;&gt;src/render&#45;control.ts -->
<g id="edge1" class="edge">
<title>src/index.ts&#45;&gt;src/render&#45;control.ts</title>
<path fill="none" stroke="#000000" stroke-width="2" stroke-opacity="0.200000" d="M49.25,-421.68C62.87,-398.18 99.47,-334.99 117.57,-303.75"/>
<polygon fill="#000000" fill-opacity="0.200000" stroke="#000000" stroke-width="2" stroke-opacity="0.200000" points="120.76,-305.22 122.75,-294.82 114.71,-301.71 120.76,-305.22"/>
</g>
<!-- src/render&#45;utils.ts -->
<g id="node7" class="node">
<title>src/render&#45;utils.ts</title>
<g id="a_node7"><a xlink:href="https://github.com/dragonman225/nast-util-to-html/tree/master/src/render-utils.ts" xlink:title="render&#45;utils.ts">
<path fill="#ddfeff" stroke="black" d="M373,-288.75C373,-288.75 305,-288.75 305,-288.75 302,-288.75 299,-285.75 299,-282.75 299,-282.75 299,-276.75 299,-276.75 299,-273.75 302,-270.75 305,-270.75 305,-270.75 373,-270.75 373,-270.75 376,-270.75 379,-273.75 379,-276.75 379,-276.75 379,-282.75 379,-282.75 379,-285.75 376,-288.75 373,-288.75"/>
<text text-anchor="middle" x="339" y="-277.55" font-family="Helvetica,sans-Serif" font-size="9.00">render&#45;utils.ts</text>
</a>
</g>
</g>
<!-- src/index.ts&#45;&gt;src/render&#45;utils.ts -->
<g id="edge2" class="edge">
<title>src/index.ts&#45;&gt;src/render&#45;utils.ts</title>
<path fill="none" stroke="#000000" stroke-width="2" stroke-opacity="0.200000" d="M51.16,-440C82.4,-479.27 208.87,-627.16 291,-557.75 330.52,-524.35 336.82,-356.49 337.82,-299.05"/>
<polygon fill="#000000" fill-opacity="0.200000" stroke="#000000" stroke-width="2" stroke-opacity="0.200000" points="341.32,-298.88 337.96,-288.84 334.32,-298.79 341.32,-298.88"/>
</g>
<!-- src/log&#45;utils.ts -->
<g id="node3" class="node">
<title>src/log&#45;utils.ts</title>
<g id="a_node3"><a xlink:href="https://github.com/dragonman225/nast-util-to-html/tree/master/src/log-utils.ts" xlink:title="log&#45;utils.ts">
<path fill="#ddfeff" stroke="black" d="M475,-69.75C475,-69.75 424,-69.75 424,-69.75 421,-69.75 418,-66.75 418,-63.75 418,-63.75 418,-57.75 418,-57.75 418,-54.75 421,-51.75 424,-51.75 424,-51.75 475,-51.75 475,-51.75 478,-51.75 481,-54.75 481,-57.75 481,-57.75 481,-63.75 481,-63.75 481,-66.75 478,-69.75 475,-69.75"/>
<text text-anchor="middle" x="449.5" y="-58.55" font-family="Helvetica,sans-Serif" font-size="9.00">log&#45;utils.ts</text>
</a>
</g>
</g>
<!-- src/notion&#45;utils.ts -->
<g id="node4" class="node">
<title>src/notion&#45;utils.ts</title>
<g id="a_node4"><a xlink:href="https://github.com/dragonman225/nast-util-to-html/tree/master/src/notion-utils.ts" xlink:title="notion&#45;utils.ts">
<path fill="#ddfeff" stroke="black" d="M482.5,-258.75C482.5,-258.75 416.5,-258.75 416.5,-258.75 413.5,-258.75 410.5,-255.75 410.5,-252.75 410.5,-252.75 410.5,-246.75 410.5,-246.75 410.5,-243.75 413.5,-240.75 416.5,-240.75 416.5,-240.75 482.5,-240.75 482.5,-240.75 485.5,-240.75 488.5,-243.75 488.5,-246.75 488.5,-246.75 488.5,-252.75 488.5,-252.75 488.5,-255.75 485.5,-258.75 482.5,-258.75"/>
<text text-anchor="middle" x="449.5" y="-247.55" font-family="Helvetica,sans-Serif" font-size="9.00">notion&#45;utils.ts</text>
</a>
</g>
</g>
<!-- src/render&#45;control.ts&#45;&gt;src/constants.ts -->
<g id="edge3" class="edge">
<title>src/render&#45;control.ts&#45;&gt;src/constants.ts</title>
<path fill="none" stroke="#000000" stroke-width="2" stroke-opacity="0.200000" d="M130.5,-276.66C132.94,-235.98 145.07,-71.35 183,-40.75 217.29,-13.08 343.63,-44.48 379,-70.75 407.28,-91.76 428.66,-127.66 439.83,-149.4"/>
<polygon fill="#000000" fill-opacity="0.200000" stroke="#000000" stroke-width="2" stroke-opacity="0.200000" points="436.78,-151.13 444.35,-158.54 443.05,-148.03 436.78,-151.13"/>
</g>
<!-- src/render&#45;control.ts&#45;&gt;src/log&#45;utils.ts -->
<g id="edge4" class="edge">
<title>src/render&#45;control.ts&#45;&gt;src/log&#45;utils.ts</title>
<path fill="none" stroke="#000000" stroke-width="2" stroke-opacity="0.200000" d="M130.38,-276.71C132.37,-234.73 143,-59.4 183,-26.75 253.86,31.08 372.69,-20.11 423.85,-46.86"/>
<polygon fill="#000000" fill-opacity="0.200000" stroke="#000000" stroke-width="2" stroke-opacity="0.200000" points="422.4,-50.06 432.87,-51.7 425.71,-43.89 422.4,-50.06"/>
</g>
<!-- src/render&#45;control.ts&#45;&gt;src/render&#45;utils.ts -->
<g id="edge5" class="edge">
<title>src/render&#45;control.ts&#45;&gt;src/render&#45;utils.ts</title>
<path fill="none" stroke="#000000" stroke-width="2" stroke-opacity="0.200000" d="M130.36,-294.92C132.24,-337.55 142.45,-515.56 183,-548.75 201.57,-563.95 272.63,-564.19 291,-548.75 329.2,-516.64 336.36,-355.42 337.69,-299.16"/>
<polygon fill="#000000" fill-opacity="0.200000" stroke="#000000" stroke-width="2" stroke-opacity="0.200000" points="341.2,-298.9 337.9,-288.83 334.2,-298.76 341.2,-298.9"/>
</g>
<!-- src/widgets/audio.ts -->
<g id="node8" class="node">
<title>src/widgets/audio.ts</title>
<g id="a_node8"><a xlink:href="https://github.com/dragonman225/nast-util-to-html/tree/master/src/widgets/audio.ts" xlink:title="audio.ts">
<path fill="#ddfeff" stroke="black" d="M258,-399.75C258,-399.75 216,-399.75 216,-399.75 213,-399.75 210,-396.75 210,-393.75 210,-393.75 210,-387.75 210,-387.75 210,-384.75 213,-381.75 216,-381.75 216,-381.75 258,-381.75 258,-381.75 261,-381.75 264,-384.75 264,-387.75 264,-387.75 264,-393.75 264,-393.75 264,-396.75 261,-399.75 258,-399.75"/>
<text text-anchor="middle" x="237" y="-388.55" font-family="Helvetica,sans-Serif" font-size="9.00">audio.ts</text>
</a>
</g>
</g>
<!-- src/render&#45;control.ts&#45;&gt;src/widgets/audio.ts -->
<g id="edge6" class="edge">
<title>src/render&#45;control.ts&#45;&gt;src/widgets/audio.ts</title>
<path fill="none" stroke="#000000" stroke-width="2" stroke-opacity="0.200000" d="M132.83,-294.96C138.91,-313.24 155.01,-354.15 183,-375.75 188.07,-379.66 194.11,-382.55 200.27,-384.69"/>
<polygon fill="#000000" fill-opacity="0.200000" stroke="#000000" stroke-width="2" stroke-opacity="0.200000" points="199.34,-388.06 209.92,-387.46 201.28,-381.34 199.34,-388.06"/>
</g>
<!-- src/widgets/bookmark.ts -->
<g id="node9" class="node">
<title>src/widgets/bookmark.ts</title>
<g id="a_node9"><a xlink:href="https://github.com/dragonman225/nast-util-to-html/tree/master/src/widgets/bookmark.ts" xlink:title="bookmark.ts">
<path fill="#ddfeff" stroke="black" d="M267.5,-369.75C267.5,-369.75 206.5,-369.75 206.5,-369.75 203.5,-369.75 200.5,-366.75 200.5,-363.75 200.5,-363.75 200.5,-357.75 200.5,-357.75 200.5,-354.75 203.5,-351.75 206.5,-351.75 206.5,-351.75 267.5,-351.75 267.5,-351.75 270.5,-351.75 273.5,-354.75 273.5,-357.75 273.5,-357.75 273.5,-363.75 273.5,-363.75 273.5,-366.75 270.5,-369.75 267.5,-369.75"/>
<text text-anchor="middle" x="237" y="-358.55" font-family="Helvetica,sans-Serif" font-size="9.00">bookmark.ts</text>
</a>
</g>
</g>
<!-- src/render&#45;control.ts&#45;&gt;src/widgets/bookmark.ts -->
<g id="edge7" class="edge">
<title>src/render&#45;control.ts&#45;&gt;src/widgets/bookmark.ts</title>
<path fill="none" stroke="#000000" stroke-width="2" stroke-opacity="0.200000" d="M135.64,-294.95C144.22,-308.18 161.82,-332.43 183,-345.75 185.47,-347.3 188.1,-348.69 190.82,-349.95"/>
<polygon fill="#000000" fill-opacity="0.200000" stroke="#000000" stroke-width="2" stroke-opacity="0.200000" points="189.71,-353.28 200.3,-353.69 192.28,-346.76 189.71,-353.28"/>
</g>
<!-- src/widgets/callout.ts -->
<g id="node10" class="node">
<title>src/widgets/callout.ts</title>
<g id="a_node10"><a xlink:href="https://github.com/dragonman225/nast-util-to-html/tree/master/src/widgets/callout.ts" xlink:title="callout.ts">
<path fill="#ddfeff" stroke="black" d="M260,-219.75C260,-219.75 214,-219.75 214,-219.75 211,-219.75 208,-216.75 208,-213.75 208,-213.75 208,-207.75 208,-207.75 208,-204.75 211,-201.75 214,-201.75 214,-201.75 260,-201.75 260,-201.75 263,-201.75 266,-204.75 266,-207.75 266,-207.75 266,-213.75 266,-213.75 266,-216.75 263,-219.75 260,-219.75"/>
<text text-anchor="middle" x="237" y="-208.55" font-family="Helvetica,sans-Serif" font-size="9.00">callout.ts</text>
</a>
</g>
</g>
<!-- src/render&#45;control.ts&#45;&gt;src/widgets/callout.ts -->
<g id="edge8" class="edge">
<title>src/render&#45;control.ts&#45;&gt;src/widgets/callout.ts</title>
<path fill="none" stroke="#000000" stroke-width="2" stroke-opacity="0.200000" d="M135.64,-276.55C144.22,-263.32 161.82,-239.07 183,-225.75 187.65,-222.82 192.89,-220.45 198.22,-218.54"/>
<polygon fill="#000000" fill-opacity="0.200000" stroke="#000000" stroke-width="2" stroke-opacity="0.200000" points="199.27,-221.87 207.78,-215.56 197.2,-215.19 199.27,-221.87"/>
</g>
<!-- src/widgets/code.ts -->
<g id="node11" class="node">
<title>src/widgets/code.ts</title>
<g id="a_node11"><a xlink:href="https://github.com/dragonman225/nast-util-to-html/tree/master/src/widgets/code.ts" xlink:title="code.ts">
<path fill="#ddfeff" stroke="black" d="M258,-339.75C258,-339.75 216,-339.75 216,-339.75 213,-339.75 210,-336.75 210,-333.75 210,-333.75 210,-327.75 210,-327.75 210,-324.75 213,-321.75 216,-321.75 216,-321.75 258,-321.75 258,-321.75 261,-321.75 264,-324.75 264,-327.75 264,-327.75 264,-333.75 264,-333.75 264,-336.75 261,-339.75 258,-339.75"/>
<text text-anchor="middle" x="237" y="-328.55" font-family="Helvetica,sans-Serif" font-size="9.00">code.ts</text>
</a>
</g>
</g>
<!-- src/render&#45;control.ts&#45;&gt;src/widgets/code.ts -->
<g id="edge9" class="edge">
<title>src/render&#45;control.ts&#45;&gt;src/widgets/code.ts</title>
<path fill="none" stroke="#000000" stroke-width="2" stroke-opacity="0.200000" d="M143.93,-294.86C154.35,-301.37 169.14,-309.97 183,-315.75 188.48,-318.04 194.43,-320.1 200.29,-321.91"/>
<polygon fill="#000000" fill-opacity="0.200000" stroke="#000000" stroke-width="2" stroke-opacity="0.200000" points="199.39,-325.29 209.97,-324.71 201.34,-318.57 199.39,-325.29"/>
</g>
<!-- src/widgets/collection.ts -->
<g id="node12" class="node">
<title>src/widgets/collection.ts</title>
<g id="a_node12"><a xlink:href="https://github.com/dragonman225/nast-util-to-html/tree/master/src/widgets/collection.ts" xlink:title="collection.ts">
<path fill="#ddfeff" stroke="black" d="M266.5,-99.75C266.5,-99.75 207.5,-99.75 207.5,-99.75 204.5,-99.75 201.5,-96.75 201.5,-93.75 201.5,-93.75 201.5,-87.75 201.5,-87.75 201.5,-84.75 204.5,-81.75 207.5,-81.75 207.5,-81.75 266.5,-81.75 266.5,-81.75 269.5,-81.75 272.5,-84.75 272.5,-87.75 272.5,-87.75 272.5,-93.75 272.5,-93.75 272.5,-96.75 269.5,-99.75 266.5,-99.75"/>
<text text-anchor="middle" x="237" y="-88.55" font-family="Helvetica,sans-Serif" font-size="9.00">collection.ts</text>
</a>
</g>
</g>
<!-- src/render&#45;control.ts&#45;&gt;src/widgets/collection.ts -->
<g id="edge10" class="edge">
<title>src/render&#45;control.ts&#45;&gt;src/widgets/collection.ts</title>
<path fill="none" stroke="#000000" stroke-width="2" stroke-opacity="0.200000" d="M129.81,-276.35C129.74,-246.75 133.68,-154.55 183,-105.75 185.67,-103.1 188.77,-100.92 192.11,-99.11"/>
<polygon fill="#000000" fill-opacity="0.200000" stroke="#000000" stroke-width="2" stroke-opacity="0.200000" points="193.53,-102.31 201.35,-95.17 190.78,-95.87 193.53,-102.31"/>
</g>
<!-- src/widgets/column&#45;helper.ts -->
<g id="node13" class="node">
<title>src/widgets/column&#45;helper.ts</title>
<g id="a_node13"><a xlink:href="https://github.com/dragonman225/nast-util-to-html/tree/master/src/widgets/column-helper.ts" xlink:title="column&#45;helper.ts">
<path fill="#ddfeff" stroke="black" d="M277,-69.75C277,-69.75 197,-69.75 197,-69.75 194,-69.75 191,-66.75 191,-63.75 191,-63.75 191,-57.75 191,-57.75 191,-54.75 194,-51.75 197,-51.75 197,-51.75 277,-51.75 277,-51.75 280,-51.75 283,-54.75 283,-57.75 283,-57.75 283,-63.75 283,-63.75 283,-66.75 280,-69.75 277,-69.75"/>
<text text-anchor="middle" x="237" y="-58.55" font-family="Helvetica,sans-Serif" font-size="9.00">column&#45;helper.ts</text>
</a>
</g>
</g>
<!-- src/render&#45;control.ts&#45;&gt;src/widgets/column&#45;helper.ts -->
<g id="edge11" class="edge">
<title>src/render&#45;control.ts&#45;&gt;src/widgets/column&#45;helper.ts</title>
<path fill="none" stroke="#000000" stroke-width="2" stroke-opacity="0.200000" d="M131.08,-276.72C135.3,-242.67 151.79,-122.02 184.01,-77.59"/>
<polygon fill="#000000" fill-opacity="0.200000" stroke="#000000" stroke-width="2" stroke-opacity="0.200000" points="186.85,-79.65 190.67,-69.76 181.52,-75.11 186.85,-79.65"/>
</g>
<!-- src/widgets/divider.ts -->
<g id="node14" class="node">
<title>src/widgets/divider.ts</title>
<g id="a_node14"><a xlink:href="https://github.com/dragonman225/nast-util-to-html/tree/master/src/widgets/divider.ts" xlink:title="divider.ts">
<path fill="#ddfeff" stroke="black" d="M259.5,-309.75C259.5,-309.75 214.5,-309.75 214.5,-309.75 211.5,-309.75 208.5,-306.75 208.5,-303.75 208.5,-303.75 208.5,-297.75 208.5,-297.75 208.5,-294.75 211.5,-291.75 214.5,-291.75 214.5,-291.75 259.5,-291.75 259.5,-291.75 262.5,-291.75 265.5,-294.75 265.5,-297.75 265.5,-297.75 265.5,-303.75 265.5,-303.75 265.5,-306.75 262.5,-309.75 259.5,-309.75"/>
<text text-anchor="middle" x="237" y="-298.55" font-family="Helvetica,sans-Serif" font-size="9.00">divider.ts</text>
</a>
</g>
</g>
<!-- src/render&#45;control.ts&#45;&gt;src/widgets/divider.ts -->
<g id="edge12" class="edge">
<title>src/render&#45;control.ts&#45;&gt;src/widgets/divider.ts</title>
<path fill="none" stroke="#000000" stroke-width="2" stroke-opacity="0.200000" d="M175.26,-292.15C182.91,-293.24 190.78,-294.35 198.21,-295.4"/>
<polygon fill="#000000" fill-opacity="0.200000" stroke="#000000" stroke-width="2" stroke-opacity="0.200000" points="197.97,-298.9 208.36,-296.84 198.95,-291.97 197.97,-298.9"/>
</g>
<!-- src/widgets/embed.ts -->
<g id="node15" class="node">
<title>src/widgets/embed.ts</title>
<g id="a_node15"><a xlink:href="https://github.com/dragonman225/nast-util-to-html/tree/master/src/widgets/embed.ts" xlink:title="embed.ts">
<path fill="#ddfeff" stroke="black" d="M260.5,-519.75C260.5,-519.75 213.5,-519.75 213.5,-519.75 210.5,-519.75 207.5,-516.75 207.5,-513.75 207.5,-513.75 207.5,-507.75 207.5,-507.75 207.5,-504.75 210.5,-501.75 213.5,-501.75 213.5,-501.75 260.5,-501.75 260.5,-501.75 263.5,-501.75 266.5,-504.75 266.5,-507.75 266.5,-507.75 266.5,-513.75 266.5,-513.75 266.5,-516.75 263.5,-519.75 260.5,-519.75"/>
<text text-anchor="middle" x="237" y="-508.55" font-family="Helvetica,sans-Serif" font-size="9.00">embed.ts</text>
</a>
</g>
</g>
<!-- src/render&#45;control.ts&#45;&gt;src/widgets/embed.ts -->
<g id="edge13" class="edge">
<title>src/render&#45;control.ts&#45;&gt;src/widgets/embed.ts</title>
<path fill="none" stroke="#000000" stroke-width="2" stroke-opacity="0.200000" d="M131.08,-294.78C135.58,-331.1 154.04,-465.95 183,-495.75 187,-499.86 192.03,-502.87 197.4,-505.07"/>
<polygon fill="#000000" fill-opacity="0.200000" stroke="#000000" stroke-width="2" stroke-opacity="0.200000" points="196.68,-508.51 207.27,-508.21 198.8,-501.84 196.68,-508.51"/>
</g>
<!-- src/widgets/equation.ts -->
<g id="node16" class="node">
<title>src/widgets/equation.ts</title>
<g id="a_node16"><a xlink:href="https://github.com/dragonman225/nast-util-to-html/tree/master/src/widgets/equation.ts" xlink:title="equation.ts">
<path fill="#ddfeff" stroke="black" d="M265,-489.75C265,-489.75 209,-489.75 209,-489.75 206,-489.75 203,-486.75 203,-483.75 203,-483.75 203,-477.75 203,-477.75 203,-474.75 206,-471.75 209,-471.75 209,-471.75 265,-471.75 265,-471.75 268,-471.75 271,-474.75 271,-477.75 271,-477.75 271,-483.75 271,-483.75 271,-486.75 268,-489.75 265,-489.75"/>
<text text-anchor="middle" x="237" y="-478.55" font-family="Helvetica,sans-Serif" font-size="9.00">equation.ts</text>
</a>
</g>
</g>
<!-- src/render&#45;control.ts&#45;&gt;src/widgets/equation.ts -->
<g id="edge14" class="edge">
<title>src/render&#45;control.ts&#45;&gt;src/widgets/equation.ts</title>
<path fill="none" stroke="#000000" stroke-width="2" stroke-opacity="0.200000" d="M129.81,-295.15C129.74,-324.74 133.68,-416.94 183,-465.75 186.02,-468.74 189.59,-471.14 193.43,-473.07"/>
<polygon fill="#000000" fill-opacity="0.200000" stroke="#000000" stroke-width="2" stroke-opacity="0.200000" points="192.14,-476.33 202.73,-476.77 194.73,-469.82 192.14,-476.33"/>
</g>
<!-- src/widgets/heading.ts -->
<g id="node17" class="node">
<title>src/widgets/heading.ts</title>
<g id="a_node17"><a xlink:href="https://github.com/dragonman225/nast-util-to-html/tree/master/src/widgets/heading.ts" xlink:title="heading.ts">
<path fill="#ddfeff" stroke="black" d="M263.5,-249.75C263.5,-249.75 210.5,-249.75 210.5,-249.75 207.5,-249.75 204.5,-246.75 204.5,-243.75 204.5,-243.75 204.5,-237.75 204.5,-237.75 204.5,-234.75 207.5,-231.75 210.5,-231.75 210.5,-231.75 263.5,-231.75 263.5,-231.75 266.5,-231.75 269.5,-234.75 269.5,-237.75 269.5,-237.75 269.5,-243.75 269.5,-243.75 269.5,-246.75 266.5,-249.75 263.5,-249.75"/>
<text text-anchor="middle" x="237" y="-238.55" font-family="Helvetica,sans-Serif" font-size="9.00">heading.ts</text>
</a>
</g>
</g>
<!-- src/render&#45;control.ts&#45;&gt;src/widgets/heading.ts -->
<g id="edge15" class="edge">
<title>src/render&#45;control.ts&#45;&gt;src/widgets/heading.ts</title>
<path fill="none" stroke="#000000" stroke-width="2" stroke-opacity="0.200000" d="M143.93,-276.64C154.35,-270.13 169.14,-261.53 183,-255.75 186.72,-254.2 190.64,-252.75 194.61,-251.42"/>
<polygon fill="#000000" fill-opacity="0.200000" stroke="#000000" stroke-width="2" stroke-opacity="0.200000" points="195.97,-254.66 204.47,-248.33 193.88,-247.98 195.97,-254.66"/>
</g>
<!-- src/widgets/image.ts -->
<g id="node18" class="node">
<title>src/widgets/image.ts</title>
<g id="a_node18"><a xlink:href="https://github.com/dragonman225/nast-util-to-html/tree/master/src/widgets/image.ts" xlink:title="image.ts">
<path fill="#ddfeff" stroke="black" d="M259,-459.75C259,-459.75 215,-459.75 215,-459.75 212,-459.75 209,-456.75 209,-453.75 209,-453.75 209,-447.75 209,-447.75 209,-444.75 212,-441.75 215,-441.75 215,-441.75 259,-441.75 259,-441.75 262,-441.75 265,-444.75 265,-447.75 265,-447.75 265,-453.75 265,-453.75 265,-456.75 262,-459.75 259,-459.75"/>
<text text-anchor="middle" x="237" y="-448.55" font-family="Helvetica,sans-Serif" font-size="9.00">image.ts</text>
</a>
</g>
</g>
<!-- src/render&#45;control.ts&#45;&gt;src/widgets/image.ts -->
<g id="edge16" class="edge">
<title>src/render&#45;control.ts&#45;&gt;src/widgets/image.ts</title>
<path fill="none" stroke="#000000" stroke-width="2" stroke-opacity="0.200000" d="M130.45,-295.07C132.22,-321.27 140.9,-396.25 183,-435.75 187.51,-439.98 193.13,-443.03 199,-445.23"/>
<polygon fill="#000000" fill-opacity="0.200000" stroke="#000000" stroke-width="2" stroke-opacity="0.200000" points="198.4,-448.7 208.99,-448.18 200.39,-441.99 198.4,-448.7"/>
</g>
<!-- src/widgets/list.ts -->
<g id="node19" class="node">
<title>src/widgets/list.ts</title>
<g id="a_node19"><a xlink:href="https://github.com/dragonman225/nast-util-to-html/tree/master/src/widgets/list.ts" xlink:title="list.ts">
<path fill="#ddfeff" stroke="black" d="M258,-279.75C258,-279.75 216,-279.75 216,-279.75 213,-279.75 210,-276.75 210,-273.75 210,-273.75 210,-267.75 210,-267.75 210,-264.75 213,-261.75 216,-261.75 216,-261.75 258,-261.75 258,-261.75 261,-261.75 264,-264.75 264,-267.75 264,-267.75 264,-273.75 264,-273.75 264,-276.75 261,-279.75 258,-279.75"/>
<text text-anchor="middle" x="237" y="-268.55" font-family="Helvetica,sans-Serif" font-size="9.00">list.ts</text>
</a>
</g>
</g>
<!-- src/render&#45;control.ts&#45;&gt;src/widgets/list.ts -->
<g id="edge17" class="edge">
<title>src/render&#45;control.ts&#45;&gt;src/widgets/list.ts</title>
<path fill="none" stroke="#000000" stroke-width="2" stroke-opacity="0.200000" d="M175.26,-279.34C183.48,-278.18 191.95,-276.98 199.86,-275.86"/>
<polygon fill="#000000" fill-opacity="0.200000" stroke="#000000" stroke-width="2" stroke-opacity="0.200000" points="200.46,-279.31 209.87,-274.45 199.48,-272.38 200.46,-279.31"/>
</g>
<!-- src/widgets/quote.ts -->
<g id="node20" class="node">
<title>src/widgets/quote.ts</title>
<g id="a_node20"><a xlink:href="https://github.com/dragonman225/nast-util-to-html/tree/master/src/widgets/quote.ts" xlink:title="quote.ts">
<path fill="#ddfeff" stroke="black" d="M258,-429.75C258,-429.75 216,-429.75 216,-429.75 213,-429.75 210,-426.75 210,-423.75 210,-423.75 210,-417.75 210,-417.75 210,-414.75 213,-411.75 216,-411.75 216,-411.75 258,-411.75 258,-411.75 261,-411.75 264,-414.75 264,-417.75 264,-417.75 264,-423.75 264,-423.75 264,-426.75 261,-429.75 258,-429.75"/>
<text text-anchor="middle" x="237" y="-418.55" font-family="Helvetica,sans-Serif" font-size="9.00">quote.ts</text>
</a>
</g>
</g>
<!-- src/render&#45;control.ts&#45;&gt;src/widgets/quote.ts -->
<g id="edge18" class="edge">
<title>src/render&#45;control.ts&#45;&gt;src/widgets/quote.ts</title>
<path fill="none" stroke="#000000" stroke-width="2" stroke-opacity="0.200000" d="M131.33,-294.82C135.1,-317.17 147.93,-375.28 183,-405.75 187.88,-409.99 193.88,-413.03 200.06,-415.22"/>
<polygon fill="#000000" fill-opacity="0.200000" stroke="#000000" stroke-width="2" stroke-opacity="0.200000" points="199.23,-418.62 209.8,-418 201.15,-411.89 199.23,-418.62"/>
</g>
<!-- src/widgets/text.ts -->
<g id="node21" class="node">
<title>src/widgets/text.ts</title>
<g id="a_node21"><a xlink:href="https://github.com/dragonman225/nast-util-to-html/tree/master/src/widgets/text.ts" xlink:title="text.ts">
<path fill="#ddfeff" stroke="black" d="M258,-129.75C258,-129.75 216,-129.75 216,-129.75 213,-129.75 210,-126.75 210,-123.75 210,-123.75 210,-117.75 210,-117.75 210,-114.75 213,-111.75 216,-111.75 216,-111.75 258,-111.75 258,-111.75 261,-111.75 264,-114.75 264,-117.75 264,-117.75 264,-123.75 264,-123.75 264,-126.75 261,-129.75 258,-129.75"/>
<text text-anchor="middle" x="237" y="-118.55" font-family="Helvetica,sans-Serif" font-size="9.00">text.ts</text>
</a>
</g>
</g>
<!-- src/render&#45;control.ts&#45;&gt;src/widgets/text.ts -->
<g id="edge19" class="edge">
<title>src/render&#45;control.ts&#45;&gt;src/widgets/text.ts</title>
<path fill="none" stroke="#000000" stroke-width="2" stroke-opacity="0.200000" d="M130.45,-276.43C132.22,-250.23 140.9,-175.24 183,-135.75 187.76,-131.28 193.75,-128.13 199.97,-125.91"/>
<polygon fill="#000000" fill-opacity="0.200000" stroke="#000000" stroke-width="2" stroke-opacity="0.200000" points="201.13,-129.22 209.81,-123.14 199.23,-122.49 201.13,-129.22"/>
</g>
<!-- src/widgets/to&#45;do.ts -->
<g id="node22" class="node">
<title>src/widgets/to&#45;do.ts</title>
<g id="a_node22"><a xlink:href="https://github.com/dragonman225/nast-util-to-html/tree/master/src/widgets/to-do.ts" xlink:title="to&#45;do.ts">
<path fill="#ddfeff" stroke="black" d="M258,-159.75C258,-159.75 216,-159.75 216,-159.75 213,-159.75 210,-156.75 210,-153.75 210,-153.75 210,-147.75 210,-147.75 210,-144.75 213,-141.75 216,-141.75 216,-141.75 258,-141.75 258,-141.75 261,-141.75 264,-144.75 264,-147.75 264,-147.75 264,-153.75 264,-153.75 264,-156.75 261,-159.75 258,-159.75"/>
<text text-anchor="middle" x="237" y="-148.55" font-family="Helvetica,sans-Serif" font-size="9.00">to&#45;do.ts</text>
</a>
</g>
</g>
<!-- src/render&#45;control.ts&#45;&gt;src/widgets/to&#45;do.ts -->
<g id="edge20" class="edge">
<title>src/render&#45;control.ts&#45;&gt;src/widgets/to&#45;do.ts</title>
<path fill="none" stroke="#000000" stroke-width="2" stroke-opacity="0.200000" d="M131.33,-276.68C135.1,-254.33 147.93,-196.22 183,-165.75 187.88,-161.51 193.88,-158.46 200.06,-156.27"/>
<polygon fill="#000000" fill-opacity="0.200000" stroke="#000000" stroke-width="2" stroke-opacity="0.200000" points="201.15,-159.61 209.8,-153.5 199.23,-152.87 201.15,-159.61"/>
</g>
<!-- src/widgets/toggle.ts -->
<g id="node23" class="node">
<title>src/widgets/toggle.ts</title>
<g id="a_node23"><a xlink:href="https://github.com/dragonman225/nast-util-to-html/tree/master/src/widgets/toggle.ts" xlink:title="toggle.ts">
<path fill="#ddfeff" stroke="black" d="M259,-189.75C259,-189.75 215,-189.75 215,-189.75 212,-189.75 209,-186.75 209,-183.75 209,-183.75 209,-177.75 209,-177.75 209,-174.75 212,-171.75 215,-171.75 215,-171.75 259,-171.75 259,-171.75 262,-171.75 265,-174.75 265,-177.75 265,-177.75 265,-183.75 265,-183.75 265,-186.75 262,-189.75 259,-189.75"/>
<text text-anchor="middle" x="237" y="-178.55" font-family="Helvetica,sans-Serif" font-size="9.00">toggle.ts</text>
</a>
</g>
</g>
<!-- src/render&#45;control.ts&#45;&gt;src/widgets/toggle.ts -->
<g id="edge21" class="edge">
<title>src/render&#45;control.ts&#45;&gt;src/widgets/toggle.ts</title>
<path fill="none" stroke="#000000" stroke-width="2" stroke-opacity="0.200000" d="M132.83,-276.53C138.91,-258.26 155.01,-217.35 183,-195.75 187.75,-192.08 193.36,-189.31 199.12,-187.22"/>
<polygon fill="#000000" fill-opacity="0.200000" stroke="#000000" stroke-width="2" stroke-opacity="0.200000" points="200.27,-190.53 208.83,-184.29 198.25,-183.82 200.27,-190.53"/>
</g>
<!-- src/render&#45;utils&#45;prismjs.ts -->
<g id="node6" class="node">
<title>src/render&#45;utils&#45;prismjs.ts</title>
<g id="a_node6"><a xlink:href="https://github.com/dragonman225/nast-util-to-html/tree/master/src/render-utils-prismjs.ts" xlink:title="render&#45;utils&#45;prismjs.ts">
<path fill="#ddfeff" stroke="black" d="M501,-288.75C501,-288.75 398,-288.75 398,-288.75 395,-288.75 392,-285.75 392,-282.75 392,-282.75 392,-276.75 392,-276.75 392,-273.75 395,-270.75 398,-270.75 398,-270.75 501,-270.75 501,-270.75 504,-270.75 507,-273.75 507,-276.75 507,-276.75 507,-282.75 507,-282.75 507,-285.75 504,-288.75 501,-288.75"/>
<text text-anchor="middle" x="449.5" y="-277.55" font-family="Helvetica,sans-Serif" font-size="9.00">render&#45;utils&#45;prismjs.ts</text>
</a>
</g>
</g>
<!-- src/render&#45;utils&#45;prismjs.ts&#45;&gt;src/render&#45;utils.ts -->
<g id="edge22" class="edge">
<title>src/render&#45;utils&#45;prismjs.ts&#45;&gt;src/render&#45;utils.ts</title>
<path fill="none" stroke="#000000" stroke-width="2" stroke-opacity="0.200000" d="M391.83,-284.24C391.03,-284.24 390.22,-284.24 389.43,-284.23"/>
<polygon fill="#000000" fill-opacity="0.200000" stroke="#000000" stroke-width="2" stroke-opacity="0.200000" points="389.22,-280.73 379.17,-284.09 389.12,-287.73 389.22,-280.73"/>
</g>
<!-- src/render&#45;utils.ts&#45;&gt;src/constants.ts -->
<g id="edge23" class="edge">
<title>src/render&#45;utils.ts&#45;&gt;src/constants.ts</title>
<path fill="none" stroke="#000000" stroke-width="2" stroke-opacity="0.200000" d="M360.88,-270.67C367.2,-267.25 373.83,-262.91 379,-257.75 387.31,-249.45 385.3,-244.39 392,-234.75 404.54,-216.71 420.91,-197.71 432.79,-184.57"/>
<polygon fill="#000000" fill-opacity="0.200000" stroke="#000000" stroke-width="2" stroke-opacity="0.200000" points="435.7,-186.58 439.87,-176.85 430.54,-181.85 435.7,-186.58"/>
</g>
<!-- src/render&#45;utils.ts&#45;&gt;src/log&#45;utils.ts -->
<g id="edge24" class="edge">
<title>src/render&#45;utils.ts&#45;&gt;src/log&#45;utils.ts</title>
<path fill="none" stroke="#000000" stroke-width="2" stroke-opacity="0.200000" d="M343.17,-270.59C350.63,-249.39 370.33,-195.45 392,-152.75 405.65,-125.85 424.47,-96.41 436.56,-78.26"/>
<polygon fill="#000000" fill-opacity="0.200000" stroke="#000000" stroke-width="2" stroke-opacity="0.200000" points="439.53,-80.11 442.21,-69.86 433.72,-76.21 439.53,-80.11"/>
</g>
<!-- src/render&#45;utils.ts&#45;&gt;src/notion&#45;utils.ts -->
<g id="edge25" class="edge">
<title>src/render&#45;utils.ts&#45;&gt;src/notion&#45;utils.ts</title>
<path fill="none" stroke="#000000" stroke-width="2" stroke-opacity="0.200000" d="M371.04,-270.68C377.93,-268.7 385.21,-266.63 392,-264.75 396.02,-263.64 400.2,-262.5 404.39,-261.36"/>
<polygon fill="#000000" fill-opacity="0.200000" stroke="#000000" stroke-width="2" stroke-opacity="0.200000" points="405.36,-264.73 414.11,-258.75 403.54,-257.97 405.36,-264.73"/>
</g>
<!-- src/render&#45;utils.ts&#45;&gt;src/render&#45;utils&#45;prismjs.ts -->
<g id="edge26" class="edge">
<title>src/render&#45;utils.ts&#45;&gt;src/render&#45;utils&#45;prismjs.ts</title>
<path fill="none" stroke="#000000" stroke-width="2" stroke-opacity="0.200000" d="M379.17,-275.41C379.94,-275.39 380.72,-275.38 381.51,-275.36"/>
<polygon fill="#000000" fill-opacity="0.200000" stroke="#000000" stroke-width="2" stroke-opacity="0.200000" points="381.86,-278.86 391.83,-275.25 381.79,-271.86 381.86,-278.86"/>
</g>
<!-- src/widgets/audio.ts&#45;&gt;src/render&#45;utils.ts -->
<g id="edge27" class="edge">
<title>src/widgets/audio.ts&#45;&gt;src/render&#45;utils.ts</title>
<path fill="none" stroke="#000000" stroke-width="2" stroke-opacity="0.200000" d="M264.06,-387.84C273.38,-385.72 283.44,-382.06 291,-375.75 315.01,-355.71 327.77,-320.45 333.7,-298.69"/>
<polygon fill="#000000" fill-opacity="0.200000" stroke="#000000" stroke-width="2" stroke-opacity="0.200000" points="337.1,-299.51 336.13,-288.96 330.31,-297.81 337.1,-299.51"/>
</g>
<!-- src/widgets/bookmark.ts&#45;&gt;src/render&#45;utils.ts -->
<g id="edge28" class="edge">
<title>src/widgets/bookmark.ts&#45;&gt;src/render&#45;utils.ts</title>
<path fill="none" stroke="#000000" stroke-width="2" stroke-opacity="0.200000" d="M273.72,-354.23C279.82,-352.14 285.84,-349.38 291,-345.75 308.19,-333.63 321.33,-313.16 329.29,-298.22"/>
<polygon fill="#000000" fill-opacity="0.200000" stroke="#000000" stroke-width="2" stroke-opacity="0.200000" points="332.59,-299.44 333.96,-288.94 326.34,-296.3 332.59,-299.44"/>
</g>
<!-- src/widgets/callout.ts&#45;&gt;src/constants.ts -->
<g id="edge29" class="edge">
<title>src/widgets/callout.ts&#45;&gt;src/constants.ts</title>
<path fill="none" stroke="#000000" stroke-width="2" stroke-opacity="0.200000" d="M266.39,-204.95C301.53,-197.77 361.82,-185.46 403.34,-176.97"/>
<polygon fill="#000000" fill-opacity="0.200000" stroke="#000000" stroke-width="2" stroke-opacity="0.200000" points="404.11,-180.39 413.21,-174.96 402.71,-173.53 404.11,-180.39"/>
</g>
<!-- src/widgets/callout.ts&#45;&gt;src/render&#45;utils.ts -->
<g id="edge30" class="edge">
<title>src/widgets/callout.ts&#45;&gt;src/render&#45;utils.ts</title>
<path fill="none" stroke="#000000" stroke-width="2" stroke-opacity="0.200000" d="M266.24,-215.53C274.64,-217.77 283.57,-221.04 291,-225.75 305.72,-235.08 318.42,-250.4 326.89,-262.34"/>
<polygon fill="#000000" fill-opacity="0.200000" stroke="#000000" stroke-width="2" stroke-opacity="0.200000" points="324.01,-264.33 332.51,-270.66 329.81,-260.41 324.01,-264.33"/>
</g>
<!-- src/widgets/code.ts&#45;&gt;src/render&#45;utils.ts -->
<g id="edge31" class="edge">
<title>src/widgets/code.ts&#45;&gt;src/render&#45;utils.ts</title>
<path fill="none" stroke="#000000" stroke-width="2" stroke-opacity="0.200000" d="M264.07,-325.46C272.89,-323.13 282.62,-319.95 291,-315.75 301.61,-310.43 312.22,-302.58 320.66,-295.57"/>
<polygon fill="#000000" fill-opacity="0.200000" stroke="#000000" stroke-width="2" stroke-opacity="0.200000" points="323.03,-298.15 328.3,-288.96 318.45,-292.85 323.03,-298.15"/>
</g>
<!-- src/widgets/collection.ts&#45;&gt;src/constants.ts -->
<g id="edge32" class="edge">
<title>src/widgets/collection.ts&#45;&gt;src/constants.ts</title>
<path fill="none" stroke="#000000" stroke-width="2" stroke-opacity="0.200000" d="M269.95,-99.79C276.89,-101.75 284.19,-103.82 291,-105.75 330.12,-116.84 341.29,-115.55 379,-130.75 394.81,-137.12 411.72,-146.07 424.89,-153.57"/>
<polygon fill="#000000" fill-opacity="0.200000" stroke="#000000" stroke-width="2" stroke-opacity="0.200000" points="423.35,-156.72 433.76,-158.71 426.87,-150.67 423.35,-156.72"/>
</g>
<!-- src/widgets/collection.ts&#45;&gt;src/log&#45;utils.ts -->
<g id="edge33" class="edge">
<title>src/widgets/collection.ts&#45;&gt;src/log&#45;utils.ts</title>
<path fill="none" stroke="#000000" stroke-width="2" stroke-opacity="0.200000" d="M272.76,-85.79C309.85,-80.51 368.55,-72.14 407.78,-66.55"/>
<polygon fill="#000000" fill-opacity="0.200000" stroke="#000000" stroke-width="2" stroke-opacity="0.200000" points="408.39,-70 417.8,-65.12 407.41,-63.07 408.39,-70"/>
</g>
<!-- src/widgets/collection.ts&#45;&gt;src/render&#45;utils.ts -->
<g id="edge34" class="edge">
<title>src/widgets/collection.ts&#45;&gt;src/render&#45;utils.ts</title>
<path fill="none" stroke="#000000" stroke-width="2" stroke-opacity="0.200000" d="M272.73,-95.08C279.5,-97.34 286.03,-100.72 291,-105.75 333.09,-148.34 338.52,-224.49 338.57,-260.22"/>
<polygon fill="#000000" fill-opacity="0.200000" stroke="#000000" stroke-width="2" stroke-opacity="0.200000" points="335.07,-260.64 338.43,-270.68 342.07,-260.73 335.07,-260.64"/>
</g>
<!-- src/widgets/column&#45;helper.ts&#45;&gt;src/constants.ts -->
<g id="edge35" class="edge">
<title>src/widgets/column&#45;helper.ts&#45;&gt;src/constants.ts</title>
<path fill="none" stroke="#000000" stroke-width="2" stroke-opacity="0.200000" d="M283.32,-69.42C312.07,-76.21 349.31,-87.46 379,-104.75 400.41,-117.22 420.92,-137.12 434.04,-151.21"/>
<polygon fill="#000000" fill-opacity="0.200000" stroke="#000000" stroke-width="2" stroke-opacity="0.200000" points="431.55,-153.68 440.86,-158.74 436.74,-148.98 431.55,-153.68"/>
</g>
<!-- src/widgets/column&#45;helper.ts&#45;&gt;src/log&#45;utils.ts -->
<g id="edge36" class="edge">
<title>src/widgets/column&#45;helper.ts&#45;&gt;src/log&#45;utils.ts</title>
<path fill="none" stroke="#000000" stroke-width="2" stroke-opacity="0.200000" d="M283.16,-60.75C320.1,-60.75 371.9,-60.75 407.63,-60.75"/>
<polygon fill="#000000" fill-opacity="0.200000" stroke="#000000" stroke-width="2" stroke-opacity="0.200000" points="407.71,-64.25 417.71,-60.75 407.71,-57.25 407.71,-64.25"/>
</g>
<!-- src/widgets/column&#45;helper.ts&#45;&gt;src/render&#45;utils.ts -->
<g id="edge37" class="edge">
<title>src/widgets/column&#45;helper.ts&#45;&gt;src/render&#45;utils.ts</title>
<path fill="none" stroke="#000000" stroke-width="2" stroke-opacity="0.200000" d="M283.39,-69.71C286.18,-71.4 288.76,-73.39 291,-75.75 316.41,-102.44 331.06,-214.88 336.05,-260.45"/>
<polygon fill="#000000" fill-opacity="0.200000" stroke="#000000" stroke-width="2" stroke-opacity="0.200000" points="332.58,-260.92 337.11,-270.5 339.54,-260.19 332.58,-260.92"/>
</g>
<!-- src/widgets/divider.ts&#45;&gt;src/render&#45;utils.ts -->
<g id="edge38" class="edge">
<title>src/widgets/divider.ts&#45;&gt;src/render&#45;utils.ts</title>
<path fill="none" stroke="#000000" stroke-width="2" stroke-opacity="0.200000" d="M265.59,-294.95C272.83,-293.44 280.85,-291.75 288.85,-290.07"/>
<polygon fill="#000000" fill-opacity="0.200000" stroke="#000000" stroke-width="2" stroke-opacity="0.200000" points="289.83,-293.44 298.9,-287.96 288.39,-286.59 289.83,-293.44"/>
</g>
<!-- src/widgets/embed.ts&#45;&gt;src/render&#45;utils.ts -->
<g id="edge39" class="edge">
<title>src/widgets/embed.ts&#45;&gt;src/render&#45;utils.ts</title>
<path fill="none" stroke="#000000" stroke-width="2" stroke-opacity="0.200000" d="M266.59,-508.4C275.5,-506.3 284.65,-502.51 291,-495.75 317.9,-467.14 331.82,-346.26 336.33,-298.9"/>
<polygon fill="#000000" fill-opacity="0.200000" stroke="#000000" stroke-width="2" stroke-opacity="0.200000" points="339.83,-299.05 337.26,-288.77 332.86,-298.41 339.83,-299.05"/>
</g>
<!-- src/widgets/equation.ts&#45;&gt;src/render&#45;utils.ts -->
<g id="edge40" class="edge">
<title>src/widgets/equation.ts&#45;&gt;src/render&#45;utils.ts</title>
<path fill="none" stroke="#000000" stroke-width="2" stroke-opacity="0.200000" d="M271.15,-477.01C278.49,-474.76 285.67,-471.23 291,-465.75 314.23,-441.85 329.86,-341.66 335.58,-299.05"/>
<polygon fill="#000000" fill-opacity="0.200000" stroke="#000000" stroke-width="2" stroke-opacity="0.200000" points="339.05,-299.47 336.87,-289.11 332.11,-298.57 339.05,-299.47"/>
</g>
<!-- src/widgets/heading.ts&#45;&gt;src/constants.ts -->
<g id="edge41" class="edge">
<title>src/widgets/heading.ts&#45;&gt;src/constants.ts</title>
<path fill="none" stroke="#000000" stroke-width="2" stroke-opacity="0.200000" d="M269.5,-232.24C276.6,-230.21 284.08,-227.98 291,-225.75 334.79,-211.61 384.48,-192.85 416.14,-180.54"/>
<polygon fill="#000000" fill-opacity="0.200000" stroke="#000000" stroke-width="2" stroke-opacity="0.200000" points="417.71,-183.69 425.75,-176.79 415.16,-177.17 417.71,-183.69"/>
</g>
<!-- src/widgets/heading.ts&#45;&gt;src/render&#45;utils.ts -->
<g id="edge42" class="edge">
<title>src/widgets/heading.ts&#45;&gt;src/render&#45;utils.ts</title>
<path fill="none" stroke="#000000" stroke-width="2" stroke-opacity="0.200000" d="M269.73,-248.63C276.81,-250.69 284.23,-253.09 291,-255.75 298.39,-258.65 306.16,-262.33 313.2,-265.94"/>
<polygon fill="#000000" fill-opacity="0.200000" stroke="#000000" stroke-width="2" stroke-opacity="0.200000" points="311.79,-269.15 322.26,-270.73 315.06,-262.96 311.79,-269.15"/>
</g>
<!-- src/widgets/image.ts&#45;&gt;src/render&#45;utils.ts -->
<g id="edge43" class="edge">
<title>src/widgets/image.ts&#45;&gt;src/render&#45;utils.ts</title>
<path fill="none" stroke="#000000" stroke-width="2" stroke-opacity="0.200000" d="M265.19,-448.36C274.41,-446.28 284.11,-442.52 291,-435.75 328.89,-398.49 336.48,-331.91 337.84,-299.11"/>
<polygon fill="#000000" fill-opacity="0.200000" stroke="#000000" stroke-width="2" stroke-opacity="0.200000" points="341.34,-299.1 338.1,-289.02 334.34,-298.92 341.34,-299.1"/>
</g>
<!-- src/widgets/list.ts&#45;&gt;src/constants.ts -->
<g id="edge44" class="edge">
<title>src/widgets/list.ts&#45;&gt;src/constants.ts</title>
<path fill="none" stroke="#000000" stroke-width="2" stroke-opacity="0.200000" d="M264.18,-264.34C272.83,-261.96 282.42,-259.03 291,-255.75 331.66,-240.2 341.11,-234.17 379,-212.75 395.47,-203.44 413.38,-191.8 426.89,-182.7"/>
<polygon fill="#000000" fill-opacity="0.200000" stroke="#000000" stroke-width="2" stroke-opacity="0.200000" points="429.17,-185.38 435.47,-176.86 425.23,-179.59 429.17,-185.38"/>
</g>
<!-- src/widgets/list.ts&#45;&gt;src/render&#45;utils.ts -->
<g id="edge45" class="edge">
<title>src/widgets/list.ts&#45;&gt;src/render&#45;utils.ts</title>
<path fill="none" stroke="#000000" stroke-width="2" stroke-opacity="0.200000" d="M264.01,-273.09C271.67,-273.78 280.3,-274.56 288.9,-275.33"/>
<polygon fill="#000000" fill-opacity="0.200000" stroke="#000000" stroke-width="2" stroke-opacity="0.200000" points="288.65,-278.82 298.92,-276.23 289.28,-271.85 288.65,-278.82"/>
</g>
<!-- src/widgets/quote.ts&#45;&gt;src/render&#45;utils.ts -->
<g id="edge46" class="edge">
<title>src/widgets/quote.ts&#45;&gt;src/render&#45;utils.ts</title>
<path fill="none" stroke="#000000" stroke-width="2" stroke-opacity="0.200000" d="M264.13,-418.29C273.57,-416.23 283.69,-412.49 291,-405.75 321.93,-377.24 332.6,-326.44 336.21,-298.86"/>
<polygon fill="#000000" fill-opacity="0.200000" stroke="#000000" stroke-width="2" stroke-opacity="0.200000" points="339.69,-299.23 337.34,-288.9 332.74,-298.44 339.69,-299.23"/>
</g>
<!-- src/widgets/text.ts&#45;&gt;src/constants.ts -->
<g id="edge47" class="edge">
<title>src/widgets/text.ts&#45;&gt;src/constants.ts</title>
<path fill="none" stroke="#000000" stroke-width="2" stroke-opacity="0.200000" d="M264.23,-126.61C299.03,-134.37 360.97,-148.2 403.35,-157.67"/>
<polygon fill="#000000" fill-opacity="0.200000" stroke="#000000" stroke-width="2" stroke-opacity="0.200000" points="402.62,-161.09 413.14,-159.85 404.15,-154.26 402.62,-161.09"/>
</g>
<!-- src/widgets/text.ts&#45;&gt;src/render&#45;utils.ts -->
<g id="edge48" class="edge">
<title>src/widgets/text.ts&#45;&gt;src/render&#45;utils.ts</title>
<path fill="none" stroke="#000000" stroke-width="2" stroke-opacity="0.200000" d="M264.01,-122.99C273.54,-125.02 283.76,-128.79 291,-135.75 325.97,-169.36 334.95,-229.28 337.23,-260.16"/>
<polygon fill="#000000" fill-opacity="0.200000" stroke="#000000" stroke-width="2" stroke-opacity="0.200000" points="333.76,-260.67 337.82,-270.46 340.75,-260.27 333.76,-260.67"/>
</g>
<!-- src/widgets/to&#45;do.ts&#45;&gt;src/constants.ts -->
<g id="edge49" class="edge">
<title>src/widgets/to&#45;do.ts&#45;&gt;src/constants.ts</title>
<path fill="none" stroke="#000000" stroke-width="2" stroke-opacity="0.200000" d="M264.23,-152.87C298.95,-155.67 360.71,-160.66 403.08,-164.08"/>
<polygon fill="#000000" fill-opacity="0.200000" stroke="#000000" stroke-width="2" stroke-opacity="0.200000" points="402.89,-167.58 413.14,-164.89 403.46,-160.6 402.89,-167.58"/>
</g>
<!-- src/widgets/to&#45;do.ts&#45;&gt;src/render&#45;utils.ts -->
<g id="edge50" class="edge">
<title>src/widgets/to&#45;do.ts&#45;&gt;src/render&#45;utils.ts</title>
<path fill="none" stroke="#000000" stroke-width="2" stroke-opacity="0.200000" d="M264.01,-153.34C273.43,-155.42 283.57,-159.13 291,-165.75 319.13,-190.81 330.79,-235.28 335.34,-260.63"/>
<polygon fill="#000000" fill-opacity="0.200000" stroke="#000000" stroke-width="2" stroke-opacity="0.200000" points="331.88,-261.19 336.92,-270.51 338.79,-260.08 331.88,-261.19"/>
</g>
<!-- src/widgets/toggle.ts&#45;&gt;src/constants.ts -->
<g id="edge51" class="edge">
<title>src/widgets/toggle.ts&#45;&gt;src/constants.ts</title>
<path fill="none" stroke="#000000" stroke-width="2" stroke-opacity="0.200000" d="M265.09,-179.08C299.99,-176.92 361.18,-173.14 403.21,-170.55"/>
<polygon fill="#000000" fill-opacity="0.200000" stroke="#000000" stroke-width="2" stroke-opacity="0.200000" points="403.7,-174.02 413.46,-169.91 403.26,-167.04 403.7,-174.02"/>
</g>
<!-- src/widgets/toggle.ts&#45;&gt;src/render&#45;utils.ts -->
<g id="edge52" class="edge">
<title>src/widgets/toggle.ts&#45;&gt;src/render&#45;utils.ts</title>
<path fill="none" stroke="#000000" stroke-width="2" stroke-opacity="0.200000" d="M265.24,-184.2C274.15,-186.38 283.64,-189.94 291,-195.75 312.26,-212.53 325.44,-241.74 332.25,-260.91"/>
<polygon fill="#000000" fill-opacity="0.200000" stroke="#000000" stroke-width="2" stroke-opacity="0.200000" points="329,-262.23 335.46,-270.62 335.65,-260.03 329,-262.23"/>
</g>
</g>
</svg>
