<?xml version="1.0" encoding="UTF-8" standalone="no"?>
<!DOCTYPE svg PUBLIC "-//W3C//DTD SVG 1.1//EN"
 "http://www.w3.org/Graphics/SVG/1.1/DTD/svg11.dtd">
<!-- Generated by graphviz version 2.40.1 (0)
 -->
<!-- Title: dependency&#45;cruiser output Pages: 1 -->
<svg width="529pt" height="612pt"
 viewBox="0.00 0.00 529.00 611.71" xmlns="http://www.w3.org/2000/svg" xmlns:xlink="http://www.w3.org/1999/xlink">
<g id="graph0" class="graph" transform="scale(1 1) rotate(0) translate(4 607.7122)">
<title>dependency&#45;cruiser output</title>
<polygon fill="#ffffff" stroke="transparent" points="-4,4 -4,-607.7122 525,-607.7122 525,4 -4,4"/>
<g id="clust1" class="cluster">
<title>cluster_src</title>
<path fill="#ffffff" stroke="#000000" stroke-width="2" d="M20,-11.7122C20,-11.7122 501,-11.7122 501,-11.7122 507,-11.7122 513,-17.7122 513,-23.7122 513,-23.7122 513,-583.7122 513,-583.7122 513,-589.7122 507,-595.7122 501,-595.7122 501,-595.7122 20,-595.7122 20,-595.7122 14,-595.7122 8,-589.7122 8,-583.7122 8,-583.7122 8,-23.7122 8,-23.7122 8,-17.7122 14,-11.7122 20,-11.7122"/>
<text text-anchor="middle" x="260.5" y="-584.5122" font-family="Helvetica,sans-Serif" font-weight="bold" font-size="9.00" fill="#000000">src</text>
</g>
<g id="clust2" class="cluster">
<title>cluster_src/widgets</title>
<path fill="#ffffff" stroke="#000000" stroke-width="2" d="M194,-43.7122C194,-43.7122 278,-43.7122 278,-43.7122 284,-43.7122 290,-49.7122 290,-55.7122 290,-55.7122 290,-533.7122 290,-533.7122 290,-539.7122 284,-545.7122 278,-545.7122 278,-545.7122 194,-545.7122 194,-545.7122 188,-545.7122 182,-539.7122 182,-533.7122 182,-533.7122 182,-55.7122 182,-55.7122 182,-49.7122 188,-43.7122 194,-43.7122"/>
<text text-anchor="middle" x="236" y="-534.5122" font-family="Helvetica,sans-Serif" font-weight="bold" font-size="9.00" fill="#000000">widgets</text>
</g>
<!-- src/constants.ts -->
<g id="node1" class="node">
<title>src/constants.ts</title>
<g id="a_node1"><a xlink:href="https://github.com/dragonman225/nast-util-to-html/tree/master/src/constants.ts" xlink:title="constants.ts">
<path fill="#ddfeff" stroke="#000000" d="M477,-176.7122C477,-176.7122 418,-176.7122 418,-176.7122 415,-176.7122 412,-173.7122 412,-170.7122 412,-170.7122 412,-164.7122 412,-164.7122 412,-161.7122 415,-158.7122 418,-158.7122 418,-158.7122 477,-158.7122 477,-158.7122 480,-158.7122 483,-161.7122 483,-164.7122 483,-164.7122 483,-170.7122 483,-170.7122 483,-173.7122 480,-176.7122 477,-176.7122"/>
<text text-anchor="middle" x="447.5" y="-165.5122" font-family="Helvetica,sans-Serif" font-size="9.00" fill="#000000">constants.ts</text>
</a>
</g>
</g>
<!-- src/index.ts -->
<g id="node2" class="node">
<title>src/index.ts</title>
<g id="a_node2"><a xlink:href="https://github.com/dragonman225/nast-util-to-html/tree/master/src/index.ts" xlink:title="index.ts">
<path fill="#ddfeff" stroke="#000000" d="M64,-439.7122C64,-439.7122 22,-439.7122 22,-439.7122 19,-439.7122 16,-436.7122 16,-433.7122 16,-433.7122 16,-427.7122 16,-427.7122 16,-424.7122 19,-421.7122 22,-421.7122 22,-421.7122 64,-421.7122 64,-421.7122 67,-421.7122 70,-424.7122 70,-427.7122 70,-427.7122 70,-433.7122 70,-433.7122 70,-436.7122 67,-439.7122 64,-439.7122"/>
<text text-anchor="middle" x="43" y="-428.5122" font-family="Helvetica,sans-Serif" font-size="9.00" fill="#000000">index.ts</text>
</a>
</g>
</g>
<!-- src/render&#45;control.ts -->
<g id="node5" class="node">
<title>src/render&#45;control.ts</title>
<g id="a_node5"><a xlink:href="https://github.com/dragonman225/nast-util-to-html/tree/master/src/render-control.ts" xlink:title="render&#45;control.ts">
<path fill="#ddfeff" stroke="#000000" d="M168,-294.7122C168,-294.7122 89,-294.7122 89,-294.7122 86,-294.7122 83,-291.7122 83,-288.7122 83,-288.7122 83,-282.7122 83,-282.7122 83,-279.7122 86,-276.7122 89,-276.7122 89,-276.7122 168,-276.7122 168,-276.7122 171,-276.7122 174,-279.7122 174,-282.7122 174,-282.7122 174,-288.7122 174,-288.7122 174,-291.7122 171,-294.7122 168,-294.7122"/>
<text text-anchor="middle" x="128.5" y="-283.5122" font-family="Helvetica,sans-Serif" font-size="9.00" fill="#000000">render&#45;control.ts</text>
</a>
</g>
</g>
<!-- src/index.ts&#45;&gt;src/render&#45;control.ts -->
<g id="edge1" class="edge">
<title>src/index.ts&#45;&gt;src/render&#45;control.ts</title>
<path fill="none" stroke="#000000" stroke-width="2" stroke-opacity="0.466667" d="M48.3484,-421.6418C62.2036,-398.1447 99.4626,-334.9568 117.887,-303.7108"/>
<polygon fill="#000000" fill-opacity="0.466667" stroke="#000000" stroke-width="2" stroke-opacity="0.466667" points="121.0892,-305.1709 123.1536,-294.7791 115.0594,-301.6154 121.0892,-305.1709"/>
</g>
<!-- src/render&#45;utils.ts -->
<g id="node7" class="node">
<title>src/render&#45;utils.ts</title>
<g id="a_node7"><a xlink:href="https://github.com/dragonman225/nast-util-to-html/tree/master/src/render-utils.ts" xlink:title="render&#45;utils.ts">
<path fill="#ddfeff" stroke="#000000" d="M371,-288.7122C371,-288.7122 304,-288.7122 304,-288.7122 301,-288.7122 298,-285.7122 298,-282.7122 298,-282.7122 298,-276.7122 298,-276.7122 298,-273.7122 301,-270.7122 304,-270.7122 304,-270.7122 371,-270.7122 371,-270.7122 374,-270.7122 377,-273.7122 377,-276.7122 377,-276.7122 377,-282.7122 377,-282.7122 377,-285.7122 374,-288.7122 371,-288.7122"/>
<text text-anchor="middle" x="337.5" y="-277.5122" font-family="Helvetica,sans-Serif" font-size="9.00" fill="#000000">render&#45;utils.ts</text>
</a>
</g>
</g>
<!-- src/index.ts&#45;&gt;src/render&#45;utils.ts -->
<g id="edge2" class="edge">
<title>src/index.ts&#45;&gt;src/render&#45;utils.ts</title>
<path fill="none" stroke="#000000" stroke-width="2" stroke-opacity="0.466667" d="M50.1579,-439.9555C81.3866,-479.2195 207.8133,-627.0472 290,-557.7122 309.9525,-540.8797 329.6251,-359.1758 335.6382,-298.9671"/>
<polygon fill="#000000" fill-opacity="0.466667" stroke="#000000" stroke-width="2" stroke-opacity="0.466667" points="339.131,-299.2112 336.6271,-288.9165 332.1647,-298.5258 339.131,-299.2112"/>
</g>
<!-- src/log&#45;utils.ts -->
<g id="node3" class="node">
<title>src/log&#45;utils.ts</title>
<g id="a_node3"><a xlink:href="https://github.com/dragonman225/nast-util-to-html/tree/master/src/log-utils.ts" xlink:title="log&#45;utils.ts">
<path fill="#ddfeff" stroke="#000000" d="M473,-69.7122C473,-69.7122 422,-69.7122 422,-69.7122 419,-69.7122 416,-66.7122 416,-63.7122 416,-63.7122 416,-57.7122 416,-57.7122 416,-54.7122 419,-51.7122 422,-51.7122 422,-51.7122 473,-51.7122 473,-51.7122 476,-51.7122 479,-54.7122 479,-57.7122 479,-57.7122 479,-63.7122 479,-63.7122 479,-66.7122 476,-69.7122 473,-69.7122"/>
<text text-anchor="middle" x="447.5" y="-58.5122" font-family="Helvetica,sans-Serif" font-size="9.00" fill="#000000">log&#45;utils.ts</text>
</a>
</g>
</g>
<!-- src/notion&#45;utils.ts -->
<g id="node4" class="node">
<title>src/notion&#45;utils.ts</title>
<g id="a_node4"><a xlink:href="https://github.com/dragonman225/nast-util-to-html/tree/master/src/notion-utils.ts" xlink:title="notion&#45;utils.ts">
<path fill="#ddfeff" stroke="#000000" d="M480.5,-258.7122C480.5,-258.7122 414.5,-258.7122 414.5,-258.7122 411.5,-258.7122 408.5,-255.7122 408.5,-252.7122 408.5,-252.7122 408.5,-246.7122 408.5,-246.7122 408.5,-243.7122 411.5,-240.7122 414.5,-240.7122 414.5,-240.7122 480.5,-240.7122 480.5,-240.7122 483.5,-240.7122 486.5,-243.7122 486.5,-246.7122 486.5,-246.7122 486.5,-252.7122 486.5,-252.7122 486.5,-255.7122 483.5,-258.7122 480.5,-258.7122"/>
<text text-anchor="middle" x="447.5" y="-247.5122" font-family="Helvetica,sans-Serif" font-size="9.00" fill="#000000">notion&#45;utils.ts</text>
</a>
</g>
</g>
<!-- src/render&#45;control.ts&#45;&gt;src/constants.ts -->
<g id="edge3" class="edge">
<title>src/render&#45;control.ts&#45;&gt;src/constants.ts</title>
<path fill="none" stroke="#000000" stroke-width="2" stroke-opacity="0.466667" d="M129.0185,-276.6183C131.5441,-235.9356 144.0202,-71.2934 182,-40.7122 216.149,-13.2155 341.76,-44.6284 377,-70.7122 405.4576,-91.7758 427.2185,-127.6617 438.6212,-149.3805"/>
<polygon fill="#000000" fill-opacity="0.466667" stroke="#000000" stroke-width="2" stroke-opacity="0.466667" points="435.607,-151.1757 443.2449,-158.5183 441.8529,-148.0153 435.607,-151.1757"/>
</g>
<!-- src/render&#45;control.ts&#45;&gt;src/log&#45;utils.ts -->
<g id="edge4" class="edge">
<title>src/render&#45;control.ts&#45;&gt;src/log&#45;utils.ts</title>
<path fill="none" stroke="#000000" stroke-width="2" stroke-opacity="0.466667" d="M128.9017,-276.6733C130.9731,-234.6841 141.9509,-59.3341 182,-26.7122 252.9126,31.0496 371.7174,-20.1007 422.8601,-46.8388"/>
<polygon fill="#000000" fill-opacity="0.466667" stroke="#000000" stroke-width="2" stroke-opacity="0.466667" points="421.4069,-50.0308 431.8744,-51.6686 424.7129,-43.8607 421.4069,-50.0308"/>
</g>
<!-- src/render&#45;control.ts&#45;&gt;src/render&#45;utils.ts -->
<g id="edge5" class="edge">
<title>src/render&#45;control.ts&#45;&gt;src/render&#45;utils.ts</title>
<path fill="none" stroke="#000000" stroke-width="2" stroke-opacity="0.466667" d="M128.8778,-294.8888C130.8415,-337.5184 141.4074,-515.5456 182,-548.7122 200.5852,-563.8974 271.613,-564.1368 290,-548.7122 328.2446,-516.6291 335.7107,-355.3936 337.1563,-299.1238"/>
<polygon fill="#000000" fill-opacity="0.466667" stroke="#000000" stroke-width="2" stroke-opacity="0.466667" points="340.6627,-298.8681 337.3824,-288.7939 333.6644,-298.7149 340.6627,-298.8681"/>
</g>
<!-- src/widgets/audio.ts -->
<g id="node8" class="node">
<title>src/widgets/audio.ts</title>
<g id="a_node8"><a xlink:href="https://github.com/dragonman225/nast-util-to-html/tree/master/src/widgets/audio.ts" xlink:title="audio.ts">
<path fill="#ddfeff" stroke="#000000" d="M257,-399.7122C257,-399.7122 215,-399.7122 215,-399.7122 212,-399.7122 209,-396.7122 209,-393.7122 209,-393.7122 209,-387.7122 209,-387.7122 209,-384.7122 212,-381.7122 215,-381.7122 215,-381.7122 257,-381.7122 257,-381.7122 260,-381.7122 263,-384.7122 263,-387.7122 263,-387.7122 263,-393.7122 263,-393.7122 263,-396.7122 260,-399.7122 257,-399.7122"/>
<text text-anchor="middle" x="236" y="-388.5122" font-family="Helvetica,sans-Serif" font-size="9.00" fill="#000000">audio.ts</text>
</a>
</g>
</g>
<!-- src/render&#45;control.ts&#45;&gt;src/widgets/audio.ts -->
<g id="edge6" class="edge">
<title>src/render&#45;control.ts&#45;&gt;src/widgets/audio.ts</title>
<path fill="none" stroke="#000000" stroke-width="2" stroke-opacity="0.466667" d="M131.3687,-294.9401C137.5387,-313.2335 153.8406,-354.1846 182,-375.7122 187.0727,-379.5902 193.0933,-382.4657 199.2423,-384.5978"/>
<polygon fill="#000000" fill-opacity="0.466667" stroke="#000000" stroke-width="2" stroke-opacity="0.466667" points="198.3153,-387.973 208.8931,-387.3736 200.2502,-381.2458 198.3153,-387.973"/>
</g>
<!-- src/widgets/bookmark.ts -->
<g id="node9" class="node">
<title>src/widgets/bookmark.ts</title>
<g id="a_node9"><a xlink:href="https://github.com/dragonman225/nast-util-to-html/tree/master/src/widgets/bookmark.ts" xlink:title="bookmark.ts">
<path fill="#ddfeff" stroke="#000000" d="M266.5,-369.7122C266.5,-369.7122 205.5,-369.7122 205.5,-369.7122 202.5,-369.7122 199.5,-366.7122 199.5,-363.7122 199.5,-363.7122 199.5,-357.7122 199.5,-357.7122 199.5,-354.7122 202.5,-351.7122 205.5,-351.7122 205.5,-351.7122 266.5,-351.7122 266.5,-351.7122 269.5,-351.7122 272.5,-354.7122 272.5,-357.7122 272.5,-357.7122 272.5,-363.7122 272.5,-363.7122 272.5,-366.7122 269.5,-369.7122 266.5,-369.7122"/>
<text text-anchor="middle" x="236" y="-358.5122" font-family="Helvetica,sans-Serif" font-size="9.00" fill="#000000">bookmark.ts</text>
</a>
</g>
</g>
<!-- src/render&#45;control.ts&#45;&gt;src/widgets/bookmark.ts -->
<g id="edge7" class="edge">
<title>src/render&#45;control.ts&#45;&gt;src/widgets/bookmark.ts</title>
<path fill="none" stroke="#000000" stroke-width="2" stroke-opacity="0.466667" d="M134.207,-294.9265C142.8875,-308.1668 160.6729,-332.4368 182,-345.7122 184.4781,-347.2547 187.117,-348.6417 189.8449,-349.8884"/>
<polygon fill="#000000" fill-opacity="0.466667" stroke="#000000" stroke-width="2" stroke-opacity="0.466667" points="188.7708,-353.2264 199.3587,-353.6091 191.3203,-346.7072 188.7708,-353.2264"/>
</g>
<!-- src/widgets/callout.ts -->
<g id="node10" class="node">
<title>src/widgets/callout.ts</title>
<g id="a_node10"><a xlink:href="https://github.com/dragonman225/nast-util-to-html/tree/master/src/widgets/callout.ts" xlink:title="callout.ts">
<path fill="#ddfeff" stroke="#000000" d="M259,-219.7122C259,-219.7122 213,-219.7122 213,-219.7122 210,-219.7122 207,-216.7122 207,-213.7122 207,-213.7122 207,-207.7122 207,-207.7122 207,-204.7122 210,-201.7122 213,-201.7122 213,-201.7122 259,-201.7122 259,-201.7122 262,-201.7122 265,-204.7122 265,-207.7122 265,-207.7122 265,-213.7122 265,-213.7122 265,-216.7122 262,-219.7122 259,-219.7122"/>
<text text-anchor="middle" x="236" y="-208.5122" font-family="Helvetica,sans-Serif" font-size="9.00" fill="#000000">callout.ts</text>
</a>
</g>
</g>
<!-- src/render&#45;control.ts&#45;&gt;src/widgets/callout.ts -->
<g id="edge8" class="edge">
<title>src/render&#45;control.ts&#45;&gt;src/widgets/callout.ts</title>
<path fill="none" stroke="#000000" stroke-width="2" stroke-opacity="0.466667" d="M134.207,-276.4978C142.8875,-263.2575 160.6729,-238.9875 182,-225.7122 186.6981,-222.7877 191.974,-220.4224 197.3391,-218.512"/>
<polygon fill="#000000" fill-opacity="0.466667" stroke="#000000" stroke-width="2" stroke-opacity="0.466667" points="198.4594,-221.8293 206.9871,-215.5422 196.4,-215.1391 198.4594,-221.8293"/>
</g>
<!-- src/widgets/code.ts -->
<g id="node11" class="node">
<title>src/widgets/code.ts</title>
<g id="a_node11"><a xlink:href="https://github.com/dragonman225/nast-util-to-html/tree/master/src/widgets/code.ts" xlink:title="code.ts">
<path fill="#ddfeff" stroke="#000000" d="M257,-339.7122C257,-339.7122 215,-339.7122 215,-339.7122 212,-339.7122 209,-336.7122 209,-333.7122 209,-333.7122 209,-327.7122 209,-327.7122 209,-324.7122 212,-321.7122 215,-321.7122 215,-321.7122 257,-321.7122 257,-321.7122 260,-321.7122 263,-324.7122 263,-327.7122 263,-327.7122 263,-333.7122 263,-333.7122 263,-336.7122 260,-339.7122 257,-339.7122"/>
<text text-anchor="middle" x="236" y="-328.5122" font-family="Helvetica,sans-Serif" font-size="9.00" fill="#000000">code.ts</text>
</a>
</g>
</g>
<!-- src/render&#45;control.ts&#45;&gt;src/widgets/code.ts -->
<g id="edge9" class="edge">
<title>src/render&#45;control.ts&#45;&gt;src/widgets/code.ts</title>
<path fill="none" stroke="#000000" stroke-width="2" stroke-opacity="0.466667" d="M142.5619,-294.8326C153.0882,-301.3492 168.0199,-309.9492 182,-315.7122 187.4747,-317.969 193.3982,-320.0005 199.2478,-321.7863"/>
<polygon fill="#000000" fill-opacity="0.466667" stroke="#000000" stroke-width="2" stroke-opacity="0.466667" points="198.3532,-325.1707 208.9302,-324.5561 200.2785,-318.4407 198.3532,-325.1707"/>
</g>
<!-- src/widgets/collection.ts -->
<g id="node12" class="node">
<title>src/widgets/collection.ts</title>
<g id="a_node12"><a xlink:href="https://github.com/dragonman225/nast-util-to-html/tree/master/src/widgets/collection.ts" xlink:title="collection.ts">
<path fill="#ddfeff" stroke="#000000" d="M265.5,-99.7122C265.5,-99.7122 206.5,-99.7122 206.5,-99.7122 203.5,-99.7122 200.5,-96.7122 200.5,-93.7122 200.5,-93.7122 200.5,-87.7122 200.5,-87.7122 200.5,-84.7122 203.5,-81.7122 206.5,-81.7122 206.5,-81.7122 265.5,-81.7122 265.5,-81.7122 268.5,-81.7122 271.5,-84.7122 271.5,-87.7122 271.5,-87.7122 271.5,-93.7122 271.5,-93.7122 271.5,-96.7122 268.5,-99.7122 265.5,-99.7122"/>
<text text-anchor="middle" x="236" y="-88.5122" font-family="Helvetica,sans-Serif" font-size="9.00" fill="#000000">collection.ts</text>
</a>
</g>
</g>
<!-- src/render&#45;control.ts&#45;&gt;src/widgets/collection.ts -->
<g id="edge10" class="edge">
<title>src/render&#45;control.ts&#45;&gt;src/widgets/collection.ts</title>
<path fill="none" stroke="#000000" stroke-width="2" stroke-opacity="0.466667" d="M130.0107,-276.6373C135.6777,-243.6331 156.6482,-130.6127 182,-105.7122 184.6921,-103.068 187.8077,-100.8808 191.1569,-99.0727"/>
<polygon fill="#000000" fill-opacity="0.466667" stroke="#000000" stroke-width="2" stroke-opacity="0.466667" points="192.6092,-102.2584 200.437,-95.1186 189.8653,-95.8185 192.6092,-102.2584"/>
</g>
<!-- src/widgets/column&#45;helper.ts -->
<g id="node13" class="node">
<title>src/widgets/column&#45;helper.ts</title>
<g id="a_node13"><a xlink:href="https://github.com/dragonman225/nast-util-to-html/tree/master/src/widgets/column-helper.ts" xlink:title="column&#45;helper.ts">
<path fill="#ddfeff" stroke="#000000" d="M276,-69.7122C276,-69.7122 196,-69.7122 196,-69.7122 193,-69.7122 190,-66.7122 190,-63.7122 190,-63.7122 190,-57.7122 190,-57.7122 190,-54.7122 193,-51.7122 196,-51.7122 196,-51.7122 276,-51.7122 276,-51.7122 279,-51.7122 282,-54.7122 282,-57.7122 282,-57.7122 282,-63.7122 282,-63.7122 282,-66.7122 279,-69.7122 276,-69.7122"/>
<text text-anchor="middle" x="236" y="-58.5122" font-family="Helvetica,sans-Serif" font-size="9.00" fill="#000000">column&#45;helper.ts</text>
</a>
</g>
</g>
<!-- src/render&#45;control.ts&#45;&gt;src/widgets/column&#45;helper.ts -->
<g id="edge11" class="edge">
<title>src/render&#45;control.ts&#45;&gt;src/widgets/column&#45;helper.ts</title>
<path fill="none" stroke="#000000" stroke-width="2" stroke-opacity="0.466667" d="M129.596,-276.6756C133.8912,-242.6107 150.6332,-121.9026 183.1173,-77.475"/>
<polygon fill="#000000" fill-opacity="0.466667" stroke="#000000" stroke-width="2" stroke-opacity="0.466667" points="185.971,-79.5239 189.825,-69.6548 180.6578,-74.9665 185.971,-79.5239"/>
</g>
<!-- src/widgets/divider.ts -->
<g id="node14" class="node">
<title>src/widgets/divider.ts</title>
<g id="a_node14"><a xlink:href="https://github.com/dragonman225/nast-util-to-html/tree/master/src/widgets/divider.ts" xlink:title="divider.ts">
<path fill="#ddfeff" stroke="#000000" d="M259,-309.7122C259,-309.7122 213,-309.7122 213,-309.7122 210,-309.7122 207,-306.7122 207,-303.7122 207,-303.7122 207,-297.7122 207,-297.7122 207,-294.7122 210,-291.7122 213,-291.7122 213,-291.7122 259,-291.7122 259,-291.7122 262,-291.7122 265,-294.7122 265,-297.7122 265,-297.7122 265,-303.7122 265,-303.7122 265,-306.7122 262,-309.7122 259,-309.7122"/>
<text text-anchor="middle" x="236" y="-298.5122" font-family="Helvetica,sans-Serif" font-size="9.00" fill="#000000">divider.ts</text>
</a>
</g>
</g>
<!-- src/render&#45;control.ts&#45;&gt;src/widgets/divider.ts -->
<g id="edge12" class="edge">
<title>src/render&#45;control.ts&#45;&gt;src/widgets/divider.ts</title>
<path fill="none" stroke="#000000" stroke-width="2" stroke-opacity="0.466667" d="M174.0897,-292.0735C181.6353,-293.1264 189.4006,-294.2099 196.772,-295.2385"/>
<polygon fill="#000000" fill-opacity="0.466667" stroke="#000000" stroke-width="2" stroke-opacity="0.466667" points="196.4791,-298.7314 206.8669,-296.6471 197.4465,-291.7986 196.4791,-298.7314"/>
</g>
<!-- src/widgets/embed.ts -->
<g id="node15" class="node">
<title>src/widgets/embed.ts</title>
<g id="a_node15"><a xlink:href="https://github.com/dragonman225/nast-util-to-html/tree/master/src/widgets/embed.ts" xlink:title="embed.ts">
<path fill="#ddfeff" stroke="#000000" d="M259.5,-519.7122C259.5,-519.7122 212.5,-519.7122 212.5,-519.7122 209.5,-519.7122 206.5,-516.7122 206.5,-513.7122 206.5,-513.7122 206.5,-507.7122 206.5,-507.7122 206.5,-504.7122 209.5,-501.7122 212.5,-501.7122 212.5,-501.7122 259.5,-501.7122 259.5,-501.7122 262.5,-501.7122 265.5,-504.7122 265.5,-507.7122 265.5,-507.7122 265.5,-513.7122 265.5,-513.7122 265.5,-516.7122 262.5,-519.7122 259.5,-519.7122"/>
<text text-anchor="middle" x="236" y="-508.5122" font-family="Helvetica,sans-Serif" font-size="9.00" fill="#000000">embed.ts</text>
</a>
</g>
</g>
<!-- src/render&#45;control.ts&#45;&gt;src/widgets/embed.ts -->
<g id="edge13" class="edge">
<title>src/render&#45;control.ts&#45;&gt;src/widgets/embed.ts</title>
<path fill="none" stroke="#000000" stroke-width="2" stroke-opacity="0.466667" d="M129.596,-294.7487C134.1775,-331.0846 152.9208,-466.0012 182,-495.7122 186.0409,-499.8409 191.1123,-502.8613 196.5186,-505.0655"/>
<polygon fill="#000000" fill-opacity="0.466667" stroke="#000000" stroke-width="2" stroke-opacity="0.466667" points="195.8716,-508.5319 206.4617,-508.2145 197.9851,-501.8585 195.8716,-508.5319"/>
</g>
<!-- src/widgets/equation.ts -->
<g id="node16" class="node">
<title>src/widgets/equation.ts</title>
<g id="a_node16"><a xlink:href="https://github.com/dragonman225/nast-util-to-html/tree/master/src/widgets/equation.ts" xlink:title="equation.ts">
<path fill="#ddfeff" stroke="#000000" d="M263.5,-489.7122C263.5,-489.7122 208.5,-489.7122 208.5,-489.7122 205.5,-489.7122 202.5,-486.7122 202.5,-483.7122 202.5,-483.7122 202.5,-477.7122 202.5,-477.7122 202.5,-474.7122 205.5,-471.7122 208.5,-471.7122 208.5,-471.7122 263.5,-471.7122 263.5,-471.7122 266.5,-471.7122 269.5,-474.7122 269.5,-477.7122 269.5,-477.7122 269.5,-483.7122 269.5,-483.7122 269.5,-486.7122 266.5,-489.7122 263.5,-489.7122"/>
<text text-anchor="middle" x="236" y="-478.5122" font-family="Helvetica,sans-Serif" font-size="9.00" fill="#000000">equation.ts</text>
</a>
</g>
</g>
<!-- src/render&#45;control.ts&#45;&gt;src/widgets/equation.ts -->
<g id="edge14" class="edge">
<title>src/render&#45;control.ts&#45;&gt;src/widgets/equation.ts</title>
<path fill="none" stroke="#000000" stroke-width="2" stroke-opacity="0.466667" d="M130.0107,-294.787C135.6777,-327.7912 156.6482,-440.8116 182,-465.7122 185.1237,-468.7803 188.8178,-471.2333 192.7852,-473.1925"/>
<polygon fill="#000000" fill-opacity="0.466667" stroke="#000000" stroke-width="2" stroke-opacity="0.466667" points="191.81,-476.5684 202.3988,-476.9254 194.3438,-470.0431 191.81,-476.5684"/>
</g>
<!-- src/widgets/heading.ts -->
<g id="node17" class="node">
<title>src/widgets/heading.ts</title>
<g id="a_node17"><a xlink:href="https://github.com/dragonman225/nast-util-to-html/tree/master/src/widgets/heading.ts" xlink:title="heading.ts">
<path fill="#ddfeff" stroke="#000000" d="M262,-249.7122C262,-249.7122 210,-249.7122 210,-249.7122 207,-249.7122 204,-246.7122 204,-243.7122 204,-243.7122 204,-237.7122 204,-237.7122 204,-234.7122 207,-231.7122 210,-231.7122 210,-231.7122 262,-231.7122 262,-231.7122 265,-231.7122 268,-234.7122 268,-237.7122 268,-237.7122 268,-243.7122 268,-243.7122 268,-246.7122 265,-249.7122 262,-249.7122"/>
<text text-anchor="middle" x="236" y="-238.5122" font-family="Helvetica,sans-Serif" font-size="9.00" fill="#000000">heading.ts</text>
</a>
</g>
</g>
<!-- src/render&#45;control.ts&#45;&gt;src/widgets/heading.ts -->
<g id="edge15" class="edge">
<title>src/render&#45;control.ts&#45;&gt;src/widgets/heading.ts</title>
<path fill="none" stroke="#000000" stroke-width="2" stroke-opacity="0.466667" d="M142.5619,-276.5917C153.0882,-270.0751 168.0199,-261.4751 182,-255.7122 185.8962,-254.106 190.0198,-252.614 194.1823,-251.2434"/>
<polygon fill="#000000" fill-opacity="0.466667" stroke="#000000" stroke-width="2" stroke-opacity="0.466667" points="195.3429,-254.5485 203.8766,-248.2694 193.2898,-247.8563 195.3429,-254.5485"/>
</g>
<!-- src/widgets/image.ts -->
<g id="node18" class="node">
<title>src/widgets/image.ts</title>
<g id="a_node18"><a xlink:href="https://github.com/dragonman225/nast-util-to-html/tree/master/src/widgets/image.ts" xlink:title="image.ts">
<path fill="#ddfeff" stroke="#000000" d="M258,-459.7122C258,-459.7122 214,-459.7122 214,-459.7122 211,-459.7122 208,-456.7122 208,-453.7122 208,-453.7122 208,-447.7122 208,-447.7122 208,-444.7122 211,-441.7122 214,-441.7122 214,-441.7122 258,-441.7122 258,-441.7122 261,-441.7122 264,-444.7122 264,-447.7122 264,-447.7122 264,-453.7122 264,-453.7122 264,-456.7122 261,-459.7122 258,-459.7122"/>
<text text-anchor="middle" x="236" y="-448.5122" font-family="Helvetica,sans-Serif" font-size="9.00" fill="#000000">image.ts</text>
</a>
</g>
</g>
<!-- src/render&#45;control.ts&#45;&gt;src/widgets/image.ts -->
<g id="edge16" class="edge">
<title>src/render&#45;control.ts&#45;&gt;src/widgets/image.ts</title>
<path fill="none" stroke="#000000" stroke-width="2" stroke-opacity="0.466667" d="M128.9706,-295.0425C130.81,-321.2779 139.7022,-396.3416 182,-435.7122 186.517,-439.9166 192.1102,-442.9584 197.9691,-445.1556"/>
<polygon fill="#000000" fill-opacity="0.466667" stroke="#000000" stroke-width="2" stroke-opacity="0.466667" points="197.3546,-448.624 207.9371,-448.1122 199.3452,-441.913 197.3546,-448.624"/>
</g>
<!-- src/widgets/list.ts -->
<g id="node19" class="node">
<title>src/widgets/list.ts</title>
<g id="a_node19"><a xlink:href="https://github.com/dragonman225/nast-util-to-html/tree/master/src/widgets/list.ts" xlink:title="list.ts">
<path fill="#ddfeff" stroke="#000000" d="M257,-279.7122C257,-279.7122 215,-279.7122 215,-279.7122 212,-279.7122 209,-276.7122 209,-273.7122 209,-273.7122 209,-267.7122 209,-267.7122 209,-264.7122 212,-261.7122 215,-261.7122 215,-261.7122 257,-261.7122 257,-261.7122 260,-261.7122 263,-264.7122 263,-267.7122 263,-267.7122 263,-273.7122 263,-273.7122 263,-276.7122 260,-279.7122 257,-279.7122"/>
<text text-anchor="middle" x="236" y="-268.5122" font-family="Helvetica,sans-Serif" font-size="9.00" fill="#000000">list.ts</text>
</a>
</g>
</g>
<!-- src/render&#45;control.ts&#45;&gt;src/widgets/list.ts -->
<g id="edge17" class="edge">
<title>src/render&#45;control.ts&#45;&gt;src/widgets/list.ts</title>
<path fill="none" stroke="#000000" stroke-width="2" stroke-opacity="0.466667" d="M174.0897,-279.3508C182.2862,-278.2071 190.742,-277.0272 198.6705,-275.9209"/>
<polygon fill="#000000" fill-opacity="0.466667" stroke="#000000" stroke-width="2" stroke-opacity="0.466667" points="199.303,-279.3667 208.7234,-274.5182 198.3356,-272.4338 199.303,-279.3667"/>
</g>
<!-- src/widgets/quote.ts -->
<g id="node20" class="node">
<title>src/widgets/quote.ts</title>
<g id="a_node20"><a xlink:href="https://github.com/dragonman225/nast-util-to-html/tree/master/src/widgets/quote.ts" xlink:title="quote.ts">
<path fill="#ddfeff" stroke="#000000" d="M257,-429.7122C257,-429.7122 215,-429.7122 215,-429.7122 212,-429.7122 209,-426.7122 209,-423.7122 209,-423.7122 209,-417.7122 209,-417.7122 209,-414.7122 212,-411.7122 215,-411.7122 215,-411.7122 257,-411.7122 257,-411.7122 260,-411.7122 263,-414.7122 263,-417.7122 263,-417.7122 263,-423.7122 263,-423.7122 263,-426.7122 260,-429.7122 257,-429.7122"/>
<text text-anchor="middle" x="236" y="-418.5122" font-family="Helvetica,sans-Serif" font-size="9.00" fill="#000000">quote.ts</text>
</a>
</g>
</g>
<!-- src/render&#45;control.ts&#45;&gt;src/widgets/quote.ts -->
<g id="edge18" class="edge">
<title>src/render&#45;control.ts&#45;&gt;src/widgets/quote.ts</title>
<path fill="none" stroke="#000000" stroke-width="2" stroke-opacity="0.466667" d="M129.8619,-294.7947C133.7056,-317.1719 146.7473,-375.3391 182,-405.7122 186.8858,-409.9217 192.8615,-412.957 199.0353,-415.1438"/>
<polygon fill="#000000" fill-opacity="0.466667" stroke="#000000" stroke-width="2" stroke-opacity="0.466667" points="198.1947,-418.5437 208.7716,-417.9289 200.1198,-411.8136 198.1947,-418.5437"/>
</g>
<!-- src/widgets/text.ts -->
<g id="node21" class="node">
<title>src/widgets/text.ts</title>
<g id="a_node21"><a xlink:href="https://github.com/dragonman225/nast-util-to-html/tree/master/src/widgets/text.ts" xlink:title="text.ts">
<path fill="#ddfeff" stroke="#000000" d="M257,-129.7122C257,-129.7122 215,-129.7122 215,-129.7122 212,-129.7122 209,-126.7122 209,-123.7122 209,-123.7122 209,-117.7122 209,-117.7122 209,-114.7122 212,-111.7122 215,-111.7122 215,-111.7122 257,-111.7122 257,-111.7122 260,-111.7122 263,-114.7122 263,-117.7122 263,-117.7122 263,-123.7122 263,-123.7122 263,-126.7122 260,-129.7122 257,-129.7122"/>
<text text-anchor="middle" x="236" y="-118.5122" font-family="Helvetica,sans-Serif" font-size="9.00" fill="#000000">text.ts</text>
</a>
</g>
</g>
<!-- src/render&#45;control.ts&#45;&gt;src/widgets/text.ts -->
<g id="edge19" class="edge">
<title>src/render&#45;control.ts&#45;&gt;src/widgets/text.ts</title>
<path fill="none" stroke="#000000" stroke-width="2" stroke-opacity="0.466667" d="M128.9706,-276.3818C130.81,-250.1464 139.7022,-175.0827 182,-135.7122 186.7674,-131.2747 192.7336,-128.1323 198.9458,-125.911"/>
<polygon fill="#000000" fill-opacity="0.466667" stroke="#000000" stroke-width="2" stroke-opacity="0.466667" points="200.107,-129.2198 208.7733,-123.125 198.1978,-122.4852 200.107,-129.2198"/>
</g>
<!-- src/widgets/to&#45;do.ts -->
<g id="node22" class="node">
<title>src/widgets/to&#45;do.ts</title>
<g id="a_node22"><a xlink:href="https://github.com/dragonman225/nast-util-to-html/tree/master/src/widgets/to-do.ts" xlink:title="to&#45;do.ts">
<path fill="#ddfeff" stroke="#000000" d="M257,-159.7122C257,-159.7122 215,-159.7122 215,-159.7122 212,-159.7122 209,-156.7122 209,-153.7122 209,-153.7122 209,-147.7122 209,-147.7122 209,-144.7122 212,-141.7122 215,-141.7122 215,-141.7122 257,-141.7122 257,-141.7122 260,-141.7122 263,-144.7122 263,-147.7122 263,-147.7122 263,-153.7122 263,-153.7122 263,-156.7122 260,-159.7122 257,-159.7122"/>
<text text-anchor="middle" x="236" y="-148.5122" font-family="Helvetica,sans-Serif" font-size="9.00" fill="#000000">to&#45;do.ts</text>
</a>
</g>
</g>
<!-- src/render&#45;control.ts&#45;&gt;src/widgets/to&#45;do.ts -->
<g id="edge20" class="edge">
<title>src/render&#45;control.ts&#45;&gt;src/widgets/to&#45;do.ts</title>
<path fill="none" stroke="#000000" stroke-width="2" stroke-opacity="0.466667" d="M129.8619,-276.6296C133.7056,-254.2524 146.7473,-196.0852 182,-165.7122 186.8858,-161.5026 192.8615,-158.4673 199.0353,-156.2805"/>
<polygon fill="#000000" fill-opacity="0.466667" stroke="#000000" stroke-width="2" stroke-opacity="0.466667" points="200.1198,-159.6107 208.7716,-153.4954 198.1947,-152.8806 200.1198,-159.6107"/>
</g>
<!-- src/widgets/toggle.ts -->
<g id="node23" class="node">
<title>src/widgets/toggle.ts</title>
<g id="a_node23"><a xlink:href="https://github.com/dragonman225/nast-util-to-html/tree/master/src/widgets/toggle.ts" xlink:title="toggle.ts">
<path fill="#ddfeff" stroke="#000000" d="M258,-189.7122C258,-189.7122 214,-189.7122 214,-189.7122 211,-189.7122 208,-186.7122 208,-183.7122 208,-183.7122 208,-177.7122 208,-177.7122 208,-174.7122 211,-171.7122 214,-171.7122 214,-171.7122 258,-171.7122 258,-171.7122 261,-171.7122 264,-174.7122 264,-177.7122 264,-177.7122 264,-183.7122 264,-183.7122 264,-186.7122 261,-189.7122 258,-189.7122"/>
<text text-anchor="middle" x="236" y="-178.5122" font-family="Helvetica,sans-Serif" font-size="9.00" fill="#000000">toggle.ts</text>
</a>
</g>
</g>
<!-- src/render&#45;control.ts&#45;&gt;src/widgets/toggle.ts -->
<g id="edge21" class="edge">
<title>src/render&#45;control.ts&#45;&gt;src/widgets/toggle.ts</title>
<path fill="none" stroke="#000000" stroke-width="2" stroke-opacity="0.466667" d="M131.3687,-276.4842C137.5387,-258.1908 153.8406,-217.2397 182,-195.7122 186.7539,-192.0779 192.3401,-189.3241 198.0845,-187.2374"/>
<polygon fill="#000000" fill-opacity="0.466667" stroke="#000000" stroke-width="2" stroke-opacity="0.466667" points="199.2155,-190.5522 207.7821,-184.318 197.1976,-183.8493 199.2155,-190.5522"/>
</g>
<!-- src/render&#45;utils&#45;prismjs.ts -->
<g id="node6" class="node">
<title>src/render&#45;utils&#45;prismjs.ts</title>
<g id="a_node6"><a xlink:href="https://github.com/dragonman225/nast-util-to-html/tree/master/src/render-utils-prismjs.ts" xlink:title="render&#45;utils&#45;prismjs.ts">
<path fill="#ddfeff" stroke="#000000" d="M499,-288.7122C499,-288.7122 396,-288.7122 396,-288.7122 393,-288.7122 390,-285.7122 390,-282.7122 390,-282.7122 390,-276.7122 390,-276.7122 390,-273.7122 393,-270.7122 396,-270.7122 396,-270.7122 499,-270.7122 499,-270.7122 502,-270.7122 505,-273.7122 505,-276.7122 505,-276.7122 505,-282.7122 505,-282.7122 505,-285.7122 502,-288.7122 499,-288.7122"/>
<text text-anchor="middle" x="447.5" y="-277.5122" font-family="Helvetica,sans-Serif" font-size="9.00" fill="#000000">render&#45;utils&#45;prismjs.ts</text>
</a>
</g>
</g>
<!-- src/render&#45;utils&#45;prismjs.ts&#45;&gt;src/render&#45;utils.ts -->
<g id="edge22" class="edge">
<title>src/render&#45;utils&#45;prismjs.ts&#45;&gt;src/render&#45;utils.ts</title>
<path fill="none" stroke="#000000" stroke-width="2" stroke-opacity="0.466667" d="M389.6612,-284.2068C388.8728,-284.2039 388.0852,-284.1997 387.2991,-284.1942"/>
<polygon fill="#000000" fill-opacity="0.466667" stroke="#000000" stroke-width="2" stroke-opacity="0.466667" points="387.2603,-280.6934 377.2125,-284.054 387.1629,-287.6928 387.2603,-280.6934"/>
</g>
<!-- src/render&#45;utils.ts&#45;&gt;src/constants.ts -->
<g id="edge23" class="edge">
<title>src/render&#45;utils.ts&#45;&gt;src/constants.ts</title>
<path fill="none" stroke="#000000" stroke-width="2" stroke-opacity="0.466667" d="M358.6464,-270.6807C365.0503,-267.2609 371.7662,-262.9132 377,-257.7122 385.3289,-249.4354 383.2556,-244.3241 390,-234.7122 402.8322,-216.4241 419.691,-197.2425 431.8319,-184.1128"/>
<polygon fill="#000000" fill-opacity="0.466667" stroke="#000000" stroke-width="2" stroke-opacity="0.466667" points="434.4183,-186.4714 438.7035,-176.7819 429.3111,-181.6843 434.4183,-186.4714"/>
</g>
<!-- src/render&#45;utils.ts&#45;&gt;src/log&#45;utils.ts -->
<g id="edge24" class="edge">
<title>src/render&#45;utils.ts&#45;&gt;src/log&#45;utils.ts</title>
<path fill="none" stroke="#000000" stroke-width="2" stroke-opacity="0.466667" d="M340.6899,-270.5493C348.2061,-249.3256 368.0557,-195.3518 390,-152.7122 403.8719,-125.7579 423.0286,-96.3321 435.3422,-78.1963"/>
<polygon fill="#000000" fill-opacity="0.466667" stroke="#000000" stroke-width="2" stroke-opacity="0.466667" points="438.3216,-80.0402 441.0933,-69.8144 432.5496,-76.0798 438.3216,-80.0402"/>
</g>
<!-- src/render&#45;utils.ts&#45;&gt;src/notion&#45;utils.ts -->
<g id="edge25" class="edge">
<title>src/render&#45;utils.ts&#45;&gt;src/notion&#45;utils.ts</title>
<path fill="none" stroke="#000000" stroke-width="2" stroke-opacity="0.466667" d="M368.5589,-270.7097C375.6002,-268.7046 383.0505,-266.6111 390,-264.7122 394.0305,-263.6108 398.2249,-262.4825 402.4303,-261.3634"/>
<polygon fill="#000000" fill-opacity="0.466667" stroke="#000000" stroke-width="2" stroke-opacity="0.466667" points="403.4166,-264.723 412.1915,-258.7856 401.6292,-257.955 403.4166,-264.723"/>
</g>
<!-- src/render&#45;utils.ts&#45;&gt;src/render&#45;utils&#45;prismjs.ts -->
<g id="edge26" class="edge">
<title>src/render&#45;utils.ts&#45;&gt;src/render&#45;utils&#45;prismjs.ts</title>
<path fill="none" stroke="#000000" stroke-width="2" stroke-opacity="0.466667" d="M377.2125,-275.3704C377.9741,-275.3542 378.7399,-275.3393 379.5093,-275.3256"/>
<polygon fill="#000000" fill-opacity="0.466667" stroke="#000000" stroke-width="2" stroke-opacity="0.466667" points="379.699,-278.8239 389.6612,-275.2175 379.6244,-271.8243 379.699,-278.8239"/>
</g>
<!-- src/widgets/audio.ts&#45;&gt;src/render&#45;utils.ts -->
<g id="edge27" class="edge">
<title>src/widgets/audio.ts&#45;&gt;src/render&#45;utils.ts</title>
<path fill="none" stroke="#000000" stroke-width="2" stroke-opacity="0.466667" d="M263.0886,-387.7633C272.4253,-385.6323 282.4279,-381.9762 290,-375.7122 314.1467,-355.7369 327.0865,-320.4577 333.1102,-298.6808"/>
<polygon fill="#000000" fill-opacity="0.466667" stroke="#000000" stroke-width="2" stroke-opacity="0.466667" points="336.515,-299.4929 335.5917,-288.9384 329.7316,-297.765 336.515,-299.4929"/>
</g>
<!-- src/widgets/bookmark.ts&#45;&gt;src/render&#45;utils.ts -->
<g id="edge28" class="edge">
<title>src/widgets/bookmark.ts&#45;&gt;src/render&#45;utils.ts</title>
<path fill="none" stroke="#000000" stroke-width="2" stroke-opacity="0.466667" d="M272.6608,-354.1636C278.7778,-352.0775 284.8124,-349.3299 290,-345.7122 307.3116,-333.6396 320.603,-313.1589 328.6659,-298.2077"/>
<polygon fill="#000000" fill-opacity="0.466667" stroke="#000000" stroke-width="2" stroke-opacity="0.466667" points="331.9806,-299.4113 333.3977,-288.9116 325.7422,-296.2359 331.9806,-299.4113"/>
</g>
<!-- src/widgets/callout.ts&#45;&gt;src/constants.ts -->
<g id="edge29" class="edge">
<title>src/widgets/callout.ts&#45;&gt;src/constants.ts</title>
<path fill="none" stroke="#000000" stroke-width="2" stroke-opacity="0.466667" d="M265.4082,-204.7332C300.8505,-197.5274 360.79,-185.3411 402.164,-176.9294"/>
<polygon fill="#000000" fill-opacity="0.466667" stroke="#000000" stroke-width="2" stroke-opacity="0.466667" points="402.8932,-180.3528 411.9953,-174.9306 401.4985,-173.4932 402.8932,-180.3528"/>
</g>
<!-- src/widgets/callout.ts&#45;&gt;src/render&#45;utils.ts -->
<g id="edge30" class="edge">
<title>src/widgets/callout.ts&#45;&gt;src/render&#45;utils.ts</title>
<path fill="none" stroke="#000000" stroke-width="2" stroke-opacity="0.466667" d="M265.0326,-215.5106C273.5072,-217.7525 282.4989,-221.0078 290,-225.7122 304.8352,-235.0162 317.6722,-250.3334 326.2477,-262.2826"/>
<polygon fill="#000000" fill-opacity="0.466667" stroke="#000000" stroke-width="2" stroke-opacity="0.466667" points="323.4054,-264.3268 331.9373,-270.6083 329.1848,-260.3773 323.4054,-264.3268"/>
</g>
<!-- src/widgets/code.ts&#45;&gt;src/render&#45;utils.ts -->
<g id="edge31" class="edge">
<title>src/widgets/code.ts&#45;&gt;src/render&#45;utils.ts</title>
<path fill="none" stroke="#000000" stroke-width="2" stroke-opacity="0.466667" d="M263.1044,-325.3153C271.9426,-323.0023 281.6291,-319.8568 290,-315.7122 300.7103,-310.4092 311.4251,-302.5633 319.9603,-295.5486"/>
<polygon fill="#000000" fill-opacity="0.466667" stroke="#000000" stroke-width="2" stroke-opacity="0.466667" points="322.3656,-298.0968 327.6879,-288.9358 317.8144,-292.7783 322.3656,-298.0968"/>
</g>
<!-- src/widgets/collection.ts&#45;&gt;src/constants.ts -->
<g id="edge32" class="edge">
<title>src/widgets/collection.ts&#45;&gt;src/constants.ts</title>
<path fill="none" stroke="#000000" stroke-width="2" stroke-opacity="0.466667" d="M268.8529,-99.7878C275.8368,-101.7312 283.1647,-103.7808 290,-105.7122 328.7156,-116.6517 339.6619,-115.7311 377,-130.7122 393.0008,-137.1321 410.1451,-146.0792 423.5204,-153.567"/>
<polygon fill="#000000" fill-opacity="0.466667" stroke="#000000" stroke-width="2" stroke-opacity="0.466667" points="422.1032,-156.7881 432.5233,-158.7044 425.5725,-150.7083 422.1032,-156.7881"/>
</g>
<!-- src/widgets/collection.ts&#45;&gt;src/log&#45;utils.ts -->
<g id="edge33" class="edge">
<title>src/widgets/collection.ts&#45;&gt;src/log&#45;utils.ts</title>
<path fill="none" stroke="#000000" stroke-width="2" stroke-opacity="0.466667" d="M271.8781,-85.6231C308.9864,-80.3595 366.8714,-72.1488 405.9454,-66.6064"/>
<polygon fill="#000000" fill-opacity="0.466667" stroke="#000000" stroke-width="2" stroke-opacity="0.466667" points="406.5323,-70.0583 415.9417,-65.1885 405.5492,-63.1277 406.5323,-70.0583"/>
</g>
<!-- src/widgets/collection.ts&#45;&gt;src/render&#45;utils.ts -->
<g id="edge34" class="edge">
<title>src/widgets/collection.ts&#45;&gt;src/render&#45;utils.ts</title>
<path fill="none" stroke="#000000" stroke-width="2" stroke-opacity="0.466667" d="M271.649,-95.032C278.4444,-97.2959 284.9887,-100.6785 290,-105.7122 311.9107,-127.7206 328.3839,-220.082 334.6919,-260.5635"/>
<polygon fill="#000000" fill-opacity="0.466667" stroke="#000000" stroke-width="2" stroke-opacity="0.466667" points="331.2394,-261.1411 336.1976,-270.5041 338.1604,-260.0927 331.2394,-261.1411"/>
</g>
<!-- src/widgets/column&#45;helper.ts&#45;&gt;src/constants.ts -->
<g id="edge35" class="edge">
<title>src/widgets/column&#45;helper.ts&#45;&gt;src/constants.ts</title>
<path fill="none" stroke="#000000" stroke-width="2" stroke-opacity="0.466667" d="M282.262,-69.6517C310.8685,-76.4793 347.6072,-87.6671 377,-104.7122 398.366,-117.1025 418.9713,-136.6922 432.3287,-150.7377"/>
<polygon fill="#000000" fill-opacity="0.466667" stroke="#000000" stroke-width="2" stroke-opacity="0.466667" points="429.9433,-153.313 439.3068,-158.2705 435.0785,-148.5559 429.9433,-153.313"/>
</g>
<!-- src/widgets/column&#45;helper.ts&#45;&gt;src/log&#45;utils.ts -->
<g id="edge36" class="edge">
<title>src/widgets/column&#45;helper.ts&#45;&gt;src/log&#45;utils.ts</title>
<path fill="none" stroke="#000000" stroke-width="2" stroke-opacity="0.466667" d="M282.1532,-60.7122C318.9917,-60.7122 370.1562,-60.7122 405.7774,-60.7122"/>
<polygon fill="#000000" fill-opacity="0.466667" stroke="#000000" stroke-width="2" stroke-opacity="0.466667" points="405.843,-64.2123 415.843,-60.7122 405.843,-57.2123 405.843,-64.2123"/>
</g>
<!-- src/widgets/column&#45;helper.ts&#45;&gt;src/render&#45;utils.ts -->
<g id="edge37" class="edge">
<title>src/widgets/column&#45;helper.ts&#45;&gt;src/render&#45;utils.ts</title>
<path fill="none" stroke="#000000" stroke-width="2" stroke-opacity="0.466667" d="M282.2305,-69.6011C285.0768,-71.3058 287.7106,-73.3241 290,-75.7122 315.5192,-102.3311 330.4167,-214.8113 335.5055,-260.4009"/>
<polygon fill="#000000" fill-opacity="0.466667" stroke="#000000" stroke-width="2" stroke-opacity="0.466667" points="332.0378,-260.8895 336.5885,-270.4573 338.9976,-260.14 332.0378,-260.8895"/>
</g>
<!-- src/widgets/divider.ts&#45;&gt;src/render&#45;utils.ts -->
<g id="edge38" class="edge">
<title>src/widgets/divider.ts&#45;&gt;src/render&#45;utils.ts</title>
<path fill="none" stroke="#000000" stroke-width="2" stroke-opacity="0.466667" d="M265.0858,-294.6944C272.2527,-293.2116 280.1293,-291.582 287.9671,-289.9603"/>
<polygon fill="#000000" fill-opacity="0.466667" stroke="#000000" stroke-width="2" stroke-opacity="0.466667" points="288.7345,-293.3758 297.818,-287.9222 287.3162,-286.521 288.7345,-293.3758"/>
</g>
<!-- src/widgets/embed.ts&#45;&gt;src/render&#45;utils.ts -->
<g id="edge39" class="edge">
<title>src/widgets/embed.ts&#45;&gt;src/render&#45;utils.ts</title>
<path fill="none" stroke="#000000" stroke-width="2" stroke-opacity="0.466667" d="M265.6686,-508.34C274.5694,-506.2199 283.6443,-502.4239 290,-495.7122 317.0114,-467.1875 331.1898,-346.2561 335.7925,-298.8697"/>
<polygon fill="#000000" fill-opacity="0.466667" stroke="#000000" stroke-width="2" stroke-opacity="0.466667" points="339.2933,-299.0232 336.7375,-288.7413 332.3236,-298.3729 339.2933,-299.0232"/>
</g>
<!-- src/widgets/equation.ts&#45;&gt;src/render&#45;utils.ts -->
<g id="edge40" class="edge">
<title>src/widgets/equation.ts&#45;&gt;src/render&#45;utils.ts</title>
<path fill="none" stroke="#000000" stroke-width="2" stroke-opacity="0.466667" d="M269.753,-477.077C277.238,-474.8239 284.5538,-471.2735 290,-465.7122 313.3324,-441.8866 329.2123,-341.6518 335.0333,-299.0262"/>
<polygon fill="#000000" fill-opacity="0.466667" stroke="#000000" stroke-width="2" stroke-opacity="0.466667" points="338.508,-299.4476 336.351,-289.0747 331.5686,-298.5287 338.508,-299.4476"/>
</g>
<!-- src/widgets/heading.ts&#45;&gt;src/constants.ts -->
<g id="edge41" class="edge">
<title>src/widgets/heading.ts&#45;&gt;src/constants.ts</title>
<path fill="none" stroke="#000000" stroke-width="2" stroke-opacity="0.466667" d="M268.1089,-232.2568C275.3429,-230.2233 282.9616,-227.98 290,-225.7122 333.796,-211.6008 383.4888,-192.83 415.1399,-180.5172"/>
<polygon fill="#000000" fill-opacity="0.466667" stroke="#000000" stroke-width="2" stroke-opacity="0.466667" points="416.712,-183.6606 424.7519,-176.7605 414.1639,-177.1408 416.712,-183.6606"/>
</g>
<!-- src/widgets/heading.ts&#45;&gt;src/render&#45;utils.ts -->
<g id="edge42" class="edge">
<title>src/widgets/heading.ts&#45;&gt;src/render&#45;utils.ts</title>
<path fill="none" stroke="#000000" stroke-width="2" stroke-opacity="0.466667" d="M268.0353,-248.4898C275.3442,-250.5723 283.0133,-253.0071 290,-255.7122 297.4637,-258.6019 305.3151,-262.284 312.4371,-265.8913"/>
<polygon fill="#000000" fill-opacity="0.466667" stroke="#000000" stroke-width="2" stroke-opacity="0.466667" points="311.1092,-269.1467 321.5921,-270.6827 314.3551,-262.9447 311.1092,-269.1467"/>
</g>
<!-- src/widgets/image.ts&#45;&gt;src/render&#45;utils.ts -->
<g id="edge43" class="edge">
<title>src/widgets/image.ts&#45;&gt;src/render&#45;utils.ts</title>
<path fill="none" stroke="#000000" stroke-width="2" stroke-opacity="0.466667" d="M264.2392,-448.2972C273.4675,-446.2065 283.1053,-442.4391 290,-435.7122 309.7414,-416.4509 326.9482,-336.1409 334.0427,-298.8693"/>
<polygon fill="#000000" fill-opacity="0.466667" stroke="#000000" stroke-width="2" stroke-opacity="0.466667" points="337.528,-299.27 335.9114,-288.7992 330.6455,-297.9927 337.528,-299.27"/>
</g>
<!-- src/widgets/list.ts&#45;&gt;src/constants.ts -->
<g id="edge44" class="edge">
<title>src/widgets/list.ts&#45;&gt;src/constants.ts</title>
<path fill="none" stroke="#000000" stroke-width="2" stroke-opacity="0.466667" d="M263.2408,-264.2162C271.9063,-261.8664 281.4563,-258.9768 290,-255.7122 341.2193,-236.1405 396.0362,-202.1872 425.5807,-182.6723"/>
<polygon fill="#000000" fill-opacity="0.466667" stroke="#000000" stroke-width="2" stroke-opacity="0.466667" points="427.8787,-185.3464 434.2485,-176.8802 423.9894,-179.5262 427.8787,-185.3464"/>
</g>
<!-- src/widgets/list.ts&#45;&gt;src/render&#45;utils.ts -->
<g id="edge45" class="edge">
<title>src/widgets/list.ts&#45;&gt;src/render&#45;utils.ts</title>
<path fill="none" stroke="#000000" stroke-width="2" stroke-opacity="0.466667" d="M263.2001,-273.124C270.7147,-273.7903 279.1143,-274.5351 287.4873,-275.2775"/>
<polygon fill="#000000" fill-opacity="0.466667" stroke="#000000" stroke-width="2" stroke-opacity="0.466667" points="287.3557,-278.7795 297.6258,-276.1765 287.974,-271.8069 287.3557,-278.7795"/>
</g>
<!-- src/widgets/quote.ts&#45;&gt;src/render&#45;utils.ts -->
<g id="edge46" class="edge">
<title>src/widgets/quote.ts&#45;&gt;src/render&#45;utils.ts</title>
<path fill="none" stroke="#000000" stroke-width="2" stroke-opacity="0.466667" d="M263.1613,-418.2284C272.6147,-416.1502 282.6751,-412.4087 290,-405.7122 321.0876,-377.2912 331.9447,-326.462 335.649,-298.8453"/>
<polygon fill="#000000" fill-opacity="0.466667" stroke="#000000" stroke-width="2" stroke-opacity="0.466667" points="339.1303,-299.2086 336.807,-288.8716 332.177,-298.4012 339.1303,-299.2086"/>
</g>
<!-- src/widgets/text.ts&#45;&gt;src/constants.ts -->
<g id="edge47" class="edge">
<title>src/widgets/text.ts&#45;&gt;src/constants.ts</title>
<path fill="none" stroke="#000000" stroke-width="2" stroke-opacity="0.466667" d="M263.2169,-126.7604C298.3347,-134.5643 359.9231,-148.2506 402.1624,-157.6371"/>
<polygon fill="#000000" fill-opacity="0.466667" stroke="#000000" stroke-width="2" stroke-opacity="0.466667" points="401.4033,-161.0538 411.9245,-159.8065 402.9219,-154.2205 401.4033,-161.0538"/>
</g>
<!-- src/widgets/text.ts&#45;&gt;src/render&#45;utils.ts -->
<g id="edge48" class="edge">
<title>src/widgets/text.ts&#45;&gt;src/render&#45;utils.ts</title>
<path fill="none" stroke="#000000" stroke-width="2" stroke-opacity="0.466667" d="M263.037,-122.9709C272.5883,-125.0176 282.7466,-128.7965 290,-135.7122 308.3098,-153.1692 325.9006,-225.5817 333.5314,-260.5909"/>
<polygon fill="#000000" fill-opacity="0.466667" stroke="#000000" stroke-width="2" stroke-opacity="0.466667" points="330.141,-261.4746 335.6473,-270.5262 336.9875,-260.0165 330.141,-261.4746"/>
</g>
<!-- src/widgets/to&#45;do.ts&#45;&gt;src/constants.ts -->
<g id="edge49" class="edge">
<title>src/widgets/to&#45;do.ts&#45;&gt;src/constants.ts</title>
<path fill="none" stroke="#000000" stroke-width="2" stroke-opacity="0.466667" d="M263.2169,-152.8998C298.2606,-155.7166 359.6634,-160.652 401.8948,-164.0465"/>
<polygon fill="#000000" fill-opacity="0.466667" stroke="#000000" stroke-width="2" stroke-opacity="0.466667" points="401.6762,-167.5401 411.9245,-164.8527 402.2371,-160.5626 401.6762,-167.5401"/>
</g>
<!-- src/widgets/to&#45;do.ts&#45;&gt;src/render&#45;utils.ts -->
<g id="edge50" class="edge">
<title>src/widgets/to&#45;do.ts&#45;&gt;src/render&#45;utils.ts</title>
<path fill="none" stroke="#000000" stroke-width="2" stroke-opacity="0.466667" d="M263.0379,-153.3333C272.4779,-155.4263 282.5614,-159.1422 290,-165.7122 318.2773,-190.6877 330.1231,-235.1884 334.7663,-260.5735"/>
<polygon fill="#000000" fill-opacity="0.466667" stroke="#000000" stroke-width="2" stroke-opacity="0.466667" points="331.3154,-261.1585 336.3843,-270.4621 338.2235,-260.0281 331.3154,-261.1585"/>
</g>
<!-- src/widgets/toggle.ts&#45;&gt;src/constants.ts -->
<g id="edge51" class="edge">
<title>src/widgets/toggle.ts&#45;&gt;src/constants.ts</title>
<path fill="none" stroke="#000000" stroke-width="2" stroke-opacity="0.466667" d="M264.0856,-178.9859C299.2022,-176.8274 359.7837,-173.1037 401.6602,-170.5297"/>
<polygon fill="#000000" fill-opacity="0.466667" stroke="#000000" stroke-width="2" stroke-opacity="0.466667" points="402.1105,-174.0088 411.8769,-169.9018 401.681,-167.0219 402.1105,-174.0088"/>
</g>
<!-- src/widgets/toggle.ts&#45;&gt;src/render&#45;utils.ts -->
<g id="edge52" class="edge">
<title>src/widgets/toggle.ts&#45;&gt;src/render&#45;utils.ts</title>
<path fill="none" stroke="#000000" stroke-width="2" stroke-opacity="0.466667" d="M264.012,-184.1562C273.011,-186.3377 282.5646,-189.8991 290,-195.7122 311.3936,-212.4378 324.7384,-241.6585 331.6503,-260.8463"/>
<polygon fill="#000000" fill-opacity="0.466667" stroke="#000000" stroke-width="2" stroke-opacity="0.466667" points="328.4145,-262.2056 334.9139,-270.5727 335.0509,-259.9787 328.4145,-262.2056"/>
</g>
</g>
</svg>
